<?xml version="1.0" encoding="utf-8" ?>
<svg baseProfile="full" height="300mm" version="1.1" viewBox="0,0,200,300" width="200mm" xmlns="http://www.w3.org/2000/svg" xmlns:ev="http://www.w3.org/2001/xml-events" xmlns:xlink="http://www.w3.org/1999/xlink"><defs /><rect fill="#222222" height="300" width="200" x="0" y="0" /><text fill="#FFFFFF" style="font-size:12px; font-family:Arial; font-weight:bold;" x="10" y="20">Over 42km Runs</text><text fill="#FFFFFF" style="font-size:4px; font-family:Arial" x="10" y="280">Runner</text><text fill="#FFFFFF" style="font-size:9px; font-family:Arial" x="10" y="290">tianwei</text><text fill="#FFFFFF" style="font-size:4px; font-family:Arial" x="65" y="280">SPECIAL TRACKS</text><rect fill="yellow" height="2.6" width="2.6" x="65" y="283" /><text fill="#FFFFFF" style="font-size:3px; font-family:Arial" x="70" y="285.5">Over 20.0 km</text><rect fill="red" height="2.6" width="2.6" x="65" y="287" /><text fill="#FFFFFF" style="font-size:3px; font-family:Arial" x="70" y="289.5">Over 40.0 km</text><text fill="#FFFFFF" style="font-size:4px; font-family:Arial" x="120" y="280">STATISTICS</text><text fill="#FFFFFF" style="font-size:3px; font-family:Arial" x="120" y="285">Number: 6</text><text fill="#FFFFFF" style="font-size:3px; font-family:Arial" x="120" y="290">Weekly: 1.0</text><text fill="#FFFFFF" style="font-size:3px; font-family:Arial" x="141" y="285">Total: 257.5 km</text><text fill="#FFFFFF" style="font-size:3px; font-family:Arial" x="141" y="290">Avg: 42.9 km</text><text fill="#FFFFFF" style="font-size:3px; font-family:Arial" x="167" y="285">Min: 42.5 km</text><text fill="#FFFFFF" style="font-size:3px; font-family:Arial" x="167" y="290">Max: 44.2 km</text><polyline fill="none" points="67.89880204750807,42.109975275743636 67.4925682307512,42.57037766900612 67.00929006942897,42.505759947955084 66.81317719235085,42.319983711262466 66.46997965752962,41.56071985633753 66.51200384547701,41.34263210713834 65.7625724938116,40.026015747804195 65.83961683837697,39.832156307064 65.23727014454198,38.93555032541917 63.48626231364324,34.0 58.44335976065486,35.28440308894642 55.92190848413156,36.762652991645155 54.360009498981526,37.473495744859974 52.25880010193214,37.473495744859974 50.1365786108654,37.20693044750806 49.772368981997715,37.28770790348062 49.53423191700131,38.18433222544991 49.625284324225504,38.70130027169216 49.32411097729346,38.82246417762508 48.49763528112089,38.79015382052603 49.18403035085066,38.8547745217511 50.22763101803139,39.61406387858733 50.024514109652955,39.71099391968892 50.12257054820657,39.80792384414963 49.89844154583989,40.599513862143795 50.91402608776116,41.81111617371789 50.75993739863043,42.109975275743636 50.977062369696796,42.38460158133239 50.87200189981377,43.40232619862218 50.991070432326524,43.64463968898053 51.250219591282075,43.87887537030474 52.07669528751285,45.51850607389497 52.60199763675337,45.97081212080229 53.18333223660011,46.17273364348512 53.428473332955036,46.415038802835625 53.526529771479545,46.560421548718296 53.456489458243595,46.66542003540235 53.6455983039632,46.9077237132733 53.58956605338608,47.42463579107425 53.77167086780537,47.723474073485704 55.13745697590639,49.00765840382519 54.780251378397224,49.22572540856345 55.403610166191356,49.516480497019074 55.76081576370052,49.960687634462374 53.21835239324719,51.99593266638112 52.4759250729403,52.35128763992543 51.866574347775895,52.472431022819364 49.513219823042164,53.57886549423711 49.28208678934607,53.821148387971334 49.40115532188793,53.86960487932811 49.30309888336342,54.0068981132863 48.035369213757804,54.564144720985496 47.713183772866614,54.596448754040466 47.22290158024407,54.41070038729231 46.48047425990808,54.35416819070815 46.613550855079666,54.49146059933264 46.22832913228194,54.25725576145487 43.98703910873155,54.03920236965496 43.825946388271404,54.0068981132863 43.80493429431226,53.813072303259105 42.3270836850279,53.950365633492765 41.94886599353049,54.07150661306514 42.01190227546613,54.18457136306097 41.556640239432454,54.25725576145487 41.35352333105402,54.64490477930667 41.07336207811022,54.83872858916584 40.47101538424613,55.01640000540647 40.23287831924972,55.28290639554325 40.267898475867696,55.444424991052074 38.446850331733,55.94513058042503 38.50288258231012,56.276240632811096 38.061628608964384,56.30854397971416 37.96357217041077,56.42968141541496 38.208713266736595,56.68810733650025 38.13166892217123,57.067668906129256 38.27174954864313,57.334168514782505 39.24530990264611,57.94792183845129 39.41340665440657,58.79586282217497 39.35737440382945,59.03005447446776 40.49903150956379,60.04756892708974 40.68113632398308,60.5966983757462 41.22044673588243,60.87126169758267 41.45157976957853,61.24272823299543 41.9068418055831,61.557665911561344 41.885829711623956,61.67072016278689 42.278055465751095,61.912978738771926 42.208015152515145,62.59937408459518 42.50918849944719,62.89008094021847 42.68428928250796,63.269613313212176 43.69286979312892,63.964072179369396 43.98003507737303,63.996372446192254 44.1971600484394,64.31129936960497 44.16213989179232,64.73120002092764 44.981611556664575,65.37719675347762 45.5069139059633,65.58714457731548 45.92015175402048,65.91014016205008 46.676587136957096,65.885915538056 46.683591168315616,66.07971232614364 46.21432106959401,66.83067048108205 47.08282095377217,67.31515590217168 47.16686932966695,67.58969634883397 47.55209105243557,67.81578777961113 47.45403461388196,67.54932281234505 46.87970404536463,67.31515590217168 46.40342991537182,66.84682004201022 45.79407919020741,66.50767858331528 45.31080102888518,64.81194989552023 44.1061076412152,64.50509994192544 43.62983351122239,64.23862403491512 43.293640007672366,63.86717130126635 42.32007965366938,63.31806412586593 41.15040642264648,62.12293558251986 41.052349984121975,61.33963226510241 40.82121695045498,61.18620082712005 39.59551146882586,58.83624074178806 37.47328997775912,56.58312190596189 37.22114485010388,56.81731998638861 38.35579792453791,56.35699897584709 37.641386729548685,56.48621215643652 36.91997150320094,56.785016843328776 36.53474978040322,57.14842645634053 37.47328997775912,56.80924420181691 36.828919095976744,56.970759739102505 35.88337486729142,57.471455848164624 34.31447185081197,58.860467483871616 32.52143983193673,59.91028598050616 32.62650030181976,59.82145571408182 33.00471799328807,60.35443584473978 34.41252828936558,60.83896017882944 35.23199995417963,60.66937699310802 36.91997150320094,60.548245927777316 37.83049557523918,60.66937699310802 38.33478583054966,60.99239227759972 39.301342153252335,63.30191385823855 39.0982252448448,64.04482282216486 38.362801955867326,64.93307455578179 38.01960442101699,66.28965832100221 37.93555604512221,66.96794164588937 38.01260038965847,67.78348904258019 38.45385436306242,68.792818460548 38.783043835283024,69.01083195595129 39.02818493160885,69.46300621580303 39.16126152675133,69.4387826589882 39.77061225188663,70.4238681008137 40.07178559881868,70.43194252195099 40.225874287920306,70.81951378516533 40.72316051190137,71.26360356806254 40.98931370221544,71.34434690225316 41.33951526839519,71.79650808001315 41.58465636469191,71.87725088076695 41.661700709257275,71.76421093710815 41.85080955500598,72.33748330156959 41.93485793090076,73.21756956619356 41.77376521046972,74.98578725482366 42.179999027226586,76.53597361777065 41.75975714781089,78.19108763524127 39.756604189256905,82.64761609731067 38.29276164260227,84.54479536668805 36.14252402627608,86.34505615399394 35.323052361403825,87.25728059471294 34.31447185081197,88.92024729189143 32.101197952521034,93.1824520890732 32.30431486092857,93.46497665061906 34.15337913035182,94.70807297484134 35.253012048167875,95.77356887487986 40.55506376014091,102.10167900764645 42.37611190430471,103.4979936640666 44.16914392315084,106.0 44.56837370857829,105.80629905185924 45.15671233975445,104.74093553273269 46.00420012991526,103.90154831609107 49.744352856709156,101.1976936379724 51.103134933509864,100.70534020649211 53.65960636662203,100.32598387556936 55.63474319988745,99.8578395635559 56.90247286946396,99.20404727534333 60.65663365891669,96.79869180852256 62.15549636216019,94.91794449157169 63.122052684862865,94.58699300546868 64.33375010383315,94.81300880141498 64.50885088689392,94.61120901385584 64.33375010383315,93.63449091293296 63.7033872846805,92.85956566514506 62.37962536452687,92.16535548018874 61.72825045144418,92.06041621185432 61.82630688993959,90.801134350535 61.81229882730986,87.45102605105785 61.6442020755494,86.5872406391718 61.00683522509644,85.19870639569126 60.81072234804742,85.20677933826664 60.4745288444974,85.91719512065174 57.918057411385234,85.48933181890607 57.259678466944024,85.08568511512567 57.14761396578979,84.54479536668805 56.930488994781626,84.20572830264427 56.41919470811263,83.90702518487524 55.410614197549876,83.84244058159675 55.06041263134102,84.0927056313376 54.738227190449834,84.56901438817295 54.205920809850795,84.93229883832828 53.27438464385341,85.1583416708163 51.99264691161807,85.21485227999801 51.439328437059885,85.40860263967625 50.63386483481736,85.89297650374647 50.15759070482454,85.90104937687283 49.08597391229705,85.59427963118651 48.64471993895131,85.58620672739926 48.09140146433492,85.76381042425783 47.74820392948459,86.01406951554964 47.54508702113526,86.40963875443413 47.46804267654079,87.41066245268303 45.10768412050675,88.25022114224703 44.939587368717184,88.13720413506235 44.23218020502827,85.88490362984885 44.23918423635769,84.45599222571036 45.31780506018549,81.43662728376512 44.757482554327,77.72281491859758 44.23218020502827,76.26146361976862 44.26720036167535,76.0999867139908 45.2267526529904,75.69629303553666 48.61670381363365,73.77468343108194 50.16459473615396,72.66045185345865 51.12414702746901,71.62694793539413 57.39975909341592,68.32449118141813" stroke="red" stroke-linecap="round" stroke-linejoin="round" stroke-width="0.5"><title>2026-03-29 44.2km</title><desc>1774744239000</desc></polyline><polyline fill="none" points="119.54709580083727,59.95588769150345 118.81569021874748,59.8718332139033 118.26532562232751,59.88864412326075 114.90520492833457,60.35514409897951 114.26794065878494,60.216455473295355 114.06517475483997,60.329928020237276 114.0,60.53165621457083 114.09052049282764,60.77540978744946 114.31501131504774,60.89308340570278 114.56484787527006,60.813233487417165 114.80020115664229,60.548466852484125 115.3650490319269,60.47281892742467 115.61488559213467,60.36354945510902 116.45491576564382,60.2836985021022 118.60206185566494,59.8844413965744 121.25612270555575,60.14921233383575 122.02373648478533,60.292103872932785 122.53789288408007,60.178631220962416 123.28378174501995,60.556872168846894 123.91742519487161,60.489629589545075 124.71400553181593,60.56948014014779 125.36213226050313,60.54006153439332 125.9812924314756,60.67874906182624 127.05667588635697,60.72918077328359 127.25582097057486,60.8090308558094 127.92567261755175,60.85946240649719 128.7367362333316,60.74599132993899 129.62021624339104,60.292103872932785 129.72884083479585,60.28790118773395 130.64128740255546,61.79243486868654 131.16630626098777,62.939709643622336 131.32562232838245,63.14142495643682 131.45597183807695,63.59948311559856 131.47769675633754,63.89784851348304 131.40890118178504,64.2424368262109 131.26768921298208,64.56601101183696 130.8404324867879,65.03665980046935 130.78974101081258,65.19214079879384 129.68177017850394,66.39394694249859 129.40296706058143,66.84356463516087 129.20020115665102,67.36881268667639 129.27261755091604,67.54109257794698 129.6310787025286,67.70496789838217 130.6087000251573,67.77219860907644 132.08599446818698,68.16297492617377 134.48659793814295,69.00754323990986 135.51853155644494,69.30586917147957 136.60477747044933,69.45293044950085 137.6475735478889,69.46973741903275 138.54191601710045,69.39830775083101 139.64264520995494,69.22183391800354 139.88161931102513,69.77646339945204 140.12059341210988,70.02856522237926 140.38129243148433,70.12100216804174 140.76509932108456,70.07898540046517 141.08011063614686,70.12940551636711 142.20256474729104,70.79326457807474 142.05049031933595,71.41089592658682 142.05049031933595,71.96549571965807 142.70223786773568,72.38984351292675 142.74930852401303,73.01165212868 142.70947950716072,73.12929053312473 140.81941161678697,73.0284576357335 138.0277596178057,73.2931434611819 137.9625848629512,73.31415019935957 138.0024138798035,73.37296900885849 140.9316570279043,73.13769326333932 144.06728689967713,73.2931434611819 144.18315313050698,73.18390824873859 144.19401558964455,72.78057570632154 144.17591149106738,69.83108559297762 144.00935378424765,68.57895851456851 144.0709077193751,68.43189409320621 144.21574050790514,68.37306817655917 145.845109378919,68.19658991878168 147.98863464924216,67.70076597530351 148.09001760120736,67.70916982104245 148.1479507166223,67.8100158352463 148.11898415890755,68.34365518648337 148.24571284888953,69.25124627636978 148.8684938395745,71.524337405197 148.9916017098294,72.9486314156893 148.87211465928704,71.42770209141963 148.76349006788223,70.93191732542618 148.3036459642899,69.51175481261816 148.15519235604734,68.44029778867844 148.16243399547238,67.65874672067366 148.55348252451222,67.5705061453773 149.59265778223926,67.51588093189275 151.39944681919587,67.54109257794698 164.5176766406803,67.94447680059966 165.91169223032193,67.91086160072155 168.71058586874278,67.64614093585624 170.14443047522218,67.6629486480706 171.44430475232366,67.77640052481729 174.5038974101044,68.32264589491388 183.14317324616422,69.70923598417357 184.8268544128514,69.76805997858173 185.89861704802024,69.66721879351098 186.0,74.31825970155478 185.9601709831477,76.2633891592559 185.85516721146996,77.46487000350317 185.68860950465023,78.47727926727384 185.34825245160027,79.96854189395162 185.27945687703323,80.10296289715916 185.20341966305568,80.1281667860967 183.50887603720184,79.81731773755746 182.76660799597448,79.56947693941402 181.76364093537268,79.50646632767166 181.93381946190493,78.66631556600987 181.9664068393322,78.18742191296406 181.9446819210425,73.24692859921561 181.88674880561302,73.13769326333932 176.51345235102053,73.07047137318659 168.6128237364901,73.09988096372399 169.03283882324467,72.98224247470353 168.9893889866653,72.19657674712289 168.7974855418579,71.58315878874055 168.27970832285064,70.40671504266356 167.91400553179847,69.04115753818769 167.8560724163981,68.44449963575971 167.86693487553566,66.54942277871305 167.74744782497874,65.90650535291934 167.6967563490034,65.85608002916706 167.5736484787485,65.90650535291934 166.75896404324158,66.35612840644899 166.06738747798954,66.62085742412455 165.35408599446237,66.55362482012788 165.15856172994245,66.59564521059292" stroke="red" stroke-linecap="round" stroke-linejoin="round" stroke-width="0.5"><title>2025-11-16 42.5km</title><desc>1763251305000</desc></polyline><polyline fill="none" points="19.56016680902394,139.99435251698014 19.17670702909527,139.95656223139667 18.778777068771888,139.90617512956305 18.384464653558098,139.91037405709721 17.896096065916936,139.96915899714804 17.4149625684513,140.02374493712705 16.98085715720663,140.08672862333333 16.543134200866916,140.15391111485224 16.152439330748166,140.2210934958166 15.62427774706157,140.32606574476085 15.179319700531778,140.37645232838622 14.66562829722534,140.3932478424431 14.27855097221618,140.284076877575 14.0,140.64098087224193 14.293021152581787,140.9474959303152 14.651158116859733,140.7417532000254 15.0020599909476,140.56120260301032 15.504898758983472,140.48142417789495 15.935386625133106,140.39744671988592 16.322463950156816,140.34286127955056 16.810832537797978,140.25888353653136 17.215997588296887,140.18330342012632 17.722453901427798,140.10352425657038 18.174647038133116,140.00694927106815 18.568959453346906,139.96915899714804 19.05009295081254,140.01534710495616 19.520373812978505,140.0531373361082 19.90383359292173,140.10352425657038 20.45370044716401,140.15811001689508 20.876953223138116,140.20849680779793 21.350851630413672,140.25888353653136 21.893483394451323,140.30927020307718 22.392704617392155,140.36385568831247 22.86660302466771,140.405844473451 23.31879616137303,140.45203208724342 23.843340199964587,140.49402078169805 24.33532633271534,140.53600943297715 24.805607194895856,140.6283843137753 25.24333015123557,140.6535774268159 25.767874189812574,140.69976476034572 26.227302416722523,140.75854856381193 26.672260463252314,140.78374159653322 27.04486760791042,140.8467241103208 27.348741395762772,140.8467241103208 27.851580163798644,140.9013088770189 28.300155755408923,140.88451357195663 28.741496256843675,140.76694624311494 29.124956036772346,140.58219689951147 29.537356177461334,140.34286127955056 29.826759784962633,140.58639575750567 30.01125458473689,140.92230299863513 30.27533537655836,141.37577339049676 30.51047580766317,141.78305269023258 30.705823242737097,142.1525396744364 30.90478822287696,142.50942733709235 31.12184092849202,142.90409947312946 31.309953273375868,143.31136352934845 31.41486208110291,143.7396161970537 31.404009445817792,144.15526890328692 31.244837461679708,144.5625204819953 31.02416721098416,144.87740293935713 30.702205697627505,145.23426678947726 30.416419635235798,145.59112752145666 30.141486208114657,145.91439866934525 29.94975631815032,146.1411067791414 29.653117620458943,146.48536483594944 29.360096467862604,146.89259318134646 29.171984122978756,147.34179912107356 29.005577048679697,147.75741517026472 28.850022609665757,148.18562122237927 28.66191026478191,148.6264168816051 28.520826006133575,149.13857348344754 28.462945284627494,149.53737950562208 28.358036476900452,150.06631622400528 28.292920665233396,150.5028937534662 28.20971712807659,150.96885116234625 28.151836406555958,151.41381453855502 28.083103049793863,151.86716846652052 28.010752147922176,152.3289126670279 27.938401246035937,152.70669949560397 28.224187308442197,152.9669506123755 28.651057629511342,152.92497473790718 29.10325076621666,152.9081843760432 29.483093001050293,152.9081843760432 29.89187559664424,152.90398678450947 30.11978093754442,152.89139400728527 30.600914435010054,152.87040603663627 31.089283022665768,152.8410228596149 31.505300708435243,152.86201084535423 31.982816660805838,152.9291723272945 32.406069436779944,153.02571676418665 32.8618801185803,153.10547069219683 33.32854343566578,153.22720007168755 33.74817866653029,153.30695360645404 34.17504898759944,153.3741143571351 34.67065266543068,153.3741143571351 35.083052806105115,153.4034971508372 35.55333366828563,153.41189223086258 36.01637944027607,153.41189223086258 36.439632216250175,153.4202873091781 36.91714816860622,153.41189223086258 37.36934130532609,153.39929961016605 37.83238707733108,153.35312663439618 38.280962668941356,153.28176829651056 38.70421544491546,153.2397927454149 39.15279103652574,153.17263177399218 39.49284027534304,153.16843420962323 39.82565442395571,153.13485367906105 40.27423001558054,153.08868040449306 40.76983369341178,153.05509980839997 41.24373210070189,153.06769253517268 41.67783751193201,153.09707554920533 42.169823644682765,153.13065611080674 42.625634326497675,153.14324881429275 42.618399236293044,152.7318851599848 42.52434306386567,152.36249385989504 42.15173591920757,152.11483191375373 41.95277093905315,151.8000052390271 41.98532884490851,151.26269544475872 42.104707832986605,150.83871944782368 41.79359895494417,150.62882871232432 41.35949354368495,150.36016699748143 40.97241621866124,150.16286742556258 40.491282721210155,150.1166907924162 40.12952821183717,150.10829503533387 39.8473596945114,149.83543199072665 39.65562980456161,149.40724323156246 39.869064965081634,149.1763552735356 40.140380847107735,149.12178156552181 40.6287494347489,149.00843593898753 41.08456011656381,148.9076840069538 41.5295181630936,148.80273381354345 42.007034115464194,148.68938730180525 42.46284479726455,148.61802081824862 42.97653620057099,148.56764440184634 43.4504346078611,148.51726792334375 43.801336481948965,148.52146596559032 43.93518565042177,148.97065399360508 43.99306637189875,149.41144118235388 44.04009445811971,149.9025984477048 44.072652363960515,150.33917772661152 44.09797517962579,150.79674138697737 44.061799728675396,151.28788199920746 44.05456463849987,151.73284190114282 44.05456463849987,152.17779695762147 44.05456463849987,152.64793288500005 44.05094709341938,153.04250707776373 44.31864543033589,153.33633644845395 44.694870120089035,153.34892908856636 45.16876852736459,153.3699168134408 45.63904938954511,153.42448484769193 46.047831985139055,153.45806514024662 46.51811284730502,153.49584293636872 46.97754107421497,153.5210281143918 47.42249912074476,153.5336206975844 47.896397528020316,153.5336206975844 48.359443300025305,153.5336206975844 48.79716625633591,153.49164540519632 48.82972416219127,153.94497628139288 48.92378033463319,153.76868153821852 48.95272069537896,153.31534870632822 48.96719087574456,152.88719641400894 48.949103150269366,152.4800278175826 48.92739787971368,152.02248300724023 48.851429432761506,151.53974668978117 48.75737326031958,151.09478468501402 48.65969954278262,150.76315890725527 48.51861528411973,150.37695840642118 48.37029593528132,149.94037953124644 48.21474149626738,149.45342066658486 48.17133095514146,149.05041583733328 48.1062151434453,148.56764440184634 48.09174496306514,148.0638768211029 48.174948500221944,147.66505641366894 48.681404813352856,147.60628255074698 49.10465758931241,147.56849930848693 49.55685072601773,147.5643011683096 50.00542631764256,147.57689558757556 50.468472089632996,147.58949000293796 50.89895995578263,147.5936881405396 51.380093453248264,147.60208441445138 51.89016731145966,147.62727322578576 52.3532130834501,147.64406575803514 52.794553584899404,147.64406575803514 53.31186253328633,147.67345267290148 53.80746621111757,147.66925454349257 54.306687434058404,147.70283956660205 54.798673566794605,147.69444331341583 55.243631613324396,147.71543394314722 55.65964929910842,147.72802831580702 56.00693362810125,147.74482080666348 56.390393408044474,147.75321704948874 56.820881274179555,147.75741517026472 57.30563231674023,147.7658114104961 57.79761844947643,147.7826038858184 58.246194041115814,147.80779258584153 58.72009244837682,147.82458504389797 59.19399085565237,147.83717938290283 59.65703662764281,147.84557560675603 60.080289403616916,147.85816993930348 60.54333517560735,147.87076426795466 61.00276340250275,147.90854723062148 61.444103903952055,147.89595291361184 61.89629704065737,147.92114154374212 62.28699191077612,147.9169434398027 62.75727277295664,147.92533964724862 63.213083454757,147.92953775033675 63.6725116816815,147.95052825926177 64.08129427724634,147.97991495364113 64.50092950811086,148.00090543669648 64.98568055067153,147.98831114815766 65.31125960912323,147.9841130511195 65.72727729487815,147.95052825926177 66.13605989048665,147.92533964724862 66.62804602322285,147.88335859272047 67.04768125408737,147.84137749504225 67.41305330855539,147.79519823777446 67.86886399035575,147.7490189282944 68.29573431141034,147.72383019202243 68.67557654624397,147.7070376925476 69.14947495353408,147.68184893039142 69.55825754912803,147.69444331341583 70.04662613676919,147.72383019202243 70.45902627745818,147.74482080666348 70.9112194141635,147.7868020035712 71.34894237050321,147.8497737180296 71.80475305231812,147.90434912537967 72.22438828316808,147.93793395520697 72.5933778827457,147.9715187574111 72.95513239210413,148.04288637041827 73.24815354470047,148.15623467598198 73.67502386575507,148.22340389384044 74.0729538260639,148.2863749352473 74.32256443753431,148.32415751352528 74.59026277446537,148.37033617282214 74.98457518967916,148.43750503864067 75.45485605185968,148.51726792334375 75.89981409838947,148.58863458290216 76.29412651360326,148.65580308977587 76.68120383862697,148.7187734646759 77.17318997137772,148.80273381354345 77.58197256695712,148.8699019683918 77.94010953123507,148.93287201325802 78.41400793851062,149.01263393076442 78.82279053410457,149.07140577032624 79.28221876099997,149.1469694398147 79.64759081546799,149.20574108611254 80.09978395217331,149.27710654297698 80.55197708890773,149.36106574434962 80.94267195901193,149.4240350321561 81.36230718987645,149.48700422289767 81.81450032658176,149.56256712369213 81.86514595789777,149.95297321798716 81.88323368338752,150.37695840642118 81.87961613827792,150.85131285765965 81.90855649902369,151.26269544475872 81.87599859318289,151.70345790610736 81.8723810481024,151.9217385075608 81.94111440487904,152.19458761958958 81.94834949505457,152.49681835537558 81.89770386375312,152.92497473790718 81.93026176959393,153.3699168134408 81.89408631865808,153.8148540444563 81.86876350300736,154.30176093462433 81.87599859318289,154.55360704979103 81.89046877356304,154.7802672265243 81.886851228468,155.14543931163644 81.88323368338752,155.6113437866661 81.87599859318289,156.02687572961804 81.88323368338752,156.47178403598446 81.86514595789777,156.8873072315473 81.8723810481024,157.33640330925118 81.8723810481024,157.81067698781408 81.86876350300736,158.26395996262727 81.85067577754671,158.65428294121375 81.78194242074096,159.0571930746337 81.64085816209263,159.48528074046408 82.02793548711634,159.56502206531513 82.4982163493114,159.58180969283785 82.89614630960568,159.65315703287342 83.22172536805738,159.73289803028456 83.36642717180075,159.78326068536262 83.67753604985774,159.81263887216846 84.09355373562721,159.89237955850695 84.51680651158676,159.9847106852394 84.95814701302152,160.05186046462404 85.3054313420289,160.05186046462404 85.4211927850265,159.64056633487053 85.53695422800956,159.19988946131707 85.58759985932556,158.9984355941706 85.6418630357366,158.71723791132536 85.70336130232317,158.2723540443876 85.77932974930445,157.88622449932882 85.84082801589102,157.41195169731145 85.89147364720702,156.95865927452905 85.93850173341343,156.53474236743932 85.96020700396912,156.08144021642147 85.98552981964895,155.72047379690048 85.97829472945887,155.30493873879095 85.99638245493406,155.01951827155426 85.98914736472943,154.70051656693613 85.98191227453935,154.28497113843332 85.97467718436383,153.85263151077743 85.97105963925424,153.45386760518522 85.9674420941592,153.05509980839997 85.95297191379359,152.74028037799872 85.94935436869855,152.5178065179025 85.94211927850847,152.24915722336664 85.90594382755808,151.83778456807704 85.92041400795279,151.41381453855502 85.91317891777726,151.00663125990104 85.90594382755808,150.66241130245544 85.90594382755808,150.20064826840826 85.90594382755808,149.9235879428743 85.85529819627118,149.6759112128202 85.59845249459613,149.62973402928037 85.35969451842539,149.65492159040514 84.90750138170552,149.69270290297573 84.538511782157,149.70529666606672 84.0465256494208,149.70949458624455 83.63050796363677,149.69270290297573 83.19640255237755,149.66331744066338 82.79123750190774,149.60454645262143 82.34266191028291,149.54157744304393 81.91217404413328,149.4618165582542 81.92302667940385,149.0798017405068 81.91217404413328,148.68518927680634 81.86514595789777,148.2989691318944 81.82897050697648,148.07227299835358 81.77470733056543,147.77840576763992 81.72044415415439,147.56010302769573 81.57935989550606,147.1612777016344 81.44912827214284,146.80443068803652 81.30080892328988,146.3804084187832 81.09460885294538,145.99836478266297 80.67135607698583,145.97317496678806 80.21916294026596,145.95218344168825 79.82485052505217,145.92699359734252 79.41968547456781,145.90180373746261 78.97834497311851,145.87661386203763 78.63106064414023,145.8472256544119 78.2005727779906,145.81783742563493 77.78093754709698,145.8052424639609 77.44450585340383,145.8388290197763 77.02125307742972,145.9060020485158 76.74993719541817,145.97317496678806 76.48947394867719,146.03614947732785 76.2470984273823,146.07813243042256 76.03366326686228,146.09492559957653 75.66467366731376,146.1117187618256 75.24503843642015,146.14530506560186 74.84710847612587,146.16209820713993 74.44194342561241,146.0403477745822 74.10551173191925,145.79684582070695 73.82696075970307,145.88501048890612 73.57011505804257,145.98576987667548 73.15771491736814,146.1495033516403 72.73446214139403,146.24186553513937 72.30759182033944,146.2460638112425 71.86263377380965,146.2166758694475 71.47555644878594,146.1746930587542 71.11380193941295,146.09912389079182 70.85333869265742,146.03195117964788 70.50605436367914,146.00676138449126 70.04662613676919,145.8682172334411 69.64507863136532,145.72127595362326 69.2977943023725,145.64150760891425 69.04456614582159,145.61631757294526 68.75516253832029,145.6331109319799 68.50916947194492,145.6792926337257 68.02080088430375,145.85982060312017 67.579460382869,146.02775288154226 67.12726724614913,146.2166758694475 66.65698638396861,146.45177881180643 66.38205295684747,146.50635608702942 65.98412299653864,146.67428570724587 65.43787368737685,146.67428570724587" stroke="red" stroke-linecap="round" stroke-linejoin="round" stroke-width="0.5"><title>2023-10-28 42.6km</title><desc>858722499</desc></polyline><polyline fill="none" points="131.27938888102653,140.66001224948923 131.523836469074,140.14535727722614 131.78865468950244,139.58928809317877 132.04838025179924,139.10420206111303 132.29282783987583,138.56587007552298 132.50671947942465,137.97429063672826 132.76644504172145,137.2998826318326 133.02617060404737,136.68462630492286 133.2502475597721,136.1107755112098 133.54052907059668,135.4422616738957 133.8104399490694,134.75599157365286 134.07525816946873,134.11704306142565 133.79516197482008,133.6614920885695 133.23496958552278,133.41300821402547 132.74607440939872,133.6851571633124 132.05856556797517,133.82123115349168 131.42198330740212,134.14662416826468 130.91781015702873,134.44243439728234 130.3983590323769,134.88023073524164 130.10298486347892,135.45409384498998 129.80761069458094,136.05161530901023 129.43584665440721,136.63138265854286 128.98769274295773,137.11057369591072 128.5700947800069,137.53651792281744 128.11684821048402,138.05119630888657 127.67378695713705,138.55995431133852 127.76545480266213,139.13969630014617 127.65341632478521,139.66619159949187 127.37332013016567,140.3169094478144 127.0830386193411,140.85522499632862 126.79275710848742,141.44085925002582 126.4719196491933,141.95550259693118 126.09506295091705,142.47605668677352 125.53996321969316,142.6890092708927 124.95430753994151,143.04392848742282 124.36355920214555,143.40476077280982 123.74734757392434,143.71826894835613 123.2686377139762,143.99036899469502 122.69316735040047,144.30978914122534 122.01584382515284,144.58780152464897 121.37926156457979,144.88355790017522 120.95147828548215,145.19114291310325 120.416749186581,145.43366070272896 119.73942566133337,145.69392255591083 119.05191681990982,145.88320316202953 118.49681708868593,146.17895285878694 117.91116140896338,146.45104123313286 117.34587636156357,146.73495816090872 116.76022068187012,147.01295879118697 116.14400905359071,147.22589453303954 115.49214881876833,147.23180940348175 115.17640401754761,147.6281043335075 115.13057009477052,148.23732851386012 114.97779035224812,148.93526671126165 115.05418022349477,149.56813553342 115.00834630074678,150.14776627395986 114.9166784552217,150.8161087370063 114.77408402884612,151.4489568140125 114.6111189701478,152.13502721826808 114.48380251802155,152.7087177244939 114.29028151082457,153.44800115642283 114.17824303294765,154.0926485358832 114.06111189699732,154.76685914890913 114.04074126467458,155.35826544620795 114.16296505869832,156.00289136872743 114.64676757671987,156.52923193613242 115.19677464987035,156.81901288492736 115.81298627812066,156.78944346737262 116.35280803509522,156.70073512335512 117.01485358606442,156.6238544476255 117.62597255621222,156.54697366893015 118.19125760361203,156.45826495014626 118.87367378696217,156.29858891084223 119.49497807325679,156.1448263790553 120.14683830807917,156.00880533449163 120.83943980760523,156.0206332642083 121.4301881454303,156.2926749749422 122.00565850897692,156.67707954177968 122.54038760784897,157.01417065862552 123.08020936482353,157.36308744882263 123.63530909604742,157.7179159076586 124.2362427500484,158.1141384277762 124.82189842974185,158.45713481864004 125.31079360589501,158.78830180301156 125.88117131136823,159.1194668768003 126.46173433298827,159.52159332648444 127.05248267081333,159.8764084427712 127.5973970858613,160.23122136595703 128.14231150093838,160.60377257510117 128.763615787233,160.9940617248758 129.36454944123398,161.24242616596166 130.07752157305367,161.36660798357116 130.77012307257974,161.4553091173948 131.45253925592988,161.60314403591474 132.06365822604857,161.98159969258268 132.4303296081489,162.50788544328316 132.22153062667348,163.19382367452272 132.1349554392218,163.83244845422087 132.1807893619989,164.4592399420726 131.6205969727016,164.6366325171075 130.89234686660348,164.64254559349502 130.22520865750266,164.6307194401088 129.6293676616042,164.57158863655786 129.13537982740672,164.5656755528471 128.37148111473653,164.57750171965745 127.73999151220778,164.4060220626743 127.44971000138321,163.95662466984868 127.62286037628655,163.34165411648792 127.76036214455962,162.67937076937596 127.87749328050995,161.9697729910731 127.92332720328704,161.28973355672497 127.92332720328704,160.62742653850728 128.22379403025843,160.0124203225132 128.50389022493619,159.3619258086619 128.75343047105707,158.75281971749428 129.14047248550924,158.2087583265129 129.5326071580057,157.61738140035231 129.89927854010602,157.00825679644913 130.2506719479279,156.45826495014626 130.66826991087873,155.94375167747785 131.12151648040162,155.4647179325184 131.50346583675127,154.95019575285187 131.83448861225042,154.48298196143514 132.24699391709873,154.01576436636606 132.7358890932228,153.5189718648653 133.13820908189518,152.99260368878458 133.58127033527126,152.46623068454937 134.02433158861822,151.95759600354722 134.39609562879195,151.36024021451158 134.7169330881443,150.80427973453698 135.0785118121421,150.183253680083 135.40444192953873,149.66868414288183 135.76092799549224,149.05947516152082 136.09195077096228,148.47391868455816 136.41278823031462,147.77597487474122 136.7641816381365,147.20223504519163 137.41604187295889,147.3382769670352 138.0373461592826,147.49206309892907 138.53133399348008,147.90610063578788 139.01513651153073,148.39702698609835 139.47856839722954,148.84654622500238 139.98274154760293,149.3256352209355 140.5276559626509,149.16593933346667 140.96053189985105,148.64544594823747 141.41887112744735,148.06580003003182 141.82119111614884,147.72274152381578 142.28971565992106,147.29095807429985 142.95176121091936,147.27321347946054 143.64436271044542,147.42108493542764 144.1943697835668,147.88244142846088 144.71891356629203,148.32604994221037 145.1670674777124,148.74008146042252 145.70688923468697,149.2487446639243 146.2314330173831,149.7337449139377 146.69995756118442,150.1359371336912 147.2448719762324,150.59135727307876 147.79997170745628,150.99945796345492 148.34488612250425,151.39572687077452 148.87452256327379,151.80973623884347 149.37869571367628,152.20008519286785 149.97453670957475,152.64366032654289 150.49908049229998,153.01034651491864 151.09492148819845,153.44800115642283 151.51251945112017,153.69639825195554 152.16947234404506,154.01576436636606 152.8467958692927,154.32330042641843 153.32550572924083,154.53029492353744 154.21162823596387,154.88514089591627 154.5375583533605,155.38192157134836 155.05191681990982,155.96149359125775 155.63247984155896,156.41686750113877 156.12137501768302,155.9378377050125 156.518602348282,155.3937496302533 156.96166360162897,154.8673986493959 156.90564436270506,155.0152505360711 156.4676757674315,155.59482625876626 156.03989248833386,156.150740330213 155.63247984155896,156.67707954177968 155.3421983307344,157.327604482296 155.33201301455847,157.9308119300731 155.84637148110778,158.01951837304296 156.52878766442882,158.33294670692703 156.90564436270506,158.53992674386973 157.62370915265637,158.8296975417179 158.245013438951,159.0485030932614 158.8612250672013,159.43880281714883 158.83066911867354,160.12477771926933 158.6014995048754,160.7220422946375 158.88668835762655,161.18920530475225 159.528363276273,161.3547811553617 160.20568680152064,161.4080018630848 160.8422690620937,161.4493957127488 161.57561182629433,161.33704090851097 162.24275003536604,161.4789627299433 162.87423963786568,161.63271097391407 163.58211911161197,161.63271097391407 164.22888668836094,161.51444313048705 164.865468948934,161.3547811553617 165.3849200735567,161.644537744869 166.01640967605636,161.99933974029045 166.59188003960298,162.2654397978913 167.14188711275347,162.6024981003211 167.76319139904808,162.77398314384482 168.35903239494655,163.14651785271417 168.77663035789737,163.5722688458918 168.95996604894754,164.29958615594296 169.13820908189518,164.967763857534 169.3521007214731,165.52950015687748 169.79006931671756,166.11488266373271 170.27896449287073,166.61747904466756 170.66600650726468,167.14372230576555 170.89008346301853,167.86508163674807 171.52157306548906,167.96559820130278 172.15815532606211,168.06020186602836 172.90168340640957,168.0838527578817 173.54335832508514,168.01881278187648 173.97114160418278,167.56944366250536 174.40911019945634,167.18511202061563 174.92346866600565,166.81851636534702 175.62116282360512,166.7771263862669 176.28320837457431,166.77121352967515 176.94525392560172,166.6293047888903 177.551280237647,166.7948649523787 178.152213891648,167.16146075865254 178.74296222944395,167.03729147345075 179.36426651576767,166.7534749562583 179.7869571367919,166.31592174398975 179.71565992361866,165.553152091019 179.69528929126682,164.89089425227212 179.85825434996514,164.23454189358745 180.31659357759054,163.73783782397368 180.8513226764626,163.37122015919886 181.50318291131407,163.02825312765344 182.13976517188712,162.93955442398146 182.78144009053358,162.59067152673015 183.41292969300412,162.47240565668108 184.069882585929,162.06438653491932 184.58424105247832,161.55583690338972 184.49766586505575,160.8462252378995 184.43655396802933,160.1661724942096 184.4722025746014,159.44471642890494 184.49257320698234,158.894747927945 184.53840712973033,158.1496209080833 184.86433724712697,157.51684671696785 185.35832508132444,156.98460134162815 185.96435139339883,156.73621847741015 185.96944405150134,156.07977287623726 185.93379544490017,155.37009351000233 185.9439807610761,154.74320277024162 185.91851747065084,154.0571635473607 185.90833215447492,153.40660153597491 185.53147545619868,152.9452894589267 184.99165369922412,152.84474659097032 184.44673928420525,152.76194644978386 183.8050643655297,152.66140326059394 183.26524260855513,152.46623068454937 182.81199603903224,152.00491104777757 182.3893054180371,151.51992999484355 181.96661479701288,150.96397106211953 181.94624416466104,150.2601429847382 181.84948366106255,149.73965952583967 181.49299759513815,149.18959801149686 181.060121657938,148.69276372384047 180.58141179798986,148.50940712602096 180.31659357759054,148.4443449665814 179.8939029565663,148.31422042635677 179.41010043854476,148.16043649831045 178.8142594426463,147.8646970165537 178.28462300184765,147.54529666391682 178.12675060119363,146.94198003492056 178.18276984014665,146.3090822422928 178.3049936341704,145.65843237272566 178.42212477012072,145.04326570890407 178.5188852737192,144.43400760672012 178.6665723581682,143.81882781149397 178.8651860234968,143.22730255547503 179.00268779176986,142.79548526645522 179.03324374026852,142.6653479116976 178.8142594426463,142.2216956195116 178.5188852737192,141.6833928969063 178.1623992078239,141.0977611197959 177.86193238082342,140.59494118622024 177.42396378554986,140.2755003501843 176.86377139622346,140.3169094478144 176.28320837457431,140.34648735639712 175.82486914697802,140.40564312780043 175.48875371340546,140.44705213147245 174.97948790492956,140.48254553937295 174.40911019945634,140.57719451978483 174.01188286885736,140.99128197237587 173.45678313763347,141.186493591631 172.9169613806589,141.47043657894756 172.43315886263736,141.73663185284386 171.83731786673889,141.7780398955183 171.1854576319165,141.67747745430825 170.86971283066669,141.79578619038512 170.68128448154312,142.09155696283415 170.52850473902072,142.6653479116976 170.27387183476822,143.23913312038349 169.92757108501974,143.77150601549147 169.5507143867435,144.20331595668176 168.9446880746982,144.07318179607682 168.7409817513253,143.73601464289095 168.90903946809703,143.42842182697495 169.23496958552278,142.80140059374025 169.38774932804517,142.32225710650528 169.5507143867435,142.02057211655847 169.68821615504567,141.7070546612049 169.85118121374398,141.0977611197959 170.14146272456856,140.583110075866 170.4775781581411,140.05070758411966 170.60998726834077,139.68393854783062 170.75258169471635,139.43548077117885 170.85952751449076,139.05687637487426 170.90026877916534,138.69601673302896 170.6710991653672,138.1695125262304 170.39100297071855,137.52468618143757 170.60489461026737,137.199312337445 170.90026877916534,137.45369568204478 170.95628801808925,137.8559740165947 171.09888244446483,138.216838944787 171.1803649738431,138.48896509360566 171.5928702786914,138.84982603838216 172.18871127458988,138.98588777229452 172.53501202433836,139.05687637487426 172.8660347998375,139.05687637487426 173.25307681426057,139.13378059515526 173.63502617061022,139.21068471232502 173.89984439100954,139.29350441548013 174.05262413353194,139.3526612730784 174.393832225207,139.00955064958907 174.52114867733326,138.39431266656538 174.1850332437316,137.83231066327426 173.97114160418278,137.47735919161642 173.79289857123513,137.0336667621632 173.7776205969858,136.4716514228203 173.59428490593564,135.75581338234042 173.40076389870956,135.2943593294658 173.59428490593564,135.59607970740035 173.73687933231122,135.94512679121544 173.84891781015904,136.45981946173197 173.92021502333228,137.0159189935839 173.89984439100954,137.02775083991583 174.1391993209836,137.56018139819207 174.55679728390533,137.9269640179591 175.0558777762053,137.53060205242582 175.43273447448155,137.10465778159778 175.6619040882797,136.80294534203858 175.82486914697802,136.30600374540518 176.13552129012533,135.83272203008164 176.65497241477715,135.58424756562817 177.11840430047596,135.17012106527545 177.57674352807226,134.76190773032067 177.85683972275,134.25311602653164 177.93322959402576,133.63782700405864 177.78554250954767,132.9870333518993 178.1573065497214,132.54330617140658 178.75824020372238,132.20015479675203 179.2725986702426,131.92208234853024" stroke="red" stroke-linecap="round" stroke-linejoin="round" stroke-width="0.5"><title>2023-04-16 42.7km</title><desc>791522361</desc></polyline><polyline fill="none" points="55.14676806086209,219.8641545844439 55.13581749048899,220.45957860765338 55.196045627380954,221.078814881148 55.67239543728647,221.25148567800352 56.334904942981666,221.27530231032142 57.00836501902086,221.30507309074164 57.24927756655961,221.9481192383755 57.178098859323654,222.54948178280029 57.12882129280479,223.25205802876008 57.12882129280479,223.99035182963416 57.05216730036773,224.71077710374084 57.00288973384886,225.34784197288536 56.96456273764488,226.16946953433217 56.92623574147001,226.818430256797 56.92076045629801,227.57455215421942 56.92623574147001,228.30089873259567 56.90433460078202,228.94984213828138 56.88790874526603,229.68808327252918 56.9317110266129,230.4025036811363 56.898859315610025,231.1407313918171 56.90980988595402,231.83132533304888 56.92076045629801,232.56358652647032 56.9317110266129,233.25416816998768 57.63254752851208,233.313700790859 58.28958174906438,233.3672801117209 58.99041825096356,233.45657889998984 59.7460076045827,233.53397110243532 60.47969581751386,233.63517617714388 61.13673003803706,233.67684881771856 61.870418250968214,233.80186660902837 62.58768060838338,233.93283741872438 63.255665399250574,234.05190160489292 63.94555133083486,234.15310602365207 64.7066159695969,234.24835712423373 65.32532319391612,234.36146765871672 66.10828897339525,234.4209994546618 66.8474524714984,234.48648437896918 67.57566539925756,234.62340722914814 68.28197718632873,234.72461092414596 68.94996197719593,234.8258144909778 69.51391634982429,234.91511164939584 70.22022813692456,235.01036184173427 70.84441064641578,235.09370566689904 71.61642585552181,235.20681500490173 72.33916349810897,235.30206484955852 73.02904942969326,235.4032676851275 73.72441064639133,235.52232968054886 74.38692015211564,235.64139149859693 75.13155893539079,235.71282850428543 75.89262357415282,235.71878158521577 76.598935361224,235.66520384093747 77.26692015209119,235.64139149859693 78.01703422053833,235.6116260607232 78.69596958174952,235.56400133706484 79.43513307988178,235.48065800233599 80.10311787074897,235.33778351203364 80.75467680610018,235.21276812350698 81.47193916351534,235.02822124015802 82.2165779467905,234.84367393064167 82.89551330800168,234.8853459410093 83.62920152093284,234.8793927979932 84.26980988594005,234.8079550473194 85.0144486692443,234.75437669239182 85.62220532321953,234.8793927979932 85.6769581749395,234.87343965454784 85.0199239543872,234.73651723276998 84.362889733864,234.74842353963322 83.57992395441397,234.84367393064167 82.90098859317368,234.8853459410093 82.2056273764465,234.81390819563967 81.60882129278616,234.93297106910177 80.875133079855,235.0877525394244 80.2345247148478,235.23062747670338 79.45155893536867,235.36159594482888 78.82190114073455,235.46279870501166 78.06083650191431,235.48065800233599 77.26692015209119,235.53423587034194 76.52775665401714,235.5937667926628 75.81596958177397,235.6235322372013 75.23558935362962,235.6235322372013 74.58950570345041,235.5699544290619 73.89961977189523,235.45684560501104 73.22615969582694,235.36159594482888 72.55817490495974,235.2187212416684 71.82448669202859,235.1175181724102 71.12912547530141,235.02822124015802 70.37901140685426,234.93297106910177 69.73292775667505,234.8079550473194 69.03756653994787,234.73056407868717 68.36410646390868,234.65912619494338 67.65779467683751,234.546016081782 66.92410646390636,234.43290580852045 66.26159695821116,234.38528038240474 65.54980988593888,234.29002944503736 64.82707224335172,234.2007315881201 64.13718631179654,234.09357402813475 63.62798479088815,233.9923695339894 62.992851711052936,233.93283741872438 62.319391635013744,233.83163272099773 61.60212927759858,233.73042789509054 60.945095057046274,233.6589891172771 60.337338403071044,233.43871915031923 60.266159695835086,232.68860605955706 60.249733840319095,232.0218329560521 60.2387832699751,231.31933384543663 60.118326996220276,230.6168285579406 60.01977186312433,231.1228711244985 60.036197718640324,231.85513881078077 60.11285171104828,232.58739978595258 60.134752851736266,233.21249530898785 60.16760456276825,233.89711812826863 60.18950570342713,234.49243755124917 60.205931558972225,235.13537754688878 60.2387832699751,235.91523300697736 60.26068441066309,236.55816155658977 60.266159695835086,237.30228536541836 60.25520912549109,238.01068479462992 60.25520912549109,238.72503080280876 60.403041825135006,239.35007832341216 60.545399239548715,240.0763178759371 60.58920152092469,239.54652082051325 60.578250950580696,238.9988617467243 60.51254752854584,238.27856529580458 60.45231939165387,237.59993294920423 60.76441064639948,237.13560223433888 61.37764258554671,236.826046925853 62.04015209127101,236.6057856878615 64.73946768062888,237.07607246043335 65.26509505705326,237.27847351082164 65.87832699622959,237.4868269979197 66.45323193917284,237.70708580801875 67.15954372627311,237.87972066733346 67.8439543726563,238.02259061374934 68.4955133079784,238.15950740612607 69.19087452473468,238.254753732057 69.62889733840711,238.33809417414886 70.25307984792744,238.42143452935852 70.9648669201706,238.5404920289293 71.6273764258658,238.66550221261423 72.24608365021413,238.76670078956522 72.99072243346018,238.80241790378932 73.58205323194852,238.81432360498002 74.16243346009287,238.82622930439538 75.00562737643486,238.85004069791466 75.68456273764605,238.87385208435444 75.25749049431761,238.76074793565203 74.57307984793442,238.74884222647233 73.91604562741122,238.74884222647233 73.20973384031095,238.68931365400204 72.54722433461575,238.64764362691494 71.85733840306057,238.5464448992425 71.22220532322535,238.46310467437434 70.52684410646907,238.32023551530438 69.90266159697785,238.2011776876825 69.42083650192944,238.1237900046326 68.8349809886131,238.0880725871757 68.15057034222991,237.97496732664877 67.60851711028954,237.7844738945132 66.86387832701439,237.70708580801875 66.31634980990202,237.51659173746157 65.64288973386283,237.31419129004644 64.96395437265164,237.17132007740292 62.27558935363777,236.49267832975602 61.739011406869395,236.61173870226776 61.4050190114358,236.7248458918766 60.83011406843434,236.962965767867 60.216882129287114,237.24870868261496 59.592699619795894,237.40348566826287 59.03969581751153,237.4511092958419 58.371711026644334,237.37372088660777 57.720152091264026,237.08797841876367 57.21642585552763,237.02844860938785 56.72912547530723,236.98082472995156 56.18159695819486,236.93320082214632 56.03376425858005,236.962965767867 53.75057034223573,236.95701277960325 53.1373384030594,237.03440159231104 53.07711026616744,237.16536710467335 53.679391634999774,237.052260538454 54.221444866940146,237.31419129004644 54.369277566554956,237.95115567244648 54.424030418274924,238.5821621118812 54.51163498099777,239.20125792846375 54.54996197720175,239.79653784597758 53.94220532322652,239.78463229105546 53.34539923956618,239.68938778794836 52.71026615973096,239.52866243162862 52.129885931586614,239.3381727020169 51.60425855516223,239.0345787572005 51.06768060839386,238.70717223040992 50.854144486715086,238.17141320305382 50.421596958185546,237.82019144762307 49.92334600762115,238.17141320305382 49.72623574145837,238.38571724490612 49.321064638817916,238.64169076413236 48.81186311788042,239.02862592323072 48.36288973383489,239.32626707883173 47.82083650192362,239.64771828215453 47.22950570343528,239.8977349911147 46.56699619771098,239.90964052917843 46.10159695817856,239.74891561568074 45.548593155894196,239.8977349911147 44.907984790886985,239.82630172547215 44.28927756653866,239.86797113819193 43.76365019014338,239.93940436658886 43.029961977212224,239.80249062275834 42.38387832700391,239.82034895046672 41.075285171100404,239.8858294512611 40.779619771870784,239.86797113819193 40.303269961994374,239.90368776035757 39.79954372625798,239.64176549384138 39.191787072253646,239.51675683682697 38.84136882130406,239.53461522838916 37.412319391645724,239.3560311334295 37.25901140685892,238.94528620106576 37.373992395441746,238.5464448992425 36.684106463886565,238.15950740612607 34.42828897340223,236.5641145745467 33.91908745246474,236.2426509701836 33.24015209125355,235.92713913823536 30.5189353612368,234.74842353963322 29.949505703436444,234.45076533599786 29.648365019005723,234.31384219002211 24.7370342205395,233.3256073097 22.366235741472337,233.14700934063876 23.740532319410704,234.13524642965058 21.720152091264026,233.772100485985 22.815209125488764,234.50434389447764 22.481216730055166,234.9091585086062 22.02676806083764,235.10561192053865 21.65992395437206,235.27825239903177 21.320456273766467,235.45684560501104 20.931711026642006,235.65329767065123 20.553916349832434,235.8259369660518 20.16517110267887,236.03429423969646 19.858555133076152,236.16526139083726 19.48623574146768,236.37361777987826 19.09749049428501,236.55220853817445 18.539011406857753,236.83199992385198 18.16121673004818,236.97487174304842 17.88745247150655,237.12369628311717 17.64653992393869,237.23084978036786 17.57536121676094,237.20108493443695 17.164714828890283,237.45706224730384 16.699315589357866,237.60588588956307 16.272243346000323,237.79042682113504 15.752091254747938,238.02259061374934 15.533079847926274,238.22498926739354 15.664486692025093,238.74288937122765 15.735665399261052,239.19530510691402 15.204562737664673,239.1833994624467 15.018403041845886,238.76074793565203 14.870570342201972,238.37381147988344 14.657034220552305,238.03449643109343 14.459923954389524,237.62374470802024 14.273764258570736,237.27252054605924 14.131406844127923,236.80223492939695 14.027376425859984,236.46886623397586 14.235437262366759,236.45696018343006 14.18068441064679,236.96891875566507 14.635133079835214,237.0820254398277 15.253840304212645,236.94510680177336 15.779467680637026,236.73079889742075 16.34889733840828,236.4807722827536 16.721216730045853,236.3676647477405 17.060684410651447,236.2962283273664 17.526083650212968,235.99857588850864 17.969581749057397,235.74259390447696 18.955133079871302,235.29611173758894 19.32197718633688,235.23062747670338 19.59574144484941,235.01631497497874 19.91330798479612,234.8317676379811 20.252775665401714,234.73056407868717 20.712699619791238,234.45076533599786 21.23832699621562,234.23645074285741 21.670874524716055,234.0161823676608 21.95558935360168,233.89711812826863 22.24030418251641,233.73638112368644 22.705703422048828,233.54587758846174 23.187528517097235,233.28393448596034 23.455817490495974,233.18868223579193 23.92669201522949,232.9862708271903 24.14022813687916,232.9088780942693 24.43589353610878,232.7659990058164 24.895817490527406,232.6112130383408 25.153155893523945,232.59335309971357 26.034676806099014,232.31950020764634 26.302965779497754,232.18852675356902 26.5548288973514,232.17662006527826 27.01475285171182,232.09327319757722 27.425399239582475,232.05159973111586 27.666311787063023,232.0396930224233 28.15361216731253,231.95039265065134 28.47117870725924,231.98015945233783 28.73399239545688,232.0158795997122 29.067984790890478,231.95634601189522 29.380076045636088,232.14089998976124 29.95498098860844,231.98611281133344 30.43680608368595,231.98015945233783 30.792699619778432,231.95039265065134 31.033612167317187,231.92062583789084 31.30737642585882,232.17662006527826 31.679695817496395,232.42070682057238 31.915133079863153,232.51595998623088 32.18342205326189,232.6647928302409 32.63239543727832,232.8136253970224 33.20730038022157,233.01008396069665 33.530342205340276,233.28988774783647 33.84243346011499,233.46253214898752 34.285931558930315,233.6411294128411 34.92106463879463,233.772100485985 35.39741444867104,233.92688420474587 35.75878326999373,234.00427595170186 36.076349809911335,234.0757144208328 36.39939163500094,234.14119962810219 36.799087452469394,234.09952722967864 37.133079847932095,234.09952722967864 37.57110266160453,234.3376549279128 38.04745247148094,234.46267168542545 38.58403041827842,234.45076533599786 38.90707224336802,234.43290580852045 39.158935361221666,234.4209994546618 39.64623574144207,234.37932720214303 40.100684410659596,234.49243755124917 40.593460076052,234.653173035098 40.97125475286157,234.75437669239182 41.32714828898315,234.8079550473194 41.573536121693905,234.9091585086062 42.0717870722583,235.04608063458 42.493384030414745,235.33183040274162 42.80547528518946,235.72473466568772 42.745247148297494,236.14740224649722 42.734296577982605,236.57602060912905 43.062813688244205,236.849858915215 43.52821292777662,236.962965767867 44.02098859316902,236.962965767867 44.431634981010575,236.9391538121854 44.979163498122944,236.94510680177336 45.417186311795376,236.89748287268594 45.89901140684378,236.87962389196036 46.38631178709329,236.86176490724756 46.775057034246856,236.75461091518082 47.3609125475341,236.6415037676852 47.86463878327049,236.5700675920598 48.12197718635434,236.52244343952043 48.44501901141484,236.46886623397586 48.970646387839224,236.38552384285867 49.479847908747615,236.26646313336096 49.98357414451311,236.16526139083726 50.71178707227227,235.96881058366125 51.21003802283667,235.8199838931032 51.52760456275428,235.71282850428543 52.025855513318675,235.5699544290619 52.354372623580275,235.486611100554 52.92927756658173,235.23062747670338 53.263269961986225,235.0044087080314 53.597262357448926,234.75437669239182 54.1338403041882,234.74842353963322 54.50615969582577,234.95083048482775 55.07558935362613,234.97464303290326 55.60669201522251,234.9270179296509 56.20897338405484,234.77223614802642 56.37870722435764,234.3257485598515 56.29110266160569,233.85544560257404 56.31300380229368,233.27798122365493 55.77095057035331,233.26607469770533 55.22342205324094,233.33751382678747" stroke="red" stroke-linecap="round" stroke-linejoin="round" stroke-width="0.5"><title>2019-12-08 42.8km</title><desc>372318520</desc></polyline><polyline fill="none" points="146.02926887782814,233.068370025263 145.79607749056595,233.13781909026147 145.3253763570101,233.35685000505327 144.85467522342515,233.67203883050752 144.3321537815791,233.94448828342138 143.83554249387817,234.1795412942629 143.35188628322794,234.54814450516642 142.86391171357536,234.8846924397767 142.3500269897777,235.2906831874061 141.9181910874031,235.74474714121607 141.4777184669947,236.2468827433222 141.0674743597483,236.59944245400402 140.64427517545118,236.9252904662244 140.20380255504278,237.35262829304702 139.6812811131822,237.6357372108978 139.2451268518198,237.99896850173172 138.7657890001865,238.35685508627284 138.28213278955081,238.67734794914213 137.7509746296564,238.91771599285858 137.21117975171364,239.02454579335244 136.5634258981736,239.04591172086657 135.9718107119552,239.23286312348137 135.41042403886968,239.49993511360663 134.8706291609269,239.69756729400615 134.3610627961607,239.51061795791975 134.09764289572195,238.96044794562476 133.70899058358918,238.56517572507073 133.23828945003334,238.19126614976994 132.80213518864184,237.77462013387776 132.40052779945836,237.28852789597659 132.1068793858285,236.7436705742657 131.91255322977668,236.19880619000833 131.46776225035137,235.7233795357206 130.82000839681132,235.73940524085265 130.22839321057836,235.8943200755093 129.61950458827778,236.07594363731914 129.06675463326974,236.25222457918062 128.5183230372495,236.41782115414026 127.93966292809637,236.59944245400402 127.38259461405687,236.7810629691121 126.79529778685537,236.8985817077919 126.29436814012297,237.08554266037027 125.84094044263475,237.42741196610586 125.3702393090789,237.78530341664737 124.89090145746013,238.15387500930592 124.40724524680991,238.5010771769339 123.91495231812587,238.7734953315594 123.41402267140802,238.78951987390974 123.22833323339,238.28207306668992 123.11605589877581,237.7265453278378 123.03400707733817,237.1710102474717 122.98650512807944,236.50329009889538 122.52444071254286,236.07594363731914 122.11851496432791,235.6485928309703 121.90259701316245,235.1411081050428 121.33689198106003,234.92208648839005 120.77982366702054,234.7992202037385 120.16229832664249,234.63361725178765 119.55772806334426,234.48403983114258 118.95315780004603,234.39856678033175 118.34426917771634,234.2062517805134 118.16289809872978,234.59088090019213 117.68787860614248,234.6175911250357 117.0530798296968,234.53746039961698 116.42691777124128,234.39856678033175 115.80507407186087,234.61224908142322 115.42937683680793,234.95948050373045 115.5546092484874,235.5577802248663 115.42074011875957,236.17209696997452 115.10981826907664,236.63149319015793 114.63911713549169,237.01610011792218 114.30660349068057,237.34728659702887 114.25046482337348,237.91350259801038 114.11227733462874,238.33548880853414 114.48797456968168,237.9562355716007 115.01481437054463,237.6197122287267 115.39051160559757,237.25647766078328 115.5286990943423,236.6742274670396 115.7878006357787,236.10799477264663 115.71870689139178,235.4990190222452 116.18940802497673,235.11974019269474 116.7335212619364,234.97550650013363 117.31649973010644,234.9915324904141 117.89947819830559,234.9968744858088 118.48677502549253,234.93811249905048 119.04816169856349,234.95413850357363 119.64841360284481,235.08234631993037 120.22275535298104,235.2212376796524 120.84028069334454,235.40286414986622 121.44485095664277,235.5577802248663 122.04078450189263,235.7020119193694 122.50284891742922,236.1186784789934 122.93468481978925,236.51397370477207 122.98650512807944,237.04280880166698 123.07287230854854,237.6090289038766 123.17219456608291,238.20194932665254 123.3406105680042,238.8429349709877 123.88040544594696,238.8482764769542 124.38997181072773,238.55449264051276 124.87362802137795,238.16455819570547 125.39614946322399,237.7959866966812 125.88844239190803,237.43809533708918 126.40664547473716,237.1122513000155 127.03712589218048,236.9787079321395 127.60714928328525,237.19237711709138 128.17285431535856,237.46480375273677 128.62628201283223,237.87611121050577 128.95015893960954,238.30878094609216 129.26971750735538,238.8429349709877 129.50290889463213,239.35571644966694 129.91315300187853,239.7616640178494 129.82678582140943,240.31716486436198 129.77496551311924,240.91004709347544 129.70155340971542,241.47087393955007 129.96929166917107,241.65781455914112 130.50476818811148,241.43882689272868 130.94524080850533,241.09164898645759 131.50662748156174,240.96345949636452 132.12847118097125,240.91004709347544 132.603490673544,240.99016567236322 133.11305703833932,241.166426008509 133.49739099142607,240.74980947764925 133.9767288430594,240.34387145089931 134.57698074732616,240.47206283017658 135.0951838301553,240.56286482065116 135.63929706714407,240.54684095423 135.9847657890059,240.90470584946524 136.40364661430067,241.34802679410132 136.86139267079125,241.8714599637533 137.40982426679693,242.15453845270167 137.9193906315777,242.20260819548275 138.148263659823,241.67383800215612 138.19576560908172,241.04891919984948 138.26054099442263,240.46138023015374 138.39872848316736,239.9699776954585 138.7657890001865,239.47856941682767 139.21057997962635,239.02988727624688 139.73310142147238,238.67734794914213 140.19084747796296,238.30878094609216 140.7392790739541,237.98294365800757 141.25316379776632,237.6838121207802 141.62022431478545,238.01499333932952 142.13410903858312,237.8333781554793 142.60049181312206,237.53424555395395 143.11437653691974,237.24045253400982 143.74485695436306,237.14430164517762 144.3321537815791,237.1122513000155 144.72512445271423,236.64217676345652 145.09218496973335,236.1614132772047 145.5067474359821,235.6859861999801 146.0335872368596,235.73940524085265 146.65974929527147,235.74474714121607 147.10885863374278,235.461625486907 147.71774725604337,235.3654705289773 148.28345228814578,235.5577802248663 148.78870029390964,235.7233795357206 149.2594014274655,235.75543093989472 149.6739638937288,235.31739296753221 150.09284471902356,235.41888997719798 150.51172554428922,235.79282421385506 150.4685419540765,236.21483171389627 149.99352246147464,236.58341707676664 149.71282912493916,237.07485919977626 149.3155400947726,237.51822053307478 149.47963773766242,237.41138690449588 149.85965333173226,236.9787079321395 150.4037665687065,237.01075837912504 150.81401067596744,237.39536183679593 151.22425478319929,237.76927849149433 151.2026629880711,238.21263250081392 150.83128411204962,238.63995724104097 150.4339950818685,239.0726191149879 149.86397169076372,239.17410705795555 149.36304204404587,239.19013144760538 149.99784082049155,239.3717407700824 150.53763569843431,239.5052765361106 150.42967672285158,240.08748751975872 150.20512205363775,240.48808672509767 149.5919150722766,240.36523670793758 149.01757332214038,240.24772765994203 148.43459485397034,240.1409009676754 148.22299526180723,240.1195355966629 148.84915732023364,240.25841031425807 149.42349907036987,240.37057802049094 150.00215917953756,240.47206283017658 150.42104000481777,240.375919332364 150.84423918912944,240.16226632786493 151.15516103881237,240.018049936014 151.68631919872132,240.3331888183311 152.10951838304754,240.0500980658362 152.25634258984064,239.70290869138626 152.4722605410061,239.20615583115796 152.8868230072694,238.73610470897984 153.29706711450126,238.32480566559025 153.74185809394112,238.47436941968772 154.25142445872189,238.74678774738277 154.77394590056792,238.99249688170312 155.13668805854104,238.67734794914213 155.3137407785107,238.09511743570692 155.7801235530642,237.85474468841858 156.31560007199005,237.74791191510303 156.8122113597201,237.59300391152647 157.2051820308552,237.28318619181664 157.6154261380725,236.8878981996677 158.0170335272851,236.54068270757125 158.6345588676486,236.4285047817575 159.22185569486464,236.4338465945293 159.80483416303468,236.46589745695383 160.32303724584926,236.63683497714374 160.85851376478968,236.83448061832314 161.37671684760426,237.02678359344645 161.9381035206752,237.0534922704246 162.53403706593963,236.95734095392254 163.1342889702064,236.87721468882592 163.68272056618298,236.78640473709675 164.23115216220322,236.61012603543713 164.65866970551724,236.2415409067762 165.09050560787728,235.8248755650602 165.50938643317204,235.413548035438 165.95417741259735,235.10371425128687 166.34714808374702,234.69772169768112 166.70125352367177,234.26501479048602 167.0726323997078,233.84832985466346 167.461284711826,233.45300955831408 167.88016553709167,233.07371226511896 168.29040964435262,232.68372697197992 168.72656390574411,232.3151074091693 169.20590175734833,231.96785413887847 169.64637437775673,231.66333737126115 170.10412043426186,231.33744856169506 170.40208720687951,231.12909209675126 170.67414382536663,230.92073459878884 171.20530198524648,230.56278469044264 171.6544113237178,230.23688734610914 172.20284291969438,230.19948912853943 172.71240928447514,230.2475725450131 173.08810651954263,229.77742122289055 173.31697954780248,229.25383742331178 173.55017093506467,228.7569610497012 173.88268457989034,228.29213589715073 174.36634079054056,227.95019227240118 174.80249505190295,227.66167517448412 175.264559467425,227.31438344758863 175.69207701076812,226.94571678110515 175.96845198825758,226.4969008210319 176.27505547893816,225.97327614138703 176.58165896960418,225.4763609715701 176.90121753735002,224.99012646041592 177.15168236070895,224.71761894400697 177.5705631860037,224.2848092554559 177.90307683081483,223.91611600376928 178.30468422001286,223.4993284316006 178.70197325017944,223.07184970314847 179.1208540754742,222.6710844445406 179.42313920713787,222.21153557564685 179.51814310564077,221.61838948730292 179.45768607931677,221.14814159123853 179.7081509026757,220.76338939696143 180.2738559347781,220.5229174858796 180.78774065856123,220.28244419809198 181.24980507409782,219.95112319095279 181.78096323399222,219.61445561952496 182.21279913635226,219.28847333611338 182.6532717567461,218.94111238096593 183.17147483957524,218.68994190069498 183.6724044862931,218.51358726167746 184.18628921013442,218.30516718816216 184.73903916514246,218.15018748864895 184.9722305524192,218.06468120276622 185.44725004499196,217.87763559544692 186.0,217.67455656432503 185.47316019913706,217.82953801892654 184.9420020392281,218.02192799452678 184.44107239251025,218.19828469798085 183.9444611048093,218.39067298446025 183.40898458588345,218.57771630698699 182.89941822108813,218.78079097120644 182.4071252924041,219.10143317876282 181.9450608768966,219.42741691380797 181.47435974331165,219.75874205199216 181.05116055901453,220.07937679406314 180.56750434837886,220.35725825738336 180.07521141966572,220.56566814845428 179.5570083368366,220.77407700550248 179.3799556168815,221.20692286613848 179.4749595153844,221.76801271386648 179.33245366762276,222.33978227732223 178.9524380735529,222.76192490491303 178.57674083848542,223.141315292527 178.18377016736486,223.5313891608821 177.799436214249,223.94283301481119 177.60942841721408,224.14053836840685 177.2639596953377,224.49854299225626 176.87962574222183,224.90463409651784 176.59461404666945,225.31606450176696 176.2923289150349,225.8022952407955 176.0029988604365,226.27249104312432 175.70071372880193,226.7480246275918 175.33797157081426,227.1754659530634 174.9277274635824,227.51207293637344 174.4483896119782,227.81127687998014 173.98200683741015,228.1265073014256 173.60630960235721,228.521877707175 173.37311821509502,229.0134141052331 173.11833503269008,229.51028744641735 172.88514364544244,229.98044175728865 172.4144425118575,230.26894293467558 171.90487614707672,230.10866474731301 171.40826485937578,230.3277114501907 171.23121213939157,230.4612759525553 170.83824146825646,230.73908875766938 170.3675403346715,231.05963971220626 169.92706771427765,231.4069004870944 169.47364001681854,231.7541583925231 169.03316739639558,232.08538633619537 168.51928267258336,232.41126934596105 168.1047202063346,232.7585189524907 167.71606789423095,233.14316132126987 167.3317339411151,233.55451107026602 166.96467342412507,233.9177776308352 166.64943321538158,234.28638313737974 166.2737359803432,234.70840576248884 165.88940202724189,235.10371425128687 165.41006417562312,235.42423191829585 165.017093504488,235.80350800029555 164.70185329575907,236.14004588353782 164.3045642655925,236.48192287900383 163.9504588256532,236.679569248583 163.39339051162824,236.78640473709675 162.849277274654,236.88255644458332 162.3138007557427,236.95199920766026 161.79559767291357,237.01610011792218 161.26875787203608,236.95734095392254 160.77214658432058,236.77037943112373 160.29712709170417,236.57807528298508 159.73574041864777,236.40179570767577 159.26503928507736,236.37508661661195 158.98434594855644,236.38042843617222 158.55682840522786,236.38042843617222 158.01271516825364,236.53534090838002 157.68020152342797,236.79708827099967 157.32177772447176,237.14430164517762 157.07563126012974,237.41138690449588 156.55310981829825,237.65176218696433 156.00899658132403,237.79064505700444 155.45192826726998,237.81735324864712 154.9121333893272,237.69449542663278 154.35938343431917,237.41138690449588 153.95777604510658,237.4220702795792 153.6079889642133,237.85474468841858 153.28843039646745,238.2339988409949 152.83068433996232,237.81201161166973 152.39884843760228,237.4220702795792 151.99292268938734,237.50219550609836 151.58267858214094,237.96691880819708 151.18107119295746,238.42095385431094 150.7924188808538,238.88566699976582" stroke="red" stroke-linecap="round" stroke-linejoin="round" stroke-width="0.5"><title>2019-05-04 42.7km</title><desc>297355906</desc></polyline></svg>