<?xml version="1.0" encoding="utf-8" ?>
<svg baseProfile="full" height="300mm" version="1.1" viewBox="0,0,200,300" width="200mm" xmlns="http://www.w3.org/2000/svg" xmlns:ev="http://www.w3.org/2001/xml-events" xmlns:xlink="http://www.w3.org/1999/xlink"><defs /><rect fill="#222222" height="300" width="200" x="0" y="0" /><text fill="#FFFFFF" style="font-size:12px; font-family:Arial; font-weight:bold;" x="10" y="20">Over 42km Runs</text><text fill="#FFFFFF" style="font-size:4px; font-family:Arial" x="10" y="280">Runner</text><text fill="#FFFFFF" style="font-size:9px; font-family:Arial" x="10" y="290">tianwei</text><text fill="#FFFFFF" style="font-size:4px; font-family:Arial" x="65" y="280">SPECIAL TRACKS</text><rect fill="yellow" height="2.6" width="2.6" x="65" y="283" /><text fill="#FFFFFF" style="font-size:3px; font-family:Arial" x="70" y="285.5">Over 20.0 km</text><rect fill="red" height="2.6" width="2.6" x="65" y="287" /><text fill="#FFFFFF" style="font-size:3px; font-family:Arial" x="70" y="289.5">Over 40.0 km</text><text fill="#FFFFFF" style="font-size:4px; font-family:Arial" x="120" y="280">STATISTICS</text><text fill="#FFFFFF" style="font-size:3px; font-family:Arial" x="120" y="285">Number: 5</text><text fill="#FFFFFF" style="font-size:3px; font-family:Arial" x="120" y="290">Weekly: 1.0</text><text fill="#FFFFFF" style="font-size:3px; font-family:Arial" x="141" y="285">Total: 213.3 km</text><text fill="#FFFFFF" style="font-size:3px; font-family:Arial" x="141" y="290">Avg: 42.7 km</text><text fill="#FFFFFF" style="font-size:3px; font-family:Arial" x="167" y="285">Min: 42.5 km</text><text fill="#FFFFFF" style="font-size:3px; font-family:Arial" x="167" y="290">Max: 42.8 km</text><polyline fill="none" points="19.54709580083727,59.95588769150345 18.815690218747477,59.8718332139033 18.26532562232751,59.88864412326075 14.90520492833457,60.35514409897951 14.267940658784937,60.216455473295355 14.065174754839973,60.329928020237276 14.0,60.53165621457083 14.090520492827636,60.77540978744946 14.315011315047741,60.89308340570278 14.564847875270061,60.813233487417165 14.800201156642288,60.548466852484125 15.365049031926901,60.47281892742467 15.61488559213467,60.36354945510902 16.45491576564382,60.2836985021022 18.602061855664942,59.8844413965744 21.256122705555754,60.14921233383575 22.02373648478533,60.292103872932785 22.537892884080065,60.178631220962416 23.28378174501995,60.556872168846894 23.917425194871612,60.489629589545075 24.71400553181593,60.56948014014779 25.36213226050313,60.54006153439332 25.981292431475595,60.67874906182624 27.05667588635697,60.72918077328359 27.25582097057486,60.8090308558094 27.925672617551754,60.85946240649719 28.736736233331612,60.74599132993899 29.62021624339104,60.292103872932785 29.728840834795847,60.28790118773395 30.641287402555463,61.79243486868654 31.166306260987767,62.939709643622336 31.32562232838245,63.14142495643682 31.455971838076948,63.59948311559856 31.477696756337536,63.89784851348304 31.40890118178504,64.2424368262109 31.267689212982077,64.56601101183696 30.840432486787904,65.03665980046935 30.789741010812577,65.19214079879384 29.68177017850394,66.39394694249859 29.40296706058143,66.84356463516087 29.20020115665102,67.36881268667639 29.27261755091604,67.54109257794698 29.63107870252861,67.70496789838217 30.608700025157304,67.77219860907644 32.08599446818698,68.16297492617377 34.48659793814295,69.00754323990986 35.51853155644494,69.30586917147957 36.604777470449335,69.45293044950085 37.647573547888896,69.46973741903275 38.54191601710045,69.39830775083101 39.642645209954935,69.22183391800354 39.88161931102513,69.77646339945204 40.12059341210988,70.02856522237926 40.381292431484326,70.12100216804174 40.76509932108456,70.07898540046517 41.080110636146856,70.12940551636711 42.202564747291035,70.79326457807474 42.05049031933595,71.41089592658682 42.05049031933595,71.96549571965807 42.702237867735676,72.38984351292675 42.74930852401303,73.01165212868 42.70947950716072,73.12929053312473 40.819411616786965,73.0284576357335 38.027759617805714,73.2931434611819 37.96258486295119,73.31415019935957 38.0024138798035,73.37296900885849 40.93165702790429,73.13769326333932 44.06728689967713,73.2931434611819 44.18315313050698,73.18390824873859 44.19401558964455,72.78057570632154 44.17591149106738,69.83108559297762 44.00935378424765,68.57895851456851 44.0709077193751,68.43189409320621 44.21574050790514,68.37306817655917 45.845109378919005,68.19658991878168 47.98863464924216,67.70076597530351 48.090017601207364,67.70916982104245 48.14795071662229,67.8100158352463 48.11898415890755,68.34365518648337 48.245712848889525,69.25124627636978 48.86849383957451,71.524337405197 48.99160170982941,72.9486314156893 48.872114659287035,71.42770209141963 48.76349006788223,70.93191732542618 48.3036459642899,69.51175481261816 48.15519235604734,68.44029778867844 48.162433995472384,67.65874672067366 48.55348252451222,67.5705061453773 49.59265778223926,67.51588093189275 51.39944681919587,67.54109257794698 64.51767664068029,67.94447680059966 65.91169223032193,67.91086160072155 68.71058586874278,67.64614093585624 70.14443047522218,67.6629486480706 71.44430475232366,67.77640052481729 74.5038974101044,68.32264589491388 83.14317324616422,69.70923598417357 84.82685441285139,69.76805997858173 85.89861704802024,69.66721879351098 86.0,74.31825970155478 85.96017098314769,76.2633891592559 85.85516721146996,77.46487000350317 85.68860950465023,78.47727926727384 85.34825245160027,79.96854189395162 85.27945687703323,80.10296289715916 85.20341966305568,80.1281667860967 83.50887603720184,79.81731773755746 82.76660799597448,79.56947693941402 81.76364093537268,79.50646632767166 81.93381946190493,78.66631556600987 81.9664068393322,78.18742191296406 81.9446819210425,73.24692859921561 81.88674880561302,73.13769326333932 76.51345235102053,73.07047137318659 68.6128237364901,73.09988096372399 69.03283882324467,72.98224247470353 68.98938898666529,72.19657674712289 68.7974855418579,71.58315878874055 68.27970832285064,70.40671504266356 67.91400553179847,69.04115753818769 67.85607241639809,68.44449963575971 67.86693487553566,66.54942277871305 67.74744782497874,65.90650535291934 67.69675634900341,65.85608002916706 67.57364847874851,65.90650535291934 66.75896404324158,66.35612840644899 66.06738747798954,66.62085742412455 65.35408599446237,66.55362482012788 65.15856172994245,66.59564521059292" stroke="red" stroke-linecap="round" stroke-linejoin="round" stroke-width="0.5"><title>2025-11-16 42.5km</title><desc>1763251305000</desc></polyline><polyline fill="none" points="119.56016680902394,59.99435251698014 119.17670702909527,59.956562231396674 118.77877706877189,59.90617512956305 118.3844646535581,59.910374057097215 117.89609606591694,59.96915899714804 117.4149625684513,60.02374493712705 116.98085715720663,60.08672862333333 116.54313420086692,60.153911114852235 116.15243933074817,60.2210934958166 115.62427774706157,60.326065744760854 115.17931970053178,60.37645232838622 114.66562829722534,60.39324784244309 114.27855097221618,60.28407687757499 114.0,60.640980872241926 114.29302115258179,60.9474959303152 114.65115811685973,60.741753200025414 115.0020599909476,60.561202603010315 115.50489875898347,60.48142417789495 115.9353866251331,60.39744671988592 116.32246395015682,60.34286127955056 116.81083253779798,60.25888353653136 117.21599758829689,60.18330342012632 117.7224539014278,60.10352425657038 118.17464703813312,60.00694927106815 118.5689594533469,59.96915899714804 119.05009295081254,60.01534710495616 119.5203738129785,60.05313733610819 119.90383359292173,60.10352425657038 120.45370044716401,60.15811001689508 120.87695322313812,60.20849680779793 121.35085163041367,60.25888353653136 121.89348339445132,60.309270203077176 122.39270461739216,60.36385568831247 122.86660302466771,60.405844473451 123.31879616137303,60.452032087243424 123.84334019996459,60.494020781698055 124.33532633271534,60.53600943297715 124.80560719489586,60.628384313775314 125.24333015123557,60.6535774268159 125.76787418981257,60.699764760345715 126.22730241672252,60.75854856381193 126.67226046325231,60.78374159653322 127.04486760791042,60.84672411032079 127.34874139576277,60.84672411032079 127.85158016379864,60.90130887701889 128.30015575540892,60.88451357195663 128.74149625684367,60.766946243114944 129.12495603677235,60.58219689951147 129.53735617746133,60.34286127955056 129.82675978496263,60.58639575750567 130.0112545847369,60.92230299863513 130.27533537655836,61.37577339049676 130.51047580766317,61.78305269023258 130.7058232427371,62.15253967443641 130.90478822287696,62.50942733709235 131.12184092849202,62.90409947312946 131.30995327337587,63.311363529348455 131.4148620811029,63.73961619705369 131.4040094458178,64.15526890328692 131.2448374616797,64.5625204819953 131.02416721098416,64.87740293935713 130.7022056976275,65.23426678947726 130.4164196352358,65.59112752145666 130.14148620811466,65.91439866934525 129.94975631815032,66.14110677914141 129.65311762045894,66.48536483594944 129.3600964678626,66.89259318134646 129.17198412297876,67.34179912107356 129.0055770486797,67.75741517026472 128.85002260966576,68.18562122237927 128.6619102647819,68.62641688160511 128.52082600613357,69.13857348344754 128.4629452846275,69.53737950562208 128.35803647690045,70.06631622400528 128.2929206652334,70.5028937534662 128.2097171280766,70.96885116234625 128.15183640655596,71.41381453855502 128.08310304979386,71.86716846652052 128.01075214792218,72.32891266702791 127.93840124603594,72.70669949560397 128.2241873084422,72.96695061237551 128.65105762951134,72.92497473790718 129.10325076621666,72.90818437604321 129.4830930010503,72.90818437604321 129.89187559664424,72.90398678450947 130.11978093754442,72.89139400728527 130.60091443501005,72.87040603663627 131.08928302266577,72.8410228596149 131.50530070843524,72.86201084535423 131.98281666080584,72.92917232729451 132.40606943677994,73.02571676418665 132.8618801185803,73.10547069219683 133.32854343566578,73.22720007168755 133.7481786665303,73.30695360645404 134.17504898759944,73.37411435713511 134.67065266543068,73.37411435713511 135.08305280610512,73.40349715083721 135.55333366828563,73.41189223086258 136.01637944027607,73.41189223086258 136.43963221625017,73.4202873091781 136.91714816860622,73.41189223086258 137.3693413053261,73.39929961016605 137.83238707733108,73.35312663439618 138.28096266894136,73.28176829651056 138.70421544491546,73.23979274541489 139.15279103652574,73.17263177399218 139.49284027534304,73.16843420962323 139.8256544239557,73.13485367906105 140.27423001558054,73.08868040449306 140.76983369341178,73.05509980839997 141.2437321007019,73.06769253517268 141.677837511932,73.09707554920533 142.16982364468277,73.13065611080674 142.62563432649767,73.14324881429275 142.61839923629304,72.73188515998481 142.52434306386567,72.36249385989504 142.15173591920757,72.11483191375373 141.95277093905315,71.80000523902709 141.9853288449085,71.26269544475872 142.1047078329866,70.83871944782368 141.79359895494417,70.62882871232432 141.35949354368495,70.36016699748143 140.97241621866124,70.16286742556258 140.49128272121015,70.1166907924162 140.12952821183717,70.10829503533387 139.8473596945114,69.83543199072665 139.6556298045616,69.40724323156246 139.86906496508163,69.17635527353559 140.14038084710774,69.12178156552181 140.6287494347489,69.00843593898753 141.0845601165638,68.90768400695379 141.5295181630936,68.80273381354345 142.0070341154642,68.68938730180525 142.46284479726455,68.61802081824862 142.976536200571,68.56764440184634 143.4504346078611,68.51726792334375 143.80133648194897,68.52146596559032 143.93518565042177,68.97065399360508 143.99306637189875,69.41144118235388 144.0400944581197,69.9025984477048 144.07265236396051,70.33917772661152 144.0979751796258,70.79674138697737 144.0617997286754,71.28788199920746 144.05456463849987,71.73284190114282 144.05456463849987,72.17779695762147 144.05456463849987,72.64793288500005 144.05094709341938,73.04250707776373 144.3186454303359,73.33633644845395 144.69487012008904,73.34892908856636 145.1687685273646,73.3699168134408 145.6390493895451,73.42448484769193 146.04783198513906,73.45806514024662 146.51811284730502,73.49584293636872 146.97754107421497,73.52102811439181 147.42249912074476,73.53362069758441 147.89639752802032,73.53362069758441 148.3594433000253,73.53362069758441 148.7971662563359,73.49164540519632 148.82972416219127,73.94497628139288 148.9237803346332,73.76868153821852 148.95272069537896,73.31534870632822 148.96719087574456,72.88719641400894 148.94910315026937,72.4800278175826 148.92739787971368,72.02248300724023 148.8514294327615,71.53974668978117 148.75737326031958,71.09478468501402 148.65969954278262,70.76315890725527 148.51861528411973,70.37695840642118 148.37029593528132,69.94037953124644 148.21474149626738,69.45342066658486 148.17133095514146,69.05041583733328 148.1062151434453,68.56764440184634 148.09174496306514,68.0638768211029 148.17494850022194,67.66505641366894 148.68140481335286,67.60628255074698 149.1046575893124,67.56849930848693 149.55685072601773,67.56430116830961 150.00542631764256,67.57689558757556 150.468472089633,67.58949000293796 150.89895995578263,67.5936881405396 151.38009345324826,67.60208441445138 151.89016731145966,67.62727322578576 152.3532130834501,67.64406575803514 152.7945535848994,67.64406575803514 153.31186253328633,67.67345267290148 153.80746621111757,67.66925454349257 154.3066874340584,67.70283956660205 154.7986735667946,67.69444331341583 155.2436316133244,67.71543394314722 155.65964929910842,67.72802831580702 156.00693362810125,67.74482080666348 156.39039340804447,67.75321704948874 156.82088127417956,67.75741517026472 157.30563231674023,67.7658114104961 157.79761844947643,67.78260388581839 158.2461940411158,67.80779258584153 158.72009244837682,67.82458504389797 159.19399085565237,67.83717938290283 159.6570366276428,67.84557560675603 160.08028940361692,67.85816993930348 160.54333517560735,67.87076426795466 161.00276340250275,67.90854723062148 161.44410390395205,67.89595291361184 161.89629704065737,67.92114154374212 162.28699191077612,67.91694343980271 162.75727277295664,67.92533964724862 163.213083454757,67.92953775033675 163.6725116816815,67.95052825926177 164.08129427724634,67.97991495364113 164.50092950811086,68.00090543669648 164.98568055067153,67.98831114815766 165.31125960912323,67.9841130511195 165.72727729487815,67.95052825926177 166.13605989048665,67.92533964724862 166.62804602322285,67.88335859272047 167.04768125408737,67.84137749504225 167.4130533085554,67.79519823777446 167.86886399035575,67.74901892829439 168.29573431141034,67.72383019202243 168.67557654624397,67.7070376925476 169.14947495353408,67.68184893039142 169.55825754912803,67.69444331341583 170.0466261367692,67.72383019202243 170.45902627745818,67.74482080666348 170.9112194141635,67.78680200357121 171.3489423705032,67.84977371802961 171.80475305231812,67.90434912537967 172.22438828316808,67.93793395520697 172.5933778827457,67.9715187574111 172.95513239210413,68.04288637041827 173.24815354470047,68.15623467598198 173.67502386575507,68.22340389384044 174.0729538260639,68.2863749352473 174.3225644375343,68.32415751352528 174.59026277446537,68.37033617282214 174.98457518967916,68.43750503864067 175.45485605185968,68.51726792334375 175.89981409838947,68.58863458290216 176.29412651360326,68.65580308977587 176.68120383862697,68.7187734646759 177.17318997137772,68.80273381354345 177.58197256695712,68.86990196839179 177.94010953123507,68.93287201325802 178.41400793851062,69.01263393076442 178.82279053410457,69.07140577032624 179.28221876099997,69.14696943981471 179.647590815468,69.20574108611254 180.0997839521733,69.27710654297698 180.55197708890773,69.36106574434962 180.94267195901193,69.4240350321561 181.36230718987645,69.48700422289767 181.81450032658176,69.56256712369213 181.86514595789777,69.95297321798716 181.88323368338752,70.37695840642118 181.87961613827792,70.85131285765965 181.9085564990237,71.26269544475872 181.87599859318289,71.70345790610736 181.8723810481024,71.9217385075608 181.94111440487904,72.19458761958958 181.94834949505457,72.49681835537558 181.89770386375312,72.92497473790718 181.93026176959393,73.3699168134408 181.89408631865808,73.8148540444563 181.86876350300736,74.30176093462433 181.87599859318289,74.55360704979103 181.89046877356304,74.7802672265243 181.886851228468,75.14543931163644 181.88323368338752,75.61134378666611 181.87599859318289,76.02687572961804 181.88323368338752,76.47178403598446 181.86514595789777,76.88730723154731 181.8723810481024,77.33640330925118 181.8723810481024,77.81067698781408 181.86876350300736,78.26395996262727 181.8506757775467,78.65428294121375 181.78194242074096,79.05719307463369 181.64085816209263,79.48528074046408 182.02793548711634,79.56502206531513 182.4982163493114,79.58180969283785 182.89614630960568,79.65315703287342 183.22172536805738,79.73289803028456 183.36642717180075,79.78326068536262 183.67753604985774,79.81263887216846 184.0935537356272,79.89237955850695 184.51680651158676,79.9847106852394 184.95814701302152,80.05186046462404 185.3054313420289,80.05186046462404 185.4211927850265,79.64056633487053 185.53695422800956,79.19988946131707 185.58759985932556,78.99843559417059 185.6418630357366,78.71723791132536 185.70336130232317,78.27235404438761 185.77932974930445,77.88622449932882 185.84082801589102,77.41195169731145 185.89147364720702,76.95865927452905 185.93850173341343,76.53474236743932 185.96020700396912,76.08144021642147 185.98552981964895,75.72047379690048 185.97829472945887,75.30493873879095 185.99638245493406,75.01951827155426 185.98914736472943,74.70051656693613 185.98191227453935,74.28497113843332 185.97467718436383,73.85263151077743 185.97105963925424,73.45386760518522 185.9674420941592,73.05509980839997 185.9529719137936,72.74028037799872 185.94935436869855,72.5178065179025 185.94211927850847,72.24915722336664 185.90594382755808,71.83778456807704 185.9204140079528,71.41381453855502 185.91317891777726,71.00663125990104 185.90594382755808,70.66241130245544 185.90594382755808,70.20064826840826 185.90594382755808,69.92358794287429 185.85529819627118,69.67591121282021 185.59845249459613,69.62973402928037 185.35969451842539,69.65492159040514 184.90750138170552,69.69270290297573 184.538511782157,69.70529666606672 184.0465256494208,69.70949458624455 183.63050796363677,69.69270290297573 183.19640255237755,69.66331744066338 182.79123750190774,69.60454645262143 182.3426619102829,69.54157744304393 181.91217404413328,69.46181655825421 181.92302667940385,69.07980174050681 181.91217404413328,68.68518927680634 181.86514595789777,68.29896913189441 181.82897050697648,68.07227299835358 181.77470733056543,67.77840576763992 181.7204441541544,67.56010302769573 181.57935989550606,67.16127770163439 181.44912827214284,66.80443068803652 181.30080892328988,66.38040841878319 181.09460885294538,65.99836478266297 180.67135607698583,65.97317496678806 180.21916294026596,65.95218344168825 179.82485052505217,65.92699359734252 179.4196854745678,65.90180373746261 178.9783449731185,65.87661386203763 178.63106064414023,65.84722565441189 178.2005727779906,65.81783742563493 177.78093754709698,65.8052424639609 177.44450585340383,65.83882901977631 177.02125307742972,65.9060020485158 176.74993719541817,65.97317496678806 176.4894739486772,66.03614947732785 176.2470984273823,66.07813243042256 176.03366326686228,66.09492559957653 175.66467366731376,66.11171876182561 175.24503843642015,66.14530506560186 174.84710847612587,66.16209820713993 174.4419434256124,66.04034777458219 174.10551173191925,65.79684582070695 173.82696075970307,65.88501048890612 173.57011505804257,65.98576987667548 173.15771491736814,66.1495033516403 172.73446214139403,66.24186553513937 172.30759182033944,66.2460638112425 171.86263377380965,66.2166758694475 171.47555644878594,66.1746930587542 171.11380193941295,66.09912389079182 170.85333869265742,66.03195117964788 170.50605436367914,66.00676138449126 170.0466261367692,65.8682172334411 169.64507863136532,65.72127595362326 169.2977943023725,65.64150760891425 169.0445661458216,65.61631757294526 168.7551625383203,65.6331109319799 168.50916947194492,65.67929263372571 168.02080088430375,65.85982060312017 167.579460382869,66.02775288154226 167.12726724614913,66.2166758694475 166.65698638396861,66.45177881180643 166.38205295684747,66.50635608702942 165.98412299653864,66.67428570724587 165.43787368737685,66.67428570724587" stroke="red" stroke-linecap="round" stroke-linejoin="round" stroke-width="0.5"><title>2023-10-28 42.6km</title><desc>858722499</desc></polyline><polyline fill="none" points="31.279388881026534,140.66001224948923 31.523836469074013,140.14535727722614 31.788654689502437,139.58928809317877 32.048380251799244,139.10420206111303 32.29282783987583,138.56587007552298 32.506719479424646,137.97429063672826 32.766445041721454,137.2998826318326 33.026170604047365,136.68462630492286 33.250247559772106,136.1107755112098 33.540529070596676,135.4422616738957 33.810439949069405,134.75599157365286 34.075258169468725,134.11704306142565 33.795161974820076,133.6614920885695 33.23496958552278,133.41300821402547 32.746074409398716,133.6851571633124 32.058565567975165,133.82123115349168 31.421983307402115,134.14662416826468 30.917810157028725,134.44243439728234 30.398359032376902,134.88023073524164 30.102984863478923,135.45409384498998 29.807610694580944,136.05161530901023 29.435846654407214,136.63138265854286 28.987692742957734,137.11057369591072 28.57009478000691,137.53651792281744 28.116848210484022,138.05119630888657 27.673786957137054,138.55995431133852 27.765454802662134,139.13969630014617 27.653416324785212,139.66619159949187 27.373320130165666,140.3169094478144 27.083038619341096,140.85522499632862 26.79275710848742,141.44085925002582 26.471919649193296,141.95550259693118 26.095062950917054,142.47605668677352 25.539963219693163,142.6890092708927 24.95430753994151,143.04392848742282 24.363559202145552,143.40476077280982 23.747347573924344,143.71826894835613 23.268637713976204,143.99036899469502 22.693167350400472,144.30978914122534 22.015843825152842,144.58780152464897 21.379261564579792,144.88355790017522 20.951478285482153,145.19114291310325 20.416749186581,145.43366070272896 19.73942566133337,145.69392255591083 19.05191681990982,145.88320316202953 18.49681708868593,146.17895285878694 17.91116140896338,146.45104123313286 17.34587636156357,146.73495816090872 16.760220681870123,147.01295879118697 16.144009053590707,147.22589453303954 15.492148818768328,147.23180940348175 15.176404017547611,147.6281043335075 15.130570094770519,148.23732851386012 14.977790352248121,148.93526671126165 15.054180223494768,149.56813553342 15.00834630074678,150.14776627395986 14.9166784552217,150.8161087370063 14.774084028846119,151.4489568140125 14.6111189701478,152.13502721826808 14.483802518021548,152.7087177244939 14.29028151082457,153.44800115642283 14.178243032947648,154.0926485358832 14.061111896997318,154.76685914890913 14.04074126467458,155.35826544620795 14.162965058698319,156.00289136872743 14.646767576719867,156.52923193613242 15.196774649870349,156.81901288492736 15.812986278120661,156.78944346737262 16.352808035095222,156.70073512335512 17.01485358606442,156.6238544476255 17.62597255621222,156.54697366893015 18.19125760361203,156.45826495014626 18.873673786962172,156.29858891084223 19.49497807325679,156.1448263790553 20.146838308079168,156.00880533449163 20.83943980760523,156.0206332642083 21.430188145430293,156.2926749749422 22.00565850897692,156.67707954177968 22.54038760784897,157.01417065862552 23.08020936482353,157.36308744882263 23.635309096047422,157.7179159076586 24.236242750048405,158.1141384277762 24.82189842974185,158.45713481864004 25.310793605895014,158.78830180301156 25.881171311368234,159.1194668768003 26.46173433298827,159.52159332648444 27.052482670813333,159.8764084427712 27.597397085861303,160.23122136595703 28.142311500938376,160.60377257510117 28.763615787232993,160.9940617248758 29.364549441233976,161.24242616596166 30.077521573053673,161.36660798357116 30.770123072579736,161.4553091173948 31.452539255929878,161.60314403591474 32.063658226048574,161.98159969258268 32.430329608148895,162.50788544328316 32.221530626673484,163.19382367452272 32.13495543922181,163.83244845422087 32.180789361998904,164.4592399420726 31.620596972701605,164.6366325171075 30.892346866603475,164.64254559349502 30.225208657502662,164.6307194401088 29.629367661604192,164.57158863655786 29.135379827406723,164.5656755528471 28.371481114736525,164.57750171965745 27.73999151220778,164.4060220626743 27.44971000138321,163.95662466984868 27.622860376286553,163.34165411648792 27.760362144559622,162.67937076937596 27.877493280509952,161.9697729910731 27.923327203287045,161.28973355672497 27.923327203287045,160.62742653850728 28.223794030258432,160.0124203225132 28.503890224936185,159.3619258086619 28.753430471057072,158.75281971749428 29.140472485509235,158.2087583265129 29.532607158005703,157.61738140035231 29.899278540106025,157.00825679644913 30.250671947927913,156.45826495014626 30.668269910878735,155.94375167747785 31.121516480401624,155.4647179325184 31.503465836751275,154.95019575285187 31.834488612250425,154.48298196143514 32.246993917098735,154.01576436636606 32.735889093222795,153.5189718648653 33.138209081895184,152.99260368878458 33.581270335271256,152.46623068454937 34.024331588618224,151.95759600354722 34.396095628791954,151.36024021451158 34.71693308814429,150.80427973453698 35.0785118121421,150.183253680083 35.404441929538734,149.66868414288183 35.76092799549224,149.05947516152082 36.091950770962285,148.47391868455816 36.41278823031462,147.77597487474122 36.764181638136506,147.20223504519163 37.416041872958886,147.3382769670352 38.037346159282606,147.49206309892907 38.531333993480075,147.90610063578788 39.01513651153073,148.39702698609835 39.47856839722954,148.84654622500238 39.98274154760293,149.3256352209355 40.5276559626509,149.16593933346667 40.96053189985105,148.64544594823747 41.418871127447346,148.06580003003182 41.82119111614884,147.72274152381578 42.28971565992106,147.29095807429985 42.95176121091936,147.27321347946054 43.64436271044542,147.42108493542764 44.1943697835668,147.88244142846088 44.71891356629203,148.32604994221037 45.16706747771241,148.74008146042252 45.70688923468697,149.2487446639243 46.2314330173831,149.7337449139377 46.69995756118442,150.1359371336912 47.24487197623239,150.59135727307876 47.79997170745628,150.99945796345492 48.34488612250425,151.39572687077452 48.874522563273786,151.80973623884347 49.37869571367628,152.20008519286785 49.97453670957475,152.64366032654289 50.49908049229998,153.01034651491864 51.09492148819845,153.44800115642283 51.51251945112017,153.69639825195554 52.16947234404506,154.01576436636606 52.84679586929269,154.32330042641843 53.32550572924083,154.53029492353744 54.21162823596387,154.88514089591627 54.53755835336051,155.38192157134836 55.05191681990982,155.96149359125775 55.63247984155896,156.41686750113877 56.12137501768302,155.9378377050125 56.518602348282,155.3937496302533 56.96166360162897,154.8673986493959 56.90564436270506,155.0152505360711 56.4676757674315,155.59482625876626 56.03989248833386,156.150740330213 55.63247984155896,156.67707954177968 55.34219833073439,157.327604482296 55.33201301455847,157.9308119300731 55.84637148110778,158.01951837304296 56.52878766442882,158.33294670692703 56.90564436270506,158.53992674386973 57.623709152656374,158.8296975417179 58.24501343895099,159.0485030932614 58.8612250672013,159.43880281714883 58.83066911867354,160.12477771926933 58.60149950487539,160.7220422946375 58.886688357626554,161.18920530475225 59.52836327627301,161.3547811553617 60.20568680152064,161.4080018630848 60.84226906209369,161.4493957127488 61.575611826294335,161.33704090851097 62.24275003536604,161.4789627299433 62.874239637865685,161.63271097391407 63.58211911161197,161.63271097391407 64.22888668836094,161.51444313048705 64.865468948934,161.3547811553617 65.38492007355671,161.644537744869 66.01640967605636,161.99933974029045 66.59188003960298,162.2654397978913 67.14188711275347,162.6024981003211 67.76319139904808,162.77398314384482 68.35903239494655,163.14651785271417 68.77663035789737,163.5722688458918 68.95996604894754,164.29958615594296 69.13820908189518,164.967763857534 69.35210072147311,165.52950015687748 69.79006931671756,166.11488266373271 70.27896449287073,166.61747904466756 70.66600650726468,167.14372230576555 70.89008346301853,167.86508163674807 71.52157306548906,167.96559820130278 72.15815532606211,168.06020186602836 72.90168340640957,168.0838527578817 73.54335832508514,168.01881278187648 73.97114160418278,167.56944366250536 74.40911019945634,167.18511202061563 74.92346866600565,166.81851636534702 75.62116282360512,166.7771263862669 76.28320837457431,166.77121352967515 76.94525392560172,166.6293047888903 77.551280237647,166.7948649523787 78.15221389164799,167.16146075865254 78.74296222944395,167.03729147345075 79.36426651576767,166.7534749562583 79.7869571367919,166.31592174398975 79.71565992361866,165.553152091019 79.69528929126682,164.89089425227212 79.85825434996514,164.23454189358745 80.31659357759054,163.73783782397368 80.85132267646259,163.37122015919886 81.50318291131407,163.02825312765344 82.13976517188712,162.93955442398146 82.78144009053358,162.59067152673015 83.41292969300412,162.47240565668108 84.06988258592901,162.06438653491932 84.58424105247832,161.55583690338972 84.49766586505575,160.8462252378995 84.43655396802933,160.1661724942096 84.4722025746014,159.44471642890494 84.49257320698234,158.894747927945 84.53840712973033,158.1496209080833 84.86433724712697,157.51684671696785 85.35832508132444,156.98460134162815 85.96435139339883,156.73621847741015 85.96944405150134,156.07977287623726 85.93379544490017,155.37009351000233 85.94398076107609,154.74320277024162 85.91851747065084,154.0571635473607 85.90833215447492,153.40660153597491 85.53147545619868,152.9452894589267 84.99165369922412,152.84474659097032 84.44673928420525,152.76194644978386 83.80506436552969,152.66140326059394 83.26524260855513,152.46623068454937 82.81199603903224,152.00491104777757 82.38930541803711,151.51992999484355 81.96661479701288,150.96397106211953 81.94624416466104,150.2601429847382 81.84948366106255,149.73965952583967 81.49299759513815,149.18959801149686 81.060121657938,148.69276372384047 80.58141179798986,148.50940712602096 80.31659357759054,148.4443449665814 79.89390295656631,148.31422042635677 79.41010043854476,148.16043649831045 78.81425944264629,147.8646970165537 78.28462300184765,147.54529666391682 78.12675060119363,146.94198003492056 78.18276984014665,146.3090822422928 78.30499363417039,145.65843237272566 78.42212477012072,145.04326570890407 78.5188852737192,144.43400760672012 78.6665723581682,143.81882781149397 78.86518602349679,143.22730255547503 79.00268779176986,142.79548526645522 79.03324374026852,142.6653479116976 78.81425944264629,142.2216956195116 78.5188852737192,141.6833928969063 78.16239920782391,141.0977611197959 77.86193238082342,140.59494118622024 77.42396378554986,140.2755003501843 76.86377139622346,140.3169094478144 76.28320837457431,140.34648735639712 75.82486914697802,140.40564312780043 75.48875371340546,140.44705213147245 74.97948790492956,140.48254553937295 74.40911019945634,140.57719451978483 74.01188286885736,140.99128197237587 73.45678313763347,141.186493591631 72.9169613806589,141.47043657894756 72.43315886263736,141.73663185284386 71.83731786673889,141.7780398955183 71.1854576319165,141.67747745430825 70.86971283066669,141.79578619038512 70.68128448154312,142.09155696283415 70.52850473902072,142.6653479116976 70.27387183476822,143.23913312038349 69.92757108501974,143.77150601549147 69.5507143867435,144.20331595668176 68.9446880746982,144.07318179607682 68.74098175132531,143.73601464289095 68.90903946809703,143.42842182697495 69.23496958552278,142.80140059374025 69.38774932804517,142.32225710650528 69.5507143867435,142.02057211655847 69.68821615504567,141.7070546612049 69.85118121374398,141.0977611197959 70.14146272456856,140.583110075866 70.47757815814111,140.05070758411966 70.60998726834077,139.68393854783062 70.75258169471635,139.43548077117885 70.85952751449076,139.05687637487426 70.90026877916534,138.69601673302896 70.6710991653672,138.1695125262304 70.39100297071855,137.52468618143757 70.60489461026737,137.199312337445 70.90026877916534,137.45369568204478 70.95628801808925,137.8559740165947 71.09888244446483,138.216838944787 71.1803649738431,138.48896509360566 71.59287027869141,138.84982603838216 72.18871127458988,138.98588777229452 72.53501202433836,139.05687637487426 72.86603479983751,139.05687637487426 73.25307681426057,139.13378059515526 73.63502617061022,139.21068471232502 73.89984439100954,139.29350441548013 74.05262413353194,139.3526612730784 74.393832225207,139.00955064958907 74.52114867733326,138.39431266656538 74.1850332437316,137.83231066327426 73.97114160418278,137.47735919161642 73.79289857123513,137.0336667621632 73.7776205969858,136.4716514228203 73.59428490593564,135.75581338234042 73.40076389870956,135.2943593294658 73.59428490593564,135.59607970740035 73.73687933231122,135.94512679121544 73.84891781015904,136.45981946173197 73.92021502333228,137.0159189935839 73.89984439100954,137.02775083991583 74.13919932098361,137.56018139819207 74.55679728390533,137.9269640179591 75.0558777762053,137.53060205242582 75.43273447448155,137.10465778159778 75.6619040882797,136.80294534203858 75.82486914697802,136.30600374540518 76.13552129012533,135.83272203008164 76.65497241477715,135.58424756562817 77.11840430047596,135.17012106527545 77.57674352807226,134.76190773032067 77.85683972275001,134.25311602653164 77.93322959402576,133.63782700405864 77.78554250954767,132.9870333518993 78.1573065497214,132.54330617140658 78.75824020372238,132.20015479675203 79.27259867024259,131.92208234853024" stroke="red" stroke-linecap="round" stroke-linejoin="round" stroke-width="0.5"><title>2023-04-16 42.7km</title><desc>791522361</desc></polyline><polyline fill="none" points="155.1467680608621,139.8641545844439 155.135817490489,140.45957860765338 155.19604562738095,141.078814881148 155.67239543728647,141.25148567800352 156.33490494298167,141.27530231032142 157.00836501902086,141.30507309074164 157.2492775665596,141.9481192383755 157.17809885932365,142.54948178280029 157.1288212928048,143.25205802876008 157.1288212928048,143.99035182963416 157.05216730036773,144.71077710374084 157.00288973384886,145.34784197288536 156.96456273764488,146.16946953433217 156.92623574147,146.818430256797 156.920760456298,147.57455215421942 156.92623574147,148.30089873259567 156.90433460078202,148.94984213828138 156.88790874526603,149.68808327252918 156.9317110266129,150.4025036811363 156.89885931561003,151.1407313918171 156.90980988595402,151.83132533304888 156.920760456298,152.56358652647032 156.9317110266129,153.25416816998768 157.63254752851208,153.313700790859 158.28958174906438,153.3672801117209 158.99041825096356,153.45657889998984 159.7460076045827,153.53397110243532 160.47969581751386,153.63517617714388 161.13673003803706,153.67684881771856 161.8704182509682,153.80186660902837 162.58768060838338,153.93283741872438 163.25566539925057,154.05190160489292 163.94555133083486,154.15310602365207 164.7066159695969,154.24835712423373 165.32532319391612,154.36146765871672 166.10828897339525,154.4209994546618 166.8474524714984,154.48648437896918 167.57566539925756,154.62340722914814 168.28197718632873,154.72461092414596 168.94996197719593,154.8258144909778 169.51391634982429,154.91511164939584 170.22022813692456,155.01036184173427 170.84441064641578,155.09370566689904 171.6164258555218,155.20681500490173 172.33916349810897,155.30206484955852 173.02904942969326,155.4032676851275 173.72441064639133,155.52232968054886 174.38692015211564,155.64139149859693 175.13155893539079,155.71282850428543 175.89262357415282,155.71878158521577 176.598935361224,155.66520384093747 177.2669201520912,155.64139149859693 178.01703422053833,155.6116260607232 178.69596958174952,155.56400133706484 179.43513307988178,155.48065800233599 180.10311787074897,155.33778351203364 180.75467680610018,155.21276812350698 181.47193916351534,155.02822124015802 182.2165779467905,154.84367393064167 182.89551330800168,154.8853459410093 183.62920152093284,154.8793927979932 184.26980988594005,154.8079550473194 185.0144486692443,154.75437669239182 185.62220532321953,154.8793927979932 185.6769581749395,154.87343965454784 185.0199239543872,154.73651723276998 184.362889733864,154.74842353963322 183.57992395441397,154.84367393064167 182.90098859317368,154.8853459410093 182.2056273764465,154.81390819563967 181.60882129278616,154.93297106910177 180.875133079855,155.0877525394244 180.2345247148478,155.23062747670338 179.45155893536867,155.36159594482888 178.82190114073455,155.46279870501166 178.0608365019143,155.48065800233599 177.2669201520912,155.53423587034194 176.52775665401714,155.5937667926628 175.81596958177397,155.6235322372013 175.23558935362962,155.6235322372013 174.5895057034504,155.5699544290619 173.89961977189523,155.45684560501104 173.22615969582694,155.36159594482888 172.55817490495974,155.2187212416684 171.8244866920286,155.1175181724102 171.1291254753014,155.02822124015802 170.37901140685426,154.93297106910177 169.73292775667505,154.8079550473194 169.03756653994787,154.73056407868717 168.36410646390868,154.65912619494338 167.6577946768375,154.546016081782 166.92410646390636,154.43290580852045 166.26159695821116,154.38528038240474 165.54980988593888,154.29002944503736 164.82707224335172,154.2007315881201 164.13718631179654,154.09357402813475 163.62798479088815,153.9923695339894 162.99285171105294,153.93283741872438 162.31939163501374,153.83163272099773 161.60212927759858,153.73042789509054 160.94509505704627,153.6589891172771 160.33733840307104,153.43871915031923 160.26615969583509,152.68860605955706 160.2497338403191,152.0218329560521 160.2387832699751,151.31933384543663 160.11832699622028,150.6168285579406 160.01977186312433,151.1228711244985 160.03619771864032,151.85513881078077 160.11285171104828,152.58739978595258 160.13475285173627,153.21249530898785 160.16760456276825,153.89711812826863 160.18950570342713,154.49243755124917 160.20593155897222,155.13537754688878 160.2387832699751,155.91523300697736 160.2606844106631,156.55816155658977 160.26615969583509,157.30228536541836 160.2552091254911,158.01068479462992 160.2552091254911,158.72503080280876 160.403041825135,159.35007832341216 160.54539923954871,160.0763178759371 160.5892015209247,159.54652082051325 160.5782509505807,158.9988617467243 160.51254752854584,158.27856529580458 160.45231939165387,157.59993294920423 160.76441064639948,157.13560223433888 161.3776425855467,156.826046925853 162.040152091271,156.6057856878615 164.73946768062888,157.07607246043335 165.26509505705326,157.27847351082164 165.8783269962296,157.4868269979197 166.45323193917284,157.70708580801875 167.1595437262731,157.87972066733346 167.8439543726563,158.02259061374934 168.4955133079784,158.15950740612607 169.19087452473468,158.254753732057 169.6288973384071,158.33809417414886 170.25307984792744,158.42143452935852 170.9648669201706,158.5404920289293 171.6273764258658,158.66550221261423 172.24608365021413,158.76670078956522 172.99072243346018,158.80241790378932 173.58205323194852,158.81432360498002 174.16243346009287,158.82622930439538 175.00562737643486,158.85004069791466 175.68456273764605,158.87385208435444 175.2574904943176,158.76074793565203 174.57307984793442,158.74884222647233 173.91604562741122,158.74884222647233 173.20973384031095,158.68931365400204 172.54722433461575,158.64764362691494 171.85733840306057,158.5464448992425 171.22220532322535,158.46310467437434 170.52684410646907,158.32023551530438 169.90266159697785,158.2011776876825 169.42083650192944,158.1237900046326 168.8349809886131,158.0880725871757 168.1505703422299,157.97496732664877 167.60851711028954,157.7844738945132 166.8638783270144,157.70708580801875 166.31634980990202,157.51659173746157 165.64288973386283,157.31419129004644 164.96395437265164,157.17132007740292 162.27558935363777,156.49267832975602 161.7390114068694,156.61173870226776 161.4050190114358,156.7248458918766 160.83011406843434,156.962965767867 160.21688212928711,157.24870868261496 159.5926996197959,157.40348566826287 159.03969581751153,157.4511092958419 158.37171102664433,157.37372088660777 157.72015209126403,157.08797841876367 157.21642585552763,157.02844860938785 156.72912547530723,156.98082472995156 156.18159695819486,156.93320082214632 156.03376425858005,156.962965767867 153.75057034223573,156.95701277960325 153.1373384030594,157.03440159231104 153.07711026616744,157.16536710467335 153.67939163499977,157.052260538454 154.22144486694015,157.31419129004644 154.36927756655496,157.95115567244648 154.42403041827492,158.5821621118812 154.51163498099777,159.20125792846375 154.54996197720175,159.79653784597758 153.94220532322652,159.78463229105546 153.34539923956618,159.68938778794836 152.71026615973096,159.52866243162862 152.1298859315866,159.3381727020169 151.60425855516223,159.0345787572005 151.06768060839386,158.70717223040992 150.8541444867151,158.17141320305382 150.42159695818555,157.82019144762307 149.92334600762115,158.17141320305382 149.72623574145837,158.38571724490612 149.32106463881792,158.64169076413236 148.81186311788042,159.02862592323072 148.3628897338349,159.32626707883173 147.82083650192362,159.64771828215453 147.22950570343528,159.8977349911147 146.56699619771098,159.90964052917843 146.10159695817856,159.74891561568074 145.5485931558942,159.8977349911147 144.90798479088699,159.82630172547215 144.28927756653866,159.86797113819193 143.76365019014338,159.93940436658886 143.02996197721222,159.80249062275834 142.3838783270039,159.82034895046672 141.0752851711004,159.8858294512611 140.77961977187078,159.86797113819193 140.30326996199437,159.90368776035757 139.79954372625798,159.64176549384138 139.19178707225365,159.51675683682697 138.84136882130406,159.53461522838916 137.41231939164572,159.3560311334295 137.25901140685892,158.94528620106576 137.37399239544175,158.5464448992425 136.68410646388656,158.15950740612607 134.42828897340223,156.5641145745467 133.91908745246474,156.2426509701836 133.24015209125355,155.92713913823536 130.5189353612368,154.74842353963322 129.94950570343644,154.45076533599786 129.64836501900572,154.31384219002211 124.7370342205395,153.3256073097 122.36623574147234,153.14700934063876 123.7405323194107,154.13524642965058 121.72015209126403,153.772100485985 122.81520912548876,154.50434389447764 122.48121673005517,154.9091585086062 122.02676806083764,155.10561192053865 121.65992395437206,155.27825239903177 121.32045627376647,155.45684560501104 120.931711026642,155.65329767065123 120.55391634983243,155.8259369660518 120.16517110267887,156.03429423969646 119.85855513307615,156.16526139083726 119.48623574146768,156.37361777987826 119.09749049428501,156.55220853817445 118.53901140685775,156.83199992385198 118.16121673004818,156.97487174304842 117.88745247150655,157.12369628311717 117.64653992393869,157.23084978036786 117.57536121676094,157.20108493443695 117.16471482889028,157.45706224730384 116.69931558935787,157.60588588956307 116.27224334600032,157.79042682113504 115.75209125474794,158.02259061374934 115.53307984792627,158.22498926739354 115.6644866920251,158.74288937122765 115.73566539926105,159.19530510691402 115.20456273766467,159.1833994624467 115.01840304184589,158.76074793565203 114.87057034220197,158.37381147988344 114.6570342205523,158.03449643109343 114.45992395438952,157.62374470802024 114.27376425857074,157.27252054605924 114.13140684412792,156.80223492939695 114.02737642585998,156.46886623397586 114.23543726236676,156.45696018343006 114.18068441064679,156.96891875566507 114.63513307983521,157.0820254398277 115.25384030421264,156.94510680177336 115.77946768063703,156.73079889742075 116.34889733840828,156.4807722827536 116.72121673004585,156.3676647477405 117.06068441065145,156.2962283273664 117.52608365021297,155.99857588850864 117.9695817490574,155.74259390447696 118.9551330798713,155.29611173758894 119.32197718633688,155.23062747670338 119.59574144484941,155.01631497497874 119.91330798479612,154.8317676379811 120.25277566540171,154.73056407868717 120.71269961979124,154.45076533599786 121.23832699621562,154.23645074285741 121.67087452471606,154.0161823676608 121.95558935360168,153.89711812826863 122.24030418251641,153.73638112368644 122.70570342204883,153.54587758846174 123.18752851709723,153.28393448596034 123.45581749049597,153.18868223579193 123.92669201522949,152.9862708271903 124.14022813687916,152.9088780942693 124.43589353610878,152.7659990058164 124.8958174905274,152.6112130383408 125.15315589352394,152.59335309971357 126.03467680609901,152.31950020764634 126.30296577949775,152.18852675356902 126.5548288973514,152.17662006527826 127.01475285171182,152.09327319757722 127.42539923958248,152.05159973111586 127.66631178706302,152.0396930224233 128.15361216731253,151.95039265065134 128.47117870725924,151.98015945233783 128.73399239545688,152.0158795997122 129.06798479089048,151.95634601189522 129.3800760456361,152.14089998976124 129.95498098860844,151.98611281133344 130.43680608368595,151.98015945233783 130.79269961977843,151.95039265065134 131.0336121673172,151.92062583789084 131.30737642585882,152.17662006527826 131.6796958174964,152.42070682057238 131.91513307986315,152.51595998623088 132.1834220532619,152.6647928302409 132.63239543727832,152.8136253970224 133.20730038022157,153.01008396069665 133.53034220534028,153.28988774783647 133.842433460115,153.46253214898752 134.28593155893032,153.6411294128411 134.92106463879463,153.772100485985 135.39741444867104,153.92688420474587 135.75878326999373,154.00427595170186 136.07634980991133,154.0757144208328 136.39939163500094,154.14119962810219 136.7990874524694,154.09952722967864 137.1330798479321,154.09952722967864 137.57110266160453,154.3376549279128 138.04745247148094,154.46267168542545 138.58403041827842,154.45076533599786 138.90707224336802,154.43290580852045 139.15893536122167,154.4209994546618 139.64623574144207,154.37932720214303 140.1006844106596,154.49243755124917 140.593460076052,154.653173035098 140.97125475286157,154.75437669239182 141.32714828898315,154.8079550473194 141.5735361216939,154.9091585086062 142.0717870722583,155.04608063458 142.49338403041475,155.33183040274162 142.80547528518946,155.72473466568772 142.7452471482975,156.14740224649722 142.7342965779826,156.57602060912905 143.0628136882442,156.849858915215 143.52821292777662,156.962965767867 144.02098859316902,156.962965767867 144.43163498101057,156.9391538121854 144.97916349812294,156.94510680177336 145.41718631179538,156.89748287268594 145.89901140684378,156.87962389196036 146.3863117870933,156.86176490724756 146.77505703424686,156.75461091518082 147.3609125475341,156.6415037676852 147.8646387832705,156.5700675920598 148.12197718635434,156.52244343952043 148.44501901141484,156.46886623397586 148.97064638783922,156.38552384285867 149.47984790874762,156.26646313336096 149.9835741445131,156.16526139083726 150.71178707227227,155.96881058366125 151.21003802283667,155.8199838931032 151.52760456275428,155.71282850428543 152.02585551331867,155.5699544290619 152.35437262358028,155.486611100554 152.92927756658173,155.23062747670338 153.26326996198623,155.0044087080314 153.59726235744893,154.75437669239182 154.1338403041882,154.74842353963322 154.50615969582577,154.95083048482775 155.07558935362613,154.97464303290326 155.6066920152225,154.9270179296509 156.20897338405484,154.77223614802642 156.37870722435764,154.3257485598515 156.2911026616057,153.85544560257404 156.31300380229368,153.27798122365493 155.7709505703533,153.26607469770533 155.22342205324094,153.33751382678747" stroke="red" stroke-linecap="round" stroke-linejoin="round" stroke-width="0.5"><title>2019-12-08 42.8km</title><desc>372318520</desc></polyline><polyline fill="none" points="46.029268877828144,233.068370025263 45.79607749056595,233.13781909026147 45.3253763570101,233.35685000505327 44.85467522342515,233.67203883050752 44.33215378157911,233.94448828342138 43.835542493878165,234.1795412942629 43.35188628322794,234.54814450516642 42.86391171357536,234.8846924397767 42.35002698977769,235.2906831874061 41.9181910874031,235.74474714121607 41.4777184669947,236.2468827433222 41.0674743597483,236.59944245400402 40.644275175451185,236.9252904662244 40.203802555042785,237.35262829304702 39.681281113182195,237.6357372108978 39.245126851819805,237.99896850173172 38.76578900018649,238.35685508627284 38.282132789550815,238.67734794914213 37.75097462965641,238.91771599285858 37.211179751713644,239.02454579335244 36.56342589817359,239.04591172086657 35.971810711955186,239.23286312348137 35.41042403886968,239.49993511360663 34.87062916092691,239.69756729400615 34.361062796160695,239.51061795791975 34.09764289572195,238.96044794562476 33.708990583589184,238.56517572507073 33.238289450033335,238.19126614976994 32.80213518864184,237.77462013387776 32.40052779945836,237.28852789597659 32.106879385828506,236.7436705742657 31.912553229776677,236.19880619000833 31.46776225035137,235.7233795357206 30.820008396811318,235.73940524085265 30.22839321057836,235.8943200755093 29.619504588277778,236.07594363731914 29.06675463326974,236.25222457918062 28.518323037249502,236.41782115414026 27.939662928096368,236.59944245400402 27.38259461405687,236.7810629691121 26.79529778685537,236.8985817077919 26.29436814012297,237.08554266037027 25.840940442634746,237.42741196610586 25.370239309078897,237.78530341664737 24.89090145746013,238.15387500930592 24.407245246809907,238.5010771769339 23.91495231812587,238.7734953315594 23.41402267140802,238.78951987390974 23.228333233390003,238.28207306668992 23.116055898775812,237.7265453278378 23.034007077338174,237.1710102474717 22.986505128079443,236.50329009889538 22.524440712542855,236.07594363731914 22.118514964327915,235.6485928309703 21.90259701316245,235.1411081050428 21.336891981060035,234.92208648839005 20.779823667020537,234.7992202037385 20.162298326642485,234.63361725178765 19.557728063344257,234.48403983114258 18.95315780004603,234.39856678033175 18.344269177716342,234.2062517805134 18.162898098729784,234.59088090019213 17.687878606142476,234.6175911250357 17.0530798296968,234.53746039961698 16.42691777124128,234.39856678033175 15.805074071860872,234.61224908142322 15.429376836807933,234.95948050373045 15.554609248487395,235.5577802248663 15.420740118759568,236.17209696997452 15.10981826907664,236.63149319015793 14.639117135491688,237.01610011792218 14.306603490680573,237.34728659702887 14.250464823373477,237.91350259801038 14.112277334628743,238.33548880853414 14.487974569681683,237.9562355716007 15.014814370544627,237.6197122287267 15.390511605597567,237.25647766078328 15.5286990943423,236.6742274670396 15.787800635778694,236.10799477264663 15.718706891391776,235.4990190222452 16.18940802497673,235.11974019269474 16.733521261936403,234.97550650013363 17.316499730106443,234.9915324904141 17.899478198305587,234.9968744858088 18.486775025492534,234.93811249905048 19.04816169856349,234.95413850357363 19.648413602844812,235.08234631993037 20.22275535298104,235.2212376796524 20.84028069334454,235.40286414986622 21.444850956642767,235.5577802248663 22.04078450189263,235.7020119193694 22.50284891742922,236.1186784789934 22.934684819789254,236.51397370477207 22.986505128079443,237.04280880166698 23.07287230854854,237.6090289038766 23.172194566082908,238.20194932665254 23.340610568004195,238.8429349709877 23.880405445946963,238.8482764769542 24.38997181072773,238.55449264051276 24.873628021377954,238.16455819570547 25.396149463223992,237.7959866966812 25.88844239190803,237.43809533708918 26.40664547473716,237.1122513000155 27.037125892180484,236.9787079321395 27.607149283285253,237.19237711709138 28.172854315358563,237.46480375273677 28.626282012832235,237.87611121050577 28.950158939609537,238.30878094609216 29.26971750735538,238.8429349709877 29.502908894632128,239.35571644966694 29.913153001878527,239.7616640178494 29.82678582140943,240.31716486436198 29.77496551311924,240.91004709347544 29.701553409715416,241.47087393955007 29.96929166917107,241.65781455914112 30.504768188111484,241.43882689272868 30.945240808505332,241.09164898645759 31.506627481561736,240.96345949636452 32.128471180971246,240.91004709347544 32.603490673544,240.99016567236322 33.11305703833932,241.166426008509 33.49739099142607,240.74980947764925 33.97672884305939,240.34387145089931 34.57698074732616,240.47206283017658 35.09518383015529,240.56286482065116 35.63929706714407,240.54684095423 35.984765789005905,240.90470584946524 36.40364661430067,241.34802679410132 36.86139267079125,241.8714599637533 37.40982426679693,242.15453845270167 37.9193906315777,242.20260819548275 38.14826365982299,241.67383800215612 38.19576560908172,241.04891919984948 38.26054099442263,240.46138023015374 38.39872848316736,239.9699776954585 38.76578900018649,239.47856941682767 39.210579979626345,239.02988727624688 39.733101421472384,238.67734794914213 40.19084747796296,238.30878094609216 40.739279073954094,237.98294365800757 41.25316379776632,237.6838121207802 41.620224314785446,238.01499333932952 42.13410903858312,237.8333781554793 42.60049181312206,237.53424555395395 43.114376536919735,237.24045253400982 43.74485695436306,237.14430164517762 44.33215378157911,237.1122513000155 44.725124452714226,236.64217676345652 45.09218496973335,236.1614132772047 45.506747435982106,235.6859861999801 46.0335872368596,235.73940524085265 46.65974929527147,235.74474714121607 47.108858633742784,235.461625486907 47.71774725604337,235.3654705289773 48.28345228814578,235.5577802248663 48.78870029390964,235.7233795357206 49.25940142746549,235.75543093989472 49.673963893728796,235.31739296753221 50.09284471902356,235.41888997719798 50.51172554428922,235.79282421385506 50.4685419540765,236.21483171389627 49.99352246147464,236.58341707676664 49.71282912493916,237.07485919977626 49.31554009477259,237.51822053307478 49.479637737662415,237.41138690449588 49.85965333173226,236.9787079321395 50.40376656870649,237.01075837912504 50.81401067596744,237.39536183679593 51.224254783199285,237.76927849149433 51.2026629880711,238.21263250081392 50.831284112049616,238.63995724104097 50.43399508186849,239.0726191149879 49.86397169076372,239.17410705795555 49.36304204404587,239.19013144760538 49.99784082049155,239.3717407700824 50.537635698434315,239.5052765361106 50.42967672285158,240.08748751975872 50.20512205363775,240.48808672509767 49.591915072276606,240.36523670793758 49.01757332214038,240.24772765994203 48.43459485397034,240.1409009676754 48.22299526180723,240.1195355966629 48.849157320233644,240.25841031425807 49.42349907036987,240.37057802049094 50.00215917953756,240.47206283017658 50.42104000481777,240.375919332364 50.84423918912944,240.16226632786493 51.155161038812366,240.018049936014 51.68631919872132,240.3331888183311 52.10951838304754,240.0500980658362 52.25634258984064,239.70290869138626 52.47226054100611,239.20615583115796 52.88682300726941,238.73610470897984 53.29706711450126,238.32480566559025 53.74185809394112,238.47436941968772 54.251424458721885,238.74678774738277 54.773945900567924,238.99249688170312 55.13668805854104,238.67734794914213 55.31374077851069,238.09511743570692 55.780123553064186,237.85474468841858 56.31560007199005,237.74791191510303 56.812211359720095,237.59300391152647 57.20518203085521,237.28318619181664 57.61542613807251,236.8878981996677 58.01703352728509,236.54068270757125 58.63455886764859,236.4285047817575 59.221855694864644,236.4338465945293 59.804834163034684,236.46589745695383 60.323037245849264,236.63683497714374 60.85851376478968,236.83448061832314 61.37671684760426,237.02678359344645 61.93810352067521,237.0534922704246 62.53403706593963,236.95734095392254 63.1342889702064,236.87721468882592 63.68272056618298,236.78640473709675 64.23115216220322,236.61012603543713 64.65866970551724,236.2415409067762 65.09050560787728,235.8248755650602 65.50938643317204,235.413548035438 65.95417741259735,235.10371425128687 66.34714808374702,234.69772169768112 66.70125352367177,234.26501479048602 67.0726323997078,233.84832985466346 67.46128471182601,233.45300955831408 67.88016553709167,233.07371226511896 68.29040964435262,232.68372697197992 68.72656390574411,232.3151074091693 69.20590175734833,231.96785413887847 69.64637437775673,231.66333737126115 70.10412043426186,231.33744856169506 70.40208720687951,231.12909209675126 70.67414382536663,230.92073459878884 71.20530198524648,230.56278469044264 71.6544113237178,230.23688734610914 72.20284291969438,230.19948912853943 72.71240928447514,230.2475725450131 73.08810651954263,229.77742122289055 73.31697954780248,229.25383742331178 73.55017093506467,228.7569610497012 73.88268457989034,228.29213589715073 74.36634079054056,227.95019227240118 74.80249505190295,227.66167517448412 75.26455946742499,227.31438344758863 75.69207701076812,226.94571678110515 75.96845198825758,226.4969008210319 76.27505547893816,225.97327614138703 76.58165896960418,225.4763609715701 76.90121753735002,224.99012646041592 77.15168236070895,224.71761894400697 77.57056318600371,224.2848092554559 77.90307683081483,223.91611600376928 78.30468422001286,223.4993284316006 78.70197325017944,223.07184970314847 79.1208540754742,222.6710844445406 79.42313920713787,222.21153557564685 79.51814310564077,221.61838948730292 79.45768607931677,221.14814159123853 79.7081509026757,220.76338939696143 80.27385593477811,220.5229174858796 80.78774065856123,220.28244419809198 81.24980507409782,219.95112319095279 81.78096323399222,219.61445561952496 82.21279913635226,219.28847333611338 82.65327175674611,218.94111238096593 83.17147483957524,218.68994190069498 83.67240448629309,218.51358726167746 84.18628921013442,218.30516718816216 84.73903916514246,218.15018748864895 84.9722305524192,218.06468120276622 85.44725004499196,217.87763559544692 86.0,217.67455656432503 85.47316019913706,217.82953801892654 84.9420020392281,218.02192799452678 84.44107239251025,218.19828469798085 83.9444611048093,218.39067298446025 83.40898458588345,218.57771630698699 82.89941822108813,218.78079097120644 82.40712529240409,219.10143317876282 81.9450608768966,219.42741691380797 81.47435974331165,219.75874205199216 81.05116055901453,220.07937679406314 80.56750434837886,220.35725825738336 80.07521141966572,220.56566814845428 79.55700833683659,220.77407700550248 79.37995561688149,221.20692286613848 79.4749595153844,221.76801271386648 79.33245366762276,222.33978227732223 78.95243807355291,222.76192490491303 78.57674083848542,223.141315292527 78.18377016736486,223.5313891608821 77.799436214249,223.94283301481119 77.60942841721408,224.14053836840685 77.26395969533769,224.49854299225626 76.87962574222183,224.90463409651784 76.59461404666945,225.31606450176696 76.29232891503489,225.8022952407955 76.00299886043649,226.27249104312432 75.70071372880193,226.7480246275918 75.33797157081426,227.1754659530634 74.92772746358241,227.51207293637344 74.4483896119782,227.81127687998014 73.98200683741015,228.1265073014256 73.60630960235721,228.521877707175 73.37311821509502,229.0134141052331 73.11833503269008,229.51028744641735 72.88514364544244,229.98044175728865 72.41444251185749,230.26894293467558 71.90487614707672,230.10866474731301 71.40826485937578,230.3277114501907 71.23121213939157,230.4612759525553 70.83824146825646,230.73908875766938 70.3675403346715,231.05963971220626 69.92706771427765,231.4069004870944 69.47364001681854,231.7541583925231 69.03316739639558,232.08538633619537 68.51928267258336,232.41126934596105 68.1047202063346,232.7585189524907 67.71606789423095,233.14316132126987 67.33173394111509,233.55451107026602 66.96467342412507,233.9177776308352 66.64943321538158,234.28638313737974 66.27373598034319,234.70840576248884 65.88940202724189,235.10371425128687 65.41006417562312,235.42423191829585 65.017093504488,235.80350800029555 64.70185329575907,236.14004588353782 64.30456426559249,236.48192287900383 63.950458825653186,236.679569248583 63.39339051162824,236.78640473709675 62.849277274654014,236.88255644458332 62.313800755742704,236.95199920766026 61.79559767291357,237.01610011792218 61.268757872036076,236.95734095392254 60.77214658432058,236.77037943112373 60.29712709170417,236.57807528298508 59.735740418647765,236.40179570767577 59.265039285077364,236.37508661661195 58.98434594855644,236.38042843617222 58.55682840522786,236.38042843617222 58.012715168253635,236.53534090838002 57.68020152342797,236.79708827099967 57.32177772447176,237.14430164517762 57.07563126012974,237.41138690449588 56.55310981829825,237.65176218696433 56.00899658132403,237.79064505700444 55.45192826726998,237.81735324864712 54.91213338932721,237.69449542663278 54.35938343431917,237.41138690449588 53.957776045106584,237.4220702795792 53.60798896421329,237.85474468841858 53.28843039646745,238.2339988409949 52.83068433996232,237.81201161166973 52.39884843760228,237.4220702795792 51.99292268938734,237.50219550609836 51.58267858214094,237.96691880819708 51.18107119295746,238.42095385431094 50.7924188808538,238.88566699976582" stroke="red" stroke-linecap="round" stroke-linejoin="round" stroke-width="0.5"><title>2019-05-04 42.7km</title><desc>297355906</desc></polyline></svg>