<?xml version="1.0" encoding="utf-8" ?>
<svg baseProfile="full" height="300mm" version="1.1" viewBox="0,0,200,300" width="200mm" xmlns="http://www.w3.org/2000/svg" xmlns:ev="http://www.w3.org/2001/xml-events" xmlns:xlink="http://www.w3.org/1999/xlink"><defs /><rect fill="#222222" height="300" width="200" x="0" y="0" /><text fill="#FFFFFF" style="font-size:12px; font-family:Arial; font-weight:bold;" x="10" y="20">Over 42km Runs</text><text fill="#FFFFFF" style="font-size:4px; font-family:Arial" x="10" y="280">Runner</text><text fill="#FFFFFF" style="font-size:9px; font-family:Arial" x="10" y="290">tianwei</text><text fill="#FFFFFF" style="font-size:4px; font-family:Arial" x="65" y="280">SPECIAL TRACKS</text><rect fill="yellow" height="2.6" width="2.6" x="65" y="283" /><text fill="#FFFFFF" style="font-size:3px; font-family:Arial" x="70" y="285.5">Over 20.0 km</text><rect fill="red" height="2.6" width="2.6" x="65" y="287" /><text fill="#FFFFFF" style="font-size:3px; font-family:Arial" x="70" y="289.5">Over 40.0 km</text><text fill="#FFFFFF" style="font-size:4px; font-family:Arial" x="120" y="280">STATISTICS</text><text fill="#FFFFFF" style="font-size:3px; font-family:Arial" x="120" y="285">Number: 4</text><text fill="#FFFFFF" style="font-size:3px; font-family:Arial" x="120" y="290">Weekly: 1.0</text><text fill="#FFFFFF" style="font-size:3px; font-family:Arial" x="141" y="285">Total: 170.7 km</text><text fill="#FFFFFF" style="font-size:3px; font-family:Arial" x="141" y="290">Avg: 42.7 km</text><text fill="#FFFFFF" style="font-size:3px; font-family:Arial" x="167" y="285">Min: 42.6 km</text><text fill="#FFFFFF" style="font-size:3px; font-family:Arial" x="167" y="290">Max: 42.8 km</text><polyline fill="none" points="20.755187660150114,63.7436465816063 20.323795407733996,63.70113251032308 19.87612420237565,63.64444702076071 19.432522735267412,63.64917081423482 18.883108074165648,63.715303871795186 18.341832889505895,63.77671305427066 17.85346430185018,63.847569701250904 17.36102597597346,63.923150004207855 16.92149424710078,63.998730182793224 16.32731246545154,64.11682396285687 15.826734663103707,64.17350886943314 15.248831834382145,64.19240382274802 14.813369843745022,64.06958648727232 14.5,64.47110348127535 14.829648796643596,64.81593292160687 15.232552881469019,64.58447235003041 15.627317489823326,64.3813529283907 16.19301110385277,64.29160220013 16.677309953272925,64.19712755987348 17.1127719439246,64.13571893949484 17.662186605026363,64.04124397859778 18.117997286841273,63.95621634764029 18.687760639106273,63.86646478863986 19.196477917896118,63.75781792995258 19.640079385004356,63.715303871795186 20.18135456966411,63.76726549307568 20.710420539602637,63.809779503124446 21.141812792033306,63.86646478863986 21.760413003066787,63.92787376900742 22.23657237603038,63.98455890877449 22.769708084204467,64.04124397859778 23.380168818766833,64.09792897846273 23.94179269457527,64.15933764935107 24.474928402749356,64.20657503263283 24.983645681553753,64.25853609815022 25.573757724952884,64.30577337940849 26.127242124304757,64.35301061209975 26.656308094257838,64.45693235299768 27.148746420134557,64.48527460516925 27.73885846354824,64.53723535538666 28.2557152188092,64.60336713428842 28.756293021157035,64.63170929609987 29.175476058895583,64.70256462411271 29.5173340702313,64.70256462411271 30.083027684275294,64.76397248664944 30.587675224844133,64.74507776845348 31.08418328894186,64.61281452350522 31.515575541372527,64.40497151195086 31.979525699644,64.13571893949484 32.30510475808114,64.40969522719388 32.51266140783264,64.78759087346407 32.80975229863543,65.2977450643084 33.07428528362652,65.75593427651256 33.29405114808469,66.1716071337396 33.51788675073476,66.57310575422889 33.76207104456262,67.01711190727292 33.97369743254967,67.47528397052156 34.09171984123532,67.95706822168722 34.0795106265432,68.42467751619915 33.900442144382396,68.88283554224836 33.652188112348085,69.23707830677813 33.28998140983458,69.63855013816283 32.96847208964755,70.04001846164101 32.65917198412353,70.40369850301431 32.44347585791547,70.65874512653681 32.10975732302177,71.04603544044585 31.780108526349068,71.50416732901795 31.568482138362015,72.00952401120958 31.381274179773754,72.4770920665469 31.206275435877615,72.9588238751785 30.99464904789056,73.45471899180848 30.835929256892996,74.03089516887849 30.770813445211388,74.47955194382303 30.65279103651119,75.07460575200821 30.57953574838757,75.56575547265311 30.485931769086164,76.08995755764045 30.420815957375453,76.59054135587212 30.343490931016277,77.10056452483332 30.26209616640699,77.6200267504064 30.180701401797705,78.04503693255538 30.50221072198474,78.33781943892245 30.98243983319844,78.2905965801474 31.491157111988286,78.27170742304952 31.918479626183398,78.27170742304952 32.37836004621931,78.26698513257361 32.63475355473929,78.25281825819911 33.176028739399044,78.22920679121671 33.72544340050081,78.19615071707085 34.193463296993286,78.21976220102806 34.73066874341748,78.29531886820405 35.20682811636652,78.40393135970953 35.719615133391926,78.49365452872007 36.244611365124,78.63060008065077 36.71670099985204,78.72032280726489 37.19693011105119,78.79587865177746 37.754484248609515,78.79587865177746 38.218434406866436,78.82893429469186 38.74750037683407,78.83837875972313 39.268426870316034,78.83837875972313 39.74458624327963,78.84782322282626 40.28179168968927,78.83837875972313 40.790508968479116,78.82421206143772 41.311435461990186,78.77226746369706 41.816083002559026,78.6919893335762 42.29224237552262,78.64476683859175 42.79688991609146,78.56921074574348 43.179445309753646,78.56448848582659 43.55386122694472,78.5267103889455 44.05850876752811,78.4747654550556 44.61606290508644,78.43698728444724 45.14919861328963,78.4511541020729 45.63756720093079,78.48420999285736 46.19105160026811,78.5219881246594 46.703838617308065,78.5361549160807 46.6956991408224,78.07337080498473 46.589885946843424,77.65780559238192 46.170702909104875,77.3791859029734 45.946867306440254,77.02500589390547 45.983494950516615,76.4205323753522 46.11779631211539,75.94355937880391 45.76779882430856,75.70743230136577 45.27943023665284,75.40518787216934 44.84396824600117,75.18322585376154 44.30269306135597,75.13127714146685 43.89571923832409,75.12183191475197 43.57827965632896,74.81486098956884 43.36258353013545,74.33314863550913 43.6026980857132,74.07339968272572 43.90792845298711,74.01200426121068 44.45734311408887,73.88449043135915 44.970130131128826,73.77114450782392 45.47070793347666,73.65307554023457 46.007913379900856,73.52556071453 46.52070039692626,73.4452734205297 47.09860322564782,73.38859995207895 47.63173893383646,73.33192641376445 48.02650354219077,73.33664921129093 48.17708385671722,73.8419857428089 48.242199668398825,74.33787133014994 48.29510626538831,74.89042325366972 48.33173390945012,75.38157494243933 48.36022207708447,75.89633406035136 48.319524694758,76.44886724910975 48.31138521831599,76.94944713878431 48.31138521831599,77.45002157732597 48.31138521831599,77.97892449562642 48.307315480094985,78.42282046248874 48.608476109133335,78.75337850451251 49.03172888509289,78.7675452246367 49.56486459328153,78.7911564151218 50.09393056323461,78.85254545365387 50.553810983285075,78.89032328277972 51.082876953223604,78.93282330341754 51.599733708484564,78.96115662869124 52.1003115108324,78.97532328478337 52.633447219021036,78.97532328478337 53.154373712517554,78.97532328478337 53.64681203837972,78.92810108084814 53.683439682470635,79.43809831656472 53.78925287646416,79.23976673049765 53.82181078229041,78.7297672946188 53.83808973521809,78.24809596576233 53.817741044054856,77.79003129478224 53.79332261468517,77.27529338314707 53.707858111854875,76.73221502600427 53.60204491786135,76.23163277063941 53.492161985632265,75.858553770664 53.33344219464925,75.42407820722292 53.16658292719512,74.93292697265133 52.99158418329898,74.38509824990615 52.9427473245305,73.93171781700221 52.86949203637778,73.38859995207895 52.8532130834501,72.82186142374121 52.94681706275151,72.37318846537892 53.516580415016506,72.30706786959126 53.9927397879801,72.26456172205144 54.501457066784496,72.25983881434877 55.006104607353336,72.27400753602342 55.5270311008353,72.28817625330339 56.01132995025546,72.29289915811023 56.55260513490066,72.30234496626144 57.126438225386664,72.3306823790117 57.64736471888318,72.34957397779363 58.14387278302456,72.34957397779363 58.72584534993803,72.3826342570137 59.283399487510906,72.37791136143278 59.84502336331934,72.41569451243049 60.39850776265666,72.40624872759145 60.899085564989946,72.42986318604017 61.36710546151153,72.44403185528427 61.75780033161573,72.46292340749642 62.189192584046395,72.47236918067574 62.673491433452,72.4770920665469 63.21883635633276,72.4865378368122 63.77232075565553,72.50542937154387 64.27696829625347,72.53376665907126 64.81010400442756,72.55265817438703 65.3432397126162,72.56682680576705 65.86416620611271,72.57627255759871 66.34032557906175,72.59044118171732 66.86125207255827,72.60460980144853 67.37810882781923,72.64711563444871 67.87461689194606,72.63294702781423 68.3833341707359,72.66128423671034 68.82286589962314,72.6565613697785 69.35193186957622,72.66600710315834 69.86471888660162,72.67072996912975 70.38157564189169,72.69434429167086 70.84145606191305,72.72740432284627 71.31354569662653,72.75101861628355 71.85889061950729,72.73685004167783 72.22516706025635,72.73212718250943 72.69318695673428,72.69434429167086 73.1530673767993,72.66600710315834 73.70655177612207,72.61877841681417 74.1786414108501,72.57154968192481 74.58968497213209,72.51959801749763 75.1024719891575,72.46764629433164 75.58270110034209,72.43930896602615 76.01002361452265,72.42041740411514 76.54315932272584,72.39208004669126 77.00303974277631,72.40624872759145 77.55245440387807,72.43930896602615 78.016404562135,72.46292340749642 78.52512184093939,72.51015225401716 79.01756016681611,72.58099543278513 79.53034718385607,72.64239276605076 80.00243681856955,72.68017569960648 80.41755011808709,72.71795860209022 80.82452394111897,72.7982471667201 81.15417273779167,72.92576401048063 81.63440184897627,73.0013293805714 82.08207305432006,73.0721718021523 82.36288499222428,73.11467720271685 82.66404562127718,73.16662819442718 83.10764708838542,73.24219316847302 83.63671305835305,73.33192641376445 84.13729086068633,73.41221390576902 84.58089232779457,73.48777847599922 85.0163543184608,73.55862014775994 85.56983871779812,73.65307554023457 86.02971913781948,73.72863971444167 86.4326232226449,73.79948101491391 86.96575893083354,73.88921317211134 87.42563935086946,73.95533149161929 87.94249610613042,74.0403406197911 88.35353966739785,74.10645872187888 88.86225694620225,74.18674486085001 89.3709742250212,74.28119896239514 89.81050595389388,74.35203941117652 90.28259558862192,74.42287975076397 90.79131286741176,74.50788801415547 90.8482892026368,74.94709487023647 90.8686378938146,75.42407820722292 90.86456815556448,75.95772696486893 90.89712606140529,76.4205323753522 90.86049841732893,76.91639014437533 90.85642867912247,77.16195582100772 90.93375370548165,77.46891107203919 90.94189318193821,77.80892064979707 90.88491684671317,78.2905965801474 90.92154449078953,78.7911564151218 90.88084710849216,79.2917108000147 90.85235894087236,79.83948105145464 90.86049841732893,80.12280793101309 90.87677737027116,80.37780062984166 90.87270763202105,80.78861922559008 90.8686378938146,81.31276176000028 90.86049841732893,81.78023519582348 90.8686378938146,82.28075704048388 90.8482892026368,82.74822063549072 90.85642867912247,83.25345372290758 90.85642867912247,83.78701161129356 90.85235894087236,84.2969549579575 90.83201024973823,84.73606830887002 90.7546852233354,85.18934220896699 90.59596543235239,85.67094083302436 91.03142742301861,85.7606498234818 91.5604933929717,85.77953590444304 92.00816459830094,85.85980166198351 92.37444103906455,85.94951028407377 92.53723056828312,86.00616827103295 92.88722805608995,86.0392187311918 93.35524795258243,86.12892700332304 93.83140732553147,86.23279952089797 94.32791538964375,86.30834302270523 94.7186102597916,86.30834302270523 94.84884188315482,85.84563712673116 94.97907350651803,85.34987564398398 95.03604984174308,85.12324004344191 95.09709591520368,84.80689265024193 95.16628146512085,84.30639829993743 95.25174596796569,83.87200256174765 95.32093151788285,83.33844565947584 95.3779078531079,82.82849168384564 95.43081445008283,82.35158516337106 95.45523287948163,81.84162024347461 95.48372104710143,81.43553302151486 95.47558157063031,80.968056081143 95.49593026179355,80.64695805549854 95.48779078532243,80.28808113780542 95.47965130886587,79.82059253073749 95.4715118324093,79.33421044962597 95.46744209417375,78.88560105583383 95.46337235592364,78.43698728444724 95.44709340302506,78.08281542524855 95.44302366477496,77.83253233264259 95.43488418833294,77.53030187628974 95.39418680600647,77.06750763908713 95.4104657589487,76.59054135587212 95.40232628249214,76.1324601673914 95.39418680600647,75.74521271526464 95.39418680600647,75.22572930196111 95.39418680600647,74.91403643573358 95.33721047079598,74.63540011442092 95.0482590564352,74.58345078294224 94.77965633323765,74.61178678920623 94.2709390544187,74.65429076585133 93.85582575493027,74.66845874932551 93.30234135559294,74.67318140952557 92.83432145908591,74.65429076585133 92.3459528714302,74.62123212074584 91.8901421896444,74.55511475920139 91.385494649061,74.48427462342443 90.9011957996554,74.39454362803735 90.91340501433297,73.9647769580697 90.9011957996554,73.5208379364085 90.8482892026368,73.08634027338121 90.80759182035399,72.8313071231496 90.74654574687884,72.50070648859764 90.68549967341824,72.25511590615861 90.52677988244977,71.8064374143396 90.38026930615888,71.40498452404063 90.21341003870475,70.92795947113336 89.98143495956901,70.49816038049903 89.50527558660542,70.46982183763612 88.99655830781558,70.44620637190019 88.55295684067823,70.41786779701215 88.09714615887788,70.38952920464726 87.6006380947656,70.36119059479097 87.2099432246614,70.32812886121246 86.72564437524125,70.29506710384157 86.25355474049866,70.28089777195783 85.87506908507203,70.31868264724835 85.39890971210843,70.39425230458437 85.09367934483453,70.46982183763612 84.80065819225274,70.54066816199338 84.52798573080509,70.58789898422765 84.28787117521279,70.60679129952405 83.87275787572435,70.62568360705336 83.4006682409672,70.66346819880346 82.95299703563796,70.68236048303152 82.49718635382305,70.5453912464036 82.11870069841098,70.27145154829486 81.80533085466595,70.37063680002029 81.51637944030517,70.48399111126128 81.0524292820337,70.66819127059352 80.5762699090701,70.77209872703315 80.09604079787096,70.77682178765099 79.59546299553767,70.74376035312889 79.160001004886,70.69652969109666 78.75302718183957,70.61151437714216 78.46000602924323,70.53594507710659 78.06931115913903,70.50760655755585 77.55245440387807,70.3517443876226 77.10071346028417,70.18643544782753 76.71001859016542,70.09669606003081 76.42513691405475,70.06835726956342 76.09955785560305,70.08724979848193 75.82281565593439,70.13920421294097 75.27340099483263,70.34229817851156 74.7768929307349,70.53122199173595 74.26817565191595,70.74376035312889 73.73910968196287,71.0082511632827 73.42980957646796,71.06965059791037 72.98213837110961,71.2585714206507 72.36760789829714,71.2585714206507" stroke="red" stroke-linecap="round" stroke-linejoin="round" stroke-width="0.5"><title>2023-10-28 42.6km</title><desc>858722499</desc></polyline><polyline fill="none" points="123.93931249115849,64.49251378067856 124.21431602773373,63.91352693688532 124.51223652568297,63.28794910482975 124.80442778326687,62.742227318754885 125.07943131987122,62.13660383496608 125.32005941434181,61.47107696632156 125.61225067195483,60.71236796081212 125.90444192953873,60.02020459304185 126.15652850473998,59.37462245011557 126.48309520442854,58.62254438313539 126.786744942714,57.85049052035902 127.08466544066323,57.13167344410613 126.76955722167622,56.6191785996416 126.13934078370221,56.33963424077956 125.58933371058083,56.64580180872872 124.81588626396842,56.79888504768314 124.09973122083466,57.16495218930504 123.5325364266464,57.497738696947636 122.94815391144948,57.99025957714912 122.6158579714247,58.635855575616006 122.28356203139992,59.30806722264242 121.86532748621539,59.96030549086572 121.361154335842,60.49939540790365 120.89135662751505,60.97858266317053 120.38145423680544,61.55759584750194 119.88301032679738,62.12994860026083 119.9861366529949,62.78215833766444 119.86009336539428,63.37446554943017 119.54498514643637,64.10652312879392 119.21841844674782,64.7121281208747 118.89185174705926,65.37096665627905 118.53090960532427,65.94994042155304 118.10694581980351,66.5355637726243 117.48245862216572,66.77513542975794 116.82359598245239,67.17441954835522 116.15900410243194,67.58035586941696 115.46576602067216,67.93305256690655 114.92721742822323,68.23916511903371 114.27981326921145,68.59851278387941 113.51782430330059,68.91127671523282 112.80166926013771,69.24400263770076 112.32041307116742,69.59003577724798 111.71884283493273,69.86286829057644 110.95685386902187,70.15566287540423 110.18340642240946,70.36860355729004 109.55891922477167,70.7013219661385 108.90005658508744,71.00742138727946 108.2641109067481,71.32682793102867 107.60524826709297,71.6395786400899 106.9120101853041,71.87913134967675 106.17866742113256,71.88578557891742 105.82345451973379,72.33161737519549 105.77189135662047,73.01699457809445 105.60001414627186,73.80217505017208 105.68595275143161,74.51415247510158 105.6343895883474,75.16623705821257 105.53126326214988,75.91812232913799 105.37084453247371,76.63007641577133 105.18750884142355,77.40190562055795 105.04427783278516,78.04730744005792 104.82656669968856,78.87900130097842 104.70052341208793,79.60422960286814 104.56875088412198,80.36271654252778 104.54583392274799,81.02804862699122 104.68333569105016,81.753252789822 105.22761352383532,82.34538592815079 105.84637148110778,82.67138949554646 106.53960956289666,82.63812390079693 107.14690903946757,82.53832701378269 107.89171028434066,82.45183625358186 108.57921912576421,82.36534537754778 109.21516480407445,82.2655480689209 109.98288301032153,82.08591252470069 110.68185033241753,81.91292967644404 111.41519309658906,81.75990600130899 112.1943697835668,81.77321242223843 112.85896166361636,82.07925934681407 113.50636582259904,82.51171448450623 114.10793605886283,82.89094199096144 114.71523553543375,83.28347337993182 115.33972273304244,83.68265539611457 116.01577309379354,84.1284057312514 116.67463573347777,84.51427667097596 117.22464280662825,84.88683952839347 117.86631772527471,85.25940023640578 118.51945112462272,85.71179249230045 119.18404300467228,86.11095949812443 119.79707172160852,86.51012403670757 120.41010043854476,86.92924414699519 121.10906776064076,87.36831944048754 121.78511812139186,87.64772943670687 122.58721176968538,87.7874339815171 123.36638845666312,87.8872227570755 124.1341066629102,88.05353704041045 124.82161550430465,88.47929965415824 125.23412080915296,89.07137112369674 124.99922195501858,89.84305163384124 124.90182486915728,90.56150451100257 124.9533880322706,91.26664493483258 124.32317159429658,91.46621158174821 123.50389022490708,91.47286379268189 122.75335973969777,91.45955937012332 122.08303861931199,91.39303721613396 121.52730230582529,91.38638499695662 120.66791625408223,91.39968943462009 119.95749045125558,91.20677482050814 119.63092375156702,90.70120275358204 119.82571792331873,90.00936088105664 119.98040741265868,89.26429211554932 120.11217994059552,88.46599461496226 120.16374310370884,87.70095025131741 120.16374310370884,86.95585485582706 120.50176828406984,86.26397286283463 120.81687650305685,85.53216653475101 121.09760927996831,84.84692218218697 121.53303154619061,84.23485311732657 121.97418305277824,83.56955407539499 122.38668835762655,82.88428889600618 122.78200594140799,82.2655480689209 123.25180364973494,81.68672063716804 123.76170604044455,81.14780767408956 124.19139906633063,80.56897022196063 124.56379968876718,80.04335470662045 125.0278681567579,79.5177349121659 125.57787522987928,78.95884334798029 126.03048521713936,78.36667914989084 126.52892912717653,77.77450952012441 127.02737303721369,77.20229550399381 127.44560758239822,76.53027024133189 127.80654972416232,75.90481470135273 128.2133257886744,75.20616039009474 128.57999717074563,74.62726966074842 128.9810439949215,73.94190955671365 129.35344461735804,73.28315852013475 129.71438675909303,72.49797173408297 130.10970434293267,71.85251442584558 130.8430471071042,72.00556158791733 131.5420144292002,72.17857098629611 132.0977507426869,72.64436321526591 132.64202857547207,73.19665535936656 133.16338944688323,73.70236450313678 133.73058424104238,74.241339623557 134.34361295797862,74.06168175015046 134.83059838734334,73.47612669177033 135.34623001838918,72.82402503379126 135.79884000567836,72.43808421430003 136.32593011742574,71.95232783359097 137.07073136229883,71.93236516439356 137.84990804924746,72.09872055236337 138.46866600651992,72.61774660702213 139.05877776208217,73.1168061849894 139.56295091245556,73.58259164297488 140.17025038905558,74.15483774692257 140.76036214458873,74.7004630281881 141.2874522563361,75.15292927540577 141.90048097327235,75.66527693221724 142.52496817088104,76.12439020888996 143.13799688781728,76.57019272962498 143.73383788368665,77.03595326869981 144.3010326778749,77.4750958419827 144.97135379826068,77.97411786736484 145.56146555382293,78.38663982928847 146.2317866742087,78.87900130097842 146.70158438253566,79.15844803344953 147.44065638704342,79.5177349121659 148.20264535295428,79.86371297972073 148.7411939454032,80.09658178898098 149.73808176547755,80.49578350791126 150.10475314751966,81.05466176777554 150.68340642240946,81.70668029016815 151.33653982175747,82.21897593878384 151.88654689487885,81.68006741814315 152.3334276418318,81.06796833404223 152.83187155183987,80.4758234805704 152.7688499080541,80.64215685308591 152.27613523835316,81.29417954111705 151.79487904938287,81.91958287149464 151.33653982175747,82.51171448450623 151.00997312209802,83.2435550425871 150.99851464139647,83.92216342133906 151.57716791625717,84.02195816967287 152.34488612250425,84.37456504529837 152.7688499080541,84.60741758685617 153.57667279674206,84.93340973443264 154.27564011883806,85.17956597992452 154.96887820059783,85.6186531692947 154.93450275852229,86.39037493417709 154.67668694301392,87.06229758146947 154.99752440233715,87.58785596784583 155.71940868580714,87.7741287997851 156.481397651718,87.83400209597312 157.19755269488087,87.88057017684332 158.0225633045775,87.75417102207575 158.7730937897868,87.91383307119395 159.48351959258434,88.08679984565242 160.27988400057075,88.08679984565242 161.00749752440606,87.95374852180248 161.72365256756893,87.7741287997851 162.30803508276585,88.10010496298491 163.0184608855634,88.4992572078263 163.66586504457518,88.79861977262772 164.28462300184765,89.1778103628676 164.98359032394364,89.37073103682633 165.65391144432942,89.78983258430526 166.12370915265637,90.26880245163193 166.32996180508053,91.08703442544356 166.53048521713936,91.83873433972622 166.77111331166816,92.47068767649034 167.26382798134,93.12924299669976 167.81383505446138,93.69466392525646 168.24925732068368,94.28668759398715 168.50134389588493,95.09821684134658 169.21176969868247,95.21129797647154 169.92792474184535,95.31772709928919 170.7643938322144,95.34433435262326 171.4862781157135,95.27116437961377 171.9675343047129,94.76562412032217 172.46024897441384,94.33325102319941 173.03890224927454,93.92083091101813 173.8238081765594,93.8742671845539 174.56860942140338,93.86761522088636 175.31341066630557,93.70796788750886 175.9951902673638,93.89422307143104 176.6712406280858,94.30664335349138 177.33583250813535,94.16695290763892 178.03479983026045,93.84765932579467 178.51032677889452,93.35541196199483 178.430117414071,92.49729610239592 178.4072004526679,91.75225603381114 178.59053614371805,91.01385963029315 179.106167774793,90.4550675519713 179.7077380110277,90.04262267910235 180.44108077522833,89.65678476861649 181.1572358183621,89.5569987269846 181.8791201018612,89.16450546757551 182.58954590465873,89.03145636377303 183.3286179091956,88.5724348517906 183.9072711840563,88.00031651631434 183.809874098195,87.20200339263829 183.7411232140439,86.43694405598944 183.78122789645568,85.62530598252488 183.80414485785877,85.00659141893993 183.8557080209721,84.1683235215969 184.2223794030142,83.45645255659474 184.7781157165009,82.85767650933849 185.45989531758823,82.57824578708824 185.46562455792446,81.83974448576919 185.4255198755127,81.04135519875854 185.43697835621424,80.33610311652592 185.40833215447492,79.56430899078987 185.39687367377337,78.83242672797496 184.97290988825262,78.3134506412971 184.3656104116526,78.20033991484524 183.75258169471635,78.10718975601048 183.03069741121726,77.9940786681691 182.42339793464635,77.77450952012441 181.91349554393673,77.25552492875431 181.43796859530266,76.70992124420445 180.9624416466395,76.08446744488901 180.9395246852364,75.29266085783456 180.83066911870264,74.70711696657236 180.42962229452678,74.08829776293715 179.94263686519116,73.52935918932053 179.40408827274223,73.32308301677404 179.106167774793,73.24988808741182 178.63064082612982,73.10349797965318 178.08636299337377,72.93049106060062 177.41604187295889,72.59778414362518 176.82020087708952,72.23845874691324 176.64259442634648,71.55972753928654 176.70561607016134,70.8477175225853 176.8431178384635,70.11573641932046 176.97489036640036,69.42367392251617 177.0837459329341,68.7382585575615 177.2498939029465,68.04618128793663 177.47333427643753,67.38071537491487 177.62802376574837,66.89492092476576 177.6623992078239,66.74851640066481 177.41604187295889,66.24940757195873 177.0837459329341,65.64381700902595 176.68269910878735,64.98498125977494 176.34467392842635,64.41930883449822 175.8519592587545,64.0599378939587 175.2217428207514,64.10652312879392 174.56860942140338,64.13979827595176 174.05297779035755,64.20634851877548 173.67484792758478,64.25293364790559 173.1019238930603,64.29286373180366 172.46024897441384,64.39934383476066 172.01336822749,64.86519221893104 171.3888810298522,65.08480529059307 170.78158155325218,65.40424115132191 170.23730372046703,65.70371083445207 169.56698260008125,65.75029488246219 168.8336398359097,65.63716213610314 168.47842693448183,65.77025946418871 168.26644504175056,66.10300158319296 168.09456783140195,66.74851640066481 167.80810581409605,67.39402476043324 167.41851747065084,67.9929442674329 166.99455368510098,68.47873045127199 166.31277408404276,68.33232952059188 166.0836044702446,67.95301647325687 166.2726694016019,67.6069745553541 166.6393407837022,66.90157566795824 166.81121799405082,66.36253924482298 166.99455368510098,66.02314363112964 167.14924317444093,65.67043649385596 167.33257886546198,64.98498125977494 167.65914556515054,64.4059988353547 168.0372754279233,63.807046032139624 168.18623567689792,63.39443086631218 168.34665440654499,63.11491586758348 168.4669684538094,62.68898592173355 168.51280237655737,62.283018824666215 168.254986561049,61.6907015920151 167.939878342062,60.96527195411909 168.1805064365617,60.59922637962882 168.51280237655737,60.88540764230129 168.57582402037224,61.33797076866904 168.7362427500484,61.74394381289312 168.82791059557348,62.050085730312276 169.2919790635351,62.45605429318675 169.9623001839209,62.6091237438377 170.3518885273661,62.68898592173355 170.72428914983175,62.68898592173355 171.15971141605405,62.77550316955603 171.58940444194013,62.86202030137065 171.88732493991847,62.955192467416055 172.05920215023798,63.02174393221503 172.44306125337607,62.63574448079453 172.58629226201447,61.94360174988833 172.2081623992126,61.31134949618718 171.9675343047129,60.912029090570286 171.76701089265407,60.412875107438595 171.7498231716163,59.78060785067646 171.54357051919214,58.97529005513934 171.32585938606644,58.456154245650396 171.54357051919214,58.79558967082994 171.7039892488392,59.18826764012192 171.83003253643983,59.767296894453466 171.91024190126336,60.39290886778326 171.88732493991847,60.40621969490894 172.15659923609928,61.00520407297154 172.62639694439713,61.417834520209 173.18786249824916,60.97192730898678 173.61182628376991,60.492740004301595 173.86964209930738,60.15331350979977 174.05297779035755,59.594254213581735 174.4024614514201,59.0618122838423 174.98684396664612,58.78227851133852 175.50820483802818,58.316386198435794 176.023836469074,57.85714619661303 176.33894468809012,57.28475552985037 176.42488329327898,56.592555379567784 176.2587353232666,55.86041252088762 176.67696986842202,55.361219442835136 177.35302022917313,54.975174146347854 177.93167350400472,54.66234264209925" stroke="red" stroke-linecap="round" stroke-linejoin="round" stroke-width="0.5"><title>2023-04-16 42.7km</title><desc>791522361</desc></polyline><polyline fill="none" points="60.790114068455296,213.59717390749574 60.77779467680375,214.26702593360096 60.84555133077083,214.96366674128512 61.38144486694364,215.1579213877485 62.12676806084346,215.1847150991016 62.88441064636572,215.21820722707344 63.155437262379564,215.94163414316426 63.07536121670273,216.61816700564668 63.019923954387195,217.408565282356 63.019923954387195,218.23914580833662 62.933688212913694,219.04962424170662 62.878250950569054,219.76632221949694 62.835133079846855,220.69065322612005 62.792015209124656,221.42073403889663 62.78585551332799,222.27137117349048 62.792015209124656,223.08851107416558 62.76737642585067,223.81857240555837 62.74889733840246,224.64909368158987 62.79817490495043,225.45281664127833 62.761216730054,226.2833228157906 62.77353612167644,227.0602409996718 62.78585551332799,227.88403484227456 62.79817490495043,228.66093919123523 63.58661596957245,228.72791338971 64.3257794676756,228.78819012567692 65.11422053229762,228.8886512624813 65.96425855514826,228.97571749024064 66.78965779469581,229.08957319928595 67.52882129279897,229.13645491992793 68.35422053234652,229.27709993514873 69.16114068441675,229.42444209606037 69.91262357414234,229.5583893055009 70.68874524717103,229.67224427660403 71.54494296578923,229.77940176476113 72.24098859314108,229.90665111604903 73.12182509506238,229.97362438648997 73.9533840304357,230.04729492633487 74.77262357412837,230.20133313278347 75.56722433460527,230.3151872896633 76.31870722433086,230.42904130234092 76.9531558935414,230.5295006055676 77.7477566540183,230.6366570719474 78.44996197719593,230.7304188752605 79.31847908743657,230.8576668805108 80.13155893536168,230.9648229557497 80.90768060839036,231.0786761457639 81.68996197718661,231.21262089061202 82.43528517111554,231.346565435917 83.27300380228553,231.426932067312 84.12920152090373,231.43362928336137 84.92380228138063,231.37335432104737 85.67528517110622,231.346565435917 86.51916349810199,231.31307931830816 87.28296577947913,231.25950150418794 88.11452471485245,231.16574025261798 88.86600760457804,231.00500645103602 89.59901140685542,230.86436413893534 90.40593155895476,230.65674889517686 91.24365019012475,230.44913317196915 92.00745247147279,230.49601418362727 92.83285171102034,230.489316897736 93.55353612167528,230.4089494282307 94.39125475287437,230.34867377893534 95.07498098860378,230.489316897736 95.1365779467742,230.4826196113645 94.39741444864194,230.32858188686077 93.65825095056789,230.34197648208647 92.7774144486757,230.44913317196915 92.01361216729856,230.49601418362727 91.23133079850231,230.41564672009554 90.55992395436624,230.54959245273494 89.7345247148478,230.72372160684608 89.01384030419285,230.88445591128402 88.13300380227156,231.03179543792794 87.42463878329727,231.14564854313358 86.56844106464996,231.16574025261798 85.67528517110622,231.22601535412832 84.8437262357329,231.29298764174018 84.04296577945934,231.32647376685054 83.39003802282969,231.32647376685054 82.66319391637808,231.26619873268646 81.8870722433494,231.1389513056347 81.12942965779803,231.03179543792794 80.37794676807243,230.8710613968724 79.55254752852488,230.75720794395602 78.77026615969953,230.65674889517686 77.92638783270377,230.54959245273494 77.19954372625216,230.4089494282307 76.41726235742681,230.32188458851306 75.65961977187544,230.24151696930494 74.86501901142765,230.11426809200202 74.0396197718801,229.98701903458277 73.29429657795117,229.93344043019897 72.49353612167761,229.8262831256652 71.6804562737525,229.72582303663512 70.90433460075292,229.60527078164887 70.33148288974189,229.4914157257299 69.61695817491272,229.42444209606037 68.85931558936136,229.31058681111608 68.05239543726202,229.19673138197686 67.31323193915887,229.11636275693309 66.62950570342946,228.86855904410186 66.54942965781083,228.02468181699805 66.53095057033352,227.27456207555224 66.51863117871108,226.48425057611166 66.3831178707187,225.69393212768045 66.27224334600032,226.26323001505807 66.29072243344854,227.08703116212564 66.37695817492204,227.91082475919393 66.40159695816692,228.6140572226068 66.43855513309245,229.3842578942931 66.46319391633733,230.05399224514986 66.48167300381465,230.77729974024987 66.51863117871108,231.65463713284407 66.54326996198506,232.37793175115803 66.54942965781083,233.21507103609474 66.53711026615929,234.0120203939514 66.53711026615929,234.8156596531553 66.70342205325142,235.51883811382868 66.86357414448867,236.33585761042195 66.91285171103664,235.73983592307195 66.90053231938509,235.12371946506028 66.82661596959224,234.31338595777197 66.75885931559606,233.54992456784385 67.10996197719942,233.02755251362396 67.7998479087255,232.67930279157736 68.54517110268353,232.4315088988369 71.58190114068566,232.96058151798206 72.1732319391449,233.18828269967344 72.86311787072918,233.42268037265603 73.50988593156217,233.67047153401654 74.30448669203906,233.86468575074832 75.07444866921287,234.02541444046074 75.80745247149025,234.17944583188364 76.5897338402865,234.28659794855776 77.082509505708,234.38035594591202 77.78471482888563,234.47411384552106 78.5854752851883,234.60805353253818 79.33079847908812,234.74868998918828 80.02684410646907,234.8625383882536 80.86456273763906,234.9027201417557 81.52980988592026,234.91611405560252 82.18273764257901,234.92950796744117 83.13133079846739,234.9562957851449 83.89513307984453,234.98308359488874 83.41467680610367,234.85584142759762 82.64471482890076,234.84244750477228 81.9055513307976,234.84244750477228 81.11095057034981,234.77547786074865 80.36562737642089,234.72859908027021 79.58950570342131,234.61475051164598 78.87498098859214,234.5209927586693 78.09269961976679,234.36026495471742 77.39049429658917,234.22632489863463 76.8484410646488,234.13926375520532 76.18935361216427,234.09908166056994 75.41939163499046,233.97183824247622 74.8095817490539,233.7575331313201 73.97186311788391,233.67047153401654 73.35589353612158,233.45616570463608 72.59825095057022,233.22846520129679 71.83444866922218,233.0677350870683 68.81003802284249,232.30426312096824 68.2063878327026,232.43820604005305 67.83064638785436,232.5654516283612 67.18387832699227,232.83333648884582 66.49399239543709,233.15479726794 65.79178707225947,233.328921376793 65.16965779467137,233.3824979578203 64.41817490494577,233.29543599743192 63.68517110266839,232.97397572109912 63.118479087454034,232.90700468555588 62.57026615968789,232.8534278211955 61.95429657792556,232.79985092490824 61.78798479089164,232.83333648884582 59.21939163497882,232.82663937705365 58.52950570342364,232.91370179134537 58.46174904942745,233.06103799275297 59.139315589360194,232.93379310575256 59.74912547529675,233.22846520129679 59.91543726233067,233.9450501314932 59.977034220530186,234.65493237585906 60.075589353597024,235.3514151695199 60.11870722434833,236.0211050767175 59.43498098861892,236.00771132743102 58.763574144482845,235.90056126143463 58.04904942968278,235.71974523557583 57.39612167302403,235.50544428976718 56.80479087453568,235.16390110184875 56.2011406844249,234.7955687592039 55.96091254753992,234.19283985343645 55.47429657794419,233.79771537856868 54.9137642585556,234.19283985343645 54.69201520914794,234.43393190050847 54.236197718651965,234.72190210964618 53.663346007611835,235.15720416363183 53.15825095056789,235.49205046368297 52.548441064631334,235.8536830674202 51.88319391635014,236.13495186500222 51.13787072242121,236.14834559532028 50.61429657795816,235.96753006763902 49.992167300370056,236.13495186500222 49.27148288974422,236.05458944115526 48.57543726233416,236.10146753046138 47.98410646387492,236.1818299124061 47.15870722432737,236.02780195059313 46.43186311784666,236.04789256927324 44.95969581749523,236.12155813266145 44.62707224334008,236.10146753046138 44.091178707254585,236.14164873040136 43.52448669201112,235.84698618056427 42.840760456281714,235.7063514414258 42.44653992392705,235.72644213193416 40.83885931558325,235.52553502511 40.66638783272356,235.06344697619352 40.79574144486105,234.61475051164598 40.01961977186147,234.17944583188364 37.48182509504841,232.3846288963614 36.90897338400828,232.02298234145564 36.14517110266024,231.66803153051296 33.08380228138412,230.34197648208647 32.44319391634781,230.00711100299668 32.10441064636689,229.8530724637676 26.57916349809966,228.7413082234125 23.91201520912,228.5403855082186 25.45809885932249,229.65215223334963 23.185171102639288,229.24361304672493 24.417110266163945,230.06738688128098 24.041368821286596,230.52280332217924 23.530114068445982,230.74381341060507 23.117414448672207,230.9380339489071 22.73551330799819,231.1389513056347 22.29817490495043,231.35995987947535 21.87315589352511,231.5541790868083 21.43581749050645,231.78858101965307 21.090874524699757,231.93591906468646 20.672015209129313,232.17032000236213 20.23467680605245,232.37123460543808 19.606387832696782,232.6859999143344 19.181368821271462,232.84673071092402 18.873384030419402,233.01415831850318 18.602357414434664,233.13470600290748 18.52228136881604,233.10122055123065 18.060304182494292,233.38919502821227 17.536730038031237,233.55662162575027 17.056273764232174,233.76423017377238 16.471102661598707,234.02541444046074 16.224714828917058,234.2531129258059 16.372547528502764,234.83575054262474 16.452623574150493,235.34471824527282 15.855133079865482,235.3313243952507 15.645703422051156,234.85584142759762 15.479391634959029,234.4205379148625 15.239163498103153,234.03880848497647 15.017414448666386,233.57671279652277 14.807984790881164,233.18158561431483 14.64783269961481,232.6525142955652 14.530798479070654,232.27747451321193 14.764866920158966,232.264080206347 14.70326996195945,232.8400336001214 15.214524714800064,232.9672786197989 15.910570342210121,232.8132451519923 16.501901140698465,232.5721487595947 17.142509505705675,232.29086881809053 17.56136882127612,232.1636228412026 17.94326996197924,232.08325686828175 18.4668441064714,231.74839787456585 18.965779467660468,231.46041814253113 20.074524714815198,230.95812570478301 20.487224334588973,230.88445591128402 20.795209125441033,230.64335434684472 21.15247148287017,230.43573859272146 21.534372623544186,230.32188458851306 22.051787072239676,230.00711100299668 22.643117870698916,229.76600708570913 23.129733840294648,229.51820516361477 23.450038022798253,229.3842578942931 23.770342205330962,229.20342876413633 24.293916349794017,228.98911228701763 24.83596958173439,228.69442629670084 25.13779467678978,228.5872675152641 25.667528517107712,228.3595546805809 25.907756653992692,228.27248785604752 26.240380228118738,228.11174888154346 26.75779467681423,227.9376146681243 27.047300380218076,227.91752223717776 28.039011406857753,227.6094377335976 28.340836501913145,227.46209259775787 28.62418250949122,227.44869757343258 29.141596958157606,227.3549323472689 29.603574144508457,227.3080496975017 29.874600760434987,227.29465465022804 30.42281368820113,227.1941917319782 30.780076045630267,227.2276793838755 31.075741444859887,227.26786454967805 31.451482889737235,227.20088926337485 31.8025855513406,227.40851248848048 32.44935361217358,227.2343769127474 32.99140684411395,227.2276793838755 33.391787072236184,227.1941917319782 33.66281368822092,227.16070406762447 33.97079847907298,227.44869757343258 34.38965779467253,227.7232951731421 34.654524714831496,227.8304549845052 34.95634980988689,227.99789193402103 35.46144486690173,228.16532857164566 36.10821292773471,228.38634445577918 36.47163498098962,228.70112371630967 36.82273764259298,228.89534866760368 37.32167300378205,229.0962705894417 38.036197718640324,229.24361304672493 38.57209125475492,229.4177447303373 38.978631178702926,229.50481044565822 39.33589353613206,229.5851787234351 39.699315589357866,229.6588495816104 40.14897338402807,229.6119681333803 40.52471482890542,229.6119681333803 41.01749049429782,229.87986179389554 41.55338403041242,230.02050564609817 42.157034220552305,230.00711100299668 42.520456273749005,229.98701903458277 42.80380228138529,229.97362438648997 43.35201520912233,229.92674310240545 43.86326996196294,230.05399224514986 44.41764258555486,230.23481966447434 44.84266159698018,230.34867377893534 45.24304182510241,230.4089494282307 45.520228136883816,230.52280332217924 46.0807604562724,230.6768407139025 46.55505703421659,230.9983092030743 46.90615969581995,231.44032649889414 46.83840304182377,231.91582752730756 46.826083650201326,232.398023185262 47.1956653992529,232.70609127961507 47.71923954371596,232.83333648884582 48.273612167307874,232.83333648884582 48.73558935360052,232.8065480387013 49.351558935362846,232.8132451519923 49.844334600755246,232.75966823176714 50.38638783269562,232.73957687844813 50.93460076046176,232.71948552065442 51.37193916350952,232.59893727957387 52.03102661596495,232.4716917386395 52.597718631179305,232.3913260410627 52.887224334612256,232.33774886946048 53.25064638783806,232.27747451321193 53.8419771862973,232.18371432321146 54.41482889733743,232.04977102502744 54.98152091255179,231.93591906468646 55.80076045630267,231.7149119066089 56.361292775691254,231.54748187973019 56.718555133091286,231.426932067312 57.27908745247987,231.26619873268646 57.64866920153145,231.17243748812325 58.29543726236443,230.88445591128402 58.671178707212675,230.6299597965335 59.046920152090024,230.34867377893534 59.65057034220081,230.34197648208647 60.069429657800356,230.56968429542758 60.71003802280757,230.59647341201344 61.30752851712168,230.54289517085272 61.98509505702532,230.36876566652063 62.17604562739143,229.86646712983202 62.07749049429549,229.3373763028867 62.102129277569475,228.68772887660452 61.49231939163292,228.67433403491304 60.87634980987059,228.75470305512863" stroke="red" stroke-linecap="round" stroke-linejoin="round" stroke-width="0.5"><title>2019-12-08 42.8km</title><desc>372318520</desc></polyline><polyline fill="none" points="140.5329274875403,228.45191627841996 140.27058717687032,228.53004647654234 139.7410484016291,228.7764562556804 139.21150962632964,229.1310436843196 138.62367300427286,229.43754931884905 138.06498530559475,229.70198395604166 137.52087206862052,230.11666256831086 136.971900677745,230.49527899474924 136.3937803634908,230.95201858582732 135.90796497330302,231.46284053386262 135.41243327537086,232.0277430862334 134.95090865471866,232.4243727607536 134.47480957236257,232.79095177449926 133.9792778744013,233.271706829677 133.39144125231542,233.5902043622591 132.90076770828455,233.9988395644432 132.36151262521162,234.40146197205468 131.8173993882374,234.76201644278262 131.2198464583489,235.03243049196317 130.61257722065784,235.15261401751923 129.88385413543438,235.17665068597125 129.21828705092776,235.38697101391153 128.5867270437011,235.68742700280563 127.97945780603914,235.90976320575282 127.40619564568624,235.69944520265926 127.1098482576781,235.08050393882513 126.67261440653238,234.6358226907032 126.14307563126204,234.21517441848846 125.65240208720206,233.7464476506102 125.20059377438156,233.19959388297139 124.87023930903524,232.5866293960462 124.65162238347693,231.9736569637571 124.15123253164347,231.43880197768522 123.4225094463909,231.45683089595695 122.75694236188428,231.6311100849416 122.07194266180159,231.8354365919804 121.45009896240663,232.03375265157229 120.83311341688386,232.2200487984046 120.18212079408113,232.4243727607536 119.55541894081398,232.62869584024884 118.89471001017955,232.76090442126224 118.33116415762925,232.97123549291427 117.82105799796409,233.35583846186637 117.29151922269375,233.75846634372283 116.75226413962082,234.17310938546507 116.2081509026466,234.56371182404837 115.65432135786978,234.87018224799976 115.09077550531947,234.88820985814527 114.88187488753465,234.31733220002207 114.75556288610096,233.6923634938139 114.66325796197634,233.06738652840068 114.60981826906209,232.31620136125275 114.08999580159434,231.8354365919804 113.63332933484344,231.35466693483613 113.39042163977865,230.78374661816997 112.7540034786798,230.53734729943608 112.12730162538355,230.39912272920265 111.43258561746916,230.21281940825793 110.75244407125865,230.04454481003268 110.07230252501904,229.94838762786821 109.38730282490724,229.73203325307622 109.18326036105282,230.16474101271524 108.64886343188118,230.19479001566287 107.93471480839071,230.10464294956546 107.23028249264462,229.94838762786821 106.53070833082893,230.1887802165984 106.1080489413871,230.5794155666954 106.24893540452467,231.25250275297003 106.0983326335845,231.94360909122042 105.74854555269121,232.46042983892403 105.21900677742087,232.893112632657 104.844928926992,233.2656974216552 104.78177292627515,233.9026904227576 104.62631200143369,234.377424909595 105.04897139087552,233.9507650180458 105.6416661668336,233.5721762573121 106.06432555627543,233.16353736837846 106.2197864811169,232.5085059004159 106.51127571522375,231.87149411922655 106.43354525280301,231.18639640002584 106.96308402807335,230.75970771678112 107.57521141966572,230.59744481264715 108.23106219636975,230.61547405171223 108.88691297307378,230.6214837965308 109.5476219036791,230.5553765614277 110.17918191087665,230.57340581651442 110.85446530318586,230.71763960991666 111.5005997720873,230.87389238960532 112.19531578000169,231.0782221685986 112.8754573262122,231.25250275297003 113.54588256462011,231.41476340928784 114.06570503208786,231.88351328886347 114.55152042224654,232.32822041786494 114.60981826906209,232.9231599018749 114.70698134711711,233.56015751685845 114.8187188868178,234.2271929924791 115.00818688899744,234.94830184235616 115.61545612665941,234.9543110365703 116.18871828704141,234.62380422057322 116.73283152401564,234.18512797016592 117.32066814610153,233.770485033765 117.87449769087834,233.36785725422305 118.45747615906294,233.00128271251378 119.16676662868122,232.85104642365695 119.80804294368136,233.09142425672326 120.4444611047802,233.3979042218234 120.95456726441626,233.86062511181444 121.31892880704254,234.34737856435095 121.67843219576753,234.94830184235616 121.9407725064375,235.52518100586894 122.4022971270897,235.9818720200783 122.30513404906378,236.6068104724036 122.24683620224823,237.2738029801585 122.1642475859262,237.90473318199292 122.46545312780654,238.11504137903103 123.06786421159632,237.86868025431613 123.56339590955758,237.47810510975978 124.19495591672603,237.33389193340918 124.89453007857082,237.2738029801585 125.42892700771336,237.36393638140362 126.00218916812446,237.56222925957263 126.43456486533978,237.09353566235222 126.97381994844181,236.63685538225764 127.64910334072192,236.78107068394456 128.2320818089065,236.8832229232321 128.84420920052798,236.86519607350783 129.23286151263164,237.2677940806425 129.70410244105733,237.76653014335898 130.21906675462378,238.35539245921973 130.83605230014655,238.67385575928347 131.40931446049944,238.72793421991446 131.66679661729722,238.1330677524238 131.72023631021148,237.43003409982703 131.7931086187309,236.7690527589184 131.94856954354327,236.2162249073881 132.36151262521162,235.66339059392703 132.86190247704508,235.15862318577274 133.44973909913097,234.76201644278262 133.96470341269742,234.34737856435095 134.58168895819108,233.98081161525624 135.15980927247438,233.64428863587455 135.57275235411362,234.01686750674344 136.15087266839691,233.81255042491102 136.67555328973685,233.4760262481941 137.25367360402015,233.14550910075923 137.96296407363843,233.03733935081982 138.62367300427286,233.00128271251378 139.06576500929077,232.47244885888358 139.47870809093,231.9315899368521 139.9450908654835,231.39673447497262 140.5377856414416,231.45683089595695 141.24221795715857,231.46284053386262 141.74746596295154,231.14432867276628 142.43246566303424,231.0361543450963 143.06888382416219,231.25250275297003 143.6372878306429,231.43880197768522 144.16682660588413,231.47485980737838 144.63320938043762,230.9820670884692 145.1044503088924,231.0962512243459 145.5756912373181,231.51692724058375 145.52710969833424,231.9916856781274 144.9927127691626,232.40634421135837 144.67693276554928,232.95921659974556 144.22998260660097,233.45799809970413 144.4145924548502,233.33781026755605 144.84210999819334,232.85104642365695 145.4542373897857,232.88710317651203 145.9157620104379,233.31978206639542 146.3772866310901,233.74043830292794 146.35299586155452,234.2392115634102 145.93519462604309,234.7199518961679 145.48824446709477,235.20669650435957 144.84696815209463,235.32087044019863 144.28342229954433,235.3388978785515 144.9975709230348,235.54320836633997 145.60484016072587,235.6934361031199 145.48338631319348,236.34842345972356 145.2307623103261,236.79909756573034 144.540904456313,236.66089129642933 143.89476998738246,236.52869361743433 143.23891921070754,236.40851358863438 143.00086966951494,236.38447754624212 143.70530198526103,236.5407116035385 144.35143645416247,236.66690027304867 145.0024290769652,236.78107068394456 145.47367000542,236.67290924890767 145.94976908774697,236.43254961884304 146.29955616864027,236.2703061780121 146.89710909855785,236.62483742061886 147.37320818091393,236.30636032406255 147.538385413558,235.91577227780726 147.78129310862278,235.35692531005043 148.24767588317627,234.82811779759868 148.70920050379937,234.36540637378494 149.20959035566193,234.53366559714414 149.78285251604393,234.8401362158038 150.37068913812982,235.11655899191464 150.77877406583866,234.76201644278262 150.9779583758209,234.1070071151662 151.50263899718993,233.83658777446908 152.1050500809797,233.71640090448636 152.66373777965782,233.54212940046273 153.10582978470484,233.19358446578917 153.56735440532793,232.7488854746225 154.01916271817754,232.35826804601675 154.71387872609193,232.2320678794713 155.37458765669726,232.2380774188423 156.0304384334013,232.27413463907214 156.61341690155677,232.46643934928215 157.21582798537565,232.6887906956108 157.79880645353114,232.90513154262226 158.4303664607578,232.93517880422587 159.1007916991657,232.82700857316013 159.77607509147492,232.73686652492688 160.39306063693948,232.6347053292302 161.01004618246225,232.43639178986632 161.49100341869052,232.0217335201196 161.9768188088492,231.55298501068683 162.448059737304,231.0902415398632 162.94844958916656,230.74167853269682 163.39054159421357,230.28493690988762 163.78891021411982,229.79814163929404 164.20671144966036,229.32937108649276 164.64394530080608,228.88463575310016 165.11518622923177,228.4579262982552 165.57671084988397,228.01919284347605 166.06738439394394,227.60449583531226 166.60663947698777,227.21383590623373 167.10217117494904,226.87125454266425 167.6171354885155,226.50462963190148 167.952348107734,226.2702286088388 168.25841180351563,226.03582642363472 168.8559647334041,225.63313277674752 169.36121273916797,225.26649826436915 169.97819828466163,225.22442526960367 170.55146044501453,225.278519113137 170.97411983448546,224.74959887574732 171.23160199125414,224.1605671012221 171.4939423019532,223.6015811809084 171.86802015235298,223.07865288429093 172.4121333893272,222.6939663064477 172.90280693335808,222.36938457129145 173.42262940082583,221.9786813785322 173.9035866370832,221.5639313787433 174.21450848676614,221.05901342365905 174.55943741378724,220.46993565905723 174.90436634080834,219.91090609301318 175.26386972950422,219.36389226796382 175.54564265577937,219.0573213120042 176.01688358423417,218.57041041238335 176.39096143466304,218.15563050423953 176.84276974751265,217.68674448554884 177.28971990643186,217.2058309160384 177.76096083488665,216.75497000010364 178.10103160800645,216.23797752259634 178.20791099383496,215.57068817321124 178.13989683921682,215.04165929013834 178.42166976549197,214.6088130715798 179.05808792661992,214.33828217161135 179.6362082408741,214.06774972284984 180.15603070834186,213.6950135898187 180.75358363823034,213.3162625719633 181.23939902838902,212.94953250312392 181.73493072632118,212.5587514285835 182.31790919450577,212.2761846382782 182.88145504708518,212.07778566938578 183.45957536136848,211.8433130866797 184.08141906076344,211.66896092472598 184.3437593714625,211.57276635311064 184.87815630060504,211.36234004487414 185.5,211.13387613486339 184.90730522401282,211.30823027129009 184.30975229412434,211.52466899383944 183.74620644154493,211.72307028522482 183.18751874289592,211.93950710751596 182.58510765910614,212.14993084535672 182.01184549869504,212.37838984260452 181.45801595394732,212.73911232610408 180.93819348647958,213.1058440280285 180.40865471120924,213.47858480848663 179.93255562888226,213.83929889331557 179.38844239190803,214.15191553955083 178.8346128471312,214.38637666700743 178.25163437891752,214.62083663118756 178.0524500689644,215.1077882244026 178.1593294547929,215.73901430309706 177.99901037605014,216.38225506198432 177.5714928327361,216.85716551802398 177.14883344329428,217.2839797040906 176.70674143827637,217.72281280599054 176.27436574103194,218.1856871416603 176.06060696934583,218.40810566445361 175.67195465724217,218.8108608662842 175.23957895999774,219.2677133585821 174.91894080248312,219.73057256448737 174.57887002939242,220.27758214588903 174.2533737179765,220.80655242350986 173.9133029448858,221.3415277060376 173.50521801714785,221.8223991971936 173.04369339652476,222.20108205341603 172.50443831345183,222.53768648997357 171.97975769208279,222.89232071410152 171.55709830264095,223.3371124205696 171.29475799197098,223.89009086838632 171.00812691176543,224.44907337721452 170.74578660109546,224.97799697694427 170.21624782582512,225.30256080150502 169.64298566544312,225.12224784072532 169.0842979667941,225.3686753814618 168.88511365681188,225.5189354466238 168.44302165176487,225.8314748523735 167.91348287649453,226.19209467622932 167.41795117856236,226.58276304797982 166.9078450188972,226.9734281915844 166.41231332093594,227.3460596282166 165.83419300665264,227.71267801420254 165.36781023209915,228.1033338215493 164.93057638098253,228.53605648642406 164.4982006837381,228.99882495404745 164.08525760212797,229.40749983468777 163.73061236730427,229.8221810295472 163.30795297786244,230.29695648279449 162.87557728061802,230.74167853269682 162.3363221975742,231.1022609080792 161.89423019252717,231.52894650032977 161.53958495770348,231.90755161897323 161.09263479878427,232.29216323887522 160.69426617884892,232.51451540465496 160.06756432555267,232.6347053292302 159.4554369339603,232.74287600015305 158.85302585019963,232.82099910861507 158.27004738201504,232.893112632657 157.67735260602785,232.82700857316013 157.11866490734974,232.61667686000874 156.584267978149,232.40033469335322 155.95270797098055,232.20202017113115 155.42316919571022,232.171972443688 155.1073891920969,232.17798199069148 154.6264319558686,232.17798199069148 154.01430456427624,232.3522585219216 153.64022671384737,232.6467243048719 153.23699994001072,233.03733935081982 152.96008516763686,233.33781026755605 152.37224854558008,233.60823246033033 151.7601211539586,233.76447568912408 151.13341930066235,233.79452240472529 150.52615006297128,233.6563073549587 149.90430636360543,233.33781026755605 149.45249805072672,233.34982906452205 149.05898758472176,233.83658777446908 148.69948419602588,234.26324869611562 148.18451988245943,233.78851306312572 147.69870449230075,233.34982906452205 147.24203802554985,233.43996994435656 146.78051340489765,233.96278365921899 146.32870509207714,234.4735730860957 145.89147124096053,234.99637537473245" stroke="red" stroke-linecap="round" stroke-linejoin="round" stroke-width="0.5"><title>2019-05-04 42.7km</title><desc>297355906</desc></polyline></svg>