<?xml version="1.0" encoding="utf-8" ?>
<svg baseProfile="full" height="200mm" version="1.1" viewBox="0,0,200,200" width="200mm" xmlns="http://www.w3.org/2000/svg" xmlns:ev="http://www.w3.org/2001/xml-events" xmlns:xlink="http://www.w3.org/1999/xlink"><defs /><rect fill="#1a1a1a" height="200" width="200" x="0" y="0" /><rect fill="#1a1a1a" height="200" width="180" x="10" y="0" /><text alignment-baseline="middle" fill="#e1ed5e" style="dominant-baseline: central; font-size:9.0px; font-family:Arial;" text-anchor="middle" x="100.0" y="100.0">2023</text><line stroke="#e1ed5e" stroke-width="0.3" x1="100.0" x2="100.0" y1="15.0" y2="10.0" /><path d="M 100.0 14.0 a86.0,86.0 0 0,1 42.46469731375804,11.215312516191453" fill="none" id="id85" stroke="none" /><text fill="#e1ed5e" style="font-size:6.75px; font-family:Arial;" text-anchor="middle"><textPath startOffset="22.20632615414155" xlink:href="#id85">January</textPath></text><path d="M 101.08401301168833 79.027996857942 l 0.44477536217282254 -8.604906207233164 a29.61639344262295,29.61639344262295 0 0,0 0.5088913681236199,0.030697717047262017 l -0.5928287791360544 8.595975220805597" fill="#ff0c01" stroke="none" /><path d="M 102.52436894288641 79.15227682838746 l 0.9488553052301366 -7.836205079727902 a28.893442622950822,28.893442622950822 0 0,0 0.49323207728721413,0.06403567948728264 l -1.083602111025197 7.8187110770764825" fill="#ff0000" stroke="none" /><line stroke="#e1ed5e" stroke-width="0.3" x1="143.23703022742887" x2="145.7803849466894" y1="26.81831364943548" y2="22.513508569990506" /><path d="M 143.74570117128098 25.957352633546492 a86.0,86.0 0 0,1 28.547481713284135,27.462654790039103" fill="none" id="id86" stroke="none" /><text fill="#e1ed5e" style="font-size:6.75px; font-family:Arial;" text-anchor="middle"><textPath startOffset="19.985693538727396" xlink:href="#id86">February</textPath></text><path d="M 112.77801427241765 83.33499621200491 l 7.325662514959813 -9.554081796958313 a33.03934426229508,33.03934426229508 0 0,0 0.44833988160162697,0.34993638903943336 l -7.48903495172087 9.426567018695655" fill="#ff4306" stroke="none" /><path d="M 113.6212207817346 84.01681056812373 l 8.804348795687945 -10.331054527395434 a34.57377049180328,34.57377049180328 0 0,0 0.44963386311785664,0.3899180553301431 l -8.980876457452565 10.17797147864562" fill="#ff5b08" stroke="none" /><path d="M 114.42810811169701 84.74124197986012 l 11.789149695951025 -12.467870429102588 a38.15901639344263,38.15901639344263 0 0,0 0.4733839608457253,0.45539499527196714 l -12.002016900409167 12.263092347068318" fill="#ff910d" stroke="none" /><path d="M 114.94478906791727 85.2469230424477 l 14.699792525820262 -14.511223236936686 a41.65573770491803,41.65573770491803 0 0,0 0.4993446572446525,0.514618562925183 l -14.947401446768023 14.256040478461388" fill="#ffc412" stroke="none" /><path d="M 115.4437574822437 85.77008943001954 l 22.959478336600228 -21.154911545254333 a52.21967213114754,52.21967213114754 0 0,0 0.6034016917889774,0.6662912189161425 l -23.32022366900524 20.75656753906864" fill="#abff21" stroke="none" /><path d="M 116.60985879189232 87.15038557335679 l 13.50183135050544 -10.44520179739545 a38.070491803278685,38.070491803278685 0 0,0 0.39652059642274873,0.5217746252704728 l -13.679627887152304 10.211242396243945" fill="#ff900d" stroke="none" /><line stroke="#e1ed5e" stroke-width="0.3" x1="172.23445277983987" x2="176.4835382374775" y1="55.19839476539836" y2="52.563006222186495" /><path d="M 173.08426987136738 54.67131705675599 a86.0,86.0 0 0,1 12.851231095245387,41.99856678651699" fill="none" id="id87" stroke="none" /><text fill="#e1ed5e" style="font-size:6.75px; font-family:Arial;" text-anchor="middle"><textPath startOffset="22.20632615414155" xlink:href="#id87">March</textPath></text><path d="M 118.03404312379186 89.2402003453031 l 14.30475504924661 -8.53476380104412 a37.657377049180326,37.657377049180326 0 0,0 0.3273328507214763,0.5595179483855324 l -14.449547574438414 8.287266440304691" fill="#ff8a0c" stroke="none" /><path d="M 119.196687751892 91.48605970444005 l 15.442768718442395 -6.849036279917658 a37.893442622950815,37.893442622950815 0 0,0 0.2593161781410175,0.5985374920281558 l -15.558375606426093 6.5821996433029" fill="#ff8d0d" stroke="none" /><path d="M 119.7369772167798 92.82701384747503 l 16.043805133358944 -5.8307810153194755 a38.070491803278685,38.070491803278685 0 0,0 0.2185371666162211,0.6178339985554043 l -16.141795380784973 5.553749390337456" fill="#ff900d" stroke="none" /><path d="M 119.97218684219823 93.5106431181261 l 19.65880592453376 -6.387533249301169 a41.67049180327869,41.67049180327869 0 0,0 0.2157827367756415,0.6840902435290284 l -19.765844145077608 6.048192839345722" fill="#ffc512" stroke="none" /><path d="M 120.53481517161879 95.60439243477599 l 30.340550097832075 -6.494587383840358 a52.027868852459015,52.027868852459015 0 0,0 0.1799190699098941,0.8773492818377673 l -30.447848463656964 5.971362445839179" fill="#aeff20" stroke="none" /><path d="M 120.78858239683441 97.02765380044208 l 36.630747998543825 -5.237454989572303 a58.00327868852459,58.00327868852459 0 0,0 0.13281093843369554,0.9895957549623767 l -36.715474936035356 4.606140892545262" fill="#65ff29" stroke="none" /><path d="M 120.87857604477298 97.74499172005257 l 41.219296500570564 -4.451925011699492 a62.459016393442624,62.459016393442624 0 0,0 0.10624836155402713,1.0699065011835307 l -41.28982198780682 3.7417429798115265" fill="#33ff2f" stroke="none" /><path d="M 120.96714384426684 98.82574320788733 l 44.51712554850662 -2.493164420911816 a65.58688524590164,65.58688524590164 0 0,0 0.053426426369576355,1.1277474196898536 l -44.55344558310969 1.7265058945989622" fill="#33ff55" stroke="none" /><line stroke="#e1ed5e" stroke-width="0.3" x1="184.98032266829074" x2="189.97916517819016" y1="98.17113171792111" y2="98.06355123074" /><path d="M 185.9800911702706 98.14961562048488 a86.0,86.0 0 0,1 -9.607161424134198,41.387399972396054" fill="none" id="id88" stroke="none" /><text fill="#e1ed5e" style="font-size:6.75px; font-family:Arial;" text-anchor="middle"><textPath startOffset="21.466115282336823" xlink:href="#id88">April</textPath></text><path d="M 120.9764740272857 100.99374915477107 l 41.26519480777516 1.9549163700414376 a62.31147540983606,62.31147540983606 0 0,0 -0.059978204743560595,1.0709511367752194 l -41.225430252144065 -2.6649392231520803" fill="#34ff2f" stroke="none" /><path d="M 120.41448212921028 104.9243191809786 l 61.24344638763086 14.772957542935806 a84.0,84.0 0 0,0 -0.35115474281975656,1.4026886424104164 l -60.980080330516046 -15.82497402474362" fill="#4dd2ff" stroke="none" /><line stroke="#e1ed5e" stroke-width="0.3" x1="174.80103733775053" x2="179.2010983576182" y1="140.37084112569926" y2="142.7455964860345" /><path d="M 175.68104954172406 140.8457921977663 a86.0,86.0 0 0,1 -30.038265399797805,32.042727171017184" fill="none" id="id89" stroke="none" /><text fill="#e1ed5e" style="font-size:6.75px; font-family:Arial;" text-anchor="middle"><textPath startOffset="22.206326154141568" xlink:href="#id89">May</textPath></text><line stroke="#e1ed5e" stroke-width="0.3" x1="143.8653032363475" x2="146.44561519142675" y1="172.8068346515853" y2="177.08958963109032" /><path d="M 144.38136562736335 173.6633856474863 a86.0,86.0 0 0,1 -40.68145358897372,12.25698825130547" fill="none" id="id90" stroke="none" /><text fill="#e1ed5e" style="font-size:6.75px; font-family:Arial;" text-anchor="middle"><textPath startOffset="21.466115282336833" xlink:href="#id90">June</textPath></text><path d="M 110.8373102113329 117.98757091392108 l 4.568421166369845 7.582582586664622 a29.852459016393443,29.852459016393443 0 0,0 -0.44243068451000483,0.2613958468798455 l -4.437222610831458 -7.660097005838217" fill="#ff1001" stroke="none" /><line stroke="#e1ed5e" stroke-width="0.3" x1="102.19456741930631" x2="102.32365962044197" y1="184.97166512339345" y2="189.96999836594603" /><path d="M 102.22038585953345 185.97133177190398 a86.0,86.0 0 0,1 -42.740103519485714,-10.115201625700543" fill="none" id="id91" stroke="none" /><text fill="#e1ed5e" style="font-size:6.75px; font-family:Arial;" text-anchor="middle"><textPath startOffset="22.20632615414155" xlink:href="#id91">July</textPath></text><line stroke="#e1ed5e" stroke-width="0.3" x1="58.666819895761336" x2="56.23545636021788" y1="174.27360380694188" y2="178.64263932499728" /><path d="M 58.180547188652646 175.14741091055294 a86.0,86.0 0 0,1 -31.652253787137756,-30.449443065178592" fill="none" id="id92" stroke="none" /><text fill="#e1ed5e" style="font-size:6.75px; font-family:Arial;" text-anchor="middle"><textPath startOffset="22.20632615414155" xlink:href="#id92">August</textPath></text><line stroke="#e1ed5e" stroke-width="0.3" x1="26.63291911575756" x2="22.317208475507996" y1="142.92168965132927" y2="145.44649492493687" /><path d="M 25.769776987707644 143.4266507060508 a86.0,86.0 0 0,1 -11.730757126820373,-40.83630448921669" fill="none" id="id93" stroke="none" /><text fill="#e1ed5e" style="font-size:6.75px; font-family:Arial;" text-anchor="middle"><textPath startOffset="21.46611528233685" xlink:href="#id93">September</textPath></text><path d="M 79.76711848015287 105.62410040840567 l -14.215139241110391 3.9513586007534 a35.75409836065574,35.75409836065574 0 0,0 -0.15972194027992892,-0.5943847578018342 l 14.281049257732095 -3.706082909776027" fill="#ff6d0a" stroke="none" /><path d="M 79.58551787078972 104.9243191809786 l -13.094910199509833 3.1587143411476335 a34.47049180327869,34.47049180327869 0 0,0 -0.1341713567664494,-0.5780066933592138 l 13.147342122206837 -2.9328389904398455" fill="#ff5908" stroke="none" /><path d="M 79.1416061653843 102.43462659150553 l -21.99656848648114 2.567476239238738 a43.14590163934426,43.14590163934426 0 0,0 -0.0797535524429208,-0.738418844989416 l 22.037504340425116 -2.1884610723645395" fill="#ffda14" stroke="none" /><path d="M 79.04373962182676 101.35467743843564 l -31.110476472421574 2.0110773494715524 a52.17540983606557,52.17540983606557 0 0,0 -0.050221686986926674,-0.8967419581726797 l 31.140484510296034 -1.475263674963435" fill="#acff21" stroke="none" /><line stroke="#e1ed5e" stroke-width="0.3" x1="15.007084014347285" x2="10.007500721073583" y1="101.09737516637583" y2="101.16192664675087" /><path d="M 14.007167355692545 101.11028546245083 a86.0,86.0 0 0,1 10.666146001902534,-42.60595125391555" fill="none" id="id94" stroke="none" /><text fill="#e1ed5e" style="font-size:6.75px; font-family:Arial;" text-anchor="middle"><textPath startOffset="22.20632615414155" xlink:href="#id94">October</textPath></text><path d="M 79.00019446554 99.90962569577889 l -31.189875105279924 -0.13422806495792614 a52.19016393442623,52.19016393442623 0 0,0 0.011598624933677417,-0.8983262832464336 l 31.18294347322853 0.6710906062648316" fill="#acff21" stroke="none" /><path d="M 79.3925641242962 95.95851677861259 l -43.434876553005665 -8.518348710184236 a65.26229508196721,65.26229508196721 0 0,0 0.22568541995504027,-1.1005222582462877 l 43.28181183713563 9.264746624593927" fill="#33ff51" stroke="none" /><path d="M 79.71946130924805 94.55025226153421 l -36.74719621788007 -9.87463659309363 a59.05081967213115,59.05081967213115 0 0,0 0.27223335967440426,-0.9793682388404582 l 36.5717760876393 10.505716135353032" fill="#59ff2a" stroke="none" /><path d="M 80.2630227832202 92.82701384747504 l -47.7292802670886 -17.346195552921014 a71.78360655737706,71.78360655737706 0 0,0 0.4320532614122351,-1.157687937217736 l 47.42362241717474 18.165206627168093" fill="#3cffa4" stroke="none" /><path d="M 81.10775173730289 90.83032412892265 l -56.477646153004365 -27.412391684848302 a83.77868852459017,83.77868852459017 0 0,0 0.6408670209223919,-1.2919488079438386 l 55.99741911912856 28.380500081291103" fill="#4dd4ff" stroke="none" /><line stroke="#e1ed5e" stroke-width="0.3" x1="26.266209847984243" x2="21.928928074336255" y1="57.711370442889674" y2="55.22380399835377" /><path d="M 25.398753493254645 57.213857153982495 a86.0,86.0 0 0,1 29.58750427330803,-30.492523968695096" fill="none" id="id95" stroke="none" /><text fill="#e1ed5e" style="font-size:6.75px; font-family:Arial;" text-anchor="middle"><textPath startOffset="21.46611528233685" xlink:href="#id95">November</textPath></text><line stroke="#e1ed5e" stroke-width="0.3" x1="56.762969772571076" x2="54.21961505331055" y1="26.818313649435495" y2="22.513508569990535" /><path d="M 56.25429882871897 25.957352633546506 a86.0,86.0 0 0,1 42.265352541879196,-11.944610805530505" fill="none" id="id96" stroke="none" /><text fill="#e1ed5e" style="font-size:6.75px; font-family:Arial;" text-anchor="middle"><textPath startOffset="22.20632615414155" xlink:href="#id96">December</textPath></text></svg>