<?xml version="1.0" encoding="utf-8" ?>
<svg baseProfile="full" height="200mm" version="1.1" viewBox="0,0,200,200" width="200mm" xmlns="http://www.w3.org/2000/svg" xmlns:ev="http://www.w3.org/2001/xml-events" xmlns:xlink="http://www.w3.org/1999/xlink"><defs /><rect fill="#1a1a1a" height="200" width="200" x="0" y="0" /><rect fill="#1a1a1a" height="200" width="180" x="10" y="0" /><text alignment-baseline="middle" fill="#e1ed5e" style="dominant-baseline: central; font-size:9.0px; font-family:Arial;" text-anchor="middle" x="100.0" y="100.0">2020</text><line stroke="#e1ed5e" stroke-width="0.3" x1="100.0" x2="100.0" y1="15.0" y2="10.0" /><path d="M 100.0 14.0 a86.0,86.0 0 0,1 42.35913384403234,11.155469271406648" fill="none" id="id49" stroke="none" /><text fill="#e1ed5e" style="font-size:6.75px; font-family:Arial;" text-anchor="middle"><textPath startOffset="22.145653131862478" xlink:href="#id49">January</textPath></text><path d="M 100.0 79.0 l 0.0 -19.495524316343165 a40.495524316343165,40.495524316343165 0 0,0 0.6951595240041175,0.005967108444151777 l -0.33466659915526276 19.492651606093446" fill="#ffc512" stroke="none" /><path d="M 103.58742460773223 79.30868818359171 l 6.687315242811929 -38.57065723566835 a60.14608262327356,60.14608262327356 0 0,0 1.0157964961639836,0.18511195956271947 l -7.348446472526966 38.450177102174266" fill="#45ff2d" stroke="none" /><path d="M 105.3480935250658 79.69241777938227 l 4.940270342296782 -18.759011168757894 a40.39862807222615,40.39862807222615 0 0,0 0.6691140104877187,0.1823699989762681 l -5.261565753719193 18.671440675637484" fill="#ffc412" stroke="none" /><line stroke="#e1ed5e" stroke-width="0.3" x1="143.13028292997686" x2="145.6673583964461" y1="26.7553504044142" y2="22.446841604673864" /><path d="M 143.63769802327073 25.89364864446614 a86.0,86.0 0 0,1 29.32050498858742,28.57503671076993" fill="none" id="id50" stroke="none" /><text fill="#e1ed5e" style="font-size:6.75px; font-family:Arial;" text-anchor="middle"><textPath startOffset="20.669276256404974" xlink:href="#id50">February</textPath></text><path d="M 111.5731344415666 82.4767994020092 l 5.464923153972403 -8.274590186710038 a30.916361622935185,30.916361622935185 0 0,0 0.44034278666454,0.2962822787420804 l -5.606162228733944 8.179558233910837" fill="#ff3805" stroke="none" /><path d="M 113.59037401385872 83.9905735841838 l 6.283285288021677 -7.401694270193407 a30.70900366052478,30.70900366052478 0 0,0 0.3989545883156476,0.34460747136976455 l -6.409419356100185 7.292742666358922" fill="#ff3505" stroke="none" /><path d="M 114.13192950727249 84.46653392183569 l 7.902995430256665 -8.686776378880527 a32.74382478698207,32.74382478698207 0 0,0 0.4125257719974909,0.3818276959087037 l -8.05095097356812 8.549830936839449" fill="#ff5407" stroke="none" /><path d="M 114.39649973595853 84.71141617570332 l 10.854169876906196 -11.526752269633384 a36.83284628872005,36.83284628872005 0 0,0 0.4566001577546455,0.4374126224155196 l -11.050442520526154 11.338727516912284" fill="#ff910d" stroke="none" /><path d="M 114.91283532996326 85.21462403516908 l 13.968311415219816 -13.848924855550816 a40.66993755575379,40.66993755575379 0 0,0 0.48729014692380695,0.5000026186627405 l -14.203988363294435 13.607099544820333" fill="#ffc712" stroke="none" /><path d="M 115.16444852881244 85.47280134310134 l 11.209255841378168 -10.738213532414862 a36.5227783075456,36.5227783075456 0 0,0 0.42982817116446514,0.45646262254139486 l -11.391939846278893 10.544209449928973" fill="#ff8c0c" stroke="none" /><path d="M 115.6541949942343 86.00192230759917 l 8.696507477802191 -7.776470611976957 a32.66630779168845,32.66630779168845 0 0,0 0.37020094455929287,0.42122071805839856 l -8.828719486320075 7.6260376161072605" fill="#ff5307" stroke="none" /><path d="M 116.1254893667686 86.54754324733833 l 14.895827176599129 -12.426628819171004 a40.39862807222615,40.39862807222615 0 0,0 0.4396778544906171,0.5363354918594176 l -15.106951850328372 12.169091045613092" fill="#ffc412" stroke="none" /><path d="M 116.35404254752997 86.82634096563983 l 18.125323848395976 -14.600477867913407 a44.2744778369067,44.2744778369067 0 0,0 0.4716993789491576,0.5959767560992915 l -18.373289657986692 14.287181167899437" fill="#fff917" stroke="none" /><path d="M 116.7966241395341 87.39550010848427 l 23.436429018710726 -17.587133257841018 a50.301424220984956,50.301424220984956 0 0,0 0.5123510977583768,0.695102663986649 l -23.734882136052928 17.18222428458549" fill="#b8ff1f" stroke="none" /><path d="M 117.21940702142032 87.97951657250589 l 24.01045003786592 -16.76115887195263 a50.28204497216156,50.28204497216156 0 0,0 0.48799984853523387,0.7120063630650737 l -24.29463962321648 16.34651777381751" fill="#b8ff1f" stroke="none" /><line stroke="#e1ed5e" stroke-width="0.3" x1="172.87174338648825" x2="177.1583165268699" y1="56.24261187166439" y2="53.66864786411523" /><path d="M 173.72905801456457 55.72781907015455 a86.0,86.0 0 0,1 12.242430191666344,42.057860355516425" fill="none" id="id51" stroke="none" /><text fill="#e1ed5e" style="font-size:6.75px; font-family:Arial;" text-anchor="middle"><textPath startOffset="22.145653131862474" xlink:href="#id51">March</textPath></text><path d="M 118.00360718960297 89.18935116829356 l 5.432815113660992 -3.2622493782964788 a27.3370143652527,27.3370143652527 0 0,0 0.23812660066499616,0.4043910273765721 l -5.488015424455757 3.1685071826263504" fill="#ff0000" stroke="none" /><path d="M 118.18653347947321 89.5 l 10.086535994183212 -5.823464271432528 a32.646928542865055,32.646928542865055 0 0,0 0.276047868749721,0.48775013368484643 l -10.18501722795431 5.649457367648564" fill="#ff5307" stroke="none" /><path d="M 118.36410011445183 89.81374322990088 l 16.96373085720842 -9.409495549111833 a40.39862807222615,40.39862807222615 0 0,0 0.33118150913304534,0.6093366750540399 l -17.12275771595681 9.11690404058319" fill="#ffc412" stroke="none" /><path d="M 118.53625476483649 90.13048839642627 l 10.280496890399645 -5.473785542847651 a32.646928542865055,32.646928542865055 0 0,0 0.2591418838498655,0.49693873142027645 l -10.372946843224454 5.296500568322876" fill="#ff5307" stroke="none" /><path d="M 118.70294669586156 90.45014215332178 l 20.711374728567957 -10.575375510794427 a44.2550985880833,44.2550985880833 0 0,0 0.3396686014881144,0.6795647379518786 l -20.889863243267808 10.218278916678797" fill="#fff817" stroke="none" /><path d="M 119.0197475246899 91.09779779509293 l 35.103659032310865 -16.430284914775125 a59.7584976468055,59.7584976468055 0 0,0 0.42689061923541327,0.9328330445200338 l -35.380534116401336 15.825262888040408" fill="#49ff2c" stroke="none" /><path d="M 119.16976305983485 91.42560881287824 l 17.707957325258867 -7.920544075464224 a40.39862807222615,40.39862807222615 0 0,0 0.27772348126797786,0.6354856752987836 l -17.841314688543815 7.615396330389591" fill="#ffc412" stroke="none" /><path d="M 119.4528033332814 92.08871423366111 l 32.47419597333604 -13.206972793356037 a56.057061121535575,56.057061121535575 0 0,0 0.35487142776199476,0.8945078171344556 l -32.69612607606416 12.647563959008016" fill="#73ff27" stroke="none" /><path d="M 119.58574465831526 92.42381321644754 l 14.477389158058257 -5.600165136078176 a36.5227783075456,36.5227783075456 0 0,0 0.221170321074636,0.586680553265327 l -14.571390162947333 5.350816302618691" fill="#ff8c0c" stroke="none" /><path d="M 119.83427380445688 93.10060997987247 l 22.055707589624923 -7.672120004540593 a44.35199483220032,44.35199483220032 0 0,0 0.24396676121267938,0.7212443794727165 l -22.184159772409966 7.292373950593715" fill="#fffa17" stroke="none" /><path d="M 119.94978838288452 93.4421083053983 l 27.983338468102197 -9.198679174192902 a50.45645821157218,50.45645821157218 0 0,0 0.2634194350904125,0.825157628576685 l -28.137122618969865 8.716952511924829" fill="#b6ff1f" stroke="none" /><path d="M 120.05942366710727 93.78553927170692 l 24.083155610052497 -7.461023169746187 a46.21240271924698,46.21240271924698 0 0,0 0.22825335578641312,0.7597811860322752 l -24.207685285842537 7.046504380123188" fill="#ecff1a" stroke="none" /><path d="M 120.35273937422433 94.82641323984039 l 18.80072482721574 -4.779070731415704 a40.39862807222615,40.39862807222615 0 0,0 0.16508124762981527,0.6735878244435187 l -18.879993601361846 4.45562708236409" fill="#ffc412" stroke="none" /><path d="M 120.43855184770803 95.1765574152323 l 33.95003844400731 -8.012116631623739 a55.88264788212495,55.88264788212495 0 0,0 0.21232515849481182,0.9355438249490534 l -34.082574464059796 7.428138472735659" fill="#75ff27" stroke="none" /><path d="M 120.592083275326 95.88100663000786 l 27.934137390934097 -5.587609819331669 a49.48749577040204,49.48749577040204 0 0,0 0.15947630116448494,0.8344473959630504 l -28.025939984380738 5.107259858335304" fill="#c2ff1e" stroke="none" /><path d="M 120.65975698304385 96.23510406497455 l 61.97927094913153 -11.294687805076354 a84.0,84.0 0 0,0 0.24634073003106272,1.4208278683176294 l -62.16402649665483 10.229066903838131" fill="#4dd2ff" stroke="none" /><line stroke="#e1ed5e" stroke-width="0.3" x1="184.99686870605535" x2="189.99668451229388" y1="99.2704041080226" y2="99.22748670261217" /><path d="M 185.99683186730306 99.26182062694052 a86.0,86.0 0 0,1 -10.086455211305974,41.156179273409016" fill="none" id="id52" stroke="none" /><text fill="#e1ed5e" style="font-size:6.75px; font-family:Arial;" text-anchor="middle"><textPath startOffset="21.40746469413373" xlink:href="#id52">April</textPath></text><line stroke="#e1ed5e" stroke-width="0.3" x1="174.33088141563837" x2="178.70328620479359" y1="141.23008692659167" y2="143.65538615756765" /><path d="M 175.20536237346943 141.71514677278685 a86.0,86.0 0 0,1 -30.301960400862466,31.631185727798858" fill="none" id="id53" stroke="none" /><text fill="#e1ed5e" style="font-size:6.75px; font-family:Arial;" text-anchor="middle"><textPath startOffset="22.145653131862474" xlink:href="#id53">May</textPath></text><path d="M 116.35404254752997 113.17365903436017 l 9.68142818380185 7.798673232528269 a33.431788120212865,33.431788120212865 0 0,0 -0.3638543577816626,0.4438431546026085 l -9.54612700678156 -7.96371866882937" fill="#ff5f08" stroke="none" /><path d="M 115.16444852881244 114.52719865689866 l 11.349196613430335 10.872273626452502 a36.71657079577963,36.71657079577963 0 0,0 -0.4399225632713794,0.4513993049789867 l -11.160887249008148 -11.065495623499226" fill="#ff8f0d" stroke="none" /><path d="M 114.65682725009322 115.03919595460226 l 10.89895542599752 11.18328841264127 a36.61579870189794,36.61579870189794 0 0,0 -0.45390951686291536,0.4348350493060014 l -10.705373423269293 -11.368735592252852" fill="#ff8e0d" stroke="none" /><path d="M 113.86319453409587 115.77377054828091 l 15.458086642666377 17.58846499752791 a44.415946353317544,44.415946353317544 0 0,0 -0.5770276948065328,0.49842277953769554 l -15.153879468096989 -17.851231909530323" fill="#fffa17" stroke="none" /><path d="M 113.31354834802062 116.24036423190432 l 14.82554873255697 18.084758853215064 a44.3849395552001,44.3849395552001 0 0,0 -0.593382742283386,0.47798713382310254 l -14.512915219918332 -18.33659428083157" fill="#fffa17" stroke="none" /><path d="M 112.16784306229584 117.11559508785304 l 16.894770683377203 23.76461075626781 a50.158017779691775,50.158017779691775 0 0,0 -0.7060455367938472,0.49287461894182194 l -16.4843300554096 -24.051130191014757" fill="#baff1f" stroke="none" /><line stroke="#e1ed5e" stroke-width="0.3" x1="143.1302829299769" x2="145.66735839644613" y1="173.24464959558577" y2="177.55315839532614" /><path d="M 143.63769802327073 174.10635135553383 a86.0,86.0 0 0,1 -40.68552437913181,11.842963189579606" fill="none" id="id54" stroke="none" /><text fill="#e1ed5e" style="font-size:6.75px; font-family:Arial;" text-anchor="middle"><textPath startOffset="21.407464694133747" xlink:href="#id54">June</textPath></text><path d="M 110.65571695917076 118.09573695890943 l 19.68336334907759 33.426654160985265 a59.79144236980528,59.79144236980528 0 0,0 -0.88892088882591,0.5132187144519226 l -19.106649992391283 -33.75961977271336" fill="#49ff2c" stroke="none" /><path d="M 107.407793817531 119.65005319985036 l 6.86068031185897 18.198769625060596 a40.449014119167,40.449014119167 0 0,0 -0.6518278658486428,0.2393602210963383 l -6.5472632943562 -18.313860695165655" fill="#ffc412" stroke="none" /><path d="M 105.69591212413111 120.21278271476187 l 6.307571333129901 22.38334546529968 a44.2550985880833,44.2550985880833 0 0,0 -0.7329879234478136,0.1997791179882178 l -5.922402008747392 -22.48832507743204" fill="#fff817" stroke="none" /><path d="M 105.3480935250658 120.30758222061773 l 4.84353777615391 18.39170185915984 a40.01879479528746,40.01879479528746 0 0,0 -0.6658264320463075,0.16925047533215998 l -4.527106050882205 -18.47213756632727" fill="#ffbe11" stroke="none" /><path d="M 104.9986988182912 120.39639698878246 l 1.668949428580784 6.809883198998579 a28.011412224307115,28.011412224307115 0 0,0 -0.46801447037366944,0.11045014067085235 l -1.5518028044672354 -6.837529483315657" fill="#ff0b01" stroke="none" /><path d="M 104.64783097203109 120.47920084513623 l 2.1720092321232944 9.57027343933402 a30.813651604171152,30.813651604171152 0 0,0 -0.5168441036282445,0.11264376682037225 l -2.007402711875914 -9.60614866428811" fill="#ff3705" stroke="none" /><path d="M 104.29559338865022 120.5559693870025 l 2.0545750899788437 9.831885570103728 a31.044264665169646,31.044264665169646 0 0,0 -0.5225836506306927,0.10453136593485506 l -1.8854949538171921 -9.865706332701444" fill="#ff3a05" stroke="none" /><line stroke="#e1ed5e" stroke-width="0.3" x1="101.45913802915013" x2="101.54496967792366" y1="184.9874750549273" y2="189.98673829345242" /><path d="M 101.47630435890484 185.9873277026323 a86.0,86.0 0 0,1 -42.54439059252881,-10.42667462771756" fill="none" id="id55" stroke="none" /><text fill="#e1ed5e" style="font-size:6.75px; font-family:Arial;" text-anchor="middle"><textPath startOffset="22.145653131862474" xlink:href="#id55">July</textPath></text><path d="M 94.6519064749342 120.30758222061772 l -3.296310251368655 12.516626932680714 a33.943400289150695,33.943400289150695 0 0,0 -0.5621974255278694,-0.15322940830852344 l 3.5106890778312194 -12.458197030228046" fill="#ff6609" stroke="none" /><path d="M 92.93061703081489 119.77432235084164 l -5.174008089631219 14.472621480007852 a36.36968224184072,36.36968224184072 0 0,0 -0.586090239120545,-0.21522045400077122 l 5.4216874804058826 -14.381670176998362" fill="#ff8a0c" stroke="none" /><path d="M 90.6110303473126 118.78422872680471 l -6.099696670606839 12.203479366025263 a34.64299117167553,34.64299117167553 0 0,0 -0.5296629249353192,-0.2704496634697304 l 6.30828681725574 -12.096971750882696" fill="#ff710a" stroke="none" /><line stroke="#e1ed5e" stroke-width="0.3" x1="58.13341422392154" x2="55.67067388415222" y1="173.97424548756322" y2="178.32567169271397" /><path d="M 57.64086615596768 174.84453072859336 a86.0,86.0 0 0,1 -31.369924170532247,-30.572349798747897" fill="none" id="id56" stroke="none" /><text fill="#e1ed5e" style="font-size:6.75px; font-family:Arial;" text-anchor="middle"><textPath startOffset="22.145653131862474" xlink:href="#id56">August</textPath></text><path d="M 86.96720088162412 116.46651593811092 l -7.26908590280819 9.18425257589674 a32.71281798886462,32.71281798886462 0 0,0 -0.43733802142296546,-0.3522885525241593 l 7.425674694586417 -9.058115729579171" fill="#ff5407" stroke="none" /><path d="M 81.99639281039703 110.81064883170644 l -10.046554431898478 6.032667275400251 a32.718631763511645,32.718631763511645 0 0,0 -0.2850046627680688,-0.4840002253508643 l 10.148632804796318 -5.859315881755828" fill="#ff5407" stroke="none" /><line stroke="#e1ed5e" stroke-width="0.3" x1="26.387840678322732" x2="22.057713659400548" y1="142.50000000000003" y2="145.00000000000006" /><path d="M 25.521815274538298 143.00000000000003 a86.0,86.0 0 0,1 -11.493303480769221,-40.785679425670985" fill="none" id="id57" stroke="none" /><text fill="#e1ed5e" style="font-size:6.75px; font-family:Arial;" text-anchor="middle"><textPath startOffset="21.40746469413373" xlink:href="#id57">September</textPath></text><path d="M 81.29705330413844 109.54985784667822 l -10.45924423792682 5.340564632951184 a32.74382478698207,32.74382478698207 0 0,0 -0.25131678671168795,-0.5028019238646386 l 10.549380937850245 -5.160230852922793" fill="#ff5407" stroke="none" /><path d="M 80.5471966667186 107.91128576633889 l -14.427590549347801 5.8675754748591835 a36.57510227936879,36.57510227936879 0 0,0 -0.23154012191756237,-0.5836323604345853 l 14.526189346231488 -5.619042097211032" fill="#ff8d0d" stroke="none" /><path d="M 79.83685265289637 105.86919833188381 l -22.646559386163677 6.592083382819324 a44.58648374296349,44.58648374296349 0 0,0 -0.2076063625466388,-0.7367217409445825 l 22.756384240784893 -6.2023537179717465" fill="#fffd17" stroke="none" /><path d="M 79.22317932658666 103.0534771498775 l -23.481533371124286 3.4509767745439444 a44.73376603402134,44.73376603402134 0 0,0 -0.10513603090072077,-0.7607119461424242 l 23.53731391858022 -3.0473765202014347" fill="#ffff18" stroke="none" /><path d="M 79.17382384314188 102.69636545807758 l -13.683814411716439 1.7716437351052683 a34.79802516226276,34.79802516226276 0 0,0 -0.07161419284746699,-0.5930682493405951 l 13.712210690823568 -1.536481808841274" fill="#ff730a" stroke="none" /><path d="M 79.13060592940153 102.33845913500099 l -11.697748277536844 1.3107570936659967 a32.77095573533483,32.77095573533483 0 0,0 -0.057844805961813614,-0.5595960251027287 l 11.718525475980323 -1.1097565462803367" fill="#ff5507" stroke="none" /><line stroke="#e1ed5e" stroke-width="0.3" x1="15.003131293944662" x2="10.003315487706104" y1="100.72959589197737" y2="100.7725132973878" /><path d="M 14.003168132696942 100.73817937305945 a86.0,86.0 0 0,1 10.791469493833604,-42.45332614584628" fill="none" id="id58" stroke="none" /><text fill="#e1ed5e" style="font-size:6.75px; font-family:Arial;" text-anchor="middle"><textPath startOffset="22.145653131862435" xlink:href="#id58">October</textPath></text><path d="M 79.407916724674 95.88100663000787 l -11.074840320705029 -2.2152782331336685 a32.29422621427912,32.29422621427912 0 0,0 0.1134023889617469,-0.542671483308885 l 11.035180220918914 2.4050661677279623" fill="#ff4d07" stroke="none" /><path d="M 80.9802524753101 91.09779779509293 l -10.087036422934528 -4.721242370260629 a32.13725429880956,32.13725429880956 0 0,0 0.2381534933862846,-0.4976492055203762 l 10.004503671588338 4.893704077846093" fill="#ff4b07" stroke="none" /><line stroke="#e1ed5e" stroke-width="0.3" x1="26.387840678322718" x2="22.05771365940052" y1="57.49999999999999" y2="54.99999999999999" /><path d="M 25.521815274538284 56.99999999999999 a86.0,86.0 0 0,1 29.574782752854787,-30.34633250058573" fill="none" id="id59" stroke="none" /><text fill="#e1ed5e" style="font-size:6.75px; font-family:Arial;" text-anchor="middle"><textPath startOffset="21.40746469413373" xlink:href="#id59">November</textPath></text><path d="M 82.18462484594161 88.88188828441811 l -9.844516880479402 -6.143706630739581 a32.60429419545357,32.60429419545357 0 0,0 0.30039781446880737,-0.4722752590957394 l 9.737601374384704 6.311795564513993" fill="#ff5207" stroke="none" /><path d="M 83.64595745247003 86.82634096563983 l -8.815155420356444 -7.100865214528073 a32.31941923774954,32.31941923774954 0 0,0 0.35174790795942257,-0.42907525430068605 l 8.691960693158393 7.2511427505272525" fill="#ff4e07" stroke="none" /><path d="M 83.8745106332314 86.54754324733833 l -12.245530652970457 -10.215657198097722 a36.947183856778125,36.947183856778125 0 0,0 0.41047518366135777,-0.48353873422791094 l 12.068360905801985 10.424362714775189" fill="#ff930d" stroke="none" /><path d="M 84.10781606972428 86.27271002978789 l -13.424933252121926 -11.596137597648807 a38.73976437294287,38.73976437294287 0 0,0 0.43903025264816653,-0.49953583584172123 l 13.223891935515166 11.824885711301828" fill="#ffac0f" stroke="none" /><path d="M 84.58840730492382 85.73525988315684 l -8.34697814704255 -7.725838359754455 a32.373681134455076,32.373681134455076 0 0,0 0.38099840156489007,-0.4046070993700477 l 8.21312391174139 7.867986919069014" fill="#ff4f07" stroke="none" /><path d="M 84.83555147118756 85.47280134310135 l -16.226132519448186 -15.544267903664203 a43.47023901073549,43.47023901073549 0 0,0 0.5208421853443016,-0.5344299658554295 l 15.956903532953081 15.820520561587362" fill="#ffee16" stroke="none" /><path d="M 85.34317274990677 84.96080404539775 l -11.389935919871581 -11.687077652376775 a37.31926543418746,37.31926543418746 0 0,0 0.46263007618166857,-0.4431891478663354 l 11.187633357824613 11.880878930548679" fill="#ff980e" stroke="none" /><path d="M 85.60350026404147 84.71141617570332 l -20.0051517755757 -21.244777928536035 a50.181272878279856,50.181272878279856 0 0,0 0.6322128971982579,-0.5851668192561887 l 19.63750910706349 21.58506249392459" fill="#b9ff1f" stroke="none" /><line stroke="#e1ed5e" stroke-width="0.3" x1="56.869717070023135" x2="54.33264160355391" y1="26.7553504044142" y2="22.446841604673864" /><path d="M 56.362301976729285 25.89364864446614 a86.0,86.0 0 0,1 42.16139366436587,-11.88097634709845" fill="none" id="id60" stroke="none" /><text fill="#e1ed5e" style="font-size:6.75px; font-family:Arial;" text-anchor="middle"><textPath startOffset="22.145653131862474" xlink:href="#id60">December</textPath></text></svg>