<?xml version="1.0" encoding="utf-8" ?>
<svg baseProfile="full" height="200mm" version="1.1" viewBox="0,0,200,200" width="200mm" xmlns="http://www.w3.org/2000/svg" xmlns:ev="http://www.w3.org/2001/xml-events" xmlns:xlink="http://www.w3.org/1999/xlink"><defs /><rect fill="#1a1a1a" height="200" width="200" x="0" y="0" /><rect fill="#1a1a1a" height="200" width="180" x="10" y="0" /><text alignment-baseline="middle" fill="#e1ed5e" style="dominant-baseline: central; font-size:9.0px; font-family:Arial;" text-anchor="middle" x="100.0" y="100.0">2023</text><line stroke="#e1ed5e" stroke-width="0.3" x1="100.0" x2="100.0" y1="15.0" y2="10.0" /><path d="M 100.0 14.0 a86.0,86.0 0 0,1 42.46469731375804,11.215312516191453" fill="none" id="id85" stroke="none" /><text fill="#e1ed5e" style="font-size:6.75px; font-family:Arial;" text-anchor="middle"><textPath startOffset="22.20632615414155" xlink:href="#id85">January</textPath></text><path d="M 101.08401301168833 79.027996857942 l 0.44466486234444297 -8.602768407480774 a29.614252788986,29.614252788986 0 0,0 0.5088545857868342,0.030695498236258896 l -0.592681496970889 8.59383963986421" fill="#ff0c01" stroke="none" /><path d="M 102.52436894288641 79.15227682838746 l 0.9491746241494148 -7.838842203137033 a28.896099008549186,28.896099008549186 0 0,0 0.49327742372113875,0.06404156675585743 l -1.0839667763783996 7.8213423132170385" fill="#ff0000" stroke="none" /><line stroke="#e1ed5e" stroke-width="0.3" x1="143.23703022742887" x2="145.7803849466894" y1="26.81831364943548" y2="22.513508569990506" /><path d="M 143.74570117128098 25.957352633546492 a86.0,86.0 0 0,1 28.547481713284135,27.462654790039103" fill="none" id="id86" stroke="none" /><text fill="#e1ed5e" style="font-size:6.75px; font-family:Arial;" text-anchor="middle"><textPath startOffset="19.985693538727396" xlink:href="#id86">February</textPath></text><path d="M 112.77801427241765 83.33499621200491 l 7.325365307995415 -9.553694181552514 a33.038855818150374,33.038855818150374 0 0,0 0.44833325347401437,0.3499312156806981 l -7.48873111662886 9.426184576648591" fill="#ff4306" stroke="none" /><path d="M 113.6212207817346 84.01681056812373 l 8.804234361260063 -10.33092024962638 a34.57359406686869,34.57359406686869 0 0,0 0.44963156870148946,0.38991606563487907 l -8.980759728608318 10.17783919057183" fill="#ff5b08" stroke="none" /><path d="M 114.42810811169701 84.74124197986012 l 11.79048149496557 -12.469278901976308 a38.160954816629435,38.160954816629435 0 0,0 0.4734080080705412,0.45541812868318743 l -12.00337274664853 12.264477686530817" fill="#ff910d" stroke="none" /><path d="M 114.94478906791727 85.2469230424477 l 14.700777433543742 -14.512195510240414 a41.65712166973005,41.65712166973005 0 0,0 0.49936124740660315,0.5146356605453896 l -14.948402944653454 14.25699565414491" fill="#ffc412" stroke="none" /><path d="M 115.4437574822437 85.77008943001954 l 22.96108956926523 -21.156396138414824 a52.2218630413586,52.2218630413586 0 0,0 0.6034270078982894,0.6663191735963518 l -23.321860217779555 20.758024177548922" fill="#abff21" stroke="none" /><path d="M 116.60985879189232 87.15038557335679 l 13.503359613196853 -10.446384082360861 a38.0724240001096,38.0724240001096 0 0,0 0.39654072108632704,0.5218011069687553 l -13.681176274507292 10.212398199511073" fill="#ff900d" stroke="none" /><line stroke="#e1ed5e" stroke-width="0.3" x1="172.23445277983987" x2="176.4835382374775" y1="55.19839476539836" y2="52.563006222186495" /><path d="M 173.08426987136738 54.67131705675599 a86.0,86.0 0 0,1 12.851231095245387,41.99856678651699" fill="none" id="id87" stroke="none" /><text fill="#e1ed5e" style="font-size:6.75px; font-family:Arial;" text-anchor="middle"><textPath startOffset="22.20632615414155" xlink:href="#id87">March</textPath></text><path d="M 118.03404312379186 89.2402003453031 l 14.306862415652267 -8.536021136416352 a37.659831002196576,37.659831002196576 0 0,0 0.32735418145397255,0.559554409521827 l -14.451676271576567 8.28848731454063" fill="#ff8a0c" stroke="none" /><path d="M 119.196687751892 91.48605970444005 l 15.439432283267067 -6.8475565345444 a37.88979276733054,37.88979276733054 0 0,0 0.259291201085762,0.5984798415409472 l -15.55501419419551 6.58077754841685" fill="#ff8d0d" stroke="none" /><path d="M 119.7369772167798 92.82701384747503 l 16.04365207036988 -5.83072538781943 a38.07032894537319,38.07032894537319 0 0,0 0.21853623175818432,0.6178313555858449 l -16.141641382937873 5.553696405806971" fill="#ff900d" stroke="none" /><path d="M 119.97218684219823 93.5106431181261 l 19.659904478021414 -6.387890190966673 a41.671646890772266,41.671646890772266 0 0,0 0.2157887181771031,0.684109206206227 l -19.766948679966724 6.048530818334027" fill="#ffc512" stroke="none" /><path d="M 120.53481517161879 95.60439243477599 l 30.340761684351545 -6.494632675278235 a52.02808523214745,52.02808523214745 0 0,0 0.17991981817871902,0.8773529306622999 l -30.44806079844526 5.971404088452523" fill="#aeff20" stroke="none" /><path d="M 120.78858239683441 97.02765380044208 l 36.62968767593173 -5.237303384916141 a58.00220758254781,58.00220758254781 0 0,0 0.13280848590699093,0.9895774807897488 l -36.71441216089656 4.606007562061728" fill="#65ff29" stroke="none" /><path d="M 120.87857604477298 97.74499172005257 l 41.219164139660485 -4.451910715947352 a62.45888326275853,62.45888326275853 0 0,0 0.10624813508685114,1.0699042206899745 l -41.28968940042956 3.741730964552943" fill="#33ff2f" stroke="none" /><path d="M 120.96714384426684 98.82574320788733 l 44.513107290493146 -2.4929393799238855 a65.58286069115495,65.58286069115495 0 0,0 0.0534231480071867,1.1276782186412908 l -44.549424046733826 1.726350054659595" fill="#33ff55" stroke="none" /><line stroke="#e1ed5e" stroke-width="0.3" x1="184.98032266829074" x2="189.97916517819016" y1="98.17113171792111" y2="98.06355123074" /><path d="M 185.9800911702706 98.14961562048488 a86.0,86.0 0 0,1 -9.607161424134198,41.387399972396054" fill="none" id="id88" stroke="none" /><text fill="#e1ed5e" style="font-size:6.75px; font-family:Arial;" text-anchor="middle"><textPath startOffset="21.466115282336823" xlink:href="#id88">April</textPath></text><path d="M 120.9764740272857 100.99374915477107 l 41.265469019644925 1.9549293606810207 a62.31174992924565,62.31174992924565 0 0,0 -0.05997846898351393,1.0709558549570923 l -41.22570419977389 -2.6649569319735367" fill="#34ff2f" stroke="none" /><path d="M 120.41448212921028 104.9243191809786 l 61.24344638763086 14.772957542935806 a84.0,84.0 0 0,0 -0.35115474281975656,1.4026886424104164 l -60.980080330516046 -15.82497402474362" fill="#4dd2ff" stroke="none" /><line stroke="#e1ed5e" stroke-width="0.3" x1="174.80103733775053" x2="179.2010983576182" y1="140.37084112569926" y2="142.7455964860345" /><path d="M 175.68104954172406 140.8457921977663 a86.0,86.0 0 0,1 -30.038265399797805,32.042727171017184" fill="none" id="id89" stroke="none" /><text fill="#e1ed5e" style="font-size:6.75px; font-family:Arial;" text-anchor="middle"><textPath startOffset="22.206326154141568" xlink:href="#id89">May</textPath></text><line stroke="#e1ed5e" stroke-width="0.3" x1="143.8653032363475" x2="146.44561519142675" y1="172.8068346515853" y2="177.08958963109032" /><path d="M 144.38136562736335 173.6633856474863 a86.0,86.0 0 0,1 -40.68145358897372,12.25698825130547" fill="none" id="id90" stroke="none" /><text fill="#e1ed5e" style="font-size:6.75px; font-family:Arial;" text-anchor="middle"><textPath startOffset="21.466115282336833" xlink:href="#id90">June</textPath></text><path d="M 110.8373102113329 117.98757091392108 l 4.569705648124746 7.584714546182562 a29.854948021167406,29.854948021167406 0 0,0 -0.4424675729983296,0.26141764124896 l -4.438470204098034 -7.662250759725272" fill="#ff1001" stroke="none" /><line stroke="#e1ed5e" stroke-width="0.3" x1="102.19456741930631" x2="102.32365962044197" y1="184.97166512339345" y2="189.96999836594603" /><path d="M 102.22038585953345 185.97133177190398 a86.0,86.0 0 0,1 -42.740103519485714,-10.115201625700543" fill="none" id="id91" stroke="none" /><text fill="#e1ed5e" style="font-size:6.75px; font-family:Arial;" text-anchor="middle"><textPath startOffset="22.20632615414155" xlink:href="#id91">July</textPath></text><line stroke="#e1ed5e" stroke-width="0.3" x1="58.666819895761336" x2="56.23545636021788" y1="174.27360380694188" y2="178.64263932499728" /><path d="M 58.180547188652646 175.14741091055294 a86.0,86.0 0 0,1 -31.652253787137756,-30.449443065178592" fill="none" id="id92" stroke="none" /><text fill="#e1ed5e" style="font-size:6.75px; font-family:Arial;" text-anchor="middle"><textPath startOffset="22.20632615414155" xlink:href="#id92">August</textPath></text><line stroke="#e1ed5e" stroke-width="0.3" x1="26.63291911575756" x2="22.317208475507996" y1="142.92168965132927" y2="145.44649492493687" /><path d="M 25.769776987707644 143.4266507060508 a86.0,86.0 0 0,1 -11.730757126820373,-40.83630448921669" fill="none" id="id93" stroke="none" /><text fill="#e1ed5e" style="font-size:6.75px; font-family:Arial;" text-anchor="middle"><textPath startOffset="21.46611528233685" xlink:href="#id93">September</textPath></text><path d="M 79.76711848015287 105.62410040840567 l -14.216283578236318 3.9516766902401086 a35.75528608468906,35.75528608468906 0 0,0 -0.15972724612165945,-0.594404502812735 l 14.282198900699752 -3.7063812542518346" fill="#ff6d0a" stroke="none" /><path d="M 79.58551787078972 104.9243191809786 l -13.093743191952198 3.158432839140185 a34.46929132419942,34.46929132419942 0 0,0 -0.1341666840768993,-0.5779865635349277 l 13.146170441959653 -2.9325776182566825" fill="#ff5908" stroke="none" /><path d="M 79.1416061653843 102.43462659150553 l -21.99519083212208 2.5673154371193094 a43.14451463218687,43.14451463218687 0 0,0 -0.07975098861312788,-0.7383951071097047 l 22.03612412223626 -2.1883240081248228" fill="#ffda14" stroke="none" /><path d="M 79.04373962182676 101.35467743843564 l -31.108872175450095 2.0109736427570626 a52.173802190627256,52.173802190627256 0 0,0 -0.050220139540222516,-0.896714327472261 l 31.138878665877847 -1.475187598949364" fill="#acff21" stroke="none" /><line stroke="#e1ed5e" stroke-width="0.3" x1="15.007084014347285" x2="10.007500721073583" y1="101.09737516637583" y2="101.16192664675087" /><path d="M 14.007167355692545 101.11028546245083 a86.0,86.0 0 0,1 10.666146001902534,-42.60595125391555" fill="none" id="id94" stroke="none" /><text fill="#e1ed5e" style="font-size:6.75px; font-family:Arial;" text-anchor="middle"><textPath startOffset="22.20632615414155" xlink:href="#id94">October</textPath></text><path d="M 79.00019446554 99.90962569577889 l -31.18654109187796 -0.1342137167707026 a52.186829890150136,52.186829890150136 0 0,0 0.011597883983158095,-0.898268895812156 l 31.179610200777088 0.6710188706433305" fill="#acff21" stroke="none" /><path d="M 79.3925641242962 95.95851677861259 l -43.43373288450913 -8.518124416532787 a65.26112962700367,65.26112962700367 0 0,0 0.22568138966170542,-1.1005026051046576 l 43.280672198932436 9.264502677800847" fill="#33ff51" stroke="none" /><path d="M 79.71946130924805 94.55025226153421 l -36.74945429646845 -9.875243379672034 a59.053157857081715,59.053157857081715 0 0,0 0.27224413906659845,-0.9794070180494486 l 36.57402338683549 10.506361701140426" fill="#59ff2a" stroke="none" /><path d="M 80.2630227832202 92.82701384747504 l -47.7276337816982 -17.345597172694095 a71.78185470891421,71.78185470891421 0 0,0 0.4320427173356949,-1.1576596843347933 l 47.42198647586088 18.16457999405823" fill="#3cffa4" stroke="none" /><path d="M 81.10775173730289 90.83032412892265 l -56.47487466919426 -27.41104649777119 a83.77560783460542,83.77560783460542 0 0,0 0.6408434551129041,-1.2919013007099165 l 55.99467120112794 28.379107386980067" fill="#4dd4ff" stroke="none" /><line stroke="#e1ed5e" stroke-width="0.3" x1="26.266209847984243" x2="21.928928074336255" y1="57.711370442889674" y2="55.22380399835377" /><path d="M 25.398753493254645 57.213857153982495 a86.0,86.0 0 0,1 29.58750427330803,-30.492523968695096" fill="none" id="id95" stroke="none" /><text fill="#e1ed5e" style="font-size:6.75px; font-family:Arial;" text-anchor="middle"><textPath startOffset="21.46611528233685" xlink:href="#id95">November</textPath></text><line stroke="#e1ed5e" stroke-width="0.3" x1="56.762969772571076" x2="54.21961505331055" y1="26.818313649435495" y2="22.513508569990535" /><path d="M 56.25429882871897 25.957352633546506 a86.0,86.0 0 0,1 42.265352541879196,-11.944610805530505" fill="none" id="id96" stroke="none" /><text fill="#e1ed5e" style="font-size:6.75px; font-family:Arial;" text-anchor="middle"><textPath startOffset="22.20632615414155" xlink:href="#id96">December</textPath></text></svg>