<?xml version="1.0" encoding="utf-8" ?>
<svg baseProfile="full" height="200mm" version="1.1" viewBox="0,0,200,200" width="200mm" xmlns="http://www.w3.org/2000/svg" xmlns:ev="http://www.w3.org/2001/xml-events" xmlns:xlink="http://www.w3.org/1999/xlink"><defs /><rect fill="#1a1a1a" height="200" width="200" x="0" y="0" /><rect fill="#1a1a1a" height="200" width="180" x="10" y="0" /><text alignment-baseline="middle" fill="#e1ed5e" style="dominant-baseline: central; font-size:9.0px; font-family:Arial;" text-anchor="middle" x="100.0" y="100.0">2021</text><line stroke="#e1ed5e" stroke-width="0.3" x1="100.0" x2="100.0" y1="15.0" y2="10.0" /><path d="M 100.0 14.0 a86.0,86.0 0 0,1 42.46469731375804,11.215312516191453" fill="none" id="id61" stroke="none" /><text fill="#e1ed5e" style="font-size:6.75px; font-family:Arial;" text-anchor="middle"><textPath startOffset="22.20632615414155" xlink:href="#id61">January</textPath></text><path d="M 110.05341064243156 81.56283822128135 l 4.319708690475482 -7.922004859434504 a30.023194786962836,30.023194786962836 0 0,0 0.4516001905856959,0.2513150171237877 l -4.455432970133213 7.846474444750537" fill="#ff6209" stroke="none" /><line stroke="#e1ed5e" stroke-width="0.3" x1="143.23703022742887" x2="145.7803849466894" y1="26.81831364943548" y2="22.513508569990506" /><path d="M 143.74570117128098 25.957352633546492 a86.0,86.0 0 0,1 28.547481713284135,27.462654790039103" fill="none" id="id62" stroke="none" /><text fill="#e1ed5e" style="font-size:6.75px; font-family:Arial;" text-anchor="middle"><textPath startOffset="19.985693538727396" xlink:href="#id62">February</textPath></text><path d="M 110.99172775467656 82.1063720568725 l 1.7699763402650839 -2.8813757771035524 a24.381588770678256,24.381588770678256 0 0,0 0.3557167540033958,0.22274979872340875 l -1.819312246640743 2.8504816370571993" fill="#ff1001" stroke="none" /><path d="M 112.19680574252982 82.90503203632743 l 5.264195289308319 -7.378263762244368 a30.063692856072755,30.063692856072755 0 0,0 0.4186794182599819,0.3041884029664193 l -5.390420023922089 7.286556124461273" fill="#ff6209" stroke="none" /><path d="M 113.34407831869373 83.78471172551755 l 5.738633215655962 -6.973399711167972 a30.031069411511986,30.031069411511986 0 0,0 0.3963278354503877,0.3319131644113241 l -5.8578185880654665 6.8735853893628285" fill="#ff6209" stroke="none" /><path d="M 113.6212207817346 84.01681056812373 l 5.107714264631074 -5.993410279713477 a28.87462454915096,28.87462454915096 0 0,0 0.37551614410092893,0.3256438997667947 l -5.210124207378767 5.904601386527012" fill="#ff5107" stroke="none" /><path d="M 116.15771136456269 86.58626213691792 l 6.9815296234927375 -5.795895603028568 a30.073817373350234,30.073817373350234 0 0,0 0.32723393422996294,0.4011501107900154 l -7.08026204979911 5.674861322630452" fill="#ff6209" stroke="none" /><line stroke="#e1ed5e" stroke-width="0.3" x1="172.23445277983987" x2="176.4835382374775" y1="55.19839476539836" y2="52.563006222186495" /><path d="M 173.08426987136738 54.67131705675599 a86.0,86.0 0 0,1 12.851231095245387,41.99856678651699" fill="none" id="id63" stroke="none" /><text fill="#e1ed5e" style="font-size:6.75px; font-family:Arial;" text-anchor="middle"><textPath startOffset="22.20632615414155" xlink:href="#id63">March</textPath></text><path d="M 120.94382443527127 98.46500227214037 l 15.07727516352778 -1.105031375232203 a36.117715458923655,36.117715458923655 0 0,0 0.04010684660822787,0.6204351653187968 l -15.094062601140424 0.8453371456603709" fill="#ffb510" stroke="none" /><line stroke="#e1ed5e" stroke-width="0.3" x1="184.98032266829074" x2="189.97916517819016" y1="98.17113171792111" y2="98.06355123074" /><path d="M 185.9800911702706 98.14961562048488 a86.0,86.0 0 0,1 -9.607161424134198,41.387399972396054" fill="none" id="id64" stroke="none" /><text fill="#e1ed5e" style="font-size:6.75px; font-family:Arial;" text-anchor="middle"><textPath startOffset="21.466115282336823" xlink:href="#id64">April</textPath></text><path d="M 120.9764740272857 100.99374915477107 l 12.96987717404431 0.6144409428593955 a33.98442342124045,33.98442342124045 0 0,0 -0.03271186715840883,0.5840923627027884 l -12.957378955998372 -0.8376050218976073" fill="#ff980e" stroke="none" /><path d="M 120.95626037817324 101.35467743843564 l 17.98246557449045 1.1624421514909298 a39.01999833222237,39.01999833222237 0 0,0 -0.04909726842138665,0.669893219648447 l -17.959791747404726 -1.471808507636147" fill="#ffda14" stroke="none" /><path d="M 120.8583938346157 102.4346265915055 l 17.923348042425395 2.092043140947868 a39.04502838882503,39.04502838882503 0 0,0 -0.08366511185290931,0.6668932603055324 l -17.884681421325638 -2.4002541555407952" fill="#ffdb14" stroke="none" /><path d="M 120.64145759157962 103.86396538481128 l 17.730568474219556 3.319063226686001 a39.038548697767446,39.038548697767446 0 0,0 -0.1293292594969753,0.6594471078915503 l -17.670809281746916 -3.6237740616454963" fill="#ffda14" stroke="none" /><path d="M 119.26925614724726 108.34839909993367 l 12.077025757329414 5.232367569973268 a34.16177121555097,34.16177121555097 0 0,0 -0.23841486347664645,0.5375625774540493 l -11.985169809121496 -5.439478483920005" fill="#ff9a0e" stroke="none" /><path d="M 118.97047184881838 109.00673069616215 l 16.528339903116684 7.847264293074257 a39.29660014424312,39.29660014424312 0 0,0 -0.2953733504229774,0.6085565885678292 l -16.390813296078992 -8.130609837607363" fill="#ffde14" stroke="none" /><path d="M 118.81262510543309 109.33194174019688 l 24.850971503719933 12.327243909890715 a48.74043487569432,48.74043487569432 0 0,0 -0.37929650964674716,0.748387997402226 l -24.635096324286916 -12.753186118995634" fill="#aeff20" stroke="none" /><line stroke="#e1ed5e" stroke-width="0.3" x1="174.80103733775053" x2="179.2010983576182" y1="140.37084112569926" y2="142.7455964860345" /><path d="M 175.68104954172406 140.8457921977663 a86.0,86.0 0 0,1 -30.038265399797805,32.042727171017184" fill="none" id="id65" stroke="none" /><text fill="#e1ed5e" style="font-size:6.75px; font-family:Arial;" text-anchor="middle"><textPath startOffset="22.206326154141568" xlink:href="#id65">May</textPath></text><line stroke="#e1ed5e" stroke-width="0.3" x1="143.8653032363475" x2="146.44561519142675" y1="172.8068346515853" y2="177.08958963109032" /><path d="M 144.38136562736335 173.6633856474863 a86.0,86.0 0 0,1 -40.68145358897372,12.25698825130547" fill="none" id="id66" stroke="none" /><text fill="#e1ed5e" style="font-size:6.75px; font-family:Arial;" text-anchor="middle"><textPath startOffset="21.466115282336833" xlink:href="#id66">June</textPath></text><path d="M 110.8373102113329 117.98757091392108 l 7.082212247797125 11.754927426685049 a34.72355818035104,34.72355818035104 0 0,0 -0.5146231875209758,0.30404845015447635 l -6.878821189247767 -11.875094449133275" fill="#ffa20f" stroke="none" /><path d="M 101.62511606390274 120.93702456842531 l 1.0101492301885635 13.014159246843633 a34.05330388711824,34.05330388711824 0 0,0 -0.5848042619145924,0.04033152582679296 l -0.7859822074950406 -13.02961911718671" fill="#ff990e" stroke="none" /><line stroke="#e1ed5e" stroke-width="0.3" x1="102.19456741930631" x2="102.32365962044197" y1="184.97166512339345" y2="189.96999836594603" /><path d="M 102.22038585953345 185.97133177190398 a86.0,86.0 0 0,1 -42.740103519485714,-10.115201625700543" fill="none" id="id67" stroke="none" /><text fill="#e1ed5e" style="font-size:6.75px; font-family:Arial;" text-anchor="middle"><textPath startOffset="22.20632615414155" xlink:href="#id67">July</textPath></text><path d="M 97.2962882734958 120.8252237178851 l -1.7385027259772143 13.390742751055049 a34.50312494029303,34.50312494029303 0 0,0 -0.5883134550394052,-0.08153488414404676 l 1.9687447722034506 -13.358833301418397" fill="#ff9f0e" stroke="none" /><path d="M 96.58105272829116 120.7198165907248 l -2.13208695851037 12.921068160764888 a34.09579311129273,34.09579311129273 0 0,0 -0.5782500850030048,-0.10053618932880624 l 2.354186014985425 -12.882453392915075" fill="#ff9a0e" stroke="none" /><path d="M 96.22490169976321 120.6578951692458 l -2.354543958133033 12.88441211065744 a34.0977842663573,34.0977842663573 0 0,0 -0.576467508852598,-0.1104813700758321 l 2.575979081557326 -12.84197354223314" fill="#ff9a0e" stroke="none" /><path d="M 95.86986931433489 120.58985236759428 l -2.3001290048259526 11.46678404152273 a32.695201139517096,32.695201139517096 0 0,0 -0.5508495873068948,-0.11543588683037943 l 2.4971700535622343 -11.425492173965809" fill="#ff870c" stroke="none" /><path d="M 95.51606077576429 120.51570834832081 l -2.498114037901798 11.429811257349275 a32.69962217872826,32.69962217872826 0 0,0 -0.5488551400222844,-0.12491764295014765 l 2.694489327316945 -11.38511688082144" fill="#ff870c" stroke="none" /><path d="M 93.76903079525671 120.05430185196036 l -1.8837880890755587 6.062950035877325 a27.348859795434752,27.348859795434752 0 0,0 -0.44836326969851126,-0.14355176011207488 l 1.9878727038650104 -6.029625429105543" fill="#ff3c05" stroke="none" /><path d="M 92.06813273071674 119.44442032107085 l -6.805026448448055 16.682048509818884 a39.016634742593524,39.016634742593524 0 0,0 -0.6196743448103726,-0.2590239263878141 l 7.09117225275589 -16.5624395404111" fill="#ffda14" stroke="none" /><path d="M 90.42595943632237 118.69057910512821 l -2.3688825231915023 4.62456638824382 a26.195981013048126,26.195981013048126 0 0,0 -0.3995624302725001,-0.20903217903188767 l 2.4481358559904978 -4.583104790267216" fill="#ff2b04" stroke="none" /><line stroke="#e1ed5e" stroke-width="0.3" x1="58.666819895761336" x2="56.23545636021788" y1="174.27360380694188" y2="178.64263932499728" /><path d="M 58.180547188652646 175.14741091055294 a86.0,86.0 0 0,1 -31.652253787137756,-30.449443065178592" fill="none" id="id68" stroke="none" /><text fill="#e1ed5e" style="font-size:6.75px; font-family:Arial;" text-anchor="middle"><textPath startOffset="22.20632615414155" xlink:href="#id68">August</textPath></text><path d="M 85.18274418774928 114.88116024355367 l -4.6227634066669445 4.642700638654721 a27.5516876248936,27.5516876248936 0 0,0 -0.33319092228015135,-0.33752064516091246 l 4.701994954002629 -4.562439499513144" fill="#ff3f05" stroke="none" /><path d="M 84.67929136418377 114.36230785411682 l -9.636132238708607 9.03333527352468 a34.20818650253639,34.20818650253639 0 0,0 -0.39901991236896717,-0.43305730748670934 l 9.790198559073303 -8.866126711236626" fill="#ff9b0e" stroke="none" /><path d="M 82.24976979558568 111.22182372390057 l -11.432425738195578 7.227662114416373 a34.525511372939896,34.525511372939896 0 0,0 -0.3132538452424376,-0.5050649407265443 l 11.555144223105971 -7.029800842324565" fill="#ff9f0e" stroke="none" /><line stroke="#e1ed5e" stroke-width="0.3" x1="26.63291911575756" x2="22.317208475507996" y1="142.92168965132927" y2="145.44649492493687" /><path d="M 25.769776987707644 143.4266507060508 a86.0,86.0 0 0,1 -11.730757126820373,-40.83630448921669" fill="none" id="id69" stroke="none" /><text fill="#e1ed5e" style="font-size:6.75px; font-family:Arial;" text-anchor="middle"><textPath startOffset="21.46611528233685" xlink:href="#id69">September</textPath></text><path d="M 80.87730276802145 108.67885076344099 l -12.316833764579211 5.590004423755343 a34.52599509987649,34.52599509987649 0 0,0 -0.24095678049576402,-0.543293929285677 l 12.411231629806256 -5.3771621579769695" fill="#ff9f0e" stroke="none" /><path d="M 80.0844068197444 106.66101706037122 l -6.147415795250758 2.056079430762669 a27.482143440660955,27.482143440660955 0 0,0 -0.14618897052403734,-0.44992338789843006 l 6.181897016791045 -1.9499571428864357" fill="#ff3e05" stroke="none" /><path d="M 79.86692584326677 105.97154293290107 l -10.805013588060987 3.2048062819113494 a32.27027514938127,32.27027514938127 0 0,0 -0.1533719556961728,-0.5339078982886823 l 10.858578180643264 -3.018340908118071" fill="#ff810b" stroke="none" /><path d="M 79.76711848015287 105.62410040840567 l -6.568147304955652 1.825736976912264 a27.817174966836404,27.817174966836404 0 0,0 -0.12426584258934986,-0.46243942830309603 l 6.598601223886777 -1.712406615433629" fill="#ff4206" stroke="none" /><path d="M 79.67330655649465 105.27499134158121 l -10.906736497202912 2.830413158320922 a32.2680140071893,32.2680140071893 0 0,0 -0.13489364476189478,-0.5388330566788713 l 10.953841456259866 -2.642252262244659" fill="#ff810b" stroke="none" /><path d="M 79.4281124754447 104.21870165774334 l -17.65805899294859 3.6211593446232535 a39.02553306833406,39.02553306833406 0 0,0 -0.12928614053449267,-0.6592272452308146 l 17.71777506645875 -3.316668372324484" fill="#ffda14" stroke="none" /><path d="M 79.23777060512086 103.15116336523772 l -2.2491095665077006 0.3413560044824857 a23.274866537613295,23.274866537613295 0 0,0 -0.05670860161233279,-0.3966198275969892 l 2.254652219136632 -0.3025907049050959" fill="#ff0000" stroke="none" /><path d="M 79.18660465613746 102.79330883721812 l -12.982234406160982 1.7423101562456027 a34.09862797613042,34.09862797613042 0 0,0 -0.07306603788947956,-0.5824082122950788 l 13.01030195329731 -1.5185841896631154" fill="#ff9a0e" stroke="none" /><line stroke="#e1ed5e" stroke-width="0.3" x1="15.007084014347285" x2="10.007500721073583" y1="101.09737516637583" y2="101.16192664675087" /><path d="M 14.007167355692545 101.11028546245083 a86.0,86.0 0 0,1 10.666146001902534,-42.60595125391555" fill="none" id="id70" stroke="none" /><text fill="#e1ed5e" style="font-size:6.75px; font-family:Arial;" text-anchor="middle"><textPath startOffset="22.20632615414155" xlink:href="#id70">October</textPath></text><path d="M 79.00486145842228 99.54816195383935 l -18.24448663701351 -0.3926410477809958 a39.24871117752065,39.24871117752065 0 0,0 0.02035009331061827,-0.6753205249301195 l 18.235024849247246 0.7066317201361098" fill="#ffdd14" stroke="none" /><path d="M 79.05617556472873 98.46500227214037 l -18.645730750126372 -1.3665677166165457 a39.6957423637123,39.6957423637123 0 0,0 0.055811299212231553,-0.6810392152262451 l 18.619444967094644 1.6873208490505693" fill="#ffe315" stroke="none" /><path d="M 79.08570108090925 98.10471618934814 l -26.89273222218467 -2.4370580243728264 a48.002931288811766,48.002931288811766 0 0,0 0.08165727053880169,-0.8222775705952148 l 26.846797825963638 2.8996111256724717" fill="#b6ff1f" stroke="none" /><path d="M 79.12142395522702 97.74499172005258 l -26.554727929207 -2.86806586922887 a47.70916279527387,47.70916279527387 0 0,0 0.0952130557735351,-0.815727316234363 l 26.501424520429875 3.3247369237880946" fill="#baff1f" stroke="none" /><path d="M 79.26566170972629 96.67025291283419 l -38.159052685574814 -6.127998528335101 a59.64797106995077,59.64797106995077 0 0,0 0.17152523509571038,-1.0123516470217526 l 38.04791558895888 6.783935963672681" fill="#39ff2e" stroke="none" /><path d="M 79.3925641242962 95.95851677861259 l -38.39423833311759 -7.529790263920673 a60.125634545638626,60.125634545638626 0 0,0 0.2079221863934287,-1.0139024229158733 l 38.258936850809164 8.18956834299995" fill="#34ff2f" stroke="none" /><path d="M 79.46518482838121 95.60439243477599 l -50.69050626402142 -10.85062470526257 a72.8388221490154,72.8388221490154 0 0,0 0.2729916260613247,-1.2237679313543137 l 50.49622025095806 11.721570806166842" fill="#3fffbd" stroke="none" /><path d="M 79.71946130924805 94.55025226153421 l -60.84161607225587 -16.349243215397365 a84.0,84.0 0 0,0 0.38725291773455695,-1.3931547863242297 l 60.551176383954946 17.394109305140535" fill="#4dd2ff" stroke="none" /><path d="M 80.38941819471856 92.48833698450439 l -6.323249683847964 -2.4220658652316533 a27.771254656251212,27.771254656251212 0 0,0 0.17483519016354904,-0.4449364887804231 l 6.280620943802723 2.53055135890784" fill="#ff4206" stroke="none" /><path d="M 80.52162464483688 92.15188598940014 l -19.133888885379317 -7.709315520444679 a41.62860270769233,41.62860270769233 0 0,0 0.2735163989948555,-0.6623416552921976 l 18.99835079949826 8.037531746190188" fill="#fffb17" stroke="none" /><path d="M 80.65960295795068 91.81776055985345 l -8.346116187431383 -3.5309472133572335 a30.06229792258119,30.06229792258119 0 0,0 0.2057253092834284,-0.4748423779339372 l 8.284100168305272 3.6740887358777696" fill="#ff6209" stroke="none" /><path d="M 80.803312248108 91.48605970444005 l -13.293404971682445 -5.895770026391621 a35.54217040008985,35.54217040008985 0 0,0 0.2528532337079604,-0.5571285835092564 l 13.189949421011134 6.123720618742949" fill="#ffad10" stroke="none" /><path d="M 81.10775173730289 90.83032412892265 l -6.0891805867683875 -2.955487961238096 a27.768532286049933,27.768532286049933 0 0,0 0.21241603174922857,-0.42821775820448965 l 6.0374045420657465 3.059865307941547" fill="#ff4206" stroke="none" /><path d="M 81.26839172434947 90.50648371742162 l -8.043012598304307 -4.076343576020741 a30.017018831423574,30.017018831423574 0 0,0 0.23754977973513408,-0.45887056387200736 l 7.971653385409058 4.214186862153084" fill="#ff6209" stroke="none" /><line stroke="#e1ed5e" stroke-width="0.3" x1="26.266209847984243" x2="21.928928074336255" y1="57.711370442889674" y2="55.22380399835377" /><path d="M 25.398753493254645 57.213857153982495 a86.0,86.0 0 0,1 29.58750427330803,-30.492523968695096" fill="none" id="id71" stroke="none" /><text fill="#e1ed5e" style="font-size:6.75px; font-family:Arial;" text-anchor="middle"><textPath startOffset="21.46611528233685" xlink:href="#id71">November</textPath></text><path d="M 81.78341655067845 89.55222093294921 l -17.624465370838795 -10.108180871658952 a41.31740879497353,41.31740879497353 0 0,0 0.35914729768938697,-0.6138991510581961 l 17.447858398679085 10.41005943507104" fill="#fff717" stroke="none" /><path d="M 81.96595687620814 89.24020034530311 l -17.77823275765916 -10.607173409417971 a41.70211795259048,41.70211795259048 0 0,0 0.3731032924426897,-0.6132837118704645 l 17.593013666930258 10.91162489449551" fill="#fffc17" stroke="none" /><path d="M 82.15384107792192 88.93136811851018 l -26.787799096854812 -16.614459638795214 a52.52184083366025,52.52184083366025 0 0,0 0.4831319163535763,-0.7641986672906884 l 26.497839584255274 17.073105953800116" fill="#84ff25" stroke="none" /><path d="M 82.54541684631803 88.32363383020206 l -9.367559056121193 -6.266494518570315 a32.270320147235836,32.270320147235836 0 0,0 0.31283084128639754,-0.45904065828946744 l 9.258303749166055 6.426813200130199" fill="#ff810b" stroke="none" /><path d="M 82.7489923806493 88.02491185347247 l -45.001774768412055 -31.2387676994253 a75.78156934303311,75.78156934303311 0 0,0 0.7530789130165865,-1.0651767158729766 l 44.45738323559159 32.00877091563006" fill="#43ffdc" stroke="none" /><path d="M 83.17141714833178 87.43820079747576 l -5.445547907561055 -4.064862737727609 a27.795373506298898,27.795373506298898 0 0,0 0.2895008064897591,-0.38094912643742823 l 5.374771160847187 4.157996640046065" fill="#ff4206" stroke="none" /><path d="M 83.39014120810768 87.1503855733568 l -4.268705180478031 -3.3023288371922415 a26.396963930469745,26.396963930469745 0 0,0 0.28112253655989,-0.35699707299049815 l 4.211228563324171 3.3753183041357873" fill="#ff2e04" stroke="none" /><path d="M 84.5562425177563 85.77008943001954 l -9.616490627466671 -8.860654655011157 a34.076241543483555,34.076241543483555 0 0,0 0.4011790692370021,-0.4279498596603491 l 9.462544236259212 9.024873931549555" fill="#ff990e" stroke="none" /><path d="M 89.00827224532344 82.1063720568725 l -6.830878051150717 -11.120107147865172 a34.050581516916964,34.050581516916964 0 0,0 0.5020643669040797,-0.30248816342316814 l 6.638451618028988 11.236041920746958" fill="#ff990e" stroke="none" /><line stroke="#e1ed5e" stroke-width="0.3" x1="56.762969772571076" x2="54.21961505331055" y1="26.818313649435495" y2="22.513508569990535" /><path d="M 56.25429882871897 25.957352633546506 a86.0,86.0 0 0,1 42.265352541879196,-11.944610805530505" fill="none" id="id72" stroke="none" /><text fill="#e1ed5e" style="font-size:6.75px; font-family:Arial;" text-anchor="middle"><textPath startOffset="22.20632615414155" xlink:href="#id72">December</textPath></text></svg>