<?xml version="1.0" encoding="utf-8" ?>
<svg baseProfile="full" height="200mm" version="1.1" viewBox="0,0,200,200" width="200mm" xmlns="http://www.w3.org/2000/svg" xmlns:ev="http://www.w3.org/2001/xml-events" xmlns:xlink="http://www.w3.org/1999/xlink"><defs /><rect fill="#1a1a1a" height="200" width="200" x="0" y="0" /><rect fill="#1a1a1a" height="200" width="180" x="10" y="0" /><text alignment-baseline="middle" fill="#e1ed5e" style="dominant-baseline: central; font-size:9.0px; font-family:Arial;" text-anchor="middle" x="100.0" y="100.0">2019</text><line stroke="#e1ed5e" stroke-width="0.3" x1="100.0" x2="100.0" y1="15.0" y2="10.0" /><path d="M 100.0 14.0 a86.0,86.0 0 0,1 42.46469731375804,11.215312516191453" fill="none" id="id37" stroke="none" /><text fill="#e1ed5e" style="font-size:6.75px; font-family:Arial;" text-anchor="middle"><textPath startOffset="22.20632615414155" xlink:href="#id37">January</textPath></text><path d="M 108.09893153111575 80.62456947434976 l 5.703921182194923 -13.645741807398304 a35.78989473684211,35.78989473684211 0 0,0 0.5663601584775021,0.24248586272952016 l -5.937965098462741 13.545536416705993" fill="#ffae10" stroke="none" /><path d="M 108.76106565485865 80.91482961587045 l 6.153649553647736 -13.405155815772122 a35.75010526315789,35.75010526315789 0 0,0 0.5570577804970562,0.2615460972727136 l -6.38348554544439 13.297244735859406" fill="#ffad10" stroke="none" /><line stroke="#e1ed5e" stroke-width="0.3" x1="143.23703022742887" x2="145.7803849466894" y1="26.81831364943548" y2="22.513508569990506" /><path d="M 143.74570117128098 25.957352633546492 a86.0,86.0 0 0,1 28.547481713284135,27.462654790039103" fill="none" id="id38" stroke="none" /><text fill="#e1ed5e" style="font-size:6.75px; font-family:Arial;" text-anchor="middle"><textPath startOffset="19.985693538727396" xlink:href="#id38">February</textPath></text><path d="M 113.34407831869373 83.78471172551755 l 16.954939090404814 -20.60308838580907 a47.682526315789474,47.682526315789474 0 0,0 0.6292787041509332,0.5270028176396898 l -17.307075331514866 20.30818441077556" fill="#bcff1f" stroke="none" /><path d="M 113.89432698308785 84.25364557470407 l 9.766005548253181 -11.067753398158885 a35.76042105263158,35.76042105263158 0 0,0 0.4580552543856636,0.4112465300494195 l -9.955071790234836 10.898007859340169" fill="#ffad10" stroke="none" /><path d="M 114.42810811169701 84.74124197986012 l 10.1756130893021 -10.761439866835493 a35.810526315789474,35.810526315789474 0 0,0 0.44424962668198154,0.4273677888895483 l -10.3593459595965 10.584688991183643" fill="#ffae10" stroke="none" /><path d="M 114.94478906791727 85.2469230424477 l 15.750234541893438 -15.548190157790904 a43.13178947368421,43.13178947368421 0 0,0 0.5170387038552564,0.5328538333080178 l -16.015537509451804 15.274772128932772" fill="#f2ff19" stroke="none" /><path d="M 115.19652480421416 85.50635884689758 l 21.344452207462904 -20.357208959954022 a50.49578947368421,50.49578947368421 0 0,0 0.5944861552759361,0.6341563810998914 l -21.691705684709305 19.986783161976074" fill="#9bff22" stroke="none" /><path d="M 115.68641384162765 86.03803664274999 l 22.156921951177647 -19.721150768752864 a50.66231578947368,50.66231578947368 0 0,0 0.5741925413277708,0.6564013339547411 l -22.493106356083267 19.336833878595176" fill="#9aff23" stroke="none" /><path d="M 116.38621287248628 86.86637796730983 l 11.67618284261233 -9.358512148767437 a35.96378947368421,35.96378947368421 0 0,0 0.3830073696270106,0.48638046441895094 l -11.835544292833305 9.156139290395448" fill="#ffb010" stroke="none" /><path d="M 116.60985879189232 87.15038557335679 l 29.71591158178967 -22.98863650476084 a58.57010526315789,58.57010526315789 0 0,0 0.6100329145075671,0.8027318082374878 l -30.107220436521352 22.473719920642317" fill="#45ff2d" stroke="none" /><path d="M 117.04232023915458 87.72973835380427 l 7.204416640046823 -5.187091660118115 a29.87747368421053,29.87747368421053 0 0,0 0.2969072242874441,0.41995421279110356 l -7.29263648413815 5.062310946995218" fill="#ff5d08" stroke="none" /><path d="M 117.2510076193507 88.02491185347247 l 12.14713055807473 -8.43214276928121 a35.78694736842105,35.78694736842105 0 0,0 0.34692128250529675,0.5090641742386982 l -12.290476306248761 8.221800571772105" fill="#ffae10" stroke="none" /><path d="M 117.65298651832404 88.62581576622439 l 18.642792569421648 -12.011936739234327 a43.177473684210526,43.177473684210526 0 0,0 0.3971760180764733,0.6282370785699279 l -18.846796183744075 11.689252012950194" fill="#f2ff19" stroke="none" /><line stroke="#e1ed5e" stroke-width="0.3" x1="172.23445277983987" x2="176.4835382374775" y1="55.19839476539836" y2="52.563006222186495" /><path d="M 173.08426987136738 54.67131705675599 a86.0,86.0 0 0,1 12.851231095245387,41.99856678651699" fill="none" id="id39" stroke="none" /><text fill="#e1ed5e" style="font-size:6.75px; font-family:Arial;" text-anchor="middle"><textPath startOffset="22.20632615414155" xlink:href="#id39">March</textPath></text><path d="M 118.3937258080291 89.86733742301442 l 25.947415873193048 -14.293809341934333 a50.623999999999995,50.623999999999995 0 0,0 0.4138919421506874,0.7668789095132195 l -26.1896159145622 13.845049449088656" fill="#9aff23" stroke="none" /><path d="M 118.56541770881063 90.18545643968196 l 13.083082430307115 -6.916326065453602 a35.798736842105264,35.798736842105264 0 0,0 0.2833053508543476,0.5472557635685406 l -13.20019721432158 6.690097579624717" fill="#ffae10" stroke="none" /><path d="M 118.73160827565052 90.50648371742162 l 27.960704535534184 -14.170988410296486 a52.34673684210526,52.34673684210526 0 0,0 0.4004275775355782,0.8072375618897404 l -28.20049212602317 13.687591259907796" fill="#87ff25" stroke="none" /><path d="M 119.196687751892 91.48605970444005 l 28.525604431320225 -12.651416544454863 a52.205263157894734,52.205263157894734 0 0,0 0.35725625289986207,0.8245966879311997 l -28.73915139406277 12.158520711937062" fill="#88ff25" stroke="none" /><path d="M 119.34039704204932 91.81776055985345 l 13.587137879856547 -5.748238528793479 a35.753052631578946,35.753052631578946 0 0,0 0.23491170908448875,0.5688573365777132 l -13.684071275827232 5.513506621762462" fill="#ffad10" stroke="none" /><path d="M 119.47837535516314 92.15188598940014 l 4.331717298281539 -1.7453104069888363 a25.670105263157893,25.670105263157893 0 0,0 0.1616073090954849,0.4112729742961636 l -4.3611181572587245 1.6704884277968883" fill="#ff2003" stroke="none" /><path d="M 119.61058180528143 92.48833698450437 l 13.789335416766306 -5.281885151948508 a35.76631578947368,35.76631578947368 0 0,0 0.21527134295196876,0.5768201729331986 l -13.8782113482199 5.043741841985976" fill="#ffad10" stroke="none" /><path d="M 119.85752413597 93.16781622104841 l 16.671959211420706 -5.736157665359771 a38.631157894736845,38.631157894736845 0 0,0 0.21093110042574173,0.6306571424557517 l -16.76822760561822 5.448327419981706" fill="#ffd313" stroke="none" /><path d="M 119.97218684219823 93.5106431181261 l 14.081442891478286 -4.575338146820143 a35.806105263157896,35.806105263157896 0 0,0 0.18541512357079962,0.5878166109710382 l -14.158113498817292 4.332271369422686" fill="#ffae10" stroke="none" /><path d="M 120.08093135843002 93.85539295169968 l 7.626526351706893 -2.3336570768702667 a28.97557894736842,28.97557894736842 0 0,0 0.14183422112208488,0.47819448405541953 l -7.66556646994068 2.202033206068317" fill="#ff5007" stroke="none" /><path d="M 120.18372546131832 94.20196356495316 l 42.61386415643669 -12.24138415332066 a65.33726315789474,65.33726315789474 0 0,0 0.30121483088910356,1.083630010639814 l -42.818265757892156 11.506042839261895" fill="#35ff68" stroke="none" /><path d="M 120.28053869075195 94.5502522615342 l 2.853507373681239 -0.7667890677630822 a23.954736842105262,23.954736842105262 0 0,0 0.10357990354022666,0.3991356212423464 l -2.8662836090917683 0.7175570209718853" fill="#ff0701" stroke="none" /><path d="M 120.45610955862082 95.25157060432595 l 14.426940425553639 -3.34889231063328 a35.810526315789474,35.810526315789474 0 0,0 0.13421378216494645,0.60165406876743 l -14.482448594720623 3.100060072315886" fill="#ffae10" stroke="none" /><path d="M 120.6074358757038 95.95851677861258 l 14.517757807451959 -2.847189477860239 a35.794315789473686,35.794315789473686 0 0,0 0.11337300013708265,0.6056431001060921 l -14.564616531498903 2.596868300291584" fill="#ffae10" stroke="none" /><path d="M 120.67395015179393 96.31383870115 l 14.541403675188116 -2.592729452517437 a35.770736842105265,35.770736842105265 0 0,0 0.10286324809260537,0.6071047129971696 l -14.583878784800945 2.3420389512044295" fill="#ffad10" stroke="none" /><path d="M 120.73433829027371 96.67025291283417 l 30.839600004375534 -4.95256066754244 a52.234736842105264,52.234736842105264 0 0,0 0.13492507768729933,0.8889876814921157 l -30.920280975502134 4.420973873658243" fill="#88ff25" stroke="none" /><path d="M 120.78858239683441 97.02765380044208 l 29.273241710517848 -4.18548062037397 a50.57094736842105,50.57094736842105 0 0,0 0.11579302290044163,0.8627925174532616 l -29.340950732476127 3.6809697608560437" fill="#9bff22" stroke="none" /><path d="M 120.87857604477298 97.74499172005257 l 14.760054391231094 -1.5941721692765196 a35.845894736842105,35.845894736842105 0 0,0 0.06097706630915577,0.6140307362207245 l -14.785308583222479 1.3398659023513602" fill="#ffae10" stroke="none" /><path d="M 120.91429891909075 98.10471618934814 l 23.614811902327745 -2.1400081763781404 a44.71157894736842,44.71157894736842 0 0,0 0.06286344988887925,0.7670933159239506 l -23.64814983603612 1.733200943246421" fill="#dfff1b" stroke="none" /><path d="M 120.94382443527127 98.46500227214037 l 14.78413543820306 -1.0835468171607052 a35.82378947368421,35.82378947368421 0 0,0 0.03978045707183602,0.6153860636542432 l -14.800596486279312 0.8289016892534267" fill="#ffae10" stroke="none" /><path d="M 120.98425023603335 99.18683210126433 l 50.47264398877496 -1.9558827880115812 a71.51052631578948,71.51052631578948 0 0,0 0.03707754572209287,1.2304232348211874 l -50.4988332289527 1.0867894057653946" fill="#3dffae" stroke="none" /><line stroke="#e1ed5e" stroke-width="0.3" x1="184.98032266829074" x2="189.97916517819016" y1="98.17113171792111" y2="98.06355123074" /><path d="M 185.9800911702706 98.14961562048488 a86.0,86.0 0 0,1 -9.607161424134198,41.387399972396054" fill="none" id="id40" stroke="none" /><text fill="#e1ed5e" style="font-size:6.75px; font-family:Arial;" text-anchor="middle"><textPath startOffset="21.466115282336823" xlink:href="#id40">April</textPath></text><path d="M 120.99824983174949 100.27111621757518 l 14.818133354952485 0.19132243396042542 a35.81936842105263,35.81936842105263 0 0,0 -0.01326670486864623,0.6164516447302083 l -14.81264458739883 -0.4463638944807486" fill="#ffae10" stroke="none" /><path d="M 120.9904718944345 100.63252640178507 l 8.91469023895562 0.26863507253356106 a29.91873684210526,29.91873684210526 0 0,0 -0.01994278588455247,0.5146346899032734 l -8.908745320219865 -0.42204700945084067" fill="#ff5d08" stroke="none" /><path d="M 120.9764740272857 100.99374915477107 l 20.712980072837695 0.9812662706514838 a41.73621052631579,41.73621052631579 0 0,0 -0.040173386422054924,0.717322801520314 l -20.69302033552811 -1.3376607885072211" fill="#fffa17" stroke="none" /><path d="M 120.95626037817324 101.35467743843564 l 36.94625470041026 2.3883200902328845 a58.02336842105263,58.02336842105263 0 0,0 -0.07300843197958123,0.9961420488921168 l -36.89966970976634 -3.0239352756217714" fill="#4aff2c" stroke="none" /><path d="M 120.92983693683757 101.71520430193887 l 22.100439044813687 1.8111353776332766 a43.17452631578948,43.17452631578948 0 0,0 -0.06707554055231747,0.7401730006801776 l -22.065988907984295 -2.191289766862025" fill="#f2ff19" stroke="none" /><path d="M 120.89721153311464 102.0752229133903 l 14.720435745221396 1.4618307090955676 a35.79284210526316,35.79284210526316 0 0,0 -0.06616170253631241,0.612575195372785 l -14.693091741184032 -1.7150022263531441" fill="#ffae10" stroke="none" /><path d="M 120.76222939487914 103.15116336523771 l 36.790670487725855 5.583861483201213 a58.212,58.212 0 0,0 -0.1588861769105085,0.989384375290436 l -36.68910255645406 -6.2163250881848535" fill="#48ff2c" stroke="none" /><path d="M 120.70491114924044 103.5080841355445 l 14.586428282612266 2.4714145008232444 a35.794315789473686,35.794315789473686 0 0,0 -0.10815603242269793,0.606596467609885 l -14.541725807850378 -2.7221297191663476" fill="#ffae10" stroke="none" /><path d="M 120.64145759157962 103.86396538481128 l 14.618497544857657 2.7365009588431897 a35.87242105263158,35.87242105263158 0 0,0 -0.11884032080746555,0.6059642354885674 l -14.569227291074528 -2.987728921399702" fill="#ffaf10" stroke="none" /><path d="M 120.5718875245553 104.21870165774334 l 46.32067249914955 9.499035887042293 a68.28463157894737,68.28463157894737 0 0,0 -0.2460391566080144,1.149413029019817 l -46.15029930381709 -10.29496273547828" fill="#39ff8a" stroke="none" /><path d="M 120.41448212921028 104.9243191809786 l 14.506459371254975 3.4992039316904795 a35.922526315789476,35.922526315789476 0 0,0 -0.15017101773639274,0.5998585674981809 l -14.444077039223522 -3.748390338586056" fill="#ffaf10" stroke="none" /><path d="M 120.32669344350535 105.2749913415812 l 14.307139314972533 3.712853554811192 a35.781052631578945,35.781052631578945 0 0,0 -0.159842351327835,0.594832852105101 l -14.241108887302921 -3.9585773400918414" fill="#ffae10" stroke="none" /><path d="M 120.23288151984713 105.62410040840565 l 14.26382650865854 3.9648921194977707 a35.804631578947365,35.804631578947365 0 0,0 -0.1701698031028301,0.5923834087818017 l -14.19346406866961 -4.209833003784154" fill="#ffae10" stroke="none" /><path d="M 120.02730092923936 106.31721596034902 l 14.17370735939501 4.4708156463242 a35.86210526315789,35.86210526315789 0 0,0 -0.1907654787031319,0.5871157732659896 l -14.094649629675631 -4.714130319567985" fill="#ffaf10" stroke="none" /><path d="M 119.9155931802556 106.66101706037122 l 29.631607481247666 9.910658506244959 a52.24505263157894,52.24505263157894 0 0,0 -0.2925951060631987,0.8504183389528507 l -29.456621544241237 -10.41924954828711" fill="#88ff25" stroke="none" /><path d="M 119.67450827220406 107.3425965602758 l 13.87570583408076 5.178462837247138 a35.810526315789474,35.810526315789474 0 0,0 -0.2205002811142306,0.5756566544529547 l -13.784511273373022 -5.416543058533236" fill="#ffae10" stroke="none" /><path d="M 119.41010516605496 108.01547362559984 l 28.819579305501115 11.90115024353974 a52.18021052631579,52.18021052631579 0 0,0 -0.3499776882766825,0.8272438733482445 l -28.610450636032123 -12.39546864255415" fill="#89ff24" stroke="none" /><path d="M 118.81262510543309 109.33194174019688 l 19.87801376929867 9.86042433558908 a43.189263157894736,43.189263157894736 0 0,0 -0.3360974683911448,0.6631521907108167 l -19.705337631121253 -10.20113073800259" fill="#f2ff19" stroke="none" /><line stroke="#e1ed5e" stroke-width="0.3" x1="174.80103733775053" x2="179.2010983576182" y1="140.37084112569926" y2="142.7455964860345" /><path d="M 175.68104954172406 140.8457921977663 a86.0,86.0 0 0,1 -30.038265399797805,32.042727171017184" fill="none" id="id41" stroke="none" /><text fill="#e1ed5e" style="font-size:6.75px; font-family:Arial;" text-anchor="middle"><textPath startOffset="22.206326154141568" xlink:href="#id41">May</textPath></text><path d="M 117.94076556474637 110.91462005526583 l 53.78704466365573 32.72241389481168 a83.95873684210525,83.95873684210525 0 0,0 -0.761767056058724,1.2282110462777287 l -53.21581296792905 -33.64342127245469" fill="#4dd2ff" stroke="none" /><path d="M 117.55443506779139 111.5257021239791 l 7.477573393789029 4.909544694214254 a29.945263157894736,29.945263157894736 0 0,0 -0.2866145191616946,0.42844981777810554 l -7.391955769216613 -5.037531426198166" fill="#ff5e08" stroke="none" /><path d="M 117.14729908036423 112.12312394758627 l 7.345060602564443 5.192950777267832 a29.995368421052632,29.995368421052632 0 0,0 -0.3016965688411916,0.4190301469928194 l -7.254584241347648 -5.318614529711782" fill="#ff5e08" stroke="none" /><path d="M 116.93607887273984 112.41649034213515 l 7.314009079497613 5.362181162491204 a30.06905263157895,30.06905263157895 0 0,0 -0.30962351679672573,0.4147912987011886 l -7.220624296005796 -5.487285340701708" fill="#ff5f08" stroke="none" /><path d="M 116.498646956653 112.99209946851258 l 11.604627259405827 9.138232489326423 a35.770736842105265,35.770736842105265 0 0,0 -0.3851010891714057,0.48047282074071096 l -11.445608258179568 -9.336633143645384" fill="#ffad10" stroke="none" /><path d="M 116.0416608686014 113.55231037782055 l 5.696196771587583 4.812258983282244 a28.456842105263156,28.456842105263156 0 0,0 -0.3193365712412815,0.37146057650462416 l -5.6125176907755225 -4.909596658948396" fill="#ff4806" stroke="none" /><path d="M 115.80600337817218 113.82643327865902 l 5.644684294141627 4.937734663515492 a28.49957894736842,28.49957894736842 0 0,0 -0.32617245660707267,0.3664582127285181 l -5.558852987886216 -5.034167045984876" fill="#ff4906" stroke="none" /><path d="M 115.56566222782051 114.09645910891815 l 10.981165079037167 9.944680941891525 a35.81494736842105,35.81494736842105 0 0,0 -0.41776190501613814,0.453398038916713 l -10.808356766025307 -10.132230235609573" fill="#ffae10" stroke="none" /><path d="M 114.55890576462653 115.13401014063108 l 6.310902519866532 6.560195132538819 a30.102947368421052,30.102947368421052 0 0,0 -0.3765221691858928,0.35602521229410966 l -6.197044516289831 -6.66785498157885" fill="#ff6008" stroke="none" /><path d="M 114.0293411484842 115.62618273729858 l 5.958285798640447 6.636467222886383 a29.91873684210526,29.91873684210526 0 0,0 -0.3861763053537162,0.3407556895255433 l -5.843167140380143 -6.738046054184215" fill="#ff5d08" stroke="none" /><path d="M 113.75828350139079 115.86535959552629 l 5.84992559543346 6.745839564160966 a29.929052631578948,29.929052631578948 0 0,0 -0.3921197920138068,0.3341729936113806 l -5.732940326842606 -6.845536947995294" fill="#ff5d08" stroke="none" /><path d="M 113.48314897796784 116.09983520530334 l 7.6224735555444845 9.101773502731488 a32.872,32.872 0 0,0 -0.4369312921180435,0.3595647072822301 l -7.4646721348817495 -9.231633328870895" fill="#ff860c" stroke="none" /><path d="M 113.20401910651253 116.32954008644616 l 5.624448840458319 6.955811110507241 a29.945263157894736,29.945263157894736 0 0,0 -0.40360868406901235,0.32065114859058524 l -5.5038826636719556 -7.051596173102952" fill="#ff5e08" stroke="none" /><path d="M 112.63410532772338 116.77436683061366 l 5.433108592862374 7.213566311438633 a30.030736842105263,30.030736842105263 0 0,0 -0.41558968932003487,0.3074433168127008 l -5.308133933123775 -7.306019576991103" fill="#ff5f08" stroke="none" /><path d="M 112.04921762599082 117.19931262002967 l 4.299668184432514 6.1374389244105885 a28.493684210526315,28.493684210526315 0 0,0 -0.40412607970642467,0.27796160264041436 l -4.193385220103206 -6.210541316416097" fill="#ff4906" stroke="none" /><line stroke="#e1ed5e" stroke-width="0.3" x1="143.8653032363475" x2="146.44561519142675" y1="172.8068346515853" y2="177.08958963109032" /><path d="M 144.38136562736335 173.6633856474863 a86.0,86.0 0 0,1 -40.68145358897372,12.25698825130547" fill="none" id="id42" stroke="none" /><text fill="#e1ed5e" style="font-size:6.75px; font-family:Arial;" text-anchor="middle"><textPath startOffset="21.466115282336833" xlink:href="#id42">June</textPath></text><path d="M 110.5260780823613 118.17145234162733 l 7.428087101489483 12.82330699981785 a35.81936842105263,35.81936842105263 0 0,0 -0.5361839348219885,0.30445923173303585 l -7.206254399746296 -12.949269397345514" fill="#ffae10" stroke="none" /><path d="M 109.89434966115114 118.52300852407294 l 4.191732554692591 7.847256312970403 a29.896631578947368,29.896631578947368 0 0,0 -0.45600776564526196,0.23856171072761617 l -4.056033886520834 -7.918247442642737" fill="#ff5d08" stroke="none" /><path d="M 109.57404056367764 118.69057910512821 l 14.278421758545763 27.87453944857437 a52.31873684210527,52.31873684210527 0 0,0 -0.8050759697857289,0.40368180435354084 l -13.796491881077273 -28.116189093837214" fill="#87ff25" stroke="none" /><path d="M 107.93186726928326 119.44442032107085 l 2.2648959942956908 5.552234827118405 a26.99642105263158,26.99642105263158 0 0,0 -0.43178708827993345,0.17181699349650692 l -2.168987829973891 -5.590398665020981" fill="#ff3304" stroke="none" /><path d="M 107.59598834532513 119.57807347666477 l 5.918474287589116 15.254410513081334 a37.36231578947368,37.36231578947368 0 0,0 -0.6015862661799827,0.22746845017870787 l -5.655017800648858 -15.354027213366672" fill="#ffc212" stroke="none" /><path d="M 106.57524785965236 119.94407469862006 l 3.761041775721153 11.408010727610677 a33.012,33.012 0 0,0 -0.5412060455170418,0.17327708505094128 l -3.564114385113171 -11.471060659321324" fill="#ff880c" stroke="none" /><path d="M 105.53697534728816 120.25689768951611 l 2.7377914594380597 10.016147447040737 a31.38357894736842,31.38357894736842 0 0,0 -0.5223267038516737,0.13795122984076322 l -2.5649743127748885 -10.061790026185085" fill="#ff720a" stroke="none" /><path d="M 105.18746579009965 120.34920634021253 l 0.6214037967508851 2.437620717385459 a23.51557894736842,23.51557894736842 0 0,0 -0.39309841651597055,0.09661402674266836 l -0.5793520954917034 -2.4479560024421576" fill="#ff0000" stroke="none" /><path d="M 104.83641907484287 120.43548508189849 l 2.719594810295852 11.491195927105451 a32.80863157894737,32.80863157894737 0 0,0 -0.550684836074857,0.12533407581473768 l -2.521389824828133 -11.536306736497874" fill="#ff850c" stroke="none" /><path d="M 103.06178313531738 120.77559828337769 l 1.8112864442614385 12.290406563429755 a33.423157894736846,33.423157894736846 0 0,0 -0.569898915921592,0.07898279681598412 l -1.5994589371530161 -12.319763925738341" fill="#ff8e0d" stroke="none" /><path d="M 102.70371172650421 120.8252237178851 l 1.377280240189056 10.60844203285108 a31.69747368421053,31.69747368421053 0 0,0 -0.541683526848271,0.06559033141378436 l -1.1944692902894047 -10.630577892990216" fill="#ff760a" stroke="none" /><path d="M 101.98527174616119 120.90594882070398 l 1.2637473690826782 13.307920122989882 a34.36778947368421,34.36778947368421 0 0,0 -0.5894168888385619,0.05085736930591513 l -1.0344861625025745 -13.327701744574462" fill="#ff9b0e" stroke="none" /><line stroke="#e1ed5e" stroke-width="0.3" x1="102.19456741930631" x2="102.32365962044197" y1="184.97166512339345" y2="189.96999836594603" /><path d="M 102.22038585953345 185.97133177190398 a86.0,86.0 0 0,1 -42.740103519485714,-10.115201625700543" fill="none" id="id43" stroke="none" /><text fill="#e1ed5e" style="font-size:6.75px; font-family:Arial;" text-anchor="middle"><textPath startOffset="22.20632615414155" xlink:href="#id43">July</textPath></text><path d="M 100.18074693466247 120.99922214144158 l 0.07994722310017557 9.288287519825 a30.288631578947367,30.288631578947367 0 0,0 -0.5213883155252557,0.0 l 0.07994722310016918 -9.288287519825" fill="#ff6209" stroke="none" /><path d="M 96.93821686468263 120.77559828337769 l -1.2908907422446823 8.759283823616366 a29.853894736842108,29.853894736842108 0 0,0 -0.5077495491241165,-0.07930003717630396 l 1.4414761549773158 -8.735765479092956" fill="#ff5c08" stroke="none" /><path d="M 94.81253420990036 120.34920634021253 l -3.6439671971156073 14.294424944949295 a35.75157894736842,35.75157894736842 0 0,0 -0.5950246917468962,-0.15715142918562172 l 3.889482331673993 -14.229582166460093" fill="#ffad10" stroke="none" /><path d="M 92.06813273071674 119.44442032107085 l -2.7936871455812406 6.848529515189798 a28.39642105263158,28.39642105263158 0 0,0 -0.45100080329427367,-0.18851837235425523 l 2.911159408372977 -6.799426099815569" fill="#ff4806" stroke="none" /><path d="M 90.10565033884886 118.52300852407294 l -3.130780534886349 5.861069855090866 a27.64484210526316,27.64484210526316 0 0,0 -0.4178020120811349,-0.22781896937814405 l 3.2312053588361245 -5.806310233952956" fill="#ff3d05" stroke="none" /><line stroke="#e1ed5e" stroke-width="0.3" x1="58.666819895761336" x2="56.23545636021788" y1="174.27360380694188" y2="178.64263932499728" /><path d="M 58.180547188652646 175.14741091055294 a86.0,86.0 0 0,1 -31.652253787137756,-30.449443065178592" fill="none" id="id44" stroke="none" /><text fill="#e1ed5e" style="font-size:6.75px; font-family:Arial;" text-anchor="middle"><textPath startOffset="22.20632615414155" xlink:href="#id44">August</textPath></text><path d="M 86.79598089348748 116.32954008644616 l -4.641328540668157 5.739976581965532 a28.381684210526316,28.381684210526316 0 0,0 -0.37724646977949744,-0.310448161819618 l 4.739445138992344 -5.659233301288734" fill="#ff4706" stroke="none" /><path d="M 85.97065885151581 115.62618273729859 l -7.884981983032271 8.782462985475393 a32.80273684210526,32.80273684210526 0 0,0 -0.41690786866086194,-0.3808354532315372 l 8.034989401159988 -8.64543476565728" fill="#ff850c" stroke="none" /><path d="M 84.67929136418377 114.36230785411682 l -8.04417838688962 7.540967534351024 a32.026105263157895,32.026105263157895 0 0,0 -0.3735671201008293,-0.4054333284671712 l 8.172791914986178 -7.401382951082509" fill="#ff7b0b" stroke="none" /><path d="M 83.06392112726016 112.41649034213515 l -9.546006000410273 6.99854388968628 a32.83663157894737,32.83663157894737 0 0,0 -0.3302742923709975,-0.4587221054973852 l 9.665060085156878 -6.833188178737757" fill="#ff860c" stroke="none" /><path d="M 82.85270091963577 112.12312394758628 l -14.451863996854344 10.217453937579737 a38.69894736842105,38.69894736842105 0 0,0 -0.37987456687174487,-0.5472376459627404 l 14.625599470888224 -9.967175029429985" fill="#ffd413" stroke="none" /><line stroke="#e1ed5e" stroke-width="0.3" x1="26.63291911575756" x2="22.317208475507996" y1="142.92168965132927" y2="145.44649492493687" /><path d="M 25.769776987707644 143.4266507060508 a86.0,86.0 0 0,1 -11.730757126820373,-40.83630448921669" fill="none" id="id45" stroke="none" /><text fill="#e1ed5e" style="font-size:6.75px; font-family:Arial;" text-anchor="middle"><textPath startOffset="21.46611528233685" xlink:href="#id45">September</textPath></text><line stroke="#e1ed5e" stroke-width="0.3" x1="15.007084014347285" x2="10.007500721073583" y1="101.09737516637583" y2="101.16192664675087" /><path d="M 14.007167355692545 101.11028546245083 a86.0,86.0 0 0,1 10.666146001902534,-42.60595125391555" fill="none" id="id46" stroke="none" /><text fill="#e1ed5e" style="font-size:6.75px; font-family:Arial;" text-anchor="middle"><textPath startOffset="22.20632615414155" xlink:href="#id46">October</textPath></text><path d="M 79.3925641242962 95.95851677861259 l -14.475819867775092 -2.8389647049886304 a35.75157894736842,35.75157894736842 0 0,0 0.12363356358612153,-0.6028811636123408 l 14.424807008273977 3.0877215247643734" fill="#ffad10" stroke="none" /><path d="M 79.54389044137918 95.25157060432595 l -5.753549972698408 -1.3355582468674798 a26.906526315789474,26.906526315789474 0 0,0 0.10860909002372238,-0.45025479581492867 l 5.72970808241387 1.4343982743418053" fill="#ff3204" stroke="none" /><path d="M 80.14247586403 93.16781622104843 l -11.440720923250081 -3.936296759662623 a33.09894736842105,33.09894736842105 0 0,0 0.1899988635095914,-0.5371523726637414 l 11.371268978930681 4.132646758752975" fill="#ff890c" stroke="none" /><path d="M 80.38941819471856 92.48833698450439 l -13.285653105135927 -5.088954017655767 a35.22694736842105,35.22694736842105 0 0,0 0.22177284095635477,-0.5643876903138015 l 13.19608671429788 5.316890712865332" fill="#ffa60f" stroke="none" /><path d="M 80.52162464483688 92.15188598940014 l -11.114292632479392 -4.478106317206133 a32.98252631578947,32.98252631578947 0 0,0 0.2167082544421027,-0.5247762272761011 l 11.03556269115109 4.668757114935546" fill="#ff880c" stroke="none" /><path d="M 81.26839172434947 90.50648371742162 l -13.150246258919845 -6.664781536204496 a35.74273684210526,35.74273684210526 0 0,0 0.2828621760094452,-0.5463996908279173 l 13.033574649750285 6.890153949292749" fill="#ffad10" stroke="none" /><line stroke="#e1ed5e" stroke-width="0.3" x1="26.266209847984243" x2="21.928928074336255" y1="57.711370442889674" y2="55.22380399835377" /><path d="M 25.398753493254645 57.213857153982495 a86.0,86.0 0 0,1 29.58750427330803,-30.492523968695096" fill="none" id="id47" stroke="none" /><text fill="#e1ed5e" style="font-size:6.75px; font-family:Arial;" text-anchor="middle"><textPath startOffset="21.46611528233685" xlink:href="#id47">November</textPath></text><path d="M 81.78341655067845 89.55222093294921 l -15.346672583095094 -8.801795628066293 a38.69157894736842,38.69157894736842 0 0,0 0.3363225436337977,-0.5748842476244611 l 15.192890364990971 9.064659288044647" fill="#ffd413" stroke="none" /><path d="M 81.96595687620814 89.24020034530311 l -26.801751949169415 -15.990949971029533 a52.20968421052632,52.20968421052632 0 0,0 0.46711308760111625,-0.7678110968996328 l 26.522523063282083 16.44992884113624" fill="#88ff25" stroke="none" /><path d="M 82.54541684631803 88.32363383020206 l -15.939402847639537 -10.662775646847757 a40.177052631578945,40.177052631578945 0 0,0 0.389479283682325,-0.5715127895844669 l 15.75349909828847 10.93556645970264" fill="#ffe715" stroke="none" /><path d="M 82.7489923806493 88.02491185347247 l -14.63974983444267 -10.162437961821563 a38.821263157894734,38.821263157894734 0 0,0 0.38578608115834634,-0.5456670527550707 l 14.462651133480446 10.41293151490842" fill="#ffd513" stroke="none" /><path d="M 83.84228863543731 86.58626213691792 l -23.978043665011032 -19.905986988813805 a52.164,52.164 0 0,0 0.5794908360979835,-0.6859343691212761 l 23.631842215425923 20.315780307564197" fill="#89ff24" stroke="none" /><path d="M 86.10567301691215 84.25364557470407 l -9.759180264822891 -11.060018346862247 a35.75010526315789,35.75010526315789 0 0,0 0.46493216411424004,-0.40318459120224337 l 9.567354302061878 11.226367931484171" fill="#ffad10" stroke="none" /><path d="M 86.37877921826538 84.01681056812374 l -9.688750445169267 -11.368814602210367 a35.93726315789473,35.93726315789473 0 0,0 0.47427341078702695,-0.3971903421610169 l 9.49161949742313 11.533906101765195" fill="#ffb010" stroke="none" /><path d="M 87.22198572758235 83.33499621200491 l -18.944639125148615 -24.707476142384017 a52.13452631578947,52.13452631578947 0 0,0 0.7168592855080308,-0.53992355179308 l 18.516533685882195 25.029916283682955" fill="#89ff24" stroke="none" /><path d="M 88.70189139769569 82.29822771554957 l -16.752914720469487 -26.248312166346494 a52.13894736842106,52.13894736842106 0 0,0 0.760684518531233,-0.47634057571892835 l 16.29861104956601 26.532797083388353" fill="#89ff24" stroke="none" /><line stroke="#e1ed5e" stroke-width="0.3" x1="56.762969772571076" x2="54.21961505331055" y1="26.818313649435495" y2="22.513508569990535" /><path d="M 56.25429882871897 25.957352633546506 a86.0,86.0 0 0,1 42.265352541879196,-11.944610805530505" fill="none" id="id48" stroke="none" /><text fill="#e1ed5e" style="font-size:6.75px; font-family:Arial;" text-anchor="middle"><textPath startOffset="22.20632615414155" xlink:href="#id48">December</textPath></text><path d="M 91.56875222667455 80.76684994638697 l -25.293743319976343 -57.69945016083907 a84.0,84.0 0 0,0 1.329264968838767,-0.5691218881488553 l 24.29679459334727 58.12629157695071" fill="#4dd2ff" stroke="none" /><path d="M 95.33964822691252 79.52364482259891 l -3.270422296903497 -14.369372054316553 a35.73684210526316,35.73684210526316 0 0,0 0.600986943107166,-0.1313524681526453 l 3.02259262964281 14.423538020565067" fill="#ffad10" stroke="none" /></svg>