<?xml version="1.0" encoding="utf-8" ?>
<svg baseProfile="full" height="200mm" version="1.1" viewBox="0,0,200,200" width="200mm" xmlns="http://www.w3.org/2000/svg" xmlns:ev="http://www.w3.org/2001/xml-events" xmlns:xlink="http://www.w3.org/1999/xlink"><defs /><rect fill="#1a1a1a" height="200" width="200" x="0" y="0" /><rect fill="#1a1a1a" height="200" width="180" x="10" y="0" /><text alignment-baseline="middle" fill="#e1ed5e" style="dominant-baseline: central; font-size:9.0px; font-family:Arial;" text-anchor="middle" x="100.0" y="100.0">2021</text><line stroke="#e1ed5e" stroke-width="0.3" x1="100.0" x2="100.0" y1="15.0" y2="10.0" /><path d="M 100.0 14.0 a86.0,86.0 0 0,1 42.46469731375804,11.215312516191453" fill="none" id="id61" stroke="none" /><text fill="#e1ed5e" style="font-size:6.75px; font-family:Arial;" text-anchor="middle"><textPath startOffset="22.20632615414155" xlink:href="#id61">January</textPath></text><path d="M 110.05341064243156 81.56283822128135 l 8.639829296029662 -15.844765138618103 a39.04725,39.04725 0 0,0 0.5873374125229514,0.3268526341722983 l -8.911290797624648 15.693697106885624" fill="#ffdb14" stroke="none" /><line stroke="#e1ed5e" stroke-width="0.3" x1="143.23703022742887" x2="145.7803849466894" y1="26.81831364943548" y2="22.513508569990506" /><path d="M 143.74570117128098 25.957352633546492 a86.0,86.0 0 0,1 28.547481713284135,27.462654790039103" fill="none" id="id62" stroke="none" /><text fill="#e1ed5e" style="font-size:6.75px; font-family:Arial;" text-anchor="middle"><textPath startOffset="19.985693538727396" xlink:href="#id62">February</textPath></text><path d="M 110.99172775467656 82.1063720568725 l 3.5401214604168993 -5.763026313968706 a27.7635,27.7635 0 0,0 0.4050573649101271,0.25364688474668756 l -3.63879797769929 5.701235087899074" fill="#ff4206" stroke="none" /><path d="M 112.19680574252982 82.90503203632743 l 10.528892557238867 -14.75723109464035 a39.12825,39.12825 0 0,0 0.5449161893038033,0.3959047857278306 l -10.78135406289646 14.573807074095845" fill="#ffdc14" stroke="none" /><path d="M 113.34407831869373 83.78471172551755 l 11.477813650979277 -13.947464385808406 a39.063,39.063 0 0,0 0.5155245730364761,0.43173700422501116 l -11.71619576097487 13.747826224189575" fill="#ffdb14" stroke="none" /><path d="M 113.6212207817346 84.01681056812373 l 10.215915586300957 -11.987392073907202 a36.75,36.75 0 0,0 0.4779358523681627,0.4144612615155753 l -10.420745237315883 11.809765818971956" fill="#ffbd11" stroke="none" /><path d="M 116.15771136456269 86.58626213691792 l 13.963724985703145 -11.59234388610214 a39.1485,39.1485 0 0,0 0.42597577537841463,0.5221959326712983 l -14.161199253157967 11.350263783822742" fill="#ffdc14" stroke="none" /><line stroke="#e1ed5e" stroke-width="0.3" x1="172.23445277983987" x2="176.4835382374775" y1="55.19839476539836" y2="52.563006222186495" /><path d="M 173.08426987136738 54.67131705675599 a86.0,86.0 0 0,1 12.851231095245387,41.99856678651699" fill="none" id="id63" stroke="none" /><text fill="#e1ed5e" style="font-size:6.75px; font-family:Arial;" text-anchor="middle"><textPath startOffset="22.20632615414155" xlink:href="#id63">March</textPath></text><path d="M 120.94382443527127 98.46500227214037 l 15.079553593395309 -1.1051983640589358 a36.12,36.12 0 0,0 0.04010938347240532,0.6204744094847793 l -15.096343567872129 0.8454648903211212" fill="#ffb510" stroke="none" /><line stroke="#e1ed5e" stroke-width="0.3" x1="184.98032266829074" x2="189.97916517819016" y1="98.17113171792111" y2="98.06355123074" /><path d="M 185.9800911702706 98.14961562048488 a86.0,86.0 0 0,1 -9.607161424134198,41.387399972396054" fill="none" id="id64" stroke="none" /><text fill="#e1ed5e" style="font-size:6.75px; font-family:Arial;" text-anchor="middle"><textPath startOffset="21.466115282336823" xlink:href="#id64">April</textPath></text><path d="M 120.9764740272857 100.99374915477107 l 12.9679559075827 0.6143499238959687 a33.9825,33.9825 0 0,0 -0.03271001576021598,0.5840593047443561 l -12.955459540934955 -0.8374809449757481" fill="#ff980e" stroke="none" /><path d="M 120.95626037817324 101.35467743843564 l 17.984962031696533 1.162603530200302 a39.0225,39.0225 0 0,0 -0.049100416167661094,0.6699361681454659 l -17.962285056864534 -1.4720128348425379" fill="#ffda14" stroke="none" /><path d="M 120.8583938346157 102.4346265915055 l 17.923319845030495 2.092039849700805 a39.045,39.045 0 0,0 -0.0836650510217531,0.666892775421365 l -17.884653284761892 -2.4002503794095653" fill="#ffdb14" stroke="none" /><path d="M 120.64145759157962 103.86396538481128 l 17.73690963047878 3.320250255662837 a39.045,39.045 0 0,0 -0.12935063176024736,0.6595560846015281 l -17.67712906574287 -3.62507006733231" fill="#ffdb14" stroke="none" /><path d="M 119.26925614724726 108.34839909993367 l 12.077694478006773 5.232657292994141 a34.1625,34.1625 0 0,0 -0.23841994966037572,0.5375740454556456 l -11.985833443615123 -5.439779674942474" fill="#ff9a0e" stroke="none" /><path d="M 118.97047184881838 109.00673069616215 l 16.524636014024296 7.8455057742641054 a39.292500000000004,39.292500000000004 0 0,0 -0.29534253164125424,0.6084930927492579 l -16.387140225768327 -8.128787822978639" fill="#ffde14" stroke="none" /><path d="M 118.81262510543309 109.33194174019688 l 24.852821523213212 12.328161606067232 a48.7425,48.7425 0 0,0 -0.3793125803782277,0.7484197064800677 l -24.636930273048716 -12.754135524249994" fill="#aeff20" stroke="none" /><line stroke="#e1ed5e" stroke-width="0.3" x1="174.80103733775053" x2="179.2010983576182" y1="140.37084112569926" y2="142.7455964860345" /><path d="M 175.68104954172406 140.8457921977663 a86.0,86.0 0 0,1 -30.038265399797805,32.042727171017184" fill="none" id="id65" stroke="none" /><text fill="#e1ed5e" style="font-size:6.75px; font-family:Arial;" text-anchor="middle"><textPath startOffset="22.206326154141568" xlink:href="#id65">May</textPath></text><line stroke="#e1ed5e" stroke-width="0.3" x1="143.8653032363475" x2="146.44561519142675" y1="172.8068346515853" y2="177.08958963109032" /><path d="M 144.38136562736335 173.6633856474863 a86.0,86.0 0 0,1 -40.68145358897372,12.25698825130547" fill="none" id="id66" stroke="none" /><text fill="#e1ed5e" style="font-size:6.75px; font-family:Arial;" text-anchor="middle"><textPath startOffset="21.466115282336833" xlink:href="#id66">June</textPath></text><path d="M 110.8373102113329 117.98757091392108 l 7.082956316692581 11.756162418741276 a34.725,34.725 0 0,0 -0.5146445561209253,0.3040610750999785 l -6.879543889543274 -11.876342066135004" fill="#ffa20f" stroke="none" /><path d="M 101.62511606390274 120.93702456842531 l 1.0098935539966978 13.010865267521444 a34.05,34.05 0 0,0 -0.5847475235941629,0.04032761282002334 l -0.7857832696236046 -13.026321224857753" fill="#ff990e" stroke="none" /><line stroke="#e1ed5e" stroke-width="0.3" x1="102.19456741930631" x2="102.32365962044197" y1="184.97166512339345" y2="189.96999836594603" /><path d="M 102.22038585953345 185.97133177190398 a86.0,86.0 0 0,1 -42.740103519485714,-10.115201625700543" fill="none" id="id67" stroke="none" /><text fill="#e1ed5e" style="font-size:6.75px; font-family:Arial;" text-anchor="middle"><textPath startOffset="22.20632615414155" xlink:href="#id67">July</textPath></text><path d="M 97.2962882734958 120.8252237178851 l -1.7381003956098389 13.387643818640415 a34.5,34.5 0 0,0 -0.5882601716216347,-0.08152749954786337 l 1.9682891584183047 -13.355741753599947" fill="#ff9f0e" stroke="none" /><path d="M 96.58105272829116 120.7198165907248 l -2.131957834429873 12.920285631216249 a34.095,34.095 0 0,0 -0.5782366341743075,-0.10053385072982354 l 2.3540434400762305 -12.88167320196542" fill="#ff9a0e" stroke="none" /><path d="M 96.22490169976321 120.6578951692458 l -2.3540434400762305 12.88167320196542 a34.095,34.095 0 0,0 -0.5764204371989551,-0.11047234868137995 l 2.5754314918468806 -12.839243654935572" fill="#ff9a0e" stroke="none" /><path d="M 95.86986931433489 120.58985236759428 l -2.3010728105848424 11.471489176231099 a32.7,32.7 0 0,0 -0.5509304386313835,-0.11545283001152874 l 2.498194710645613 -11.430180365493028" fill="#ff870c" stroke="none" /><path d="M 95.51606077576429 120.51570834832081 l -2.498194710645613 11.430180365493028 a32.7,32.7 0 0,0 -0.5488614816596854,-0.12491908628617351 l 2.6945763416981605 -11.385484545629168" fill="#ff870c" stroke="none" /><path d="M 93.76903079525671 120.05430185196036 l -1.8826428382902942 6.059264059556594 a27.345,27.345 0 0,0 -0.4482999913565826,-0.1435315003852535 l 1.9866641747378173 -6.025959712511634" fill="#ff3c05" stroke="none" /><path d="M 92.06813273071674 119.44442032107085 l -6.807241802888453 16.68747929697616 a39.0225,39.0225 0 0,0 -0.6197674986552514,-0.25906286470252843 l 7.093480761041167 -16.56783138925366" fill="#ffda14" stroke="none" /><path d="M 90.42595943632237 118.69057910512821 l -2.3695750395102126 4.625918328519231 a26.197499999999998,26.197499999999998 0 0,0 -0.3995855990981967,-0.2090442998664658 l 2.4488515411349048 -4.584444609708048" fill="#ff2b04" stroke="none" /><line stroke="#e1ed5e" stroke-width="0.3" x1="58.666819895761336" x2="56.23545636021788" y1="174.27360380694188" y2="178.64263932499728" /><path d="M 58.180547188652646 175.14741091055294 a86.0,86.0 0 0,1 -31.652253787137756,-30.449443065178592" fill="none" id="id68" stroke="none" /><text fill="#e1ed5e" style="font-size:6.75px; font-family:Arial;" text-anchor="middle"><textPath startOffset="22.20632615414155" xlink:href="#id68">August</textPath></text><path d="M 85.18274418774928 114.88116024355367 l -9.245967626844452 9.285843991977483 a34.104,34.104 0 0,0 -0.41243002490981395,-0.41778943777540056 l 9.404438276809799 -9.125314060221418" fill="#ff9a0e" stroke="none" /><path d="M 84.67929136418377 114.36230785411682 l -9.63563139559728 9.032865761107043 a34.207499999999996,34.207499999999996 0 0,0 -0.3990119046898143,-0.43304861673252476 l 9.789689708282822 -8.865665889573174" fill="#ff9b0e" stroke="none" /><path d="M 82.24976979558568 111.22182372390057 l -11.429880378056794 7.226052919354543 a34.5225,34.5225 0 0,0 -0.31322652271728535,-0.5050208881163175 l 11.552571540442035 -7.028235699872961" fill="#ff9f0e" stroke="none" /><line stroke="#e1ed5e" stroke-width="0.3" x1="26.63291911575756" x2="22.317208475507996" y1="142.92168965132927" y2="145.44649492493687" /><path d="M 25.769776987707644 143.4266507060508 a86.0,86.0 0 0,1 -11.730757126820373,-40.83630448921669" fill="none" id="id69" stroke="none" /><text fill="#e1ed5e" style="font-size:6.75px; font-family:Arial;" text-anchor="middle"><textPath startOffset="21.46611528233685" xlink:href="#id69">September</textPath></text><path d="M 80.87730276802145 108.67885076344099 l -12.31365111044904 5.588559973744325 a34.5225,34.5225 0 0,0 -0.2409323882078281,-0.5432389311157575 l 12.408024583388148 -5.375772706135872" fill="#ff9f0e" stroke="none" /><path d="M 80.0844068197444 106.66101706037122 l -6.145383038478872 2.0553995500574067 a27.48,27.48 0 0,0 -0.14617756867016518,-0.4498882966004744 l 6.179852858165287 -1.9493123534791288" fill="#ff3e05" stroke="none" /><path d="M 79.86692584326677 105.97154293290107 l -10.8071465919893 3.2054389386251136 a32.2725,32.2725 0 0,0 -0.15338252981396222,-0.5339447081799013 l 10.860721758689365 -3.0189367549406163" fill="#ff810b" stroke="none" /><path d="M 79.76711848015287 105.62410040840567 l -6.5684604648360825 1.8258240254431268 a27.8175,27.8175 0 0,0 -0.1242672945886989,-0.46244483173283074 l 6.598915835766556 -1.7124882605347571" fill="#ff4206" stroke="none" /><path d="M 79.67330655649465 105.27499134158121 l -10.911078659138763 2.831539995141629 a32.2725,32.2725 0 0,0 -0.13491239806727257,-0.5389079668117939 l 10.958202371501095 -2.643304188932443" fill="#ff810b" stroke="none" /><path d="M 79.4281124754447 104.21870165774334 l -17.655087757680846 3.6205500298418745 a39.0225,39.0225 0 0,0 -0.12927609240271695,-0.6591760100233682 l 17.71479378305923 -3.3161102927505515" fill="#ffda14" stroke="none" /><path d="M 79.23777060512086 103.15116336523772 l -2.2467698238029943 0.34100089273822515 a23.2725,23.2725 0 0,0 -0.05670283560553331,-0.39657950015886323 l 2.252306710425126 -0.30227592059896136" fill="#ff0000" stroke="none" /><path d="M 79.18660465613746 102.79330883721812 l -12.978638667994288 1.7418275820653013 a34.095,34.095 0 0,0 -0.07305826391565301,-0.5823462460748001 l 13.006698441156788 -1.5181635817030925" fill="#ff9a0e" stroke="none" /><line stroke="#e1ed5e" stroke-width="0.3" x1="15.007084014347285" x2="10.007500721073583" y1="101.09737516637583" y2="101.16192664675087" /><path d="M 14.007167355692545 101.11028546245083 a86.0,86.0 0 0,1 10.666146001902534,-42.60595125391555" fill="none" id="id70" stroke="none" /><text fill="#e1ed5e" style="font-size:6.75px; font-family:Arial;" text-anchor="middle"><textPath startOffset="22.20632615414155" xlink:href="#id70">October</textPath></text><path d="M 79.00486145842228 99.54816195383935 l -18.2410262607486 -0.3925665767482175 a39.24525,39.24525 0 0,0 0.020348298722123598,-0.6752609712747256 l 18.231566267570834 0.7064976954479375" fill="#ffdd14" stroke="none" /><path d="M 79.05617556472873 98.46500227214037 l -18.647483684689742 -1.3666961912693092 a39.697500000000005,39.697500000000005 0 0,0 0.055813770408357846,-0.6810693700782962 l 18.62119543046189 1.687479478555384" fill="#ffe315" stroke="none" /><path d="M 79.08570108090925 98.10471618934814 l -26.889812895973837 -2.436793470838099 a48.0,48.0 0 0,0 0.08165228415490589,-0.8222273583898736 l 26.843883486136704 2.8992963599324026" fill="#b6ff1f" stroke="none" /><path d="M 79.12142395522702 97.74499172005258 l -26.553074748370218 -2.8678873160331344 a47.707499999999996,47.707499999999996 0 0,0 0.09520973733720389,-0.8156988858984122 l 26.499774658029423 3.3245299402564084" fill="#baff1f" stroke="none" /><path d="M 79.26566170972629 96.67025291283419 l -38.16599269573955 -6.12911303116164 a59.655,59.655 0 0,0 0.17154544766719504,-1.012470942762823 l 38.05483538655213 6.78516976224029" fill="#39ff2e" stroke="none" /><path d="M 79.3925641242962 95.95851677861259 l -38.3960689155524 -7.530149273563614 a60.1275,60.1275 0 0,0 0.20792863737481732,-1.0139338801921436 l 38.26076098226259 8.18995880991916" fill="#34ff2f" stroke="none" /><path d="M 79.46518482838121 95.60439243477599 l -50.69165802365326 -10.85087124672441 a72.84,72.84 0 0,0 0.2729960405129325,-1.2237877204752843 l 50.49736759613829 11.721837136749652" fill="#3fffbd" stroke="none" /><path d="M 79.71946130924805 94.55025226153421 l -60.84161607225587 -16.349243215397365 a84.0,84.0 0 0,0 0.38725291773455695,-1.3931547863242297 l 60.551176383954946 17.394109305140535" fill="#4dd2ff" stroke="none" /><path d="M 80.38941819471856 92.48833698450439 l -6.324412632203264 -2.422511322497337 a27.7725,27.7725 0 0,0 0.17484303028146353,-0.4449564410253529 l 6.281776052040109 2.531016768418453" fill="#ff4206" stroke="none" /><path d="M 80.52162464483688 92.15188598940014 l -19.137503786447773 -7.710772015414356 a41.6325,41.6325 0 0,0 0.27354200574810905,-0.6624036640763104 l 19.001940093813463 8.039050249943978" fill="#fffb17" stroke="none" /><path d="M 80.65960295795068 91.81776055985345 l -8.350907151370587 -3.532974101120419 a30.067500000000003,30.067500000000003 0 0,0 0.20576090865739033,-0.47492454619725843 l 8.288855532870516 3.6761977919042765" fill="#ff6209" stroke="none" /><path d="M 80.803312248108 91.48605970444005 l -13.286850308273822 -5.892862961712559 a35.535,35.535 0 0,0 0.2528022222241571,-0.5570161864665242 l 13.183445769086314 6.120701157021155" fill="#ffad10" stroke="none" /><path d="M 81.10775173730289 90.83032412892265 l -6.092750064719819 -2.9572204684224426 a27.7725,27.7725 0 0,0 0.2124463828691116,-0.4282789442101234 l 6.040943668897294 3.0616590011315274" fill="#ff4206" stroke="none" /><path d="M 81.26839172434947 90.50648371742162 l -8.047901698431279 -4.078821459979211 a30.0225,30.0225 0 0,0 0.23759315680716556,-0.4589543545685275 l 7.976499108464 4.2167485368080735" fill="#ff6209" stroke="none" /><line stroke="#e1ed5e" stroke-width="0.3" x1="26.266209847984243" x2="21.928928074336255" y1="57.711370442889674" y2="55.22380399835377" /><path d="M 25.398753493254645 57.213857153982495 a86.0,86.0 0 0,1 29.58750427330803,-30.492523968695096" fill="none" id="id71" stroke="none" /><text fill="#e1ed5e" style="font-size:6.75px; font-family:Arial;" text-anchor="middle"><textPath startOffset="21.46611528233685" xlink:href="#id71">November</textPath></text><path d="M 81.78341655067845 89.55222093294921 l -17.624544487218586 -10.108226247371633 a41.317499999999995,41.317499999999995 0 0,0 0.3591480904796356,-0.6139005061937178 l 17.447936722268626 10.410106165919242" fill="#fff717" stroke="none" /><path d="M 81.96595687620814 89.24020034530311 l -17.776413936309126 -10.606088231058369 a41.7,41.7 0 0,0 0.37308434340308355,-0.6132525646316664 l 17.591213794619826 10.910508568897109" fill="#fffc17" stroke="none" /><path d="M 82.15384107792192 88.93136811851018 l -26.788359267676494 -16.614807070679184 a52.5225,52.5225 0 0,0 0.4831379798176869,-0.7642082582347675 l 26.498393691612844 17.073462976628164" fill="#83ff25" stroke="none" /><path d="M 82.54541684631803 88.32363383020206 l -9.36937088570857 -6.267706554716536 a32.2725,32.2725 0 0,0 0.3128519729383608,-0.4590716663812146 l 9.26009444710147 6.428056244368166" fill="#ff810b" stroke="none" /><path d="M 82.7489923806493 88.02491185347247 l -45.006646664056035 -31.24214961085126 a75.7875,75.7875 0 0,0 0.7531378488863608,-1.0652600764811788 l 44.46219619536579 32.01223618766423" fill="#43ffdc" stroke="none" /><path d="M 83.17141714833178 87.43820079747576 l -5.445248594146932 -4.0646393133881995 a27.795,27.795 0 0,0 0.2894969162605188,-0.38094400735175554 l 5.374475737662304 4.157768096620982" fill="#ff4206" stroke="none" /><path d="M 83.39014120810768 87.1503855733568 l -4.271106546486597 -3.3041865668511097 a26.4,26.4 0 0,0 0.2811548701104364,-0.35703813331616857 l 4.21359759578219 3.377217094120326" fill="#ff2e04" stroke="none" /><path d="M 84.5562425177563 85.77008943001954 l -9.613739032696703 -8.858119329812837 a34.0725,34.0725 0 0,0 0.4011350201029352,-0.4279028711153636 l 9.459836690623312 9.02229161780625" fill="#ff990e" stroke="none" /><path d="M 89.00827224532344 82.1063720568725 l -6.830573676120429 -11.119611650372084 a34.05,34.05 0 0,0 0.5020557926328116,-0.3024829975206674 l 6.638155817269968 11.23554125735137" fill="#ff990e" stroke="none" /><line stroke="#e1ed5e" stroke-width="0.3" x1="56.762969772571076" x2="54.21961505331055" y1="26.818313649435495" y2="22.513508569990535" /><path d="M 56.25429882871897 25.957352633546506 a86.0,86.0 0 0,1 42.265352541879196,-11.944610805530505" fill="none" id="id72" stroke="none" /><text fill="#e1ed5e" style="font-size:6.75px; font-family:Arial;" text-anchor="middle"><textPath startOffset="22.20632615414155" xlink:href="#id72">December</textPath></text></svg>