<?xml version="1.0" encoding="utf-8" ?>
<svg baseProfile="full" height="200mm" version="1.1" viewBox="0,0,200,200" width="200mm" xmlns="http://www.w3.org/2000/svg" xmlns:ev="http://www.w3.org/2001/xml-events" xmlns:xlink="http://www.w3.org/1999/xlink"><defs /><rect fill="#1a1a1a" height="200" width="200" x="0" y="0" /><rect fill="#1a1a1a" height="200" width="180" x="10" y="0" /><text alignment-baseline="middle" fill="#e1ed5e" style="dominant-baseline: central; font-size:9.0px; font-family:Arial;" text-anchor="middle" x="100.0" y="100.0">2025</text><line stroke="#e1ed5e" stroke-width="0.3" x1="100.0" x2="100.0" y1="15.0" y2="10.0" /><path d="M 100.0 14.0 a86.0,86.0 0 0,1 42.46469731375804,11.215312516191453" fill="none" id="id109" stroke="none" /><text fill="#e1ed5e" style="font-size:6.75px; font-family:Arial;" text-anchor="middle"><textPath startOffset="22.20632615414155" xlink:href="#id109">January</textPath></text><line stroke="#e1ed5e" stroke-width="0.3" x1="143.23703022742887" x2="145.7803849466894" y1="26.81831364943548" y2="22.513508569990506" /><path d="M 143.74570117128098 25.957352633546492 a86.0,86.0 0 0,1 28.547481713284135,27.462654790039103" fill="none" id="id110" stroke="none" /><text fill="#e1ed5e" style="font-size:6.75px; font-family:Arial;" text-anchor="middle"><textPath startOffset="19.985693538727396" xlink:href="#id110">February</textPath></text><line stroke="#e1ed5e" stroke-width="0.3" x1="172.23445277983987" x2="176.4835382374775" y1="55.19839476539836" y2="52.563006222186495" /><path d="M 173.08426987136738 54.67131705675599 a86.0,86.0 0 0,1 12.851231095245387,41.99856678651699" fill="none" id="id111" stroke="none" /><text fill="#e1ed5e" style="font-size:6.75px; font-family:Arial;" text-anchor="middle"><textPath startOffset="22.20632615414155" xlink:href="#id111">March</textPath></text><line stroke="#e1ed5e" stroke-width="0.3" x1="184.98032266829074" x2="189.97916517819016" y1="98.17113171792111" y2="98.06355123074" /><path d="M 185.9800911702706 98.14961562048488 a86.0,86.0 0 0,1 -9.607161424134198,41.387399972396054" fill="none" id="id112" stroke="none" /><text fill="#e1ed5e" style="font-size:6.75px; font-family:Arial;" text-anchor="middle"><textPath startOffset="21.466115282336823" xlink:href="#id112">April</textPath></text><line stroke="#e1ed5e" stroke-width="0.3" x1="174.80103733775053" x2="179.2010983576182" y1="140.37084112569926" y2="142.7455964860345" /><path d="M 175.68104954172406 140.8457921977663 a86.0,86.0 0 0,1 -30.038265399797805,32.042727171017184" fill="none" id="id113" stroke="none" /><text fill="#e1ed5e" style="font-size:6.75px; font-family:Arial;" text-anchor="middle"><textPath startOffset="22.206326154141568" xlink:href="#id113">May</textPath></text><line stroke="#e1ed5e" stroke-width="0.3" x1="143.8653032363475" x2="146.44561519142675" y1="172.8068346515853" y2="177.08958963109032" /><path d="M 144.38136562736335 173.6633856474863 a86.0,86.0 0 0,1 -40.68145358897372,12.25698825130547" fill="none" id="id114" stroke="none" /><text fill="#e1ed5e" style="font-size:6.75px; font-family:Arial;" text-anchor="middle"><textPath startOffset="21.466115282336833" xlink:href="#id114">June</textPath></text><line stroke="#e1ed5e" stroke-width="0.3" x1="102.19456741930631" x2="102.32365962044197" y1="184.97166512339345" y2="189.96999836594603" /><path d="M 102.22038585953345 185.97133177190398 a86.0,86.0 0 0,1 -42.740103519485714,-10.115201625700543" fill="none" id="id115" stroke="none" /><text fill="#e1ed5e" style="font-size:6.75px; font-family:Arial;" text-anchor="middle"><textPath startOffset="22.20632615414155" xlink:href="#id115">July</textPath></text><line stroke="#e1ed5e" stroke-width="0.3" x1="58.666819895761336" x2="56.23545636021788" y1="174.27360380694188" y2="178.64263932499728" /><path d="M 58.180547188652646 175.14741091055294 a86.0,86.0 0 0,1 -31.652253787137756,-30.449443065178592" fill="none" id="id116" stroke="none" /><text fill="#e1ed5e" style="font-size:6.75px; font-family:Arial;" text-anchor="middle"><textPath startOffset="22.20632615414155" xlink:href="#id116">August</textPath></text><path d="M 88.24862548938628 117.40417183066458 l -9.711953566887495 14.383722392378955 a38.355503794082225,38.355503794082225 0 0,0 -0.5439963210422858,-0.3741656300361692 l 9.958106772552672 -14.214415972977685" fill="#ff0000" stroke="none" /><path d="M 86.51685102203217 116.09983520530335 l -15.792580061247106 18.857459549553923 a45.596938135751,45.596938135751 0 0,0 -0.5973948496916803,-0.5091128511117416 l 16.11484038751584 -18.58282230821923" fill="#ff8a0c" stroke="none" /><path d="M 84.9287848128048 114.62390073753433 l -24.86833829853181 24.130244725994995 a55.65116102335726,55.65116102335726 0 0,0 -0.6611714325467785,-0.6932356036967433 l 25.28001628245755 -23.698602005715752" fill="#caff1d" stroke="none" /><path d="M 84.19399662182784 113.82643327865904 l -18.468254869564667 16.155259974190564 a45.53709157094383,45.53709157094383 0 0,0 -0.511007462907346,-0.5944171255797214 l 18.743604842042792 -15.834965749449312" fill="#ff880c" stroke="none" /><path d="M 83.50135304334701 112.99209946851258 l -28.23457620311579 22.23372761693394 a56.93786216671163,56.93786216671163 0 0,0 -0.5997269977835177,-0.7752279886480634 l 28.613110018117375 -21.74442163417262" fill="#b6ff1f" stroke="none" /><path d="M 83.06392112726016 112.41649034213515 l -19.762126513101627 14.488374483478266 a45.504175960299875,45.504175960299875 0 0,0 -0.45768578543387767,-0.6356855256376269 l 20.00859209091111 -14.146055352389501" fill="#ff880c" stroke="none" /><path d="M 82.85270091963577 112.12312394758628 l -20.05990243819517 14.182331718539238 a45.567014853347416,45.567014853347416 0 0,0 -0.44729252881898135,-0.644358248416938 l 20.301055874176285 -13.834932207935287" fill="#ff890c" stroke="none" /><path d="M 82.6465618267979 111.8261652097733 l -37.09084508071184 25.276977237396988 a65.88492360538504,65.88492360538504 0 0,0 -0.6306030973777933,-0.9426660692279878 l 37.520451283500364 -24.63477425396318" fill="#36ff2e" stroke="none" /><path d="M 82.05923443525364 110.91462005526583 l -47.293628565782925 28.7720156069987 a76.35807244664156,76.35807244664156 0 0,0 -0.6734750148541866,-1.128782863106097 l 47.78188445633534 -27.95367065000649" fill="#40ffc7" stroke="none" /><line stroke="#e1ed5e" stroke-width="0.3" x1="26.63291911575756" x2="22.317208475507996" y1="142.92168965132927" y2="145.44649492493687" /><path d="M 25.769776987707644 143.4266507060508 a86.0,86.0 0 0,1 -11.730757126820373,-40.83630448921669" fill="none" id="id117" stroke="none" /><text fill="#e1ed5e" style="font-size:6.75px; font-family:Arial;" text-anchor="middle"><textPath startOffset="21.46611528233685" xlink:href="#id117">September</textPath></text><path d="M 80.73074385275274 108.34839909993369 l -20.785035276414437 9.00510992576623 a43.65192477951766,43.65192477951766 0 0,0 -0.2927776559172524,-0.6920398934669558 l 20.936963913523996 -8.645995506633115" fill="#ff6609" stroke="none" /><path d="M 80.45479744820244 107.68017299344265 l -32.36206606280199 12.716484524980281 a55.770854152971616,55.770854152971616 0 0,0 -0.3434043082826348,-0.8965202866489678 l 32.57616465067814 -12.157540671498156" fill="#c9ff1d" stroke="none" /><path d="M 80.32549172779594 107.34259656027581 l -42.05355776425206 15.694537536340961 a65.88674892561167,65.88674892561167 0 0,0 -0.3874007149311018,-1.0659603855038766 l 42.31748274018839 -14.968329353830969" fill="#36ff2e" stroke="none" /><path d="M 79.97269907076064 106.31721596034903 l -26.245723342565682 8.278694317140724 a48.52044282658176,48.52044282658176 0 0,0 -0.24438875415234892,-0.7986765888085615 l 26.384338869224162 -7.825690755780115" fill="#ffbd11" stroke="none" /><path d="M 79.86692584326677 105.97154293290107 l -26.368904733841273 7.821112935157509 a48.50434410064862,48.50434410064862 0 0,0 -0.23052812782165683,-0.8024986553963388 l 26.499625498549033 -7.366056804256575" fill="#ffbd11" stroke="none" /><path d="M 79.76711848015287 105.62410040840567 l -26.560976166941447 7.383110347461642 a48.568020845603456,48.568020845603456 0 0,0 -0.2169647363713732,-0.8074064969009331 l 26.684128979654595 -6.92481291738517" fill="#ffbe11" stroke="none" /><path d="M 79.58551787078972 104.9243191809786 l -44.25444226560544 10.674921730207084 a66.5237258381369,66.5237258381369 0 0,0 -0.2589338905809626,-1.1154804236932614 l 44.43163672211696 -9.911572649165247" fill="#30ff31" stroke="none" /><path d="M 79.35854240842038 103.8639653848113 l -61.92437277473888 11.591896154433886 a84.0,84.0 0 0,0 -0.25381423064324515,-1.4235249970671453 l 62.11473344772131 -10.524252406633527" fill="#4dd2ff" stroke="none" /><path d="M 79.23777060512086 103.15116336523772 l -54.73033896313327 8.30663392777104 a76.35711490160466,76.35711490160466 0 0,0 -0.18604210693215198,-1.3011780625739076 l 54.86521512108202 -7.363310393216732" fill="#40ffc7" stroke="none" /><line stroke="#e1ed5e" stroke-width="0.3" x1="15.007084014347285" x2="10.007500721073583" y1="101.09737516637583" y2="101.16192664675087" /><path d="M 14.007167355692545 101.11028546245083 a86.0,86.0 0 0,1 10.666146001902534,-42.60595125391555" fill="none" id="id118" stroke="none" /><text fill="#e1ed5e" style="font-size:6.75px; font-family:Arial;" text-anchor="middle"><textPath startOffset="22.20632615414155" xlink:href="#id118">October</textPath></text><line stroke="#e1ed5e" stroke-width="0.3" x1="26.266209847984243" x2="21.928928074336255" y1="57.711370442889674" y2="55.22380399835377" /><path d="M 25.398753493254645 57.213857153982495 a86.0,86.0 0 0,1 29.58750427330803,-30.492523968695096" fill="none" id="id119" stroke="none" /><text fill="#e1ed5e" style="font-size:6.75px; font-family:Arial;" text-anchor="middle"><textPath startOffset="21.46611528233685" xlink:href="#id119">November</textPath></text><line stroke="#e1ed5e" stroke-width="0.3" x1="56.762969772571076" x2="54.21961505331055" y1="26.818313649435495" y2="22.513508569990535" /><path d="M 56.25429882871897 25.957352633546506 a86.0,86.0 0 0,1 42.265352541879196,-11.944610805530505" fill="none" id="id120" stroke="none" /><text fill="#e1ed5e" style="font-size:6.75px; font-family:Arial;" text-anchor="middle"><textPath startOffset="22.20632615414155" xlink:href="#id120">December</textPath></text></svg>