<?xml version="1.0" encoding="utf-8" ?>
<svg baseProfile="full" height="200mm" version="1.1" viewBox="0,0,200,200" width="200mm" xmlns="http://www.w3.org/2000/svg" xmlns:ev="http://www.w3.org/2001/xml-events" xmlns:xlink="http://www.w3.org/1999/xlink"><defs /><rect fill="#1a1a1a" height="200" width="200" x="0" y="0" /><rect fill="#1a1a1a" height="200" width="180" x="10" y="0" /><text alignment-baseline="middle" fill="#e1ed5e" style="dominant-baseline: central; font-size:9.0px; font-family:Arial;" text-anchor="middle" x="100.0" y="100.0">2022</text><line stroke="#e1ed5e" stroke-width="0.3" x1="100.0" x2="100.0" y1="15.0" y2="10.0" /><path d="M 100.0 14.0 a86.0,86.0 0 0,1 42.46469731375804,11.215312516191453" fill="none" id="id73" stroke="none" /><text fill="#e1ed5e" style="font-size:6.75px; font-family:Arial;" text-anchor="middle"><textPath startOffset="22.20632615414155" xlink:href="#id73">January</textPath></text><path d="M 100.36148047927253 79.00311137660856 l 0.28287493271310626 -16.4310213057135 a37.433456099566165,37.433456099566165 0 0,0 0.6441644755707345,0.01663686793367173 l -0.5656660434787086 16.423717645637467" fill="#ffa10e" stroke="none" /><path d="M 109.73455568895987 81.39251694778311 l 5.236473898367438 -10.009455226369907 a32.296453107811644,32.296453107811644 0 0,0 0.4903754310948506,0.26194157251423145 l -5.407994375990601 9.917834927353923" fill="#ff5708" stroke="none" /><line stroke="#e1ed5e" stroke-width="0.3" x1="143.23703022742887" x2="145.7803849466894" y1="26.81831364943548" y2="22.513508569990506" /><path d="M 143.74570117128098 25.957352633546492 a86.0,86.0 0 0,1 28.547481713284135,27.462654790039103" fill="none" id="id74" stroke="none" /><text fill="#e1ed5e" style="font-size:6.75px; font-family:Arial;" text-anchor="middle"><textPath startOffset="19.985693538727396" xlink:href="#id74">February</textPath></text><path d="M 111.2981086023043 82.29822771554956 l 10.140107142968905 -15.887426285507257 a39.847601620586,39.847601620586 0 0,0 0.5750065349737769,0.3740002451942874 l -10.41208070372696 15.710527116153441" fill="#ffc312" stroke="none" /><path d="M 111.90073688211348 82.69761687909136 l 14.949537906406555 -21.73500976447572 a47.37990396261786,47.37990396261786 0 0,0 0.6679863891832538,0.4679671538207626 l -15.32145543517346 21.47445776789102" fill="#d7ff1c" stroke="none" /><path d="M 112.77801427241765 83.33499621200491 l 16.048107412211635 -20.929838166791946 a47.37422751858304,47.37422751858304 0 0,0 0.6428625032031624,0.5017643806661287 l -16.40600247057423 20.650495396902592" fill="#d7ff1c" stroke="none" /><path d="M 113.06298171725822 83.55741782278167 l 13.420193804913033 -16.89221069489436 a42.574252801015604,42.574252801015604 0 0,0 0.5698798938581752,0.46080324167649506 l -13.708977097335701 16.658701355953735" fill="#ffe815" stroke="none" /><path d="M 113.34407831869373 83.78471172551755 l 11.102973408860192 -13.491970762519124 a38.47310200206384,38.47310200206384 0 0,0 0.5077395356988136,0.42521725934040705 l -11.333570481518123 13.298852345784896" fill="#ffb010" stroke="none" /><path d="M 114.16331599549186 84.49514656593476 l 21.990675661565664 -24.07361405741202 a53.605654568454874,53.605654568454874 0 0,0 0.6759216530354097,0.6281955118935114 l -22.401805198395923 23.69151395944387" fill="#8bff24" stroke="none" /><path d="M 114.94478906791727 85.2469230424477 l 27.55019534414359 -27.196780781623506 a59.71276466986253,59.71276466986253 0 0,0 0.7158017514519438,0.7376966256215475 l -28.01426135929864 26.718519960451843" fill="#47ff2c" stroke="none" /><path d="M 115.9244219780498 86.31012108654704 l 26.525243811012384 -22.803174672406392 a55.97961312498935,55.97961312498935 0 0,0 0.6218785525312993,0.7361080556043244 l -26.9138329770308 22.343207667172962" fill="#70ff27" stroke="none" /><path d="M 116.15771136456269 86.58626213691792 l 11.601693330675287 -9.63144281973363 a36.07859340020925,36.07859340020925 0 0,0 0.39257204741475893,0.4812469118891098 l -11.765763870166456 9.43031173823642" fill="#ff8e0d" stroke="none" /><path d="M 116.60985879189232 87.15038557335679 l 22.665977479205228 -17.53471085214351 a49.656807563930045,49.656807563930045 0 0,0 0.5171970736139394,0.6805707237164245 l -22.964450493043284 17.141955352546056" fill="#bbff1f" stroke="none" /><path d="M 117.45458315368197 88.32363383020206 l 38.01072989714356 -25.427545118240808 a66.73156063435596,66.73156063435596 0 0,0 0.6304650551272795,0.9602415326800439 l -38.44279158762877 24.769485521583093" fill="#36ff6d" stroke="none" /><line stroke="#e1ed5e" stroke-width="0.3" x1="172.23445277983987" x2="176.4835382374775" y1="55.19839476539836" y2="52.563006222186495" /><path d="M 173.08426987136738 54.67131705675599 a86.0,86.0 0 0,1 12.851231095245387,41.99856678651699" fill="none" id="id75" stroke="none" /><text fill="#e1ed5e" style="font-size:6.75px; font-family:Arial;" text-anchor="middle"><textPath startOffset="22.20632615414155" xlink:href="#id75">March</textPath></text><path d="M 117.84615892207809 88.93136811851018 l 13.247152925299794 -8.21621391180968 a36.58824017235088,36.58824017235088 0 0,0 0.32735010937590747,0.5380775088981543 l -13.386618832961924 7.986968629704443" fill="#ff950d" stroke="none" /><path d="M 118.03404312379186 89.2402003453031 l 18.77170308536604 -11.199915792012684 a42.85897871524001,42.85897871524001 0 0,0 0.37254723459758216,0.6368039868876706 l -18.961709994433946 10.875132392771118" fill="#ffec16" stroke="none" /><path d="M 118.3937258080291 89.86733742301442 l 19.108721936519103 -10.526536802873949 a42.81630654142598,42.81630654142598 0 0,0 0.35005776450201453,0.6486038730616404 l -19.287087800239583 10.19605194647985" fill="#ffeb16" stroke="none" /><path d="M 118.56541770881063 90.18545643968196 l 46.60519068689627 -24.637672112079596 a73.71677803189709,73.71677803189709 0 0,0 0.5833825298443267,1.1269093607294447 l -47.02238264990072 23.831790029089806" fill="#3fffc0" stroke="none" /><path d="M 119.04729006885535 91.15688171328212 l 17.830620698360338 -8.27825309486014 a40.65859885117344,40.65859885117344 0 0,0 0.2892524030420016,0.6373293282440803 l -17.970475418365687 7.970101757773998" fill="#ffce13" stroke="none" /><path d="M 119.196687751892 91.48605970444005 l 24.200291517658393 -10.733093113742095 a47.473635891730225,47.473635891730225 0 0,0 0.32487631024702784,0.7498593159462416 l -24.381458537748102 10.314934653209251" fill="#d6ff1c" stroke="none" /><path d="M 119.34039704204932 91.81776055985345 l 30.34594072386605 -12.838296571643506 a53.94993136985061,53.94993136985061 0 0,0 0.35447240585797185,0.8583830472841025 l -30.56243481661022 12.314038953906099" fill="#87ff25" stroke="none" /><path d="M 119.61058180528143 92.48833698450437 l 58.83174541584429 -22.534989046486903 a84.0,84.0 0 0,0 0.505581645993499,1.354707451882667 l -59.21093165033941 21.518958457574904" fill="#4dd2ff" stroke="none" /><path d="M 120.18372546131832 94.20196356495316 l 5.4426168416763 -1.5634621472887218 a26.662728315158972,26.662728315158972 0 0,0 0.12291927779534347,0.4422060424848249 l -5.468722890038007 1.469544801384945" fill="#ff0000" stroke="none" /><path d="M 120.37134235888165 94.90015583598534 l 20.969333294425347 -5.249547631220704 a42.61644487757296,42.61644487757296 0 0,0 0.17202269976719073,0.7131451478167614 l -21.056588794453358 4.887817251744536" fill="#ffe915" stroke="none" /><path d="M 120.45610955862082 95.25157060432595 l 22.0370579370366 -5.115411285930356 a43.622982896703334,43.622982896703334 0 0,0 0.16349398141355553,0.7329114607288328 l -22.121846305452195 4.735321655651559" fill="#fff617" stroke="none" /><path d="M 120.53481517161879 95.60439243477599 l 9.222927595654275 -1.9742262092040748 a30.43185891326781,30.43185891326781 0 0,0 0.10523728670938026,0.5131743842565996 l -9.255544178278651 1.8151761687840633" fill="#ff3b05" stroke="none" /><line stroke="#e1ed5e" stroke-width="0.3" x1="184.98032266829074" x2="189.97916517819016" y1="98.17113171792111" y2="98.06355123074" /><path d="M 185.9800911702706 98.14961562048488 a86.0,86.0 0 0,1 -9.607161424134198,41.387399972396054" fill="none" id="id76" stroke="none" /><text fill="#e1ed5e" style="font-size:6.75px; font-family:Arial;" text-anchor="middle"><textPath startOffset="21.466115282336823" xlink:href="#id76">April</textPath></text><path d="M 120.99513854157772 99.54816195383933 l 12.084930410927758 -0.26008074840981243 a33.08772869618854,33.08772869618854 0 0,0 0.007353342586479563,0.5695244869906912 l -12.087616760631953 0.05202000335865843" fill="#ff6209" stroke="none" /><path d="M 120.02730092923936 106.31721596034902 l 10.788546467039605 3.40303359755518 a32.312531659074466,32.312531659074466 0 0,0 -0.17188381788578394,0.5290039966139104 l -10.728370398137574 -3.588236494146886" fill="#ff5708" stroke="none" /><path d="M 119.9155931802556 106.66101706037122 l 10.893485704798612 3.643461355623168 a32.48663751715754,32.48663751715754 0 0,0 -0.1819393544686363,0.5288009280098898 l -10.829155519386745 -3.830434986722358" fill="#ff5908" stroke="none" /><path d="M 119.67450827220406 107.3425965602758 l 15.962762731857074 5.9573599047973556 a38.03819036954489,38.03819036954489 0 0,0 -0.2342169337473017,0.6114665061463249 l -15.857851518516267 -6.231249977776824" fill="#ffaa0f" stroke="none" /><path d="M 119.41010516605496 108.01547362559984 l 24.397979387282895 10.075234452551998 a47.39643437012226,47.39643437012226 0 0,0 -0.31789244171499265,0.7514038283050241 l -24.22093596437559 -10.493712806523185" fill="#d7ff1c" stroke="none" /><path d="M 119.26925614724726 108.34839909993367 l 13.624761818091297 5.902923726259832 a35.848523263872394,35.848523263872394 0 0,0 -0.2501866992161365,0.5641049593727246 l -13.521134034143888 -6.136577022125245" fill="#ff8b0c" stroke="none" /><path d="M 119.12269723197855 108.67885076344098 l 16.14820135709089 7.328873535780313 a38.73349357494493,38.73349357494493 0 0,0 -0.2807724238370439,0.6047588222575615 l -16.019654316414016 -7.605752425316705" fill="#ffb410" stroke="none" /><path d="M 118.97047184881838 109.00673069616215 l 15.859500462802528 7.529715169051986 a38.55620589582741,38.55620589582741 0 0,0 -0.28980816847375757,0.5970906653999921 l -15.727539037714054 -7.801594790417254" fill="#ffb110" stroke="none" /><path d="M 118.81262510543309 109.33194174019688 l 41.48335134658527 20.57768205047849 a67.30668890683961,67.30668890683961 0 0,0 -0.5237785063541666,1.0334646839165438 l -41.12299417044484 -21.288700946097727" fill="#37ff74" stroke="none" /><path d="M 118.64920377521936 109.65438752849418 l 10.285260787887418 5.324511152043679 a32.58175325600973,32.58175325600973 0 0,0 -0.26212407096372703,0.49583995822805543 l -10.1920842086988 -5.5007661253578695" fill="#ff5b08" stroke="none" /><line stroke="#e1ed5e" stroke-width="0.3" x1="174.80103733775053" x2="179.2010983576182" y1="140.37084112569926" y2="142.7455964860345" /><path d="M 175.68104954172406 140.8457921977663 a86.0,86.0 0 0,1 -30.038265399797805,32.042727171017184" fill="none" id="id77" stroke="none" /><text fill="#e1ed5e" style="font-size:6.75px; font-family:Arial;" text-anchor="middle"><textPath startOffset="22.206326154141568" xlink:href="#id77">May</textPath></text><path d="M 118.48025628344425 109.97397251340804 l 23.120024195518262 12.47809999485843 a47.27239041813736,47.27239041813736 0 0,0 -0.3926390509781702,0.7127539272472095 l -22.901808735088583 -12.874224440503445" fill="#d9ff1c" stroke="none" /><path d="M 118.30583269289576 110.29060199501025 l 8.876515093356023 4.9899223630443 a31.18291929614425,31.18291929614425 0 0,0 -0.26705646616918993,0.46563545902250636 l -8.789306631034453 -5.141977667925122" fill="#ff4606" stroke="none" /><line stroke="#e1ed5e" stroke-width="0.3" x1="143.8653032363475" x2="146.44561519142675" y1="172.8068346515853" y2="177.08958963109032" /><path d="M 144.38136562736335 173.6633856474863 a86.0,86.0 0 0,1 -40.68145358897372,12.25698825130547" fill="none" id="id78" stroke="none" /><text fill="#e1ed5e" style="font-size:6.75px; font-family:Arial;" text-anchor="middle"><textPath startOffset="21.466115282336833" xlink:href="#id78">June</textPath></text><line stroke="#e1ed5e" stroke-width="0.3" x1="102.19456741930631" x2="102.32365962044197" y1="184.97166512339345" y2="189.96999836594603" /><path d="M 102.22038585953345 185.97133177190398 a86.0,86.0 0 0,1 -42.740103519485714,-10.115201625700543" fill="none" id="id79" stroke="none" /><text fill="#e1ed5e" style="font-size:6.75px; font-family:Arial;" text-anchor="middle"><textPath startOffset="22.20632615414155" xlink:href="#id79">July</textPath></text><line stroke="#e1ed5e" stroke-width="0.3" x1="58.666819895761336" x2="56.23545636021788" y1="174.27360380694188" y2="178.64263932499728" /><path d="M 58.180547188652646 175.14741091055294 a86.0,86.0 0 0,1 -31.652253787137756,-30.449443065178592" fill="none" id="id80" stroke="none" /><text fill="#e1ed5e" style="font-size:6.75px; font-family:Arial;" text-anchor="middle"><textPath startOffset="22.20632615414155" xlink:href="#id80">August</textPath></text><path d="M 88.24862548938628 117.40417183066458 l -5.278398931179824 7.817482278866818 a30.432630834347172,30.432630834347172 0 0,0 -0.4316261703249263,-0.2968764157270307 l 5.41218198612764 -7.725465073774686" fill="#ff3b05" stroke="none" /><line stroke="#e1ed5e" stroke-width="0.3" x1="26.63291911575756" x2="22.317208475507996" y1="142.92168965132927" y2="145.44649492493687" /><path d="M 25.769776987707644 143.4266507060508 a86.0,86.0 0 0,1 -11.730757126820373,-40.83630448921669" fill="none" id="id81" stroke="none" /><text fill="#e1ed5e" style="font-size:6.75px; font-family:Arial;" text-anchor="middle"><textPath startOffset="21.46611528233685" xlink:href="#id81">September</textPath></text><line stroke="#e1ed5e" stroke-width="0.3" x1="15.007084014347285" x2="10.007500721073583" y1="101.09737516637583" y2="101.16192664675087" /><path d="M 14.007167355692545 101.11028546245083 a86.0,86.0 0 0,1 10.666146001902534,-42.60595125391555" fill="none" id="id82" stroke="none" /><text fill="#e1ed5e" style="font-size:6.75px; font-family:Arial;" text-anchor="middle"><textPath startOffset="22.20632615414155" xlink:href="#id82">October</textPath></text><line stroke="#e1ed5e" stroke-width="0.3" x1="26.266209847984243" x2="21.928928074336255" y1="57.711370442889674" y2="55.22380399835377" /><path d="M 25.398753493254645 57.213857153982495 a86.0,86.0 0 0,1 29.58750427330803,-30.492523968695096" fill="none" id="id83" stroke="none" /><text fill="#e1ed5e" style="font-size:6.75px; font-family:Arial;" text-anchor="middle"><textPath startOffset="21.46611528233685" xlink:href="#id83">November</textPath></text><line stroke="#e1ed5e" stroke-width="0.3" x1="56.762969772571076" x2="54.21961505331055" y1="26.818313649435495" y2="22.513508569990535" /><path d="M 56.25429882871897 25.957352633546506 a86.0,86.0 0 0,1 42.265352541879196,-11.944610805530505" fill="none" id="id84" stroke="none" /><text fill="#e1ed5e" style="font-size:6.75px; font-family:Arial;" text-anchor="middle"><textPath startOffset="22.20632615414155" xlink:href="#id84">December</textPath></text><path d="M 99.63851952072746 79.00311137660856 l -0.19448049636947315 -11.296558336730921 a32.29823229176286,32.29823229176286 0 0,0 0.5559609756420061,-0.0047853316404948415 l 2.7672688024261298e-15 11.298232291762858" fill="#ff5708" stroke="none" /></svg>