<?xml version="1.0" encoding="utf-8" ?>
<svg baseProfile="full" height="200mm" version="1.1" viewBox="0,0,200,200" width="200mm" xmlns="http://www.w3.org/2000/svg" xmlns:ev="http://www.w3.org/2001/xml-events" xmlns:xlink="http://www.w3.org/1999/xlink"><defs /><rect fill="#1a1a1a" height="200" width="200" x="0" y="0" /><rect fill="#1a1a1a" height="200" width="180" x="10" y="0" /><text alignment-baseline="middle" fill="#e1ed5e" style="dominant-baseline: central; font-size:9.0px; font-family:Arial;" text-anchor="middle" x="100.0" y="100.0">2025</text><line stroke="#e1ed5e" stroke-width="0.3" x1="100.0" x2="100.0" y1="15.0" y2="10.0" /><path d="M 100.0 14.0 a86.0,86.0 0 0,1 42.46469731375804,11.215312516191453" fill="none" id="id109" stroke="none" /><text fill="#e1ed5e" style="font-size:6.75px; font-family:Arial;" text-anchor="middle"><textPath startOffset="22.20632615414155" xlink:href="#id109">January</textPath></text><line stroke="#e1ed5e" stroke-width="0.3" x1="143.23703022742887" x2="145.7803849466894" y1="26.81831364943548" y2="22.513508569990506" /><path d="M 143.74570117128098 25.957352633546492 a86.0,86.0 0 0,1 28.547481713284135,27.462654790039103" fill="none" id="id110" stroke="none" /><text fill="#e1ed5e" style="font-size:6.75px; font-family:Arial;" text-anchor="middle"><textPath startOffset="19.985693538727396" xlink:href="#id110">February</textPath></text><line stroke="#e1ed5e" stroke-width="0.3" x1="172.23445277983987" x2="176.4835382374775" y1="55.19839476539836" y2="52.563006222186495" /><path d="M 173.08426987136738 54.67131705675599 a86.0,86.0 0 0,1 12.851231095245387,41.99856678651699" fill="none" id="id111" stroke="none" /><text fill="#e1ed5e" style="font-size:6.75px; font-family:Arial;" text-anchor="middle"><textPath startOffset="22.20632615414155" xlink:href="#id111">March</textPath></text><line stroke="#e1ed5e" stroke-width="0.3" x1="184.98032266829074" x2="189.97916517819016" y1="98.17113171792111" y2="98.06355123074" /><path d="M 185.9800911702706 98.14961562048488 a86.0,86.0 0 0,1 -9.607161424134198,41.387399972396054" fill="none" id="id112" stroke="none" /><text fill="#e1ed5e" style="font-size:6.75px; font-family:Arial;" text-anchor="middle"><textPath startOffset="21.466115282336823" xlink:href="#id112">April</textPath></text><line stroke="#e1ed5e" stroke-width="0.3" x1="174.80103733775053" x2="179.2010983576182" y1="140.37084112569926" y2="142.7455964860345" /><path d="M 175.68104954172406 140.8457921977663 a86.0,86.0 0 0,1 -30.038265399797805,32.042727171017184" fill="none" id="id113" stroke="none" /><text fill="#e1ed5e" style="font-size:6.75px; font-family:Arial;" text-anchor="middle"><textPath startOffset="22.206326154141568" xlink:href="#id113">May</textPath></text><line stroke="#e1ed5e" stroke-width="0.3" x1="143.8653032363475" x2="146.44561519142675" y1="172.8068346515853" y2="177.08958963109032" /><path d="M 144.38136562736335 173.6633856474863 a86.0,86.0 0 0,1 -40.68145358897372,12.25698825130547" fill="none" id="id114" stroke="none" /><text fill="#e1ed5e" style="font-size:6.75px; font-family:Arial;" text-anchor="middle"><textPath startOffset="21.466115282336833" xlink:href="#id114">June</textPath></text><line stroke="#e1ed5e" stroke-width="0.3" x1="102.19456741930631" x2="102.32365962044197" y1="184.97166512339345" y2="189.96999836594603" /><path d="M 102.22038585953345 185.97133177190398 a86.0,86.0 0 0,1 -42.740103519485714,-10.115201625700543" fill="none" id="id115" stroke="none" /><text fill="#e1ed5e" style="font-size:6.75px; font-family:Arial;" text-anchor="middle"><textPath startOffset="22.20632615414155" xlink:href="#id115">July</textPath></text><line stroke="#e1ed5e" stroke-width="0.3" x1="58.666819895761336" x2="56.23545636021788" y1="174.27360380694188" y2="178.64263932499728" /><path d="M 58.180547188652646 175.14741091055294 a86.0,86.0 0 0,1 -31.652253787137756,-30.449443065178592" fill="none" id="id116" stroke="none" /><text fill="#e1ed5e" style="font-size:6.75px; font-family:Arial;" text-anchor="middle"><textPath startOffset="22.20632615414155" xlink:href="#id116">August</textPath></text><path d="M 88.24862548938628 117.40417183066458 l -8.485063821823235 12.566658361180492 a36.1630211510451,36.1630211510451 0 0,0 -0.5129003276702659,-0.3527775222464882 l 8.700121034116393 -12.418740049568903" fill="#ff0000" stroke="none" /><path d="M 86.51685102203217 116.09983520530335 l -13.797538137724004 16.475238137561902 a42.489661010619095,42.489661010619095 0 0,0 -0.5566844110742432,-0.47441853212785695 l 14.079088025375304 -16.235295215211092" fill="#ff740a" stroke="none" /><path d="M 84.9287848128048 114.62390073753433 l -21.72677578743391 21.08192395342133 a51.27375602225902,51.27375602225902 0 0,0 -0.6091650577974929,-0.6387071276908636 l 22.08644739661036 -20.704809709147966" fill="#f9ff18" stroke="none" /><path d="M 84.19399662182784 113.82643327865904 l -16.135200829236968 14.114401494516676 a42.43737473078791,42.43737473078791 0 0,0 -0.47622310616485364,-0.5539550602463216 l 16.3757664449726 -13.834569335108823" fill="#ff730a" stroke="none" /><path d="M 83.50135304334701 112.99209946851258 l -24.667764257273696 19.42498968178024 a52.3979110386296,52.3979110386296 0 0,0 -0.5519076530361422,-0.7134150394495389 l 24.998478727527907 -18.99749664821745" fill="#e7ff1a" stroke="none" /><path d="M 83.06392112726016 112.41649034213515 l -17.265620512264434 12.658089983659877 a42.40861727688075,42.40861727688075 0 0,0 -0.426550330775531,-0.5924411023010036 l 17.48095063541557 -12.359015275907735" fill="#ff720a" stroke="none" /><path d="M 82.85270091963577 112.12312394758628 l -17.525779059318825 12.39070892846532 a42.4635178707035,42.4635178707035 0 0,0 -0.4168281453605398,-0.6004720319039689 l 17.7364681118415 -12.08719563437434" fill="#ff730a" stroke="none" /><path d="M 82.6465618267979 111.8261652097733 l -32.40524015561784 22.083792267431804 a60.21470987339251,60.21470987339251 0 0,0 -0.5763318901497965,-0.8615379780362257 l 32.78057515117837 -21.522717375189757" fill="#76ff27" stroke="none" /><path d="M 82.05923443525364 110.91462005526583 l -41.31912843101421 25.137310122675796 a69.36480884385077,69.36480884385077 0 0,0 -0.6117947214960753,-1.025403143594057 l 41.74570402820851 -24.422344885195628" fill="#35ff69" stroke="none" /><line stroke="#e1ed5e" stroke-width="0.3" x1="26.63291911575756" x2="22.317208475507996" y1="142.92168965132927" y2="145.44649492493687" /><path d="M 25.769776987707644 143.4266507060508 a86.0,86.0 0 0,1 -11.730757126820373,-40.83630448921669" fill="none" id="id117" stroke="none" /><text fill="#e1ed5e" style="font-size:6.75px; font-family:Arial;" text-anchor="middle"><textPath startOffset="21.46611528233685" xlink:href="#id117">September</textPath></text><path d="M 80.73074385275274 108.34839909993369 l -18.159307460089607 7.867514184084809 a40.790356916105424,40.790356916105424 0 0,0 -0.2735848451642409,-0.6466737583114799 l 18.292043286446155 -7.5537659001071695" fill="#ff5507" stroke="none" /><path d="M 80.45479744820244 107.68017299344265 l -28.273837396129284 11.110038988609512 a51.378328581921394,51.378328581921394 0 0,0 -0.3163577043127023,-0.8259101383218592 l 28.460889380035496 -10.621705283454494" fill="#f7ff18" stroke="none" /><path d="M 80.32549172779594 107.34259656027581 l -36.74102425499607 13.71188110946991 a60.216304604927366,60.216304604927366 0 0,0 -0.3540596528870436,-0.9742201021749889 l 36.97160816888834 -13.077413210288805" fill="#76ff27" stroke="none" /><path d="M 79.97269907076064 106.31721596034903 l -22.930158806654592 7.232865062473392 a45.04384578037273,45.04384578037273 0 0,0 -0.22687775937743546,-0.741449644704767 l 23.05126333853816 -6.837088445216577" fill="#ffa00e" stroke="none" /><path d="M 79.86692584326677 105.97154293290107 l -23.03777896355052 6.833088930610155 a45.02978077109814,45.02978077109814 0 0,0 -0.21401446096952956,-0.7450124146945208 l 23.151986061406152 -6.435519040411038" fill="#ff9f0e" stroke="none" /><path d="M 79.76711848015287 105.62410040840567 l -23.205586434723013 6.450418246990504 a45.085413372838524,45.085413372838524 0 0,0 -0.20140711225867852,-0.7495107899993684 l 23.313181623323466 -6.0500165238155965" fill="#ffa00e" stroke="none" /><path d="M 79.58551787078972 104.9243191809786 l -38.663875855328605 9.326382333889521 a60.77281362431063,60.77281362431063 0 0,0 -0.2365493044028094,-1.0190482122968267 l 38.81868572566197 -8.65946546424412" fill="#6eff28" stroke="none" /><path d="M 79.35854240842038 103.8639653848113 l -54.10160288569258 10.127517394818113 a76.04134848805508,76.04134848805508 0 0,0 -0.22976638528060228,-1.2886519093266713 l 54.26791571331237 -9.194746734758228" fill="#40ffc8" stroke="none" /><path d="M 79.23777060512086 103.15116336523772 l -47.816375551415824 7.257275123510278 a69.36397226337347,69.36397226337347 0 0,0 -0.16900349838637183,-1.1820100740892427 l 47.934213100818795 -6.4331195774406345" fill="#35ff69" stroke="none" /><path d="M 79.0235259727143 100.99374915477108 l -48.37149789166303 2.291573649714626 a69.42574850299403,69.42574850299403 0 0,0 -0.046276781154802424,-1.194198095350733 l 48.40377680566904 -1.4585983073498963" fill="#36ff6a" stroke="none" /><line stroke="#e1ed5e" stroke-width="0.3" x1="15.007084014347285" x2="10.007500721073583" y1="101.09737516637583" y2="101.16192664675087" /><path d="M 14.007167355692545 101.11028546245083 a86.0,86.0 0 0,1 10.666146001902534,-42.60595125391555" fill="none" id="id118" stroke="none" /><text fill="#e1ed5e" style="font-size:6.75px; font-family:Arial;" text-anchor="middle"><textPath startOffset="22.20632615414155" xlink:href="#id118">October</textPath></text><path d="M 79.08570108090925 98.10471618934814 l -62.742896757272284 -5.685851431955563 a84.0,84.0 0 0,0 0.1428914972710853,-1.4388978771822787 l 62.635728134318974 6.7650248398422725" fill="#4dd2ff" stroke="none" /><line stroke="#e1ed5e" stroke-width="0.3" x1="26.266209847984243" x2="21.928928074336255" y1="57.711370442889674" y2="55.22380399835377" /><path d="M 25.398753493254645 57.213857153982495 a86.0,86.0 0 0,1 29.58750427330803,-30.492523968695096" fill="none" id="id119" stroke="none" /><text fill="#e1ed5e" style="font-size:6.75px; font-family:Arial;" text-anchor="middle"><textPath startOffset="21.46611528233685" xlink:href="#id119">November</textPath></text><line stroke="#e1ed5e" stroke-width="0.3" x1="56.762969772571076" x2="54.21961505331055" y1="26.818313649435495" y2="22.513508569990535" /><path d="M 56.25429882871897 25.957352633546506 a86.0,86.0 0 0,1 42.265352541879196,-11.944610805530505" fill="none" id="id120" stroke="none" /><text fill="#e1ed5e" style="font-size:6.75px; font-family:Arial;" text-anchor="middle"><textPath startOffset="22.20632615414155" xlink:href="#id120">December</textPath></text></svg>