<?xml version="1.0" encoding="utf-8" ?>
<svg baseProfile="full" height="200mm" version="1.1" viewBox="0,0,200,200" width="200mm" xmlns="http://www.w3.org/2000/svg" xmlns:ev="http://www.w3.org/2001/xml-events" xmlns:xlink="http://www.w3.org/1999/xlink"><defs /><rect fill="#1a1a1a" height="200" width="200" x="0" y="0" /><rect fill="#1a1a1a" height="200" width="180" x="10" y="0" /><text alignment-baseline="middle" fill="#e1ed5e" style="dominant-baseline: central; font-size:9.0px; font-family:Arial;" text-anchor="middle" x="100.0" y="100.0">2025</text><line stroke="#e1ed5e" stroke-width="0.3" x1="100.0" x2="100.0" y1="15.0" y2="10.0" /><path d="M 100.0 14.0 a86.0,86.0 0 0,1 42.46469731375804,11.215312516191453" fill="none" id="id109" stroke="none" /><text fill="#e1ed5e" style="font-size:6.75px; font-family:Arial;" text-anchor="middle"><textPath startOffset="22.20632615414155" xlink:href="#id109">January</textPath></text><line stroke="#e1ed5e" stroke-width="0.3" x1="143.23703022742887" x2="145.7803849466894" y1="26.81831364943548" y2="22.513508569990506" /><path d="M 143.74570117128098 25.957352633546492 a86.0,86.0 0 0,1 28.547481713284135,27.462654790039103" fill="none" id="id110" stroke="none" /><text fill="#e1ed5e" style="font-size:6.75px; font-family:Arial;" text-anchor="middle"><textPath startOffset="19.985693538727396" xlink:href="#id110">February</textPath></text><line stroke="#e1ed5e" stroke-width="0.3" x1="172.23445277983987" x2="176.4835382374775" y1="55.19839476539836" y2="52.563006222186495" /><path d="M 173.08426987136738 54.67131705675599 a86.0,86.0 0 0,1 12.851231095245387,41.99856678651699" fill="none" id="id111" stroke="none" /><text fill="#e1ed5e" style="font-size:6.75px; font-family:Arial;" text-anchor="middle"><textPath startOffset="22.20632615414155" xlink:href="#id111">March</textPath></text><line stroke="#e1ed5e" stroke-width="0.3" x1="184.98032266829074" x2="189.97916517819016" y1="98.17113171792111" y2="98.06355123074" /><path d="M 185.9800911702706 98.14961562048488 a86.0,86.0 0 0,1 -9.607161424134198,41.387399972396054" fill="none" id="id112" stroke="none" /><text fill="#e1ed5e" style="font-size:6.75px; font-family:Arial;" text-anchor="middle"><textPath startOffset="21.466115282336823" xlink:href="#id112">April</textPath></text><line stroke="#e1ed5e" stroke-width="0.3" x1="174.80103733775053" x2="179.2010983576182" y1="140.37084112569926" y2="142.7455964860345" /><path d="M 175.68104954172406 140.8457921977663 a86.0,86.0 0 0,1 -30.038265399797805,32.042727171017184" fill="none" id="id113" stroke="none" /><text fill="#e1ed5e" style="font-size:6.75px; font-family:Arial;" text-anchor="middle"><textPath startOffset="22.206326154141568" xlink:href="#id113">May</textPath></text><line stroke="#e1ed5e" stroke-width="0.3" x1="143.8653032363475" x2="146.44561519142675" y1="172.8068346515853" y2="177.08958963109032" /><path d="M 144.38136562736335 173.6633856474863 a86.0,86.0 0 0,1 -40.68145358897372,12.25698825130547" fill="none" id="id114" stroke="none" /><text fill="#e1ed5e" style="font-size:6.75px; font-family:Arial;" text-anchor="middle"><textPath startOffset="21.466115282336833" xlink:href="#id114">June</textPath></text><line stroke="#e1ed5e" stroke-width="0.3" x1="102.19456741930631" x2="102.32365962044197" y1="184.97166512339345" y2="189.96999836594603" /><path d="M 102.22038585953345 185.97133177190398 a86.0,86.0 0 0,1 -42.740103519485714,-10.115201625700543" fill="none" id="id115" stroke="none" /><text fill="#e1ed5e" style="font-size:6.75px; font-family:Arial;" text-anchor="middle"><textPath startOffset="22.20632615414155" xlink:href="#id115">July</textPath></text><line stroke="#e1ed5e" stroke-width="0.3" x1="58.666819895761336" x2="56.23545636021788" y1="174.27360380694188" y2="178.64263932499728" /><path d="M 58.180547188652646 175.14741091055294 a86.0,86.0 0 0,1 -31.652253787137756,-30.449443065178592" fill="none" id="id116" stroke="none" /><text fill="#e1ed5e" style="font-size:6.75px; font-family:Arial;" text-anchor="middle"><textPath startOffset="22.20632615414155" xlink:href="#id116">August</textPath></text><path d="M 88.24862548938628 117.40417183066458 l -6.7589588779648535 10.010240215070192 a33.07842846886251,33.07842846886251 0 0,0 -0.4691515327116613,-0.32268670215114953 l 6.930267295299405 -9.89241272355394" fill="#ff0000" stroke="none" /><path d="M 86.51685102203217 116.09983520530335 l -10.990723799881756 13.123702946117797 a38.118048623112045,38.118048623112045 0 0,0 -0.49940910198726274,-0.4256072711626372 l 11.214998378446076 -12.932571284732209" fill="#ff5708" stroke="none" /><path d="M 84.9287848128048 114.62390073753433 l -17.30692746474517 16.793256958548 a45.11520718438412,45.11520718438412 0 0,0 -0.5359975536040393,-0.5619912920638547 l 17.593431569728164 -16.492858549901644" fill="#ffc812" stroke="none" /><path d="M 84.19399662182784 113.82643327865904 l -12.85283896298181 11.243128076793296 a38.07639886977114,38.07639886977114 0 0,0 -0.42728517153487156,-0.49702918626972825 l 13.04446664408746 -11.020221791362037" fill="#ff5708" stroke="none" /><path d="M 83.50135304334701 112.99209946851258 l -19.649634667145992 15.473390562645475 a46.010676881213584,46.010676881213584 0 0,0 -0.48463086006222234,-0.6264507155277895 l 19.913072344426283 -15.132861853004433" fill="#ffd614" stroke="none" /><path d="M 83.06392112726016 112.41649034213515 l -13.753298913886809 10.083072027471454 a38.05349150543364,38.05349150543364 0 0,0 -0.3827460179338453,-0.5316007429973718 l 13.924824724196261 -9.844837679022945" fill="#ff5608" stroke="none" /><path d="M 82.85270091963577 112.12312394758628 l -13.960533763054258 9.870083935129854 a38.09722374644159,38.09722374644159 0 0,0 -0.3739679591777467,-0.5387287370439175 l 14.128362629394138 -9.628313935898925" fill="#ff5708" stroke="none" /><path d="M 82.6465618267979 111.8261652097733 l -25.813086411804143 17.59131656985187 a52.23731500567891,52.23731500567891 0 0,0 -0.49997800465823405,-0.7473992790575649 l 26.112067521873108 -17.144380376588483" fill="#ccff1d" stroke="none" /><path d="M 82.05923443525364 110.91462005526583 l -32.9136345704662 20.023661458483577 a59.52602184033732,59.52602184033732 0 0,0 -0.5250170304016764,-0.8799587418763779 l 33.253432476566104 -19.454140622721088" fill="#6bff28" stroke="none" /><line stroke="#e1ed5e" stroke-width="0.3" x1="26.63291911575756" x2="22.317208475507996" y1="142.92168965132927" y2="145.44649492493687" /><path d="M 25.769776987707644 143.4266507060508 a86.0,86.0 0 0,1 -11.730757126820373,-40.83630448921669" fill="none" id="id117" stroke="none" /><text fill="#e1ed5e" style="font-size:6.75px; font-family:Arial;" text-anchor="middle"><textPath startOffset="21.46611528233685" xlink:href="#id117">September</textPath></text><path d="M 80.73074385275274 108.34839909993369 l -14.465184346567773 6.267036519544778 a36.764431639532624,36.764431639532624 0 0,0 -0.24658257730717567,-0.582848373438356 l 14.570917905067255 -6.017113620440263" fill="#ff4006" stroke="none" /><path d="M 80.45479744820244 107.68017299344265 l -22.522129272757727 8.849938931922186 a45.19850669106593,45.19850669106593 0 0,0 -0.27830597471361335,-0.726569079677985 l 22.67112952706485 -8.460946285411042" fill="#ffca12" stroke="none" /><path d="M 80.32549172779594 107.34259656027581 l -29.266847873922917 10.922491863889823 a52.23858532315581,52.23858532315581 0 0,0 -0.30715228222944296,-0.8451511640393382 l 29.450524417157585 -10.417092902844368" fill="#ccff1d" stroke="none" /><path d="M 79.97269907076064 106.31721596034903 l -18.265507920019356 5.761493201900487 a40.152639073815266,40.152639073815266 0 0,0 -0.202241629868281,-0.6609373480319363 l 18.361976322393765 -5.446228881316503" fill="#ff790b" stroke="none" /><path d="M 79.86692584326677 105.97154293290107 l -18.351235055392085 5.443042982503686 a40.14143529016656,40.14143529016656 0 0,0 -0.19078146704374335,-0.6641353149563987 l 18.44220915932193 -5.126350192042691" fill="#ff790b" stroke="none" /><path d="M 79.76711848015287 105.62410040840567 l -18.484905681905577 5.1382184733779335 a40.185750627721276,40.185750627721276 0 0,0 -0.17951917000172665,-0.6680576143468703 l 18.570612928249076 -4.819269925855525" fill="#ff7a0b" stroke="none" /><path d="M 79.58551787078972 104.9243191809786 l -30.79853639954722 7.429129114245375 a52.681884472839734,52.681884472839734 0 0,0 -0.2050565439296092,-0.8833782244203978 l 30.921853509407384 -6.897882232476403" fill="#c6ff1e" stroke="none" /><path d="M 79.35854240842038 103.8639653848113 l -43.09578770590871 8.067290363968146 a64.84436214394418,64.84436214394418 0 0,0 -0.19593359391806148,-1.098899647985465 l 43.22826774216596 -7.324271965249468" fill="#30ff36" stroke="none" /><path d="M 79.23777060512086 103.15116336523772 l -38.08915558349895 5.780937557561382 a59.525355444283875,59.525355444283875 0 0,0 -0.14503196666100185,-1.014353237033957 l 38.183021601176556 -5.124438848547023" fill="#6bff28" stroke="none" /><path d="M 79.0235259727143 100.99374915477108 l -38.53135014428944 1.825401952123543 a59.57456462785615,59.57456462785615 0 0,0 -0.039710325767060885,-1.0247470591817507 l 38.557062602907706 -1.1618776459277953" fill="#6aff28" stroke="none" /><line stroke="#e1ed5e" stroke-width="0.3" x1="15.007084014347285" x2="10.007500721073583" y1="101.09737516637583" y2="101.16192664675087" /><path d="M 14.007167355692545 101.11028546245083 a86.0,86.0 0 0,1 10.666146001902534,-42.60595125391555" fill="none" id="id118" stroke="none" /><text fill="#e1ed5e" style="font-size:6.75px; font-family:Arial;" text-anchor="middle"><textPath startOffset="22.20632615414155" xlink:href="#id118">October</textPath></text><path d="M 79.08570108090925 98.10471618934814 l -49.97919496799657 -4.529186441233796 a71.1839960492234,71.1839960492234 0 0,0 0.12109033068110181,-1.2193631048164197 l 49.89382751163324 5.388825076754647" fill="#3aff8f" stroke="none" /><path d="M 79.32604984820605 96.31383870115002 l -57.41277493050331 -10.236686625175103 a79.31823452645551,79.31823452645551 0 0,0 0.2512283309654766,-1.3420717897245105 l 57.22806087562797 11.223436492362186" fill="#46fff6" stroke="none" /><path d="M 79.46518482838121 95.60439243477599 l -18.756742808348857 -4.014999886694367 a40.1816481270172,40.1816481270172 0 0,0 0.15059624986215794,-0.6750934591749362 l 18.68485217148466 4.337271515419263" fill="#ff7a0b" stroke="none" /><path d="M 80.02781315780177 93.51064311812611 l -18.217103925059085 -5.919095873573479 a40.15459661222229,40.15459661222229 0 0,0 0.21924927214572515,-0.6555274171416192 l 18.112517359141588 6.2317963936374206" fill="#ff790b" stroke="none" /><path d="M 80.38941819471856 92.48833698450439 l -29.182197013754053 -11.177987078388828 a52.24976828192784,52.24976828192784 0 0,0 0.3289407801932329,-0.8371184063057334 l 28.985462683679128 11.678654489590325" fill="#ccff1d" stroke="none" /><path d="M 80.803312248108 91.48605970444005 l -52.60294928561965 -23.32998147266279 a78.54440293425819,78.54440293425819 0 0,0 0.558778657803576,-1.2311947035522885 l 52.19356831085272 24.23199818505715" fill="#45ffed" stroke="none" /><line stroke="#e1ed5e" stroke-width="0.3" x1="26.266209847984243" x2="21.928928074336255" y1="57.711370442889674" y2="55.22380399835377" /><path d="M 25.398753493254645 57.213857153982495 a86.0,86.0 0 0,1 29.58750427330803,-30.492523968695096" fill="none" id="id119" stroke="none" /><text fill="#e1ed5e" style="font-size:6.75px; font-family:Arial;" text-anchor="middle"><textPath startOffset="21.46611528233685" xlink:href="#id119">November</textPath></text><path d="M 81.78341655067845 89.55222093294921 l -54.64975034796462 -31.34333720115236 a84.0,84.0 0 0,0 0.7301613021187001,-1.2480823505844327 l 54.1021293713756 32.27939896409068" fill="#4dd2ff" stroke="none" /><path d="M 82.95767976084542 87.72973835380427 l -23.676640538307776 -17.0468909298217 a50.17498581925065,50.17498581925065 0 0,0 0.5106795421986727,-0.6965663216457829 l 23.37969838359547 17.451919695138983" fill="#eaff1a" stroke="none" /><path d="M 83.6137871275137 86.86637796730984 l -45.56288615543384 -36.518854609092024 a79.39180881573225,79.39180881573225 0 0,0 0.8638641919608367,-1.0589953548921531 l 44.927523471396604 37.297734133592265" fill="#46fff7" stroke="none" /><line stroke="#e1ed5e" stroke-width="0.3" x1="56.762969772571076" x2="54.21961505331055" y1="26.818313649435495" y2="22.513508569990535" /><path d="M 56.25429882871897 25.957352633546506 a86.0,86.0 0 0,1 42.265352541879196,-11.944610805530505" fill="none" id="id120" stroke="none" /><text fill="#e1ed5e" style="font-size:6.75px; font-family:Arial;" text-anchor="middle"><textPath startOffset="22.20632615414155" xlink:href="#id120">December</textPath></text></svg>