<?xml version="1.0" encoding="utf-8" ?>
<svg baseProfile="full" height="200mm" version="1.1" viewBox="0,0,200,200" width="200mm" xmlns="http://www.w3.org/2000/svg" xmlns:ev="http://www.w3.org/2001/xml-events" xmlns:xlink="http://www.w3.org/1999/xlink"><defs /><rect fill="#1a1a1a" height="200" width="200" x="0" y="0" /><rect fill="#1a1a1a" height="200" width="180" x="10" y="0" /><text alignment-baseline="middle" fill="#e1ed5e" style="dominant-baseline: central; font-size:9.0px; font-family:Arial;" text-anchor="middle" x="100.0" y="100.0">2022</text><line stroke="#e1ed5e" stroke-width="0.3" x1="100.0" x2="100.0" y1="15.0" y2="10.0" /><path d="M 100.0 14.0 a86.0,86.0 0 0,1 42.46469731375804,11.215312516191453" fill="none" id="id73" stroke="none" /><text fill="#e1ed5e" style="font-size:6.75px; font-family:Arial;" text-anchor="middle"><textPath startOffset="22.20632615414155" xlink:href="#id73">January</textPath></text><path d="M 100.36148047927253 79.00311137660856 l 0.28294004041086435 -16.434803139468677 a37.437238493723854,37.437238493723854 0 0,0 0.6442295639756765,0.016638548975141883 l -0.5657962395814087 16.427497798351176" fill="#ffa10e" stroke="none" /><path d="M 109.73455568895987 81.39251694778311 l 5.2367603825845075 -10.010002837414948 a32.29707112970711,32.29707112970711 0 0,0 0.49038481487307556,0.2619465850035784 l -5.408290243985895 9.918377525909616" fill="#ff5708" stroke="none" /><line stroke="#e1ed5e" stroke-width="0.3" x1="143.23703022742887" x2="145.7803849466894" y1="26.81831364943548" y2="22.513508569990506" /><path d="M 143.74570117128098 25.957352633546492 a86.0,86.0 0 0,1 28.547481713284135,27.462654790039103" fill="none" id="id74" stroke="none" /><text fill="#e1ed5e" style="font-size:6.75px; font-family:Arial;" text-anchor="middle"><textPath startOffset="19.985693538727396" xlink:href="#id74">February</textPath></text><path d="M 111.2981086023043 82.29822771554956 l 10.139934289515777 -15.887155460312215 a39.84728033472803,39.84728033472803 0 0,0 0.5750018987733428,0.37399722968056087 l -10.4119032140734 15.710259306472125" fill="#ffc312" stroke="none" /><path d="M 111.90073688211348 82.69761687909136 l 14.948833567101886 -21.733985731374478 a47.37866108786611,47.37866108786611 0 0,0 0.6679688664922352,0.46795487805590263 l -15.320733573177773 21.47344601055464" fill="#d7ff1c" stroke="none" /><path d="M 112.77801427241765 83.33499621200491 l 16.050805136572436 -20.93335652150131 a47.37866108786611,47.37866108786611 0 0,0 0.6429226661988824,0.5018113388385778 l -16.40876035793075 20.65396679343951" fill="#d7ff1c" stroke="none" /><path d="M 113.06298171725822 83.55741782278167 l 13.42215515359646 -16.89467947557579 a42.57740585774059,42.57740585774059 0 0,0 0.5699220992643431,0.46083736884642695 l -13.710980651425293 16.66113600946523" fill="#ffe815" stroke="none" /><path d="M 113.34407831869373 83.78471172551755 l 11.102783633963936 -13.491740154261546 a38.47280334728033,38.47280334728033 0 0,0 0.5077355942739422,0.42521395851042654 l -11.333376765196995 13.2986250383573" fill="#ffb010" stroke="none" /><path d="M 114.16331599549186 84.49514656593476 l 21.99419901750618 -24.077471142678714 a53.61087866108787,53.61087866108787 0 0,0 0.675987524394626,0.6282567321429829 l -22.405394425695654 23.69530982446109" fill="#8bff24" stroke="none" /><path d="M 114.94478906791727 85.2469230424477 l 27.549150917786523 -27.19574975319264 a59.71129707112971,59.71129707112971 0 0,0 0.7157841587353916,0.737678494780697 l -28.01319934022502 26.71750706286183" fill="#47ff2c" stroke="none" /><path d="M 115.9244219780498 86.31012108654704 l 26.528011986147533 -22.80555441230927 a55.98326359832636,55.98326359832636 0 0,0 0.6219191057067885,0.7361560577729735 l -26.91664170534144 22.345539404907193" fill="#70ff27" stroke="none" /><path d="M 116.15771136456269 86.58626213691792 l 11.603998926791437 -9.633356869392173 a36.08158995815899,36.08158995815899 0 0,0 0.3926046530342873,0.4812868825233198 l -11.768102071902133 9.432185817260752" fill="#ff8e0d" stroke="none" /><path d="M 116.60985879189232 87.15038557335679 l 22.666053569569733 -17.534769716692434 a49.65690376569037,49.65690376569037 0 0,0 0.5171980755967764,0.6805720422083869 l -22.964527585390623 17.142012898603017" fill="#bbff1f" stroke="none" /><path d="M 117.45458315368197 88.32363383020206 l 38.01301477611491 -25.42907360409969 a66.73430962343096,66.73430962343096 0 0,0 0.6304910269692721,0.9602810895772242 l -38.4451024384421 24.77097445054479" fill="#36ff6d" stroke="none" /><line stroke="#e1ed5e" stroke-width="0.3" x1="172.23445277983987" x2="176.4835382374775" y1="55.19839476539836" y2="52.563006222186495" /><path d="M 173.08426987136738 54.67131705675599 a86.0,86.0 0 0,1 12.851231095245387,41.99856678651699" fill="none" id="id75" stroke="none" /><text fill="#e1ed5e" style="font-size:6.75px; font-family:Arial;" text-anchor="middle"><textPath startOffset="22.20632615414155" xlink:href="#id75">March</textPath></text><path d="M 117.84615892207809 88.93136811851018 l 13.248612899713674 -8.21711942427397 a36.58995815899581,36.58995815899581 0 0,0 0.327365479973495,0.5381027741191617 l -13.388094177973393 7.9878488769477265" fill="#ff950d" stroke="none" /><path d="M 118.03404312379186 89.2402003453031 l 18.772436401723567 -11.20035331658975 a42.85983263598327,42.85983263598327 0 0,0 0.37255465721522263,0.636816674547295 l -18.962450733409117 10.87555722968856" fill="#ffec16" stroke="none" /><path d="M 118.3937258080291 89.86733742301442 l 19.113862712049368 -10.529368732868765 a42.82217573221757,42.82217573221757 0 0,0 0.3501057498602554,0.6486927826427478 l -19.292276561128087 10.198794966893558" fill="#ffec16" stroke="none" /><path d="M 118.56541770881063 90.18545643968196 l 46.607743202035074 -24.639021490338195 a73.71966527196653,73.71966527196653 0 0,0 0.5834053789902192,1.126953498006572 l -47.02495801418541 23.83309527007128" fill="#3fffc0" stroke="none" /><path d="M 119.04729006885535 91.15688171328212 l 17.829083232413318 -8.277539292887148 a40.65690376569037,40.65690376569037 0 0,0 0.28924034390658643,0.6373027575376919 l -17.968925893283252 7.969414526507395" fill="#ffce13" stroke="none" /><path d="M 119.196687751892 91.48605970444005 l 24.199530465475338 -10.732755578802106 a47.47280334728033,47.47280334728033 0 0,0 0.3248706128959841,0.7498461656745178 l -24.380691788214005 10.314610268540985" fill="#d6ff1c" stroke="none" /><path d="M 119.34039704204932 91.81776055985345 l 30.345811258445597 -12.838241799393119 a53.94979079497908,53.94979079497908 0 0,0 0.3544714822254176,0.8583808106346104 l -30.562304427557212 12.313986418305205" fill="#87ff25" stroke="none" /><path d="M 119.61058180528143 92.48833698450437 l 58.83174541584429 -22.534989046486903 a84.0,84.0 0 0,0 0.505581645993499,1.354707451882667 l -59.21093165033941 21.518958457574904" fill="#4dd2ff" stroke="none" /><path d="M 120.18372546131832 94.20196356495316 l 5.44707235253151 -1.5647420504624328 a26.6673640167364,26.6673640167364 0 0,0 0.12294064909250543,0.4422829264114983 l -5.4731997721903785 1.4707478206319826" fill="#ff0000" stroke="none" /><path d="M 120.37134235888165 94.90015583598534 l 20.96799255349325 -5.2492119847180065 a42.61506276150628,42.61506276150628 0 0,0 0.17201712080963422,0.7131220194359332 l -21.055242474563705 4.887504733622667" fill="#ffe915" stroke="none" /><path d="M 120.45610955862082 95.25157060432595 l 22.045645866224366 -5.117404782068332 a43.63179916317992,43.63179916317992 0 0,0 0.16352702377819328,0.7330595831705473 l -22.1304672770046 4.737167029347821" fill="#fff617" stroke="none" /><path d="M 120.53481517161879 95.60439243477599 l 9.224096593826374 -1.9744764406849071 a30.43305439330544,30.43305439330544 0 0,0 0.10524142083328751,0.5131945437129756 l -9.25671731057466 1.8154062408085199" fill="#ff3a05" stroke="none" /><line stroke="#e1ed5e" stroke-width="0.3" x1="184.98032266829074" x2="189.97916517819016" y1="98.17113171792111" y2="98.06355123074" /><path d="M 185.9800911702706 98.14961562048488 a86.0,86.0 0 0,1 -9.607161424134198,41.387399972396054" fill="none" id="id76" stroke="none" /><text fill="#e1ed5e" style="font-size:6.75px; font-family:Arial;" text-anchor="middle"><textPath startOffset="21.466115282336823" xlink:href="#id76">April</textPath></text><path d="M 120.99513854157772 99.54816195383933 l 12.085067791715085 -0.26008370499266154 a33.08786610878661,33.08786610878661 0 0,0 0.007353373124747046,0.5695268522131622 l -12.087754171957547 0.05202059471903662" fill="#ff6209" stroke="none" /><path d="M 120.02730092923936 106.31721596034902 l 10.791758390740755 3.4040467353584227 a32.31589958158996,32.31589958158996 0 0,0 -0.17190173326878191,0.5290591344932255 l -10.731564406455727 -3.5893047698294436" fill="#ff5708" stroke="none" /><path d="M 119.9155931802556 106.66101706037122 l 10.89227002984691 3.6430547580631623 a32.48535564853557,32.48535564853557 0 0,0 -0.18193217544466153,0.5287800624057925 l -10.827947023459018 -3.830007523558255" fill="#ff5908" stroke="none" /><path d="M 119.67450827220406 107.3425965602758 l 15.96422294053617 5.957904859877099 a38.03974895397489,38.03974895397489 0 0,0 -0.234226530598851,0.6114915604974044 l -15.859302130343812 -6.231819987207647" fill="#ffaa0f" stroke="none" /><path d="M 119.41010516605496 108.01547362559984 l 24.398954670779187 10.07563719942406 a47.39748953974895,47.39748953974895 0 0,0 -0.31789951883911627,0.7514205565359036 l -24.221904170747763 -10.494132281626127" fill="#d7ff1c" stroke="none" /><path d="M 119.26925614724726 108.34839909993367 l 16.853400512528133 7.3017304142127575 a39.36715481171548,39.36715481171548 0 0,0 -0.2747432145914796,0.619473418813394 l -16.725216213205382 -7.590752169518839" fill="#ffbd11" stroke="none" /><path d="M 119.12269723197855 108.67885076344098 l 16.150849485227543 7.330075390760376 a38.73640167364017,38.73640167364017 0 0,0 -0.2807935041436225,0.6048042273625396 l -16.02228136424409 -7.606999685401746" fill="#ffb410" stroke="none" /><path d="M 118.97047184881838 109.00673069616215 l 15.852193451672502 7.526245973242495 a38.54811715481172,38.54811715481172 0 0,0 -0.2897473693581664,0.5969654012137712 l -15.720292825699621 -7.798000330421541" fill="#ffb110" stroke="none" /><path d="M 118.81262510543309 109.33194174019688 l 41.47660950471605 20.574337781659406 a67.29916317991632,67.29916317991632 0 0,0 -0.5237199413872795,1.0333491296808157 l -41.1163108935425 -21.285241123042915" fill="#37ff74" stroke="none" /><line stroke="#e1ed5e" stroke-width="0.3" x1="174.80103733775053" x2="179.2010983576182" y1="140.37084112569926" y2="142.7455964860345" /><path d="M 175.68104954172406 140.8457921977663 a86.0,86.0 0 0,1 -30.038265399797805,32.042727171017184" fill="none" id="id77" stroke="none" /><text fill="#e1ed5e" style="font-size:6.75px; font-family:Arial;" text-anchor="middle"><textPath startOffset="22.206326154141568" xlink:href="#id77">May</textPath></text><path d="M 118.48025628344425 109.97397251340804 l 19.48545850806674 10.51648984677334 a43.14225941422594,43.14225941422594 0 0,0 -0.3583346567335096,0.6504814873082749 l -19.30154744188172 -10.850341852479419" fill="#fff016" stroke="none" /><path d="M 118.30583269289576 110.29060199501025 l 8.879368338484703 4.991526311387216 a31.186192468619247,31.186192468619247 0 0,0 -0.26708449824232694,0.4656843353048512 l -8.792131844089997 -5.143630492550383" fill="#ff4606" stroke="none" /><line stroke="#e1ed5e" stroke-width="0.3" x1="143.8653032363475" x2="146.44561519142675" y1="172.8068346515853" y2="177.08958963109032" /><path d="M 144.38136562736335 173.6633856474863 a86.0,86.0 0 0,1 -40.68145358897372,12.25698825130547" fill="none" id="id78" stroke="none" /><text fill="#e1ed5e" style="font-size:6.75px; font-family:Arial;" text-anchor="middle"><textPath startOffset="21.466115282336833" xlink:href="#id78">June</textPath></text><line stroke="#e1ed5e" stroke-width="0.3" x1="102.19456741930631" x2="102.32365962044197" y1="184.97166512339345" y2="189.96999836594603" /><path d="M 102.22038585953345 185.97133177190398 a86.0,86.0 0 0,1 -42.740103519485714,-10.115201625700543" fill="none" id="id79" stroke="none" /><text fill="#e1ed5e" style="font-size:6.75px; font-family:Arial;" text-anchor="middle"><textPath startOffset="22.20632615414155" xlink:href="#id79">July</textPath></text><line stroke="#e1ed5e" stroke-width="0.3" x1="58.666819895761336" x2="56.23545636021788" y1="174.27360380694188" y2="178.64263932499728" /><path d="M 58.180547188652646 175.14741091055294 a86.0,86.0 0 0,1 -31.652253787137756,-30.449443065178592" fill="none" id="id80" stroke="none" /><text fill="#e1ed5e" style="font-size:6.75px; font-family:Arial;" text-anchor="middle"><textPath startOffset="22.20632615414155" xlink:href="#id80">August</textPath></text><path d="M 88.24862548938628 117.40417183066458 l -5.278635950224868 7.817833311861585 a30.43305439330544,30.43305439330544 0 0,0 -0.4316321776639585,-0.2968805476295949 l 5.412425012511717 -7.725811974866889" fill="#ff3a05" stroke="none" /><line stroke="#e1ed5e" stroke-width="0.3" x1="26.63291911575756" x2="22.317208475507996" y1="142.92168965132927" y2="145.44649492493687" /><path d="M 25.769776987707644 143.4266507060508 a86.0,86.0 0 0,1 -11.730757126820373,-40.83630448921669" fill="none" id="id81" stroke="none" /><text fill="#e1ed5e" style="font-size:6.75px; font-family:Arial;" text-anchor="middle"><textPath startOffset="21.46611528233685" xlink:href="#id81">September</textPath></text><line stroke="#e1ed5e" stroke-width="0.3" x1="15.007084014347285" x2="10.007500721073583" y1="101.09737516637583" y2="101.16192664675087" /><path d="M 14.007167355692545 101.11028546245083 a86.0,86.0 0 0,1 10.666146001902534,-42.60595125391555" fill="none" id="id82" stroke="none" /><text fill="#e1ed5e" style="font-size:6.75px; font-family:Arial;" text-anchor="middle"><textPath startOffset="22.20632615414155" xlink:href="#id82">October</textPath></text><line stroke="#e1ed5e" stroke-width="0.3" x1="26.266209847984243" x2="21.928928074336255" y1="57.711370442889674" y2="55.22380399835377" /><path d="M 25.398753493254645 57.213857153982495 a86.0,86.0 0 0,1 29.58750427330803,-30.492523968695096" fill="none" id="id83" stroke="none" /><text fill="#e1ed5e" style="font-size:6.75px; font-family:Arial;" text-anchor="middle"><textPath startOffset="21.46611528233685" xlink:href="#id83">November</textPath></text><line stroke="#e1ed5e" stroke-width="0.3" x1="56.762969772571076" x2="54.21961505331055" y1="26.818313649435495" y2="22.513508569990535" /><path d="M 56.25429882871897 25.957352633546506 a86.0,86.0 0 0,1 42.265352541879196,-11.944610805530505" fill="none" id="id84" stroke="none" /><text fill="#e1ed5e" style="font-size:6.75px; font-family:Arial;" text-anchor="middle"><textPath startOffset="22.20632615414155" xlink:href="#id84">December</textPath></text><path d="M 99.63851952072746 79.00311137660856 l -0.19446050887345298 -11.295397346713866 a32.29707112970711,32.29707112970711 0 0,0 0.5559409881459859,-0.004785159601806318 l 2.766984399747158e-15 11.297071129707113" fill="#ff5708" stroke="none" /></svg>