<?xml version="1.0" encoding="utf-8" ?>
<svg baseProfile="full" height="200mm" version="1.1" viewBox="0,0,200,200" width="200mm" xmlns="http://www.w3.org/2000/svg" xmlns:ev="http://www.w3.org/2001/xml-events" xmlns:xlink="http://www.w3.org/1999/xlink"><defs /><rect fill="#1a1a1a" height="200" width="200" x="0" y="0" /><rect fill="#1a1a1a" height="200" width="180" x="10" y="0" /><text alignment-baseline="middle" fill="#e1ed5e" style="dominant-baseline: central; font-size:9.0px; font-family:Arial;" text-anchor="middle" x="100.0" y="100.0">2020</text><line stroke="#e1ed5e" stroke-width="0.3" x1="100.0" x2="100.0" y1="15.0" y2="10.0" /><path d="M 100.0 14.0 a86.0,86.0 0 0,1 42.35913384403234,11.155469271406648" fill="none" id="id49" stroke="none" /><text fill="#e1ed5e" style="font-size:6.75px; font-family:Arial;" text-anchor="middle"><textPath startOffset="22.145653131862478" xlink:href="#id49">January</textPath></text><path d="M 100.0 79.0 l 0.0 -19.497754696173388 a40.49775469617339,40.49775469617339 0 0,0 0.6951978114397613,0.005967437095738422 l -0.3347048865909066 19.494881657272085" fill="#ffe215" stroke="none" /><path d="M 103.58742460773223 79.30868818359171 l 6.687152878108396 -38.56972075920511 a60.145132175766776,60.145132175766776 0 0,0 1.01578044422502,0.18510903436472206 l -7.3482680558844695 38.449243550909024" fill="#39ff2e" stroke="none" /><path d="M 105.3480935250658 79.69241777938227 l 4.939502427316094 -18.756095270497013 a40.39561275199683,40.39561275199683 0 0,0 0.669064068370676,0.1823563870301854 l -5.260747896621463 18.668538389322688" fill="#ffe015" stroke="none" /><line stroke="#e1ed5e" stroke-width="0.3" x1="143.13028292997686" x2="145.6673583964461" y1="26.7553504044142" y2="22.446841604673864" /><path d="M 143.63769802327073 25.89364864446614 a86.0,86.0 0 0,1 29.32050498858742,28.57503671076993" fill="none" id="id50" stroke="none" /><text fill="#e1ed5e" style="font-size:6.75px; font-family:Arial;" text-anchor="middle"><textPath startOffset="20.669276256404974" xlink:href="#id50">February</textPath></text><path d="M 111.5731344415666 82.4767994020092 l 2.732558240740142 -4.13744145459876 a25.958356212422537,25.958356212422537 0 0,0 0.3697257475255169,0.24876798327102143 l -2.8031802763626597 4.08992379727062" fill="#ff1602" stroke="none" /><path d="M 113.59037401385872 83.9905735841838 l 6.2838900948699905 -7.402406731139956 a30.709938214923476,30.709938214923476 0 0,0 0.39896672953551626,0.34461795866631617 l -6.410036304168367 7.29344464000892" fill="#ff5c08" stroke="none" /><path d="M 114.13192950727249 84.46653392183569 l 7.902583796661341 -8.686323921451674 a32.743213100835646,32.743213100835646 0 0,0 0.4125180656192222,0.3818205630000277 l -8.050531633594527 8.549385612319272" fill="#ff790b" stroke="none" /><path d="M 114.39649973595853 84.71141617570332 l 10.85772253421725 -11.530525068584186 a36.838028506960626,36.838028506960626 0 0,0 0.45666439937332515,0.43747416443301046 l -11.054059419455887 11.342438773845595" fill="#ffb110" stroke="none" /><path d="M 114.91283532996326 85.21462403516908 l 13.965612689349939 -13.846249195575414 a40.666137256078144,40.666137256078144 0 0,0 0.48724461332580815,0.49995589717990274 l -14.201244103826559 13.604470606327768" fill="#ffe415" stroke="none" /><path d="M 115.16444852881244 85.47280134310134 l 11.210771946586199 -10.739665926908469 a36.52487783719933,36.52487783719933 0 0,0 0.42985288004569444,0.4564888625170006 l -11.393480660368153 10.545635604446973" fill="#ffad10" stroke="none" /><path d="M 115.6541949942343 86.00192230759917 l 8.694330321743866 -7.774523785604592 a32.66338715110351,32.66338715110351 0 0,0 0.3701678455047514,0.42118305741024004 l -8.826509231207208 7.624128450383054" fill="#ff780b" stroke="none" /><path d="M 116.1254893667686 86.54754324733833 l 14.899181612239861 -12.429427208687143 a40.40299650699754,40.40299650699754 0 0,0 0.4397253982840432,0.5363934875568849 l -15.110353829762532 12.171831439431761" fill="#ffe015" stroke="none" /><path d="M 116.35404254752997 86.82634096563983 l 18.122976757145512 -14.598587217343905 a44.271463969471995,44.271463969471995 0 0,0 0.4716672692673129,0.5959361865652212 l -18.370910457054382 14.285331086864005" fill="#ecff1a" stroke="none" /><path d="M 116.7966241395341 87.39550010848427 l 23.438157155741457 -17.5884300840863 a50.30358482643423,50.30358482643423 0 0,0 0.5123731048603805,0.6951325208471032 l -23.736632280185663 17.183491253970324" fill="#a4ff21" stroke="none" /><path d="M 117.21940702142032 87.97951657250589 l 24.012237002182893 -16.76240631182852 a50.28422427198354,50.28422427198354 0 0,0 0.4880209991861994,0.7120372224969272 l -24.296447738184415 16.347734354261547" fill="#a4ff21" stroke="none" /><line stroke="#e1ed5e" stroke-width="0.3" x1="172.87174338648825" x2="177.1583165268699" y1="56.24261187166439" y2="53.66864786411523" /><path d="M 173.72905801456457 55.72781907015455 a86.0,86.0 0 0,1 12.242430191666344,42.057860355516425" fill="none" id="id51" stroke="none" /><text fill="#e1ed5e" style="font-size:6.75px; font-family:Arial;" text-anchor="middle"><textPath startOffset="22.145653131862474" xlink:href="#id51">March</textPath></text><path d="M 118.00360718960297 89.18935116829356 l 5.437077907116243 -3.2648090632863527 a27.341986627845273,27.341986627845273 0 0,0 0.2381699129292019,0.4044645810701588 l -5.492321530175213 3.1709933139226374" fill="#ff2b04" stroke="none" /><path d="M 118.18653347947321 89.5 l 10.084257804260007 -5.822148957867101 a32.6442979157342,32.6442979157342 0 0,0 0.2760256253398396,0.4877108317109084 l -10.182716794621223 5.648181356057075" fill="#ff770b" stroke="none" /><path d="M 118.36410011445183 89.81374322990088 l 16.961026227551777 -9.407995336633197 a40.395535232259284,40.395535232259284 0 0,0 0.3311561545243219,0.6092900254297379 l -17.12002773169144 9.115450477728857" fill="#ffe015" stroke="none" /><path d="M 118.53625476483649 90.13048839642627 l 10.280125004925125 -5.473587534779002 a32.646507228254094,32.646507228254094 0 0,0 0.25913853957624305,0.4969323183346465 l -10.372571613476312 5.2963089733398565" fill="#ff770b" stroke="none" /><path d="M 118.70294669586156 90.45014215332178 l 20.714282186903347 -10.576860079736937 a44.25836313382767,44.25836313382767 0 0,0 0.33969365766746684,0.6796148670950527 l -20.89279575778255 10.219713356478133" fill="#edff1a" stroke="none" /><path d="M 119.0197475246899 91.09779779509293 l 35.10913100238858 -16.432846073067463 a59.7645393343454,59.7645393343454 0 0,0 0.4269337786158645,0.9329273555553479 l -35.386049245859496 15.82772973529743" fill="#3dff2e" stroke="none" /><path d="M 119.16976305983485 91.42560881287824 l 17.705116348206626 -7.9192733425645265 a40.395515852324905,40.395515852324905 0 0,0 0.27770208607248015,0.6354367189044703 l -17.838452316296078 7.614174553884207" fill="#ffe015" stroke="none" /><path d="M 119.4528033332814 92.08871423366111 l 32.474797243808226 -13.207217324822626 a56.0577102146097,56.0577102146097 0 0,0 0.35487553687120166,0.8945181747739257 l -32.696731455645555 12.647798132835135" fill="#64ff29" stroke="none" /><path d="M 119.58574465831526 92.42381321644754 l 14.48040466866838 -5.601331600362717 a36.52601156336085,36.52601156336085 0 0,0 0.2211899006427826,0.5867324903960285 l -14.574425253125602 5.35193082977253" fill="#ffad10" stroke="none" /><path d="M 119.83427380445688 93.10060997987247 l 22.052643964646954 -7.671054316741444 a44.34875114779969,44.34875114779969 0 0,0 0.24394891869667504,0.721191631244557 l -22.181078304915992 7.291361011022725" fill="#ecff1a" stroke="none" /><path d="M 119.94978838288452 93.4421083053983 l 27.98325138023346 -9.198650546680664 a50.456366539159006,50.456366539159006 0 0,0 0.2634189564936947,0.8251561293792831 l -28.137035052504412 8.716925383609993" fill="#a2ff22" stroke="none" /><path d="M 120.05942366710727 93.78553927170692 l 24.08588653732138 -7.461869217994927 a46.21526169832825,46.21526169832825 0 0,0 0.22826747692123892,0.7598281906974601 l -24.210430334246247 7.047303423706744" fill="#d5ff1c" stroke="none" /><path d="M 120.35273937422433 94.82641323984039 l 18.798018444973334 -4.778382779632909 a40.395835621242256,40.395835621242256 0 0,0 0.16506983681429097,0.6735412644222293 l -18.877275808303914 4.4549856906025855" fill="#ffe015" stroke="none" /><path d="M 120.43855184770803 95.1765574152323 l 33.95740727147012 -8.013855654840683 a55.890219131686656,55.890219131686656 0 0,0 0.21235392532716707,0.9356705769202475 l -34.08997205835495 7.429750743981409" fill="#66ff29" stroke="none" /><path d="M 120.592083275326 95.88100663000786 l 27.93768155992761 -5.588318752390613 a49.491110147241365,49.491110147241365 0 0,0 0.15948794870171382,0.8345083407996127 l -28.02949580091148 5.107907846557685" fill="#adff20" stroke="none" /><path d="M 120.65975698304385 96.23510406497455 l 61.97927094913153 -11.294687805076354 a84.0,84.0 0 0,0 0.24634073003106272,1.4208278683176294 l -62.16402649665483 10.229066903838131" fill="#4dd2ff" stroke="none" /><line stroke="#e1ed5e" stroke-width="0.3" x1="184.99686870605535" x2="189.99668451229388" y1="99.2704041080226" y2="99.22748670261217" /><path d="M 185.99683186730306 99.26182062694052 a86.0,86.0 0 0,1 -10.086455211305974,41.156179273409016" fill="none" id="id52" stroke="none" /><text fill="#e1ed5e" style="font-size:6.75px; font-family:Arial;" text-anchor="middle"><textPath startOffset="21.40746469413373" xlink:href="#id52">April</textPath></text><line stroke="#e1ed5e" stroke-width="0.3" x1="174.33088141563837" x2="178.70328620479359" y1="141.23008692659167" y2="143.65538615756765" /><path d="M 175.20536237346943 141.71514677278685 a86.0,86.0 0 0,1 -30.301960400862466,31.631185727798858" fill="none" id="id53" stroke="none" /><text fill="#e1ed5e" style="font-size:6.75px; font-family:Arial;" text-anchor="middle"><textPath startOffset="22.145653131862474" xlink:href="#id53">May</textPath></text><path d="M 116.35404254752997 113.17365903436017 l 4.840885337344893 3.899474559471965 a27.216113954014183,27.216113954014183 0 0,0 -0.2962061624835197,0.3613233557815697 l -4.773232355622745 -3.9820001969520273" fill="#ff2904" stroke="none" /><path d="M 115.16444852881244 114.52719865689866 l 5.674799051706076 5.436329122386507 a28.858563393149655,28.858563393149655 0 0,0 -0.34577121188298104,0.35479172417313914 l -5.5806410386722884 -5.532943538627383" fill="#ff4106" stroke="none" /><path d="M 114.65682725009322 115.03919595460226 l 5.449670494107629 5.591842016721423 a28.80817556374845,28.80817556374845 0 0,0 -0.3571219395841093,0.34211473969647943 l -5.352876068658208 -5.684568886723483" fill="#ff4006" stroke="none" /><path d="M 113.86319453409587 115.77377054828091 l 7.729316744516188 8.794543604154606 a32.708387358745654,32.708387358745654 0 0,0 -0.42492948834909655,0.3670439713669176 l -7.577207776404236 -8.925931707986242" fill="#ff780b" stroke="none" /><path d="M 113.31354834802062 116.24036423190432 l 7.413036601108573 9.042699310461451 a32.692883411237595,32.692883411237595 0 0,0 -0.4370715158366904,0.3520738744887959 l -7.256714314916629 -9.16862147874365" fill="#ff780b" stroke="none" /><path d="M 112.16784306229584 117.11559508785304 l 8.447684176989705 11.882725727409078 a35.579524637895155,35.579524637895155 0 0,0 -0.5008324826983815,0.3496199695342406 l -8.242456603117565 -12.02599051274844" fill="#ffa00e" stroke="none" /><line stroke="#e1ed5e" stroke-width="0.3" x1="143.1302829299769" x2="145.66735839644613" y1="173.24464959558577" y2="177.55315839532614" /><path d="M 143.63769802327073 174.10635135553383 a86.0,86.0 0 0,1 -40.68552437913181,11.842963189579606" fill="none" id="id54" stroke="none" /><text fill="#e1ed5e" style="font-size:6.75px; font-family:Arial;" text-anchor="middle"><textPath startOffset="21.407464694133747" xlink:href="#id54">June</textPath></text><path d="M 110.65571695917076 118.09573695890943 l 9.84202983456555 16.71391833233311 a40.39640732930661,40.39640732930661 0 0,0 -0.6005744114089965,0.34674179809538647 l -9.553662955296154 -16.88040702770467" fill="#ffe015" stroke="none" /><path d="M 107.407793817531 119.65005319985036 l 3.4304615078853757 9.099706713010777 a30.72485107443279,30.72485107443279 0 0,0 -0.4951249008285432,0.18181672177872485 l -3.2737474554027055 -9.157254283798224" fill="#ff5c08" stroke="none" /><path d="M 105.69591212413111 120.21278271476187 l 3.153897235109673 11.192068650055715 a32.62796063104758,32.62796063104758 0 0,0 -0.5404100741451853,0.14729116880512844 l -2.9613057600297923 -11.244560313004985" fill="#ff770b" stroke="none" /><path d="M 105.3480935250658 120.30758222061773 l 2.4218545607443653 9.196176242652578 a30.50973380275841,30.50973380275841 0 0,0 -0.507616166465998,0.12903404449807687 l -2.26363310105297 -9.236395518985924" fill="#ff5908" stroke="none" /><path d="M 104.9986988182912 120.39639698878246 l 0.8345042347268842 3.4050620529540514 a24.505830130260843,24.505830130260843 0 0,0 -0.4094432304105238,0.09662748752076793 l -0.7759288505764813 -3.4188856841210447" fill="#ff0000" stroke="none" /><path d="M 104.64783097203109 120.47920084513623 l 1.086043034637729 4.785305999001929 a25.90699938630208,25.90699938630208 0 0,0 -0.4345437550705036,0.09470678890557398 l -1.0037368629480896 -4.803244246041222" fill="#ff1502" stroke="none" /><path d="M 104.29559338865022 120.5559693870025 l 1.027323886386246 4.916116691791402 a26.022309995893302,26.022309995893302 0 0,0 -0.43804657324529267,0.08762158285884124 l -0.9427808276099946 -4.933027671313105" fill="#ff1702" stroke="none" /><line stroke="#e1ed5e" stroke-width="0.3" x1="101.45913802915013" x2="101.54496967792366" y1="184.9874750549273" y2="189.98673829345242" /><path d="M 101.47630435890484 185.9873277026323 a86.0,86.0 0 0,1 -42.54439059252881,-10.42667462771756" fill="none" id="id55" stroke="none" /><text fill="#e1ed5e" style="font-size:6.75px; font-family:Arial;" text-anchor="middle"><textPath startOffset="22.145653131862474" xlink:href="#id55">July</textPath></text><path d="M 94.6519064749342 120.30758222061772 l -1.648213430936583 6.258534860880023 a27.47192908789723,27.47192908789723 0 0,0 -0.4550118042368483,-0.1240154905923697 l 1.7554066361081264 -6.229318876143509" fill="#ff2d04" stroke="none" /><path d="M 92.93061703081489 119.77432235084164 l -2.587095562853608 7.236566732244295 a28.685112980403197,28.685112980403197 0 0,0 -0.462254924695033,-0.16974641124588874 l 2.71093963920276 -7.191089471989687" fill="#ff3e05" stroke="none" /><path d="M 90.6110303473126 118.78422872680471 l -6.0998907922865975 12.203867739421739 a34.643425357259865,34.643425357259865 0 0,0 -0.529669563276836,-0.2704530530542089 l 6.308487577277016 -12.097356734694692" fill="#ff930d" stroke="none" /><line stroke="#e1ed5e" stroke-width="0.3" x1="58.13341422392154" x2="55.67067388415222" y1="173.97424548756322" y2="178.32567169271397" /><path d="M 57.64086615596768 174.84453072859336 a86.0,86.0 0 0,1 -31.369924170532247,-30.572349798747897" fill="none" id="id56" stroke="none" /><text fill="#e1ed5e" style="font-size:6.75px; font-family:Arial;" text-anchor="middle"><textPath startOffset="22.145653131862474" xlink:href="#id56">August</textPath></text><path d="M 86.96720088162412 116.46651593811092 l -3.6346715272525163 4.592288739332609 a26.856616171170963,26.856616171170963 0 0,0 -0.3590463952819364,-0.28922236047837113 l 3.7129686928897145 -4.529218085060828" fill="#ff2303" stroke="none" /><path d="M 81.99639281039703 110.81064883170644 l -5.023454919759189 3.016440343732155 a26.859523161328724,26.859523161328724 0 0,0 -0.23396728188501778,-0.39732759477423174 l 5.074495911773977 -2.9297615806643647" fill="#ff2303" stroke="none" /><line stroke="#e1ed5e" stroke-width="0.3" x1="26.387840678322732" x2="22.057713659400548" y1="142.50000000000003" y2="145.00000000000006" /><path d="M 25.521815274538298 143.00000000000003 a86.0,86.0 0 0,1 -11.493303480769221,-40.785679425670985" fill="none" id="id57" stroke="none" /><text fill="#e1ed5e" style="font-size:6.75px; font-family:Arial;" text-anchor="middle"><textPath startOffset="21.40746469413373" xlink:href="#id57">September</textPath></text><path d="M 81.29705330413844 109.54985784667822 l -5.229807122445241 2.670376780571617 a26.872120118679028,26.872120118679028 0 0,0 -0.2062500310911102,-0.4126382236007191 l 5.274877066748088 -2.580206700807145" fill="#ff2403" stroke="none" /><path d="M 80.5471966667186 107.91128576633889 l -7.2140504704055735 2.933891523312018 a28.787826632644116,28.787826632644116 0 0,0 -0.18224246749472386,-0.45937006767767985 l 7.263351612866422 -2.809620438420773" fill="#ff4006" stroke="none" /><path d="M 79.83685265289637 105.86919833188381 l -11.323680266224851 3.296158292413578 a32.79365907004001,32.79365907004001 0 0,0 -0.15269587782194288,-0.5418638020728828 l 11.37859463612137 -3.1012865664376994" fill="#ff790b" stroke="none" /><path d="M 79.22317932658666 103.0534771498775 l -11.741182027754522 1.7255494282711579 a32.86730282070331,32.86730282070331 0 0,0 -0.07724674382104944,-0.558918957866736 l 11.769073288130784 -1.5237421622043363" fill="#ff7a0b" stroke="none" /><path d="M 79.17382384314188 102.69636545807758 l -6.842149245651275 0.8858532044496507 a27.89925664108823,27.89925664108823 0 0,0 -0.057416555568291526,-0.47549144576106295 l 6.856347887479228 -0.7682680817651885" fill="#ff3304" stroke="none" /><path d="M 79.13060592940153 102.33845913500099 l -5.849081048953489 0.6554017315508085 a26.885686072748584,26.885686072748584 0 0,0 -0.04745657424789435,-0.45909930671468646 l 5.8594700156830495 -0.5548979025531906" fill="#ff2403" stroke="none" /><line stroke="#e1ed5e" stroke-width="0.3" x1="15.003131293944662" x2="10.003315487706104" y1="100.72959589197737" y2="100.7725132973878" /><path d="M 14.003168132696942 100.73817937305945 a86.0,86.0 0 0,1 10.791469493833604,-42.45332614584628" fill="none" id="id58" stroke="none" /><text fill="#e1ed5e" style="font-size:6.75px; font-family:Arial;" text-anchor="middle"><textPath startOffset="22.145653131862435" xlink:href="#id58">October</textPath></text><path d="M 79.407916724674 95.88100663000787 l -5.537616052519618 -1.107678300486535 a26.647312879812105,26.647312879812105 0 0,0 0.0935730405779371,-0.4477808729874343 l 5.517785301117314 1.2025756247593784" fill="#ff2003" stroke="none" /><path d="M 80.9802524753101 91.09779779509293 l -5.043696631324106 -2.3607046946322634 a26.568824145552536,26.568824145552536 0 0,0 0.1968885775554133,-0.4114214022364251 l 5.002428795808787 2.4469385989337753" fill="#ff1f03" stroke="none" /><line stroke="#e1ed5e" stroke-width="0.3" x1="26.387840678322718" x2="22.05771365940052" y1="57.49999999999999" y2="54.99999999999999" /><path d="M 25.521815274538284 56.99999999999999 a86.0,86.0 0 0,1 29.574782752854787,-30.34633250058573" fill="none" id="id59" stroke="none" /><text fill="#e1ed5e" style="font-size:6.75px; font-family:Arial;" text-anchor="middle"><textPath startOffset="21.40746469413373" xlink:href="#id59">November</textPath></text><path d="M 82.18462484594161 88.88188828441811 l -4.922432570402298 -3.071961985469863 a26.80235235489274,26.80235235489274 0 0,0 0.24694195254671011,-0.3882337653715365 l 4.868972926229699 3.1560094255200712" fill="#ff2303" stroke="none" /><path d="M 83.64595745247003 86.82634096563983 l -4.407733632958928 -3.550558207618979 a26.65990983716241,26.65990983716241 0 0,0 0.2901527234330861,-0.3539391444154659 l 4.3461340902872125 3.625699633732938" fill="#ff2003" stroke="none" /><path d="M 83.8745106332314 86.54754324733833 l -6.122981925864316 -5.108009293954519 a28.973874002740878,28.973874002740878 0 0,0 0.32189344386187274,-0.3791896674797342 l 6.034393918495329 5.21236574388381" fill="#ff4306" stroke="none" /><path d="M 84.10781606972428 86.27271002978789 l -6.712704086754919 -5.798273911716173 a29.870195968050794,29.870195968050794 0 0,0 0.3385131503707023,-0.38516582511993147 l 6.612179872425624 5.912652014647405" fill="#ff5007" stroke="none" /><path d="M 84.58840730492382 85.73525988315684 l -4.173636715165818 -3.8630558347792547 a26.68704174530152,26.68704174530152 0 0,0 0.3140736515327552,-0.3335353340415106 l 4.1067072298967915 3.9341326287652763" fill="#ff2103" stroke="none" /><path d="M 84.83555147118756 85.47280134310135 l -8.113353268129716 -7.772408899392294 a32.235516959749724,32.235516959749724 0 0,0 0.3862324542285803,-0.3963085232606289 l 7.978734012750333 7.9105401147206535" fill="#ff720a" stroke="none" /><path d="M 85.34317274990677 84.96080404539775 l -5.695169425524991 -5.843745547631057 a29.159921372837637,29.159921372837637 0 0,0 0.36148237349305323,-0.3462919367442429 l 5.594014566166638 5.9406496146808685" fill="#ff4506" stroke="none" /><path d="M 85.60350026404147 84.71141617570332 l -10.002929739619669 -10.622764742651052 a35.5911525985262,35.5911525985262 0 0,0 0.4483980658186697,-0.41503055552733376 l 9.819101902487045 10.792913044310751" fill="#ffa00e" stroke="none" /><line stroke="#e1ed5e" stroke-width="0.3" x1="56.869717070023135" x2="54.33264160355391" y1="26.7553504044142" y2="22.446841604673864" /><path d="M 56.362301976729285 25.89364864446614 a86.0,86.0 0 0,1 42.16139366436587,-11.88097634709845" fill="none" id="id60" stroke="none" /><text fill="#e1ed5e" style="font-size:6.75px; font-family:Arial;" text-anchor="middle"><textPath startOffset="22.145653131862474" xlink:href="#id60">December</textPath></text></svg>