<?xml version="1.0" encoding="utf-8" ?>
<svg baseProfile="full" height="200mm" version="1.1" viewBox="0,0,200,200" width="200mm" xmlns="http://www.w3.org/2000/svg" xmlns:ev="http://www.w3.org/2001/xml-events" xmlns:xlink="http://www.w3.org/1999/xlink"><defs /><rect fill="#1a1a1a" height="200" width="200" x="0" y="0" /><rect fill="#1a1a1a" height="200" width="180" x="10" y="0" /><text alignment-baseline="middle" fill="#e1ed5e" style="dominant-baseline: central; font-size:9.0px; font-family:Arial;" text-anchor="middle" x="100.0" y="100.0">2017</text><line stroke="#e1ed5e" stroke-width="0.3" x1="100.0" x2="100.0" y1="15.0" y2="10.0" /><path d="M 100.0 14.0 a86.0,86.0 0 0,1 42.46469731375804,11.215312516191453" fill="none" id="id13" stroke="none" /><text fill="#e1ed5e" style="font-size:6.75px; font-family:Arial;" text-anchor="middle"><textPath startOffset="22.20632615414155" xlink:href="#id13">January</textPath></text><path d="M 100.36148047927253 79.00311137660856 l 0.4789486355419455 -27.8201223397675 a48.82424480188309,48.82424480188309 0 0,0 0.8401800775298085,0.02169937262991865 l -0.9577553482666218 27.807756174995223" fill="#ffed16" stroke="none" /><path d="M 102.16513564639614 79.11191278185805 l 2.8378651214631136 -27.378226518561092 a48.52491173009023,48.52491173009023 0 0,0 0.8300840001285673,0.09326960928135 l -3.308715825101406 27.325320955809143" fill="#ffe915" stroke="none" /><path d="M 105.01212808612495 79.60689891045804 l 3.3112686139797636 -13.472727436166595 a34.87367595135347,34.87367595135347 0 0,0 0.5817113668875201,0.1482911797635082 l -3.542688869552309 13.41373326023422" fill="#ff0000" stroke="none" /><line stroke="#e1ed5e" stroke-width="0.3" x1="143.23703022742887" x2="145.7803849466894" y1="26.81831364943548" y2="22.513508569990506" /><path d="M 143.74570117128098 25.957352633546492 a86.0,86.0 0 0,1 28.547481713284135,27.462654790039103" fill="none" id="id14" stroke="none" /><text fill="#e1ed5e" style="font-size:6.75px; font-family:Arial;" text-anchor="middle"><textPath startOffset="19.985693538727396" xlink:href="#id14">February</textPath></text><path d="M 112.19680574252982 82.90503203632743 l 9.545950355569632 -13.37954534622471 a37.43585719890153,37.43585719890153 0 0,0 0.5213472273394995,0.37878093251982325 l -9.77484289926292 13.213245178888211" fill="#ff2f04" stroke="none" /><path d="M 115.4437574822437 85.77008943001954 l 20.27258239921044 -18.67919998711442 a48.566104354648886,48.566104354648886 0 0,0 0.5611844796267046,0.6196739188097327 l -20.59111051945318 18.327473281035136" fill="#ffe915" stroke="none" /><path d="M 115.68641384162765 86.03803664274999 l 12.428923952716357 -11.062578263577592 a37.639074146724205,37.639074146724205 0 0,0 0.42659075687223913,0.4876669787736887 l -12.617506573166445 10.846995728600955" fill="#ff3204" stroke="none" /><path d="M 116.82858285166822 87.43820079747576 l 22.088202704615377 -16.48787480001776 a48.5633581796783,48.5633581796783 0 0,0 0.4942764430899739,0.6741925128956853 l -22.368741760218978 16.105219843450584" fill="#ffe915" stroke="none" /><path d="M 117.2510076193507 88.02491185347247 l 13.637026423299984 -9.466379998137691 a37.60062769713613,37.60062769713613 0 0,0 0.36450323212550056,0.5348635158077149 l -13.797954121094218 9.23023845905957" fill="#ff3204" stroke="none" /><path d="M 117.45458315368197 88.32363383020206 l 13.759150941597344 -9.20428079920779 a37.55394272263633,37.55394272263633 0 0,0 0.35480136151175323,0.5403868151046565 l -13.915548938467023 8.966075920125459" fill="#ff3104" stroke="none" /><line stroke="#e1ed5e" stroke-width="0.3" x1="172.23445277983987" x2="176.4835382374775" y1="55.19839476539836" y2="52.563006222186495" /><path d="M 173.08426987136738 54.67131705675599 a86.0,86.0 0 0,1 12.851231095245387,41.99856678651699" fill="none" id="id15" stroke="none" /><text fill="#e1ed5e" style="font-size:6.75px; font-family:Arial;" text-anchor="middle"><textPath startOffset="22.20632615414155" xlink:href="#id15">March</textPath></text><path d="M 118.03404312379186 89.2402003453031 l 23.672776889842122 -14.124083815070941 a48.566104354648886,48.566104354648886 0 0,0 0.4221558332669363,0.7216011628771233 l -23.91239239757939 13.714503239839923" fill="#ffe915" stroke="none" /><path d="M 118.21658344932153 89.55222093294921 l 23.910010210649958 -13.713136981298392 a48.5633581796783,48.5633581796783 0 0,0 0.40964894355755394,0.7287197607314115 l -24.142516795499944 13.299533710632188" fill="#ffe915" stroke="none" /><path d="M 118.3937258080291 89.86733742301442 l 14.5283253407213 -8.003306128546223 a37.58689682228325,37.58689682228325 0 0,0 0.3073031314236788,0.5693860312709086 l -14.663936571363443 7.752039113942855" fill="#ff3104" stroke="none" /><path d="M 118.56541770881063 90.18545643968196 l 14.6493697469548 -7.744338412836287 a37.570419772459786,37.570419772459786 0 0,0 0.29732615992368877,0.5743395039566134 l -14.780505340038605 7.491026186619329" fill="#ff3104" stroke="none" /><path d="M 118.73160827565052 90.50648371742162 l 14.780505340038605 -7.491026186619329 a37.570419772459786,37.570419772459786 0 0,0 0.28739579740871235,0.5793723904466938 l -14.907261150400727 7.2354942076736855" fill="#ff3104" stroke="none" /><path d="M 118.89224826269711 90.83032412892265 l 17.343217314519904 -8.417827202165938 a40.27814829344841,40.27814829344841 0 0,0 0.2973712790536108,0.626339752818124 l -17.48554678741527 8.118045033707274" fill="#ff6108" stroke="none" /><path d="M 119.04729006885535 91.15688171328212 l 24.967965953995822 -11.591920714797965 a48.527657905060806,48.527657905060806 0 0,0 0.3452342692481621,0.7606779497517862 l -25.16380254020733 11.160420756204116" fill="#ffe915" stroke="none" /><path d="M 119.196687751892 91.48605970444005 l 15.124891291375617 -6.70805417559156 a37.545704197724596,37.545704197724596 0 0,0 0.2569364999386516,0.5930448666420775 l -15.238118501156949 6.44671016436288" fill="#ff3104" stroke="none" /><path d="M 119.85752413597 93.16781622104841 l 26.06640869319561 -8.968413858129463 a48.566104354648886,48.566104354648886 0 0,0 0.2651771883936507,0.7928460409073986 l -26.216923175361032 8.518394714299749" fill="#ffe915" stroke="none" /><path d="M 120.45610955862082 95.25157060432595 l 16.16265384506173 -3.75179945189782 a37.5923891722244,37.5923891722244 0 0,0 0.1408920016122803,0.6315912170825873 l -16.224840233676048 3.4730300652652693" fill="#ff3104" stroke="none" /><path d="M 120.83666639777658 97.38593545837742 l 16.449712965002902 -2.0636991810874195 a37.57865829737152,37.57865829737152 0 0,0 0.07499563351626642,0.6425167889058082 l -16.48279895152276 1.7802386538567585" fill="#ff3104" stroke="none" /><path d="M 120.87857604477298 97.74499172005257 l 33.01747353333853 -3.5660801790773196 a54.20949391918399,54.20949391918399 0 0,0 0.09221518752880946,0.9285943538504582 l -33.07396584654957 2.9972102945224264" fill="#c0ff1e" stroke="none" /><path d="M 120.94382443527127 98.46500227214037 l 27.462237166531317 -2.012739926408859 a48.53589642997254,48.53589642997254 0 0,0 0.053896591419898034,0.8337564140698124 l -27.49281434895563 1.539724448086011" fill="#ffe915" stroke="none" /><line stroke="#e1ed5e" stroke-width="0.3" x1="184.98032266829074" x2="189.97916517819016" y1="98.17113171792111" y2="98.06355123074" /><path d="M 185.9800911702706 98.14961562048488 a86.0,86.0 0 0,1 -9.607161424134198,41.387399972396054" fill="none" id="id16" stroke="none" /><text fill="#e1ed5e" style="font-size:6.75px; font-family:Arial;" text-anchor="middle"><textPath startOffset="21.466115282336823" xlink:href="#id16">April</textPath></text><path d="M 120.8583938346157 102.4346265915055 l 62.575181503847105 7.303879774516526 a84.0,84.0 0 0,0 -0.1799939630126075,1.4347289828504204 l -62.44018603158764 -8.379926511654341" fill="#4dd2ff" stroke="none" /><path d="M 120.49622156327973 104.57218783832717 l 27.009340224031636 6.025099626889351 a48.67320517850138,48.67320517850138 0 0,0 -0.18945334503032324,0.8161600519359273 l -26.901626313070757 -6.489128336173843" fill="#ffeb16" stroke="none" /><path d="M 120.23288151984713 105.62410040840565 l 16.229697298645522 4.511341951766747 a37.84503726951746,37.84503726951746 0 0,0 -0.17986730365799192,0.6261416804068728 l -16.14963735810143 -4.790041107678202" fill="#ff3605" stroke="none" /><path d="M 119.9155931802556 106.66101706037122 l 34.22398456672406 11.446635960551623 a57.087485288348375,57.087485288348375 0 0,0 -0.31971484325253285,0.9292409896926408 l -34.0218788925283 -12.034049653333565" fill="#97ff23" stroke="none" /><path d="M 119.79798401119884 107.00284435728193 l 26.003785982539704 9.197929740360879 a48.58258140447234,48.58258140447234 0 0,0 -0.285655721009093,0.7860018599665927 l -25.841606000525385 -9.644179397333602" fill="#ffe915" stroke="none" /><path d="M 119.54520255179757 107.68017299344265 l 25.96570063079789 10.20307015043597 a48.89839152608866,48.89839152608866 0 0,0 -0.3145735648663358,0.780745790007959 l -25.786224451674162 -10.648515308286742" fill="#ffee16" stroke="none" /><path d="M 118.97047184881838 109.00673069616215 l 37.32571197035717 17.721363940689912 a62.31894860729698,62.31894860729698 0 0,0 -0.4684210994693721,0.9650862066535902 l -37.01513761427308 -18.36123910330878" fill="#52ff2b" stroke="none" /><path d="M 118.81262510543309 109.33194174019688 l 27.974154580081027 13.87648875739227 a52.226755590427615,52.226755590427615 0 0,0 -0.4064269462540519,0.8019189226936262 l -27.731148964040706 -14.35596189178859" fill="#ddff1b" stroke="none" /><path d="M 118.64920377521936 109.65438752849418 l 51.48224031579451 26.651513106644725 a78.97175362887407,78.97175362887407 0 0,0 -0.635337128413332,1.2018184139097732 l -51.01585067915629 -27.53374653564063" fill="#45fff0" stroke="none" /><line stroke="#e1ed5e" stroke-width="0.3" x1="174.80103733775053" x2="179.2010983576182" y1="140.37084112569926" y2="142.7455964860345" /><path d="M 175.68104954172406 140.8457921977663 a86.0,86.0 0 0,1 -30.038265399797805,32.042727171017184" fill="none" id="id17" stroke="none" /><text fill="#e1ed5e" style="font-size:6.75px; font-family:Arial;" text-anchor="middle"><textPath startOffset="22.206326154141568" xlink:href="#id17">May</textPath></text><path d="M 118.30583269289576 110.29060199501025 l 24.2114805617821 13.610454894407429 a48.77481365241271,48.77481365241271 0 0,0 -0.41771680349648055,0.7283244563502635 l -23.97361176213324 -14.025199196616008" fill="#ffec16" stroke="none" /><path d="M 117.94076556474637 110.91462005526583 l 23.702831764173215 14.42008714768545 a48.74460572773637,48.74460572773637 0 0,0 -0.44226528650368235,0.713072462176853 l -23.45110183800157 -14.825955941227576" fill="#ffec16" stroke="none" /><path d="M 117.75023020441432 111.22182372390056 l 23.365217371208924 14.771659161080548 a48.64299725382503,48.64299725382503 0 0,0 -0.4535267758601161,0.7038836276436908 l -23.107485731971757 -15.171664388645691" fill="#ffea16" stroke="none" /><path d="M 116.27256486870786 113.27417163493432 l 34.5305230972306 28.167906776524035 a65.56218124754807,65.56218124754807 0 0,0 -0.720884281226827,0.8683515558605787 l -34.04054281611023 -28.758119589498385" fill="#30ff37" stroke="none" /><path d="M 115.80600337817218 113.82643327865902 l 12.496808738646395 10.931687668729234 a37.60337387210671,37.60337387210671 0 0,0 -0.4303637206440831,0.48351820239810583 l -12.306786168353973 -11.145180040868206" fill="#ff3204" stroke="none" /><path d="M 114.29624159901734 115.38237550388516 l 30.699435503787587 33.031775617797585 a66.09493919183993,66.09493919183993 0 0,0 -0.8400366213458241,0.7673535365233582 l -30.1262993329749 -33.555321920907524" fill="#31ff3f" stroke="none" /><path d="M 111.45004920935366 117.60387380957326 l 9.156146320805243 14.0771136845221 a37.7928599450765,37.7928599450765 0 0,0 -0.5483891513312596,0.35000790251428565 l -8.912475367427053 -14.232636015860194" fill="#ff3505" stroke="none" /><line stroke="#e1ed5e" stroke-width="0.3" x1="143.8653032363475" x2="146.44561519142675" y1="172.8068346515853" y2="177.08958963109032" /><path d="M 144.38136562736335 173.6633856474863 a86.0,86.0 0 0,1 -40.68145358897372,12.25698825130547" fill="none" id="id18" stroke="none" /><text fill="#e1ed5e" style="font-size:6.75px; font-family:Arial;" text-anchor="middle"><textPath startOffset="21.466115282336833" xlink:href="#id18">June</textPath></text><path d="M 104.83641907484287 120.43548508189849 l 3.8485170747245765 16.26126935051031 a37.7104746959592,37.7104746959592 0 0,0 -0.6329610708169502,0.1440598789736155 l -3.5680358545147643 -16.325105963061613" fill="#ff3404" stroke="none" /><path d="M 103.7750983002368 120.6578951692458 l 2.9995419474616005 16.413936321215836 a37.68575912122401,37.68575912122401 0 0,0 -0.6391343748514526,0.11112170353814989 l -2.716558601138098 -16.463136603274993" fill="#ff3304" stroke="none" /><path d="M 103.06178313531738 120.77559828337769 l 2.30024115501482 15.608187804106816 a36.77677520596312,36.77677520596312 0 0,0 -0.6270815099811646,0.08690778330365716 l -2.031231053846825 -15.645470152903075" fill="#ff2303" stroke="none" /><path d="M 101.98527174616119 120.90594882070398 l 1.5828693391323108 16.66844121352585 a37.74342879560612,37.74342879560612 0 0,0 -0.6473100166026221,0.05585263197097556 l -1.2957150047881472 -16.69321809777549" fill="#ff3404" stroke="none" /><path d="M 101.26447882468166 120.96189622390904 l 1.0081767221242446 16.713048421233605 a37.74342879560612,37.74342879560612 0 0,0 -0.6488489587714314,0.03353807975157541 l -0.7203396949393336 -16.72792630774738" fill="#ff3404" stroke="none" /><line stroke="#e1ed5e" stroke-width="0.3" x1="102.19456741930631" x2="102.32365962044197" y1="184.97166512339345" y2="189.96999836594603" /><path d="M 102.22038585953345 185.97133177190398 a86.0,86.0 0 0,1 -42.740103519485714,-10.115201625700543" fill="none" id="id19" stroke="none" /><text fill="#e1ed5e" style="font-size:6.75px; font-family:Arial;" text-anchor="middle"><textPath startOffset="22.20632615414155" xlink:href="#id19">July</textPath></text><path d="M 98.73552117531835 120.96189622390904 l -1.0144602575417694 16.817213722202418 a37.84778344448803,37.84778344448803 0 0,0 -0.6499676253360515,-0.0448255728882644 l 1.3037906436567508 -16.797259804797868" fill="#ff3605" stroke="none" /><path d="M 97.2962882734958 120.8252237178851 l -2.1510895964497863 16.568675441298925 a37.707728520988624,37.707728520988624 0 0,0 -0.6429552130788052,-0.08910773391147404 l 2.435973400715423 -16.529193141894847" fill="#ff3304" stroke="none" /><path d="M 95.51606077576429 120.51570834832081 l -5.890044397469301 26.949168348225786 a48.58532757944292,48.58532757944292 0 0,0 -0.8154928098524223,-0.18560350850576254 l 6.353057356714586 -26.843788106142338" fill="#ffe915" stroke="none" /><path d="M 94.81253420990036 120.34920634021253 l -4.141425218851617 16.245835583496472 a37.765398195370736,37.765398195370736 0 0,0 -0.6285413143005623,-0.16600347382988692 l 4.420456975963668 -16.172140760363003" fill="#ff3405" stroke="none" /><path d="M 94.46302465271185 120.25689768951611 l -4.430593978037949 16.209226750640656 a37.80384464495881,37.80384464495881 0 0,0 -0.6262275846569746,-0.17697817064233226 l 4.708952730799538 -16.130559786659802" fill="#ff3505" stroke="none" /><path d="M 93.08242187328487 119.8279376855182 l -9.106742382848328 26.102765617903966 a48.645743428795605,48.645743428795605 0 0,0 -0.7882473784497217,-0.28263746541365076 l 9.554709321927776 -25.942140611450355" fill="#ffea16" stroke="none" /><path d="M 91.40352486487194 119.15986991738527 l -6.832663249811468 15.228676521232858 a37.69125147116516,37.69125147116516 0 0,0 -0.5896563041836234,-0.2706822884353118 l 7.09378754976251 -15.108807162463473" fill="#ff3304" stroke="none" /><path d="M 90.7491055286396 118.85261126421891 l -12.166371871122198 24.79412991817047 a48.61828167908984,48.61828167908984 0 0,0 -0.7481337018941295,-0.3751297691306023 l 12.591359480699088 -24.581032308130567" fill="#ffea16" stroke="none" /><line stroke="#e1ed5e" stroke-width="0.3" x1="58.666819895761336" x2="56.23545636021788" y1="174.27360380694188" y2="178.64263932499728" /><path d="M 58.180547188652646 175.14741091055294 a86.0,86.0 0 0,1 -31.652253787137756,-30.449443065178592" fill="none" id="id20" stroke="none" /><text fill="#e1ed5e" style="font-size:6.75px; font-family:Arial;" text-anchor="middle"><textPath startOffset="22.20632615414155" xlink:href="#id20">August</textPath></text><line stroke="#e1ed5e" stroke-width="0.3" x1="26.63291911575756" x2="22.317208475507996" y1="142.92168965132927" y2="145.44649492493687" /><path d="M 25.769776987707644 143.4266507060508 a86.0,86.0 0 0,1 -11.730757126820373,-40.83630448921669" fill="none" id="id21" stroke="none" /><text fill="#e1ed5e" style="font-size:6.75px; font-family:Arial;" text-anchor="middle"><textPath startOffset="21.46611528233685" xlink:href="#id21">September</textPath></text><path d="M 79.35854240842038 103.8639653848113 l -27.37888117580648 5.125173388013728 a48.85445272655944,48.85445272655944 0 0,0 -0.14761851586057706,-0.8279230318368156 l 27.463046134006245 -4.653131605443698" fill="#ffee16" stroke="none" /><line stroke="#e1ed5e" stroke-width="0.3" x1="15.007084014347285" x2="10.007500721073583" y1="101.09737516637583" y2="101.16192664675087" /><path d="M 14.007167355692545 101.11028546245083 a86.0,86.0 0 0,1 10.666146001902534,-42.60595125391555" fill="none" id="id22" stroke="none" /><text fill="#e1ed5e" style="font-size:6.75px; font-family:Arial;" text-anchor="middle"><textPath startOffset="22.20632615414155" xlink:href="#id22">October</textPath></text><line stroke="#e1ed5e" stroke-width="0.3" x1="26.266209847984243" x2="21.928928074336255" y1="57.711370442889674" y2="55.22380399835377" /><path d="M 25.398753493254645 57.213857153982495 a86.0,86.0 0 0,1 29.58750427330803,-30.492523968695096" fill="none" id="id23" stroke="none" /><text fill="#e1ed5e" style="font-size:6.75px; font-family:Arial;" text-anchor="middle"><textPath startOffset="21.46611528233685" xlink:href="#id23">November</textPath></text><path d="M 82.54541684631803 88.32363383020206 l -22.93267908265237 -15.340976972402231 a48.59081992938407,48.59081992938407 0 0,0 0.4710429586056372,-0.691197418105566 l 22.66521165837799 15.733452413778211" fill="#ffea16" stroke="none" /><path d="M 85.83668400450813 84.49514656593479 l -39.64320852197045 -43.39818005789616 a79.77912907022362,79.77912907022362 0 0,0 1.0218909113834753,-0.9174637499991738 l 38.890306622991005 44.07414281666461" fill="#46fffa" stroke="none" /><line stroke="#e1ed5e" stroke-width="0.3" x1="56.762969772571076" x2="54.21961505331055" y1="26.818313649435495" y2="22.513508569990535" /><path d="M 56.25429882871897 25.957352633546506 a86.0,86.0 0 0,1 42.265352541879196,-11.944610805530505" fill="none" id="id24" stroke="none" /><text fill="#e1ed5e" style="font-size:6.75px; font-family:Arial;" text-anchor="middle"><textPath startOffset="22.20632615414155" xlink:href="#id24">December</textPath></text></svg>