<?xml version="1.0" encoding="utf-8" ?>
<svg baseProfile="full" height="200mm" version="1.1" viewBox="0,0,200,200" width="200mm" xmlns="http://www.w3.org/2000/svg" xmlns:ev="http://www.w3.org/2001/xml-events" xmlns:xlink="http://www.w3.org/1999/xlink"><defs /><rect fill="#1a1a1a" height="200" width="200" x="0" y="0" /><rect fill="#1a1a1a" height="200" width="180" x="10" y="0" /><text alignment-baseline="middle" fill="#e1ed5e" style="dominant-baseline: central; font-size:9.0px; font-family:Arial;" text-anchor="middle" x="100.0" y="100.0">2018</text><line stroke="#e1ed5e" stroke-width="0.3" x1="100.0" x2="100.0" y1="15.0" y2="10.0" /><path d="M 100.0 14.0 a86.0,86.0 0 0,1 42.46469731375804,11.215312516191453" fill="none" id="id25" stroke="none" /><text fill="#e1ed5e" style="font-size:6.75px; font-family:Arial;" text-anchor="middle"><textPath startOffset="22.20632615414155" xlink:href="#id25">January</textPath></text><line stroke="#e1ed5e" stroke-width="0.3" x1="143.23703022742887" x2="145.7803849466894" y1="26.81831364943548" y2="22.513508569990506" /><path d="M 143.74570117128098 25.957352633546492 a86.0,86.0 0 0,1 28.547481713284135,27.462654790039103" fill="none" id="id26" stroke="none" /><text fill="#e1ed5e" style="font-size:6.75px; font-family:Arial;" text-anchor="middle"><textPath startOffset="19.985693538727396" xlink:href="#id26">February</textPath></text><path d="M 116.15771136456269 86.58626213691792 l 15.607922785144746 -12.95731679465013 a41.28544582167133,41.28544582167133 0 0,0 0.4492279345499821,0.5507003304493918 l -15.828649211771138 12.686732294592638" fill="#fff216" stroke="none" /><line stroke="#e1ed5e" stroke-width="0.3" x1="172.23445277983987" x2="176.4835382374775" y1="55.19839476539836" y2="52.563006222186495" /><path d="M 173.08426987136738 54.67131705675599 a86.0,86.0 0 0,1 12.851231095245387,41.99856678651699" fill="none" id="id27" stroke="none" /><text fill="#e1ed5e" style="font-size:6.75px; font-family:Arial;" text-anchor="middle"><textPath startOffset="22.20632615414155" xlink:href="#id27">March</textPath></text><path d="M 117.84615892207809 88.93136811851018 l 12.991803898211742 -8.057840090615157 a36.28776489404238,36.28776489404238 0 0,0 0.32466179709973053,0.5336586303602383 l -13.128581493597697 7.8330136870478375" fill="#ffb110" stroke="none" /><path d="M 118.3937258080291 89.86733742301442 l 13.410283741847362 -7.387403815623957 a36.31043582566973,36.31043582566973 0 0,0 0.2968670354816756,0.5500495304586627 l -13.535458876547503 7.155473301832836" fill="#ffb110" stroke="none" /><path d="M 120.53481517161879 95.60439243477599 l 24.84868637960301 -5.319019086522979 a46.41159536185526,46.41159536185526 0 0,0 0.16049727299458064,0.782641702567916 l -24.936562948512588 4.890501727791651" fill="#cdff1d" stroke="none" /><path d="M 120.83666639777658 97.38593545837742 l 25.156463089998557 -3.15600475147116 a46.35365853658537,46.35365853658537 0 0,0 0.09250787934573668,0.7925510166244105 l -25.207061322347883 2.722509996521897" fill="#ceff1d" stroke="none" /><path d="M 120.96714384426684 98.82574320788733 l 25.507649684352785 -1.4285460678456636 a46.54762095161935,46.54762095161935 0 0,0 0.037917230466528964,0.8003728066072525 l -25.52846052305281 0.9892621546154114" fill="#cbff1d" stroke="none" /><line stroke="#e1ed5e" stroke-width="0.3" x1="184.98032266829074" x2="189.97916517819016" y1="98.17113171792111" y2="98.06355123074" /><path d="M 185.9800911702706 98.14961562048488 a86.0,86.0 0 0,1 -9.607161424134198,41.387399972396054" fill="none" id="id28" stroke="none" /><text fill="#e1ed5e" style="font-size:6.75px; font-family:Arial;" text-anchor="middle"><textPath startOffset="21.466115282336823" xlink:href="#id28">April</textPath></text><path d="M 120.95626037817324 101.35467743843564 l 25.31593341886237 1.6365001778271098 a46.3687724910036,46.3687724910036 0 0,0 -0.05834393046298602,0.7960565766988746 l -25.28401292973505 -2.072029891022755" fill="#ceff1d" stroke="none" /><path d="M 120.23288151984713 105.62410040840565 l 24.398379598443405 6.781976977893094 a46.323430627748905,46.323430627748905 0 0,0 -0.22016283149263424,0.7664156990758784 l -24.278024130064672 -7.200950152473554" fill="#ceff1d" stroke="none" /><path d="M 119.67450827220406 107.3425965602758 l 11.986424731850192 4.473376400996492 a33.79396241503399,33.79396241503399 0 0,0 -0.2080834597840917,0.5432402521258081 l -11.907646992472595 -4.679040219955444" fill="#ff8f0d" stroke="none" /><path d="M 119.12269723197855 108.67885076344098 l 11.794751199540224 5.353056852332691 a33.95265893642543,33.95265893642543 0 0,0 -0.24611697694780404,0.5301140727514276 l -11.700859605752589 -5.555290992362949" fill="#ff910d" stroke="none" /><line stroke="#e1ed5e" stroke-width="0.3" x1="174.80103733775053" x2="179.2010983576182" y1="140.37084112569926" y2="142.7455964860345" /><path d="M 175.68104954172406 140.8457921977663 a86.0,86.0 0 0,1 -30.038265399797805,32.042727171017184" fill="none" id="id29" stroke="none" /><text fill="#e1ed5e" style="font-size:6.75px; font-family:Arial;" text-anchor="middle"><textPath startOffset="22.206326154141568" xlink:href="#id29">May</textPath></text><path d="M 115.80600337817218 113.82643327865902 l 19.2705579770982 16.85708130879132 a46.6030387844862,46.6030387844862 0 0,0 -0.5333632357784057,0.5992392495418803 l -18.977535891671454 -17.186294728074067" fill="#cbff1d" stroke="none" /><path d="M 115.07121518719521 114.62390073753431 l 12.172070194568409 11.810802518890672 a37.96037584966014,37.96037584966014 0 0,0 -0.4590663487350777,0.46503178759008923 l -11.966963220777796 -12.018574800461426" fill="#ffc712" stroke="none" /><path d="M 114.55890576462653 115.13401014063108 l 17.479418768270328 18.169888944131525 a46.212594962015196,46.212594962015196 0 0,0 -0.5780186998253947,0.5465527587930716 l -17.164064234054123 -18.468076339670517" fill="#cfff1d" stroke="none" /><path d="M 114.0293411484842 115.62618273729858 l 16.990031375661317 18.92386336454615 a46.43174730107957,46.43174730107957 0 0,0 -0.5993181035174535,0.5288285448331057 l -16.661770919237277 -19.213515051151546" fill="#cdff1d" stroke="none" /><path d="M 113.20401910651253 116.32954008644616 l 10.312439232607325 12.753494862397154 a37.401159536185524,37.401159536185524 0 0,0 -0.5041008557333478,0.4004882074558046 l -10.091380884156626 -12.929116983858085" fill="#ffc011" stroke="none" /><path d="M 112.63410532772338 116.77436683061366 l 15.442806871991344 20.503494362729295 a46.66853258696521,46.66853258696521 0 0,0 -0.6458369989658616,0.4777747720529243 l -15.087584902606919 -20.76627908352199" fill="#caff1d" stroke="none" /><path d="M 112.34349029814194 116.9893568818739 l 7.853243407598343 10.809062243277786 a34.360735705717715,34.360735705717715 0 0,0 -0.48149645300951405,0.34353493469855495 l -7.666019626739945 -10.94264143982056" fill="#ff970d" stroke="none" /><path d="M 111.7513745106137 117.40417183066458 l 7.102979947099054 10.519746723876706 a33.69320271891243,33.69320271891243 0 0,0 -0.48345783141389276,0.32040948851134204 l -6.920847416945197 -10.640454233479366" fill="#ff8e0d" stroke="none" /><path d="M 111.1453310114006 117.79835938074945 l 13.462632941000084 21.49893790053742 a46.36625349860056,46.36625349860056 0 0,0 -0.6800843094657302,0.4177633291378232 l -13.090569431602045 -21.727489696503625" fill="#ceff1d" stroke="none" /><line stroke="#e1ed5e" stroke-width="0.3" x1="143.8653032363475" x2="146.44561519142675" y1="172.8068346515853" y2="177.08958963109032" /><path d="M 144.38136562736335 173.6633856474863 a86.0,86.0 0 0,1 -40.68145358897372,12.25698825130547" fill="none" id="id30" stroke="none" /><text fill="#e1ed5e" style="font-size:6.75px; font-family:Arial;" text-anchor="middle"><textPath startOffset="21.466115282336833" xlink:href="#id30">June</textPath></text><path d="M 110.8373102113329 117.98757091392108 l 6.5374849723462445 10.850798975542872 a33.668012794882046,33.668012794882046 0 0,0 -0.4989793952568957,0.29480582194072474 l -6.349737706060967 -10.961723369777346" fill="#ff8e0d" stroke="none" /><path d="M 110.5260780823613 118.17145234162733 l 12.755030882208768 22.019353645156247 a46.4468612554978,46.4468612554978 0 0,0 -0.695268005157415,0.39479131870868983 l -12.374114110130154 -22.235648129659566" fill="#cdff1d" stroke="none" /><path d="M 110.21172684928248 118.3499491758327 l 6.160108875454815 11.069399568803993 a33.668012794882046,33.668012794882046 0 0,0 -0.5088313919433344,0.2774554452774283 l -5.968654671642832 -11.173795665841192" fill="#ff8e0d" stroke="none" /><path d="M 109.89434966115114 118.52300852407294 l 11.947990968269714 22.3675881821482 a46.358696521391444,46.358696521391444 0 0,0 -0.7071005829911896,0.36992160538357627 l -11.561199482752029 -22.569939206476494" fill="#ceff1d" stroke="none" /><path d="M 109.57404056367764 118.69057910512821 l 4.701653986528936 9.178636248268079 a31.312754898040783,31.312754898040783 0 0,0 -0.48183782785663715,0.24160348967654163 l -4.542962250989539 -9.258207578853924" fill="#ff6d0a" stroke="none" /><path d="M 108.2653958097858 119.30500536409082 l 20.869050347882606 48.74262989709088 a74.02227109156337,74.02227109156337 0 0,0 -1.1756447638977336,0.4914196066568662 l -20.02693412448741 -49.094634546767715" fill="#40ffc8" stroke="none" /><path d="M 107.93186726928326 119.44442032107085 l 9.637171160004417 23.624854070227098 a46.514874050379845,46.514874050379845 0 0,0 -0.7439698020995096,0.2960409380422631 l -9.229080281863041 -23.78724185267543" fill="#ccff1d" stroke="none" /><path d="M 107.59598834532513 119.57807347666477 l 3.8669381692394853 9.966734566369288 a31.6906037584966,31.6906037584966 0 0,0 -0.5102636596587649,0.1929380545571986 l -3.6948042888204458 -10.031820871033117" fill="#ff720a" stroke="none" /><path d="M 107.2578585660854 119.70592522655815 l 4.531445882024133 12.303399536693538 a34.11135545781687,34.11135545781687 0 0,0 -0.5527346201286294,0.19819096942229586 l -4.318991701265768 -12.379578047155794" fill="#ff940d" stroke="none" /><path d="M 102.34483914955558 120.86867818915974 l 1.6440125744685021 14.631438306554019 a35.723510595761695,35.723510595761695 0 0,0 -0.6116671402404892,0.06340180004197356 l -1.3919128376224101 -14.657569475051751" fill="#ffa90f" stroke="none" /><path d="M 101.98527174616119 120.90594882070398 l 1.3573829212057718 14.2939514127964 a35.35825669732107,35.35825669732107 0 0,0 -0.6064036697282558,0.052323060237724255 l -1.1111349337359744 -14.315198725312788" fill="#ffa50f" stroke="none" /><line stroke="#e1ed5e" stroke-width="0.3" x1="102.19456741930631" x2="102.32365962044197" y1="184.97166512339345" y2="189.96999836594603" /><path d="M 102.22038585953345 185.97133177190398 a86.0,86.0 0 0,1 -42.740103519485714,-10.115201625700543" fill="none" id="id31" stroke="none" /><text fill="#e1ed5e" style="font-size:6.75px; font-family:Arial;" text-anchor="middle"><textPath startOffset="22.20632615414155" xlink:href="#id31">July</textPath></text><path d="M 100.54218724476979 120.99299961872073 l 0.39399084312060173 15.254969015219139 a36.26005597760896,36.26005597760896 0 0,0 -0.6240878989074381,0.010744239151410206 l -0.13134325432049565 -15.25949073164971" fill="#ffb110" stroke="none" /><path d="M 99.81925306533755 120.99922214144158 l -0.15831436828131107 18.39300120873327 a39.3936825269892,39.3936825269892 0 0,0 -0.6780221347059412,-0.01167276593246483 l 0.4748961928799202 -18.387550965521648" fill="#ffda14" stroke="none" /><path d="M 99.09653310690486 120.98055641714683 l -0.6090544509229913 14.143629795805499 a35.15673730507797,35.15673730507797 0 0,0 -0.6043810306088452,-0.031239595796345727 l 0.8524235499453254 -14.131050393246952" fill="#ffa20f" stroke="none" /><path d="M 98.73552117531835 120.96189622390904 l -1.0870675413626596 18.0208608840571 a39.05361855257897,39.05361855257897 0 0,0 -0.6706756750664208,-0.04625372123962658 l 1.3971059772080106 -17.99947881830119" fill="#ffd513" stroke="none" /><path d="M 97.2962882734958 120.8252237178851 l -3.492879883380668 26.903757629942714 a48.12954818072771,48.12954818072771 0 0,0 -0.8206578629816411,-0.11373570195777237 l 3.95546633754914 -26.839647362492336" fill="#b9ff1f" stroke="none" /><path d="M 96.58105272829116 120.7198165907248 l -3.0520358571839945 18.49622651757385 a39.74634146341464,39.74634146341464 0 0,0 -0.6740809710675348,-0.11719761723829075 l 3.369965799723579 -18.44095032181455" fill="#ffde14" stroke="none" /><path d="M 94.81253420990036 120.34920634021253 l -6.557861090986819 25.724944296621338 a47.54766093562575,47.54766093562575 0 0,0 -0.791350567569524,-0.2090028773684959 l 6.999702101367832 -25.60825006994926" fill="#c0ff1e" stroke="none" /><path d="M 93.08242187328487 119.8279376855182 l -17.803705272307045 51.030975327526384 a75.04750099960016,75.04750099960016 0 0,0 -1.2160569816088083,-0.43603476836987815 l 18.67948181454558 -50.71695301811655" fill="#42ffd3" stroke="none" /><line stroke="#e1ed5e" stroke-width="0.3" x1="58.666819895761336" x2="56.23545636021788" y1="174.27360380694188" y2="178.64263932499728" /><path d="M 58.180547188652646 175.14741091055294 a86.0,86.0 0 0,1 -31.652253787137756,-30.449443065178592" fill="none" id="id32" stroke="none" /><text fill="#e1ed5e" style="font-size:6.75px; font-family:Arial;" text-anchor="middle"><textPath startOffset="22.20632615414155" xlink:href="#id32">August</textPath></text><path d="M 87.36589467227662 116.77436683061367 l -9.123228397388404 12.112957415469122 a36.16433426629348,36.16433426629348 0 0,0 -0.4940242168646751,-0.37879670321852504 l 9.330381342746566 -11.95412137042323" fill="#ffaf10" stroke="none" /><path d="M 86.51685102203217 116.09983520530335 l -11.458789745170186 13.682606848809378 a38.84706117552979,38.84706117552979 0 0,0 -0.5089603649005389,-0.43374706462755497 l 11.692615586647781 -13.483335393958873" fill="#ffd313" stroke="none" /><path d="M 85.97065885151581 115.62618273729859 l -11.83378572044872 13.18072575074174 a38.71355457816873,38.71355457816873 0 0,0 -0.4920316742215594,-0.44945926844299594 l 12.058916944137135 -12.975073715712169" fill="#ffd113" stroke="none" /><path d="M 85.18274418774928 114.88116024355367 l -28.697250581119576 28.8210171882148 a61.67165133946421,61.67165133946421 0 0,0 -0.7458140012363532,-0.7555056456660593 l 29.189105207411462 -28.322771048568075" fill="#30ff3a" stroke="none" /><path d="M 84.67929136418377 114.36230785411682 l -4.706477586924274 4.4120596258768305 a27.451139544182325,27.451139544182325 0 0,0 -0.3202026302837118,-0.3475167143854321 l 4.781726625203715 -4.330391656690055" fill="#ff3605" stroke="none" /><path d="M 84.19399662182784 113.82643327865904 l -26.719792755927273 23.373361558913444 a56.50015993602559,56.50015993602559 0 0,0 -0.6340326618749248,-0.7375232256905152 l 27.118167927372976 -22.9099612340614" fill="#5cff2a" stroke="none" /><path d="M 83.72743513129214 113.27417163493432 l -12.025822329801166 9.809936598500244 a36.51951219512195,36.51951219512195 0 0,0 -0.39316226513386376,-0.49053037721634357 l 12.19290250698989 -9.60147838770564" fill="#ffb410" stroke="none" /><path d="M 83.50135304334701 112.99209946851258 l -14.03341530223427 11.050816952965542 a38.86217512994802,38.86217512994802 0 0,0 -0.40933562889628705,-0.5291214793465144 l 14.221557748348625 -10.807617479505776" fill="#ffd313" stroke="none" /><path d="M 83.28015986056508 112.70617746262583 l -2.2482535941191375 1.7085515716437696 a23.823790483806476,23.823790483806476 0 0,0 -0.24531553698761902,-0.32864025068702135 l 2.2773303978018413 -1.6695984414474403" fill="#ff0000" stroke="none" /><path d="M 83.06392112726016 112.41649034213515 l -20.491910546500613 15.023407206851326 a46.40907636945222,46.40907636945222 0 0,0 -0.4667873688767613,-0.6483268289928086 l 20.74747770775298 -14.66844677240738" fill="#cdff1d" stroke="none" /><line stroke="#e1ed5e" stroke-width="0.3" x1="26.63291911575756" x2="22.317208475507996" y1="142.92168965132927" y2="145.44649492493687" /><path d="M 25.769776987707644 143.4266507060508 a86.0,86.0 0 0,1 -11.730757126820373,-40.83630448921669" fill="none" id="id33" stroke="none" /><text fill="#e1ed5e" style="font-size:6.75px; font-family:Arial;" text-anchor="middle"><textPath startOffset="21.46611528233685" xlink:href="#id33">September</textPath></text><path d="M 79.97269907076064 106.31721596034903 l -12.311865325352063 3.883534401853911 a33.90983606557377,33.90983606557377 0 0,0 -0.17079775259256,-0.5581769377643162 l 12.376889850450754 -3.6710304915375467" fill="#ff910d" stroke="none" /><path d="M 79.23777060512086 103.15116336523772 l -25.16870335041767 3.819950855948712 a46.456937225109954,46.456937225109954 0 0,0 -0.1131911085707161,-0.7916583497108515 l 25.230728510004983 -3.3861470342574598" fill="#ccff1d" stroke="none" /><path d="M 79.0235259727143 100.99374915477108 l -25.362997784291068 1.2015583542693888 a46.39144342263094,46.39144342263094 0 0,0 -0.03092291723195331,-0.7979830908627219 l 25.37992283437422 -0.7647980163926702" fill="#cdff1d" stroke="none" /><line stroke="#e1ed5e" stroke-width="0.3" x1="15.007084014347285" x2="10.007500721073583" y1="101.09737516637583" y2="101.16192664675087" /><path d="M 14.007167355692545 101.11028546245083 a86.0,86.0 0 0,1 10.666146001902534,-42.60595125391555" fill="none" id="id34" stroke="none" /><text fill="#e1ed5e" style="font-size:6.75px; font-family:Arial;" text-anchor="middle"><textPath startOffset="22.20632615414155" xlink:href="#id34">October</textPath></text><path d="M 79.12142395522702 97.74499172005258 l -62.635728134318974 -6.7650248398422725 a84.0,84.0 0 0,0 0.16763858798564435,-1.436225046700553 l 62.50999919332974 7.842193624867687" fill="#4dd2ff" stroke="none" /><line stroke="#e1ed5e" stroke-width="0.3" x1="26.266209847984243" x2="21.928928074336255" y1="57.711370442889674" y2="55.22380399835377" /><path d="M 25.398753493254645 57.213857153982495 a86.0,86.0 0 0,1 29.58750427330803,-30.492523968695096" fill="none" id="id35" stroke="none" /><text fill="#e1ed5e" style="font-size:6.75px; font-family:Arial;" text-anchor="middle"><textPath startOffset="21.46611528233685" xlink:href="#id35">November</textPath></text><path d="M 82.34701348167596 88.62581576622439 l -45.511672039784735 -29.32411136383915 a75.1407037185126,75.1407037185126 0 0,0 0.709912782825073,-1.0812458725590788 l 45.00016262160174 30.1031753003759" fill="#42ffd4" stroke="none" /><line stroke="#e1ed5e" stroke-width="0.3" x1="56.762969772571076" x2="54.21961505331055" y1="26.818313649435495" y2="22.513508569990535" /><path d="M 56.25429882871897 25.957352633546506 a86.0,86.0 0 0,1 42.265352541879196,-11.944610805530505" fill="none" id="id36" stroke="none" /><text fill="#e1ed5e" style="font-size:6.75px; font-family:Arial;" text-anchor="middle"><textPath startOffset="22.20632615414155" xlink:href="#id36">December</textPath></text><path d="M 89.3179101791058 81.91981866633112 l -14.38302178003248 -24.344266549832046 a49.27568972411036,49.27568972411036 0 0,0 0.7339807978917509,-0.4251690533212747 l 13.96184424967541 24.588239760543367" fill="#abff21" stroke="none" /><path d="M 94.28887869178378 79.79150937346287 l -14.556166200357262 -51.50619858048708 a74.52355057976808,74.52355057976808 0 0,0 1.2374533042718006,-0.33824273312686637 l 13.66741500686174 51.749127854440246" fill="#41ffce" stroke="none" /></svg>