<?xml version="1.0" encoding="utf-8" ?>
<svg baseProfile="full" height="200mm" version="1.1" viewBox="0,0,200,200" width="200mm" xmlns="http://www.w3.org/2000/svg" xmlns:ev="http://www.w3.org/2001/xml-events" xmlns:xlink="http://www.w3.org/1999/xlink"><defs /><rect fill="#1a1a1a" height="200" width="200" x="0" y="0" /><rect fill="#1a1a1a" height="200" width="180" x="10" y="0" /><text alignment-baseline="middle" fill="#e1ed5e" style="dominant-baseline: central; font-size:9.0px; font-family:Arial;" text-anchor="middle" x="100.0" y="100.0">2016</text><line stroke="#e1ed5e" stroke-width="0.3" x1="100.0" x2="100.0" y1="15.0" y2="10.0" /><path d="M 100.0 14.0 a86.0,86.0 0 0,1 42.35913384403234,11.155469271406648" fill="none" id="id1" stroke="none" /><text fill="#e1ed5e" style="font-size:6.75px; font-family:Arial;" text-anchor="middle"><textPath startOffset="22.145653131862478" xlink:href="#id1">January</textPath></text><line stroke="#e1ed5e" stroke-width="0.3" x1="143.13028292997686" x2="145.6673583964461" y1="26.7553504044142" y2="22.446841604673864" /><path d="M 143.63769802327073 25.89364864446614 a86.0,86.0 0 0,1 29.32050498858742,28.57503671076993" fill="none" id="id2" stroke="none" /><text fill="#e1ed5e" style="font-size:6.75px; font-family:Arial;" text-anchor="middle"><textPath startOffset="20.669276256404974" xlink:href="#id2">February</textPath></text><line stroke="#e1ed5e" stroke-width="0.3" x1="172.87174338648825" x2="177.1583165268699" y1="56.24261187166439" y2="53.66864786411523" /><path d="M 173.72905801456457 55.72781907015455 a86.0,86.0 0 0,1 12.242430191666344,42.057860355516425" fill="none" id="id3" stroke="none" /><text fill="#e1ed5e" style="font-size:6.75px; font-family:Arial;" text-anchor="middle"><textPath startOffset="22.145653131862474" xlink:href="#id3">March</textPath></text><line stroke="#e1ed5e" stroke-width="0.3" x1="184.99686870605535" x2="189.99668451229388" y1="99.2704041080226" y2="99.22748670261217" /><path d="M 185.99683186730306 99.26182062694052 a86.0,86.0 0 0,1 -10.086455211305974,41.156179273409016" fill="none" id="id4" stroke="none" /><text fill="#e1ed5e" style="font-size:6.75px; font-family:Arial;" text-anchor="middle"><textPath startOffset="21.40746469413373" xlink:href="#id4">April</textPath></text><line stroke="#e1ed5e" stroke-width="0.3" x1="174.33088141563837" x2="178.70328620479359" y1="141.23008692659167" y2="143.65538615756765" /><path d="M 175.20536237346943 141.71514677278685 a86.0,86.0 0 0,1 -30.301960400862466,31.631185727798858" fill="none" id="id5" stroke="none" /><text fill="#e1ed5e" style="font-size:6.75px; font-family:Arial;" text-anchor="middle"><textPath startOffset="22.145653131862474" xlink:href="#id5">May</textPath></text><line stroke="#e1ed5e" stroke-width="0.3" x1="143.1302829299769" x2="145.66735839644613" y1="173.24464959558577" y2="177.55315839532614" /><path d="M 143.63769802327073 174.10635135553383 a86.0,86.0 0 0,1 -40.68552437913181,11.842963189579606" fill="none" id="id6" stroke="none" /><text fill="#e1ed5e" style="font-size:6.75px; font-family:Arial;" text-anchor="middle"><textPath startOffset="21.407464694133747" xlink:href="#id6">June</textPath></text><path d="M 107.06938296918513 119.77432235084164 l 5.319773334243256 14.880352812016838 a36.80268610514754,36.80268610514754 0 0,0 -0.5967191520019816,0.20756989657046815 l -5.063548410196252 -14.969481141155896" fill="#ff0c01" stroke="none" /><line stroke="#e1ed5e" stroke-width="0.3" x1="101.45913802915013" x2="101.54496967792366" y1="184.9874750549273" y2="189.98673829345242" /><path d="M 101.47630435890484 185.9873277026323 a86.0,86.0 0 0,1 -42.54439059252881,-10.42667462771756" fill="none" id="id7" stroke="none" /><text fill="#e1ed5e" style="font-size:6.75px; font-family:Arial;" text-anchor="middle"><textPath startOffset="22.145653131862474" xlink:href="#id7">July</textPath></text><path d="M 94.30408787586889 120.21278271476187 l -5.443095414442535 19.31562540119538 a41.067901542762996,41.067901542762996 0 0,0 -0.6769163300726369,-0.19704047819984788 l 5.773871756896779 -19.219341228693015" fill="#ff5a08" stroke="none" /><line stroke="#e1ed5e" stroke-width="0.3" x1="58.13341422392154" x2="55.67067388415222" y1="173.97424548756322" y2="178.32567169271397" /><path d="M 57.64086615596768 174.84453072859336 a86.0,86.0 0 0,1 -31.369924170532247,-30.572349798747897" fill="none" id="id8" stroke="none" /><text fill="#e1ed5e" style="font-size:6.75px; font-family:Arial;" text-anchor="middle"><textPath startOffset="22.145653131862474" xlink:href="#id8">August</textPath></text><line stroke="#e1ed5e" stroke-width="0.3" x1="26.387840678322732" x2="22.057713659400548" y1="142.50000000000003" y2="145.00000000000006" /><path d="M 25.521815274538298 143.00000000000003 a86.0,86.0 0 0,1 -11.493303480769221,-40.785679425670985" fill="none" id="id9" stroke="none" /><text fill="#e1ed5e" style="font-size:6.75px; font-family:Arial;" text-anchor="middle"><textPath startOffset="21.40746469413373" xlink:href="#id9">September</textPath></text><path d="M 79.0935383218832 101.97986365728391 l -15.106011952953535 1.4305550376061105 a36.17359828249039,36.17359828249039 0 0,0 -0.05323785128090493,-0.6187045306551643 l 15.12834342693218 -1.1710294595752844" fill="#ff0000" stroke="none" /><line stroke="#e1ed5e" stroke-width="0.3" x1="15.003131293944662" x2="10.003315487706104" y1="100.72959589197737" y2="100.7725132973878" /><path d="M 14.003168132696942 100.73817937305945 a86.0,86.0 0 0,1 10.791469493833604,-42.45332614584628" fill="none" id="id10" stroke="none" /><text fill="#e1ed5e" style="font-size:6.75px; font-family:Arial;" text-anchor="middle"><textPath startOffset="22.145653131862435" xlink:href="#id10">October</textPath></text><path d="M 79.17382384314186 97.30363454192245 l -15.74986720494933 -2.039135633007177 a36.88132208297968,36.88132208297968 0 0,0 0.08668073721374046,-0.6271786345176715 l 15.712541951180382 2.3092025757249153" fill="#ff0d01" stroke="none" /><path d="M 79.22317932658666 96.9465228501225 l -16.951122204016546 -2.491231220038347 a38.1332068500674,38.1332068500674 0 0,0 0.10074159123926357,-0.6468332828974569 l 16.905859120639015 2.781852684867254" fill="#ff2503" stroke="none" /><path d="M 79.56144815229197 95.17655741523228 l -30.784873540449148 -7.265146332681234 a52.63053572320136,52.63053572320136 0 0,0 0.21506459291334462,-0.8775369300587308 l 30.655621421019504 7.792539087348082" fill="#e4ff1a" stroke="none" /><line stroke="#e1ed5e" stroke-width="0.3" x1="26.387840678322718" x2="22.05771365940052" y1="57.49999999999999" y2="54.99999999999999" /><path d="M 25.521815274538284 56.99999999999999 a86.0,86.0 0 0,1 29.574782752854787,-30.34633250058573" fill="none" id="id11" stroke="none" /><text fill="#e1ed5e" style="font-size:6.75px; font-family:Arial;" text-anchor="middle"><textPath startOffset="21.40746469413373" xlink:href="#id11">November</textPath></text><path d="M 82.78059297857968 87.97951657250589 l -18.159944805704797 -12.6770518467701 a43.14703679664487,43.14703679664487 0 0,0 0.42917926333289635,-0.6036943814693605 l 17.939650443841927 12.98692345494898" fill="#ff7f0b" stroke="none" /><path d="M 84.34580500576568 86.00192230759919 l -14.197336465638138 -12.695345812694635 a40.04563383094513,40.04563383094513 0 0,0 0.4626268018396213,-0.5085078955090528 l 13.97731196295665 12.937191283761345" fill="#ff4806" stroke="none" /><path d="M 86.13680546590413 84.22622945171909 l -21.21112369550991 -24.134365093218257 a53.13066054221379,53.13066054221379 0 0,0 0.6902444976033457,-0.5962167572761122 l 20.793699718143717 24.49492598295908" fill="#dcff1b" stroke="none" /><path d="M 86.40962598614128 83.9905735841838 l -12.38258202500913 -14.586650489901137 a40.13370612611713,40.13370612611713 0 0,0 0.5290495200434594,-0.44135192591846756 l 12.130358170803762 14.797064599731486" fill="#ff4906" stroke="none" /><path d="M 87.25179093698888 83.31218511350988 l -9.98458013737358 -13.070135909150252 a37.44750112337111,37.44750112337111 0 0,0 0.5141845248421574,-0.38585365331464094 l 9.758742623620671 13.239608589728896" fill="#ff1802" stroke="none" /><path d="M 89.03521579738668 82.08984904055464 l -9.970623330280912 -16.286263888580468 a40.0959608567577,40.0959608567577 0 0,0 0.5901118140561485,-0.3543451890511367 l 9.689578759667329 16.455023078167528" fill="#ff4906" stroke="none" /><line stroke="#e1ed5e" stroke-width="0.3" x1="56.869717070023135" x2="54.33264160355391" y1="26.7553504044142" y2="22.446841604673864" /><path d="M 56.362301976729285 25.89364864446614 a86.0,86.0 0 0,1 42.16139366436587,-11.88097634709845" fill="none" id="id12" stroke="none" /><text fill="#e1ed5e" style="font-size:6.75px; font-family:Arial;" text-anchor="middle"><textPath startOffset="22.145653131862474" xlink:href="#id12">December</textPath></text><path d="M 89.34428304082924 81.90426304109057 l -16.00991015289458 -27.188327540289656 a52.55189974536921,52.55189974536921 0 0,0 0.7812904251785433,-0.4510782372921068 l 15.540827259855636 27.459152674857936" fill="#e5ff1a" stroke="none" /><path d="M 89.97174638481275 81.54914285379989 l -15.05514793325007 -27.69977650052879 a52.52673623246293,52.52673623246293 0 0,0 0.7959330923523303,-0.42378954056789725 l 14.577426025111178 27.954136508819264" fill="#e5ff1a" stroke="none" /><path d="M 92.592206182469 80.34994680014964 l -22.223381452592992 -58.95015959955109 a84.0,84.0 0 0,0 1.353643393383492,-0.49707660396511244 l 21.208148907555373 59.32296705252492" fill="#4dd2ff" stroke="none" /><path d="M 94.6519064749342 79.69241777938228 l -8.044970283923698 -30.548062545558516 a52.589645014728646,52.589645014728646 0 0,0 0.8749782666334558,-0.22241605380233054 l 7.519386724064864 30.681663831196108" fill="#e4ff1a" stroke="none" /><path d="M 99.63950707515114 79.00309439819443 l -0.5463279365351348 -31.820863379959366 a52.825552948225074,52.825552948225074 0 0,0 0.9068208613839791,-0.007783966460143498 l 7.79501230982769e-15 31.825552948225074" fill="#e1ff1b" stroke="none" /></svg>