<?xml version="1.0" encoding="utf-8" ?>
<svg baseProfile="full" height="200mm" version="1.1" viewBox="0,0,200,200" width="200mm" xmlns="http://www.w3.org/2000/svg" xmlns:ev="http://www.w3.org/2001/xml-events" xmlns:xlink="http://www.w3.org/1999/xlink"><defs /><rect fill="#1a1a1a" height="200" width="200" x="0" y="0" /><rect fill="#1a1a1a" height="200" width="180" x="10" y="0" /><text alignment-baseline="middle" fill="#e1ed5e" style="dominant-baseline: central; font-size:9.0px; font-family:Arial;" text-anchor="middle" x="100.0" y="100.0">2026</text><line stroke="#e1ed5e" stroke-width="0.3" x1="100.0" x2="100.0" y1="15.0" y2="10.0" /><path d="M 100.0 14.0 a86.0,86.0 0 0,1 42.46469731375804,11.215312516191453" fill="none" id="id121" stroke="none" /><text fill="#e1ed5e" style="font-size:6.75px; font-family:Arial;" text-anchor="middle"><textPath startOffset="22.20632615414155" xlink:href="#id121">January</textPath></text><line stroke="#e1ed5e" stroke-width="0.3" x1="143.23703022742887" x2="145.7803849466894" y1="26.81831364943548" y2="22.513508569990506" /><path d="M 143.74570117128098 25.957352633546492 a86.0,86.0 0 0,1 28.547481713284135,27.462654790039103" fill="none" id="id122" stroke="none" /><text fill="#e1ed5e" style="font-size:6.75px; font-family:Arial;" text-anchor="middle"><textPath startOffset="19.985693538727396" xlink:href="#id122">February</textPath></text><path d="M 110.99172775467656 82.1063720568725 l 4.715800300325804 -7.676934683195482 a30.009666952923546,30.009666952923546 0 0,0 0.4378279618125141,0.27416782952058194 l -4.847247414510582 7.594622512351956" fill="#ff0000" stroke="none" /><path d="M 113.06298171725822 83.55741782278167 l 8.966866135554884 -11.286736558100536 a35.4151000837637,35.4151000837637 0 0,0 0.47405067966878,0.3833160149438143 l -9.159820213788155 11.130714445892593" fill="#ff5808" stroke="none" /><path d="M 114.16331599549186 84.49514656593476 l 12.1452706787589 -13.295660553725238 a39.007836888982695,39.007836888982695 0 0,0 0.4918556037342461,0.45712617931081445 l -12.372334166287992 13.084629788339782" fill="#ff900d" stroke="none" /><path d="M 115.19652480421416 85.50635884689758 l 20.837270353195933 -19.873485747586937 a49.79491746006089,49.79491746006089 0 0,0 0.586234799805267,0.6253544103929042 l -21.176272474971665 19.511861920315976" fill="#d3ff1c" stroke="none" /><path d="M 115.9244219780498 86.31012108654704 l 28.862730309494005 -24.812660930064798 a59.062124787627766,59.062124787627766 0 0,0 0.6561222313263337,0.7766417702853482 l -29.285563154307457 24.312160210150342" fill="#5fff29" stroke="none" /><path d="M 117.04232023915458 87.72973835380427 l 36.51500031173562 -26.290352578079553 a65.99475398805717,65.99475398805717 0 0,0 0.6558224912597572,0.927614404495104 l -36.96213542279926 25.657911673252656" fill="#33ff56" stroke="none" /><line stroke="#e1ed5e" stroke-width="0.3" x1="172.23445277983987" x2="176.4835382374775" y1="55.19839476539836" y2="52.563006222186495" /><path d="M 173.08426987136738 54.67131705675599 a86.0,86.0 0 0,1 12.851231095245387,41.99856678651699" fill="none" id="id123" stroke="none" /><text fill="#e1ed5e" style="font-size:6.75px; font-family:Arial;" text-anchor="middle"><textPath startOffset="22.20632615414155" xlink:href="#id123">March</textPath></text><path d="M 118.03404312379186 89.2402003453031 l 43.26696937170037 -25.81472822870333 a71.38284263649155,71.38284263649155 0 0,0 0.6204879681951698,1.0606150717755956 l -43.70491701436587 25.06613374457384" fill="#3bff9c" stroke="none" /><path d="M 119.34039704204932 91.81776055985345 l 35.077968742228855 -14.84025062664795 a59.08801556582476,59.08801556582476 0 0,0 0.38823165300069573,0.9401337419996719 l -35.32822208211575 14.234242314194976" fill="#5eff29" stroke="none" /><path d="M 119.61058180528143 92.48833698450437 l 47.05910238298655 -18.025580394432854 a71.39326012125602,71.39326012125602 0 0,0 0.42970383291603154,1.1513926369102758 l -47.362410804404206 17.212864620493242" fill="#3bff9c" stroke="none" /><path d="M 120.08093135843002 93.85539295169968 l 48.18880543487059 -14.745395432068664 a71.3943216611543,71.3943216611543 0 0,0 0.3494721545941389,1.1782463733772262 l -48.43548348657643 13.913719671944907" fill="#3bff9c" stroke="none" /><path d="M 120.28053869075195 94.5502522615342 l 52.14418290733003 -14.012085537104255 a74.99402144841793,74.99402144841793 0 0,0 0.3242729635863592,1.2495560079651242 l -52.377652202786685 13.11243310359028" fill="#40ffc8" stroke="none" /><path d="M 120.53481517161879 95.60439243477599 l 61.60444551485638 -13.186822695672053 a84.0,84.0 0 0,0 0.2904828163400124,1.4164973753463528 l -61.822307627111385 12.124449664162288" fill="#4dd2ff" stroke="none" /><line stroke="#e1ed5e" stroke-width="0.3" x1="184.98032266829074" x2="189.97916517819016" y1="98.17113171792111" y2="98.06355123074" /><path d="M 185.9800911702706 98.14961562048488 a86.0,86.0 0 0,1 -9.607161424134198,41.387399972396054" fill="none" id="id124" stroke="none" /><text fill="#e1ed5e" style="font-size:6.75px; font-family:Arial;" text-anchor="middle"><textPath startOffset="21.466115282336823" xlink:href="#id124">April</textPath></text><line stroke="#e1ed5e" stroke-width="0.3" x1="174.80103733775053" x2="179.2010983576182" y1="140.37084112569926" y2="142.7455964860345" /><path d="M 175.68104954172406 140.8457921977663 a86.0,86.0 0 0,1 -30.038265399797805,32.042727171017184" fill="none" id="id125" stroke="none" /><text fill="#e1ed5e" style="font-size:6.75px; font-family:Arial;" text-anchor="middle"><textPath startOffset="22.206326154141568" xlink:href="#id125">May</textPath></text><line stroke="#e1ed5e" stroke-width="0.3" x1="143.8653032363475" x2="146.44561519142675" y1="172.8068346515853" y2="177.08958963109032" /><path d="M 144.38136562736335 173.6633856474863 a86.0,86.0 0 0,1 -40.68145358897372,12.25698825130547" fill="none" id="id126" stroke="none" /><text fill="#e1ed5e" style="font-size:6.75px; font-family:Arial;" text-anchor="middle"><textPath startOffset="21.466115282336833" xlink:href="#id126">June</textPath></text><line stroke="#e1ed5e" stroke-width="0.3" x1="102.19456741930631" x2="102.32365962044197" y1="184.97166512339345" y2="189.96999836594603" /><path d="M 102.22038585953345 185.97133177190398 a86.0,86.0 0 0,1 -42.740103519485714,-10.115201625700543" fill="none" id="id127" stroke="none" /><text fill="#e1ed5e" style="font-size:6.75px; font-family:Arial;" text-anchor="middle"><textPath startOffset="22.20632615414155" xlink:href="#id127">July</textPath></text><line stroke="#e1ed5e" stroke-width="0.3" x1="58.666819895761336" x2="56.23545636021788" y1="174.27360380694188" y2="178.64263932499728" /><path d="M 58.180547188652646 175.14741091055294 a86.0,86.0 0 0,1 -31.652253787137756,-30.449443065178592" fill="none" id="id128" stroke="none" /><text fill="#e1ed5e" style="font-size:6.75px; font-family:Arial;" text-anchor="middle"><textPath startOffset="22.20632615414155" xlink:href="#id128">August</textPath></text><line stroke="#e1ed5e" stroke-width="0.3" x1="26.63291911575756" x2="22.317208475507996" y1="142.92168965132927" y2="145.44649492493687" /><path d="M 25.769776987707644 143.4266507060508 a86.0,86.0 0 0,1 -11.730757126820373,-40.83630448921669" fill="none" id="id129" stroke="none" /><text fill="#e1ed5e" style="font-size:6.75px; font-family:Arial;" text-anchor="middle"><textPath startOffset="21.46611528233685" xlink:href="#id129">September</textPath></text><line stroke="#e1ed5e" stroke-width="0.3" x1="15.007084014347285" x2="10.007500721073583" y1="101.09737516637583" y2="101.16192664675087" /><path d="M 14.007167355692545 101.11028546245083 a86.0,86.0 0 0,1 10.666146001902534,-42.60595125391555" fill="none" id="id130" stroke="none" /><text fill="#e1ed5e" style="font-size:6.75px; font-family:Arial;" text-anchor="middle"><textPath startOffset="22.20632615414155" xlink:href="#id130">October</textPath></text><line stroke="#e1ed5e" stroke-width="0.3" x1="26.266209847984243" x2="21.928928074336255" y1="57.711370442889674" y2="55.22380399835377" /><path d="M 25.398753493254645 57.213857153982495 a86.0,86.0 0 0,1 29.58750427330803,-30.492523968695096" fill="none" id="id131" stroke="none" /><text fill="#e1ed5e" style="font-size:6.75px; font-family:Arial;" text-anchor="middle"><textPath startOffset="21.46611528233685" xlink:href="#id131">November</textPath></text><line stroke="#e1ed5e" stroke-width="0.3" x1="56.762969772571076" x2="54.21961505331055" y1="26.818313649435495" y2="22.513508569990535" /><path d="M 56.25429882871897 25.957352633546506 a86.0,86.0 0 0,1 42.265352541879196,-11.944610805530505" fill="none" id="id132" stroke="none" /><text fill="#e1ed5e" style="font-size:6.75px; font-family:Arial;" text-anchor="middle"><textPath startOffset="22.20632615414155" xlink:href="#id132">December</textPath></text></svg>