<?xml version="1.0" encoding="utf-8" ?>
<svg baseProfile="full" height="200mm" version="1.1" viewBox="0,0,200,200" width="200mm" xmlns="http://www.w3.org/2000/svg" xmlns:ev="http://www.w3.org/2001/xml-events" xmlns:xlink="http://www.w3.org/1999/xlink"><defs /><rect fill="#1a1a1a" height="200" width="200" x="0" y="0" /><rect fill="#1a1a1a" height="200" width="180" x="10" y="0" /><text alignment-baseline="middle" fill="#e1ed5e" style="dominant-baseline: central; font-size:9.0px; font-family:Arial;" text-anchor="middle" x="100.0" y="100.0">2025</text><line stroke="#e1ed5e" stroke-width="0.3" x1="100.0" x2="100.0" y1="15.0" y2="10.0" /><path d="M 100.0 14.0 a86.0,86.0 0 0,1 42.46469731375804,11.215312516191453" fill="none" id="id109" stroke="none" /><text fill="#e1ed5e" style="font-size:6.75px; font-family:Arial;" text-anchor="middle"><textPath startOffset="22.20632615414155" xlink:href="#id109">January</textPath></text><line stroke="#e1ed5e" stroke-width="0.3" x1="143.23703022742887" x2="145.7803849466894" y1="26.81831364943548" y2="22.513508569990506" /><path d="M 143.74570117128098 25.957352633546492 a86.0,86.0 0 0,1 28.547481713284135,27.462654790039103" fill="none" id="id110" stroke="none" /><text fill="#e1ed5e" style="font-size:6.75px; font-family:Arial;" text-anchor="middle"><textPath startOffset="19.985693538727396" xlink:href="#id110">February</textPath></text><line stroke="#e1ed5e" stroke-width="0.3" x1="172.23445277983987" x2="176.4835382374775" y1="55.19839476539836" y2="52.563006222186495" /><path d="M 173.08426987136738 54.67131705675599 a86.0,86.0 0 0,1 12.851231095245387,41.99856678651699" fill="none" id="id111" stroke="none" /><text fill="#e1ed5e" style="font-size:6.75px; font-family:Arial;" text-anchor="middle"><textPath startOffset="22.20632615414155" xlink:href="#id111">March</textPath></text><line stroke="#e1ed5e" stroke-width="0.3" x1="184.98032266829074" x2="189.97916517819016" y1="98.17113171792111" y2="98.06355123074" /><path d="M 185.9800911702706 98.14961562048488 a86.0,86.0 0 0,1 -9.607161424134198,41.387399972396054" fill="none" id="id112" stroke="none" /><text fill="#e1ed5e" style="font-size:6.75px; font-family:Arial;" text-anchor="middle"><textPath startOffset="21.466115282336823" xlink:href="#id112">April</textPath></text><line stroke="#e1ed5e" stroke-width="0.3" x1="174.80103733775053" x2="179.2010983576182" y1="140.37084112569926" y2="142.7455964860345" /><path d="M 175.68104954172406 140.8457921977663 a86.0,86.0 0 0,1 -30.038265399797805,32.042727171017184" fill="none" id="id113" stroke="none" /><text fill="#e1ed5e" style="font-size:6.75px; font-family:Arial;" text-anchor="middle"><textPath startOffset="22.206326154141568" xlink:href="#id113">May</textPath></text><line stroke="#e1ed5e" stroke-width="0.3" x1="143.8653032363475" x2="146.44561519142675" y1="172.8068346515853" y2="177.08958963109032" /><path d="M 144.38136562736335 173.6633856474863 a86.0,86.0 0 0,1 -40.68145358897372,12.25698825130547" fill="none" id="id114" stroke="none" /><text fill="#e1ed5e" style="font-size:6.75px; font-family:Arial;" text-anchor="middle"><textPath startOffset="21.466115282336833" xlink:href="#id114">June</textPath></text><line stroke="#e1ed5e" stroke-width="0.3" x1="102.19456741930631" x2="102.32365962044197" y1="184.97166512339345" y2="189.96999836594603" /><path d="M 102.22038585953345 185.97133177190398 a86.0,86.0 0 0,1 -42.740103519485714,-10.115201625700543" fill="none" id="id115" stroke="none" /><text fill="#e1ed5e" style="font-size:6.75px; font-family:Arial;" text-anchor="middle"><textPath startOffset="22.20632615414155" xlink:href="#id115">July</textPath></text><line stroke="#e1ed5e" stroke-width="0.3" x1="58.666819895761336" x2="56.23545636021788" y1="174.27360380694188" y2="178.64263932499728" /><path d="M 58.180547188652646 175.14741091055294 a86.0,86.0 0 0,1 -31.652253787137756,-30.449443065178592" fill="none" id="id116" stroke="none" /><text fill="#e1ed5e" style="font-size:6.75px; font-family:Arial;" text-anchor="middle"><textPath startOffset="22.20632615414155" xlink:href="#id116">August</textPath></text><path d="M 88.24862548938628 117.40417183066458 l -4.807256532758956 7.119704903852329 a29.590687591205523,29.590687591205523 0 0,0 -0.4196848846816874,-0.28866309057515527 l 4.929098302063534 -7.035901023912072" fill="#ff0000" stroke="none" /><path d="M 86.51685102203217 116.09983520530335 l -7.81706616961099 9.33413087145591 a33.17507793098438,33.17507793098438 0 0,0 -0.4346480598123998,-0.3704165060604127 l 7.976579706000446 -9.198189975172545" fill="#ff3b05" stroke="none" /><path d="M 84.9287848128048 114.62390073753433 l -12.3094165268739 11.944072404918614 a38.15175212175172,38.15175212175172 0 0,0 -0.4532672479900482,-0.4752488973789881 l 12.513190326242905 -11.730416390957126" fill="#ff880c" stroke="none" /><path d="M 84.19399662182784 113.82643327865904 l -9.141480986180733 7.9965867335006555 a33.145454870325054,33.145454870325054 0 0,0 -0.3719511768512291,-0.43266324946019463 l 9.27777467260274 -7.83804638487893" fill="#ff3a05" stroke="none" /><path d="M 83.50135304334701 112.99209946851258 l -13.975648665051047 11.005327774476074 a38.7886479259273,38.7886479259273 0 0,0 -0.40856116621636324,-0.528120381934093 l 14.16301664848548 -10.76312939842873" fill="#ff920d" stroke="none" /><path d="M 83.06392112726016 112.41649034213515 l -9.781926069459482 7.171505959648079 a33.12916218696242,33.12916218696242 0 0,0 -0.3332165959786846,-0.4628087078673167 l 9.903922457813774 -7.002063646329624" fill="#ff3a05" stroke="none" /><path d="M 82.85270091963577 112.12312394758628 l -9.929320231853845 7.020019848133623 a33.16026640065472,33.16026640065472 0 0,0 -0.3255060587663303,-0.4689157550419448 l 10.048687197782309 -6.8480628309046665" fill="#ff3a05" stroke="none" /><path d="M 82.6465618267979 111.8261652097733 l -18.359355416167432 12.511686049155905 a43.21729549449705,43.21729549449705 0 0,0 -0.41364486604479717,-0.6183429506645457 l 18.57200338762296 -12.19380618428554" fill="#ffd313" stroke="none" /><path d="M 82.05923443525364 110.91462005526583 l -23.40956464782585 14.241672289184399 a48.40133110987969,48.40133110987969 0 0,0 -0.4268977220577068,-0.7155051372798134 l 23.65124324558179 -13.836605058018474" fill="#e3ff1b" stroke="none" /><line stroke="#e1ed5e" stroke-width="0.3" x1="26.63291911575756" x2="22.317208475507996" y1="142.92168965132927" y2="145.44649492493687" /><path d="M 25.769776987707644 143.4266507060508 a86.0,86.0 0 0,1 -11.730757126820373,-40.83630448921669" fill="none" id="id117" stroke="none" /><text fill="#e1ed5e" style="font-size:6.75px; font-family:Arial;" text-anchor="middle"><textPath startOffset="21.46611528233685" xlink:href="#id117">September</textPath></text><path d="M 80.73074385275274 108.34839909993369 l -10.288249004488488 4.457380610472365 a32.212328459556176,32.212328459556176 0 0,0 -0.21605118366855358,-0.5106811777045348 l 10.363451169349348 -4.279624907101671" fill="#ff2b04" stroke="none" /><path d="M 80.45479744820244 107.68017299344265 l -16.01868794187822 6.294449709362765 a38.21099824307038,38.21099824307038 0 0,0 -0.23528098358435112,-0.6142444045066748 l 16.124663205056077 -6.017781738022933" fill="#ff890c" stroke="none" /><path d="M 80.32549172779594 107.34259656027581 l -20.815816189362845 7.7685367398626655 a43.21819899784715,43.21819899784715 0 0,0 -0.2541142409182118,-0.699213253283171 l 20.94645469128628 -7.409075689573378" fill="#ffd313" stroke="none" /><path d="M 79.97269907076064 106.31721596034903 l -12.991199363401437 4.097816887683461 a34.62216444419262,34.62216444419262 0 0,0 -0.17438562267075003,-0.5699023047726147 l 13.059811758578316 -3.873587610358798" fill="#ff5207" stroke="none" /><path d="M 79.86692584326677 105.97154293290107 l -13.052172116601461 3.871321664795709 a34.61419584087526,34.61419584087526 0 0,0 -0.1645119815802735,-0.5726877898253341 l 13.116876735067839 -3.646076399465779" fill="#ff5207" stroke="none" /><path d="M 79.76711848015287 105.62410040840567 l -13.147244302147659 3.654517621555098 a34.645714777416785,34.645714777416785 0 0,0 -0.15477053094207927,-0.5759587216862102 l 13.208202909431513 -3.4276679666933485" fill="#ff5207" stroke="none" /><path d="M 79.58551787078972 104.9243191809786 l -21.905217649544017 5.283909861265405 a43.53349204397473,43.53349204397473 0 0,0 -0.169447762035294,-0.7299765239880944 l 21.992925977509866 -4.906064679928737" fill="#ffd814" stroke="none" /><path d="M 79.35854240842038 103.8639653848113 l -30.65154126903095 5.737797048933448 a52.183958971590776,52.183958971590776 0 0,0 -0.15767894521777362,-0.8843472624045927 l 30.745766656587914 -5.209331035795642" fill="#b1ff20" stroke="none" /><path d="M 79.23777060512086 103.15116336523772 l -27.09061340837466 4.1116465332640635 a48.40085714090914,48.40085714090914 0 0,0 -0.1179274184392684,-0.8247840899001951 l 27.157374877830527 -3.6447169713834677" fill="#e3ff1b" stroke="none" /><path d="M 79.0235259727143 100.99374915477108 l -27.40512082430832 1.2983028329799648 a48.43585678707814,48.43585678707814 0 0,0 -0.03228565183541813,-0.8331492158030549 l 27.42340860899494 -0.8263763701629132" fill="#e2ff1b" stroke="none" /><line stroke="#e1ed5e" stroke-width="0.3" x1="15.007084014347285" x2="10.007500721073583" y1="101.09737516637583" y2="101.16192664675087" /><path d="M 14.007167355692545 101.11028546245083 a86.0,86.0 0 0,1 10.666146001902534,-42.60595125391555" fill="none" id="id118" stroke="none" /><text fill="#e1ed5e" style="font-size:6.75px; font-family:Arial;" text-anchor="middle"><textPath startOffset="22.20632615414155" xlink:href="#id118">October</textPath></text><path d="M 79.08570108090925 98.10471618934814 l -35.54731073970953 -3.2213483616074874 a56.69297390372928,56.69297390372928 0 0,0 0.09643980864112432,-0.9711357119193619 l 35.48659380538618 3.8327596042312795" fill="#79ff26" stroke="none" /><path d="M 79.32604984820605 96.31383870115002 l -40.83438623192004 -7.2807631384046365 a62.47838727355697,62.47838727355697 0 0,0 0.19789070003714077,-1.057140032527533 l 40.70300980797304 7.982581248394742" fill="#36ff2f" stroke="none" /><path d="M 79.46518482838121 95.60439243477599 l -13.340586327973739 -2.8556372043129836 a34.64279690594184,34.64279690594184 0 0,0 0.1298372650688604,-0.5820350007744481 l 13.28945467590284 3.0848503746373908" fill="#ff5207" stroke="none" /><path d="M 80.02781315780177 93.51064311812611 l -12.956772401322558 -4.209910552796627 a34.62355672804361,34.62355672804361 0 0,0 0.1890490816040018,-0.5652326913746737 l 12.882386025946783 4.432316347093622" fill="#ff5207" stroke="none" /><path d="M 80.38941819471856 92.48833698450439 l -20.755608928466923 -7.950255708888088 a43.226152789634185,43.226152789634185 0 0,0 0.27213220059948434,-0.6925467676476282 l 20.615683177985748 8.306351481431479" fill="#ffd313" stroke="none" /><path d="M 80.803312248108 91.48605970444005 l -37.413435436054165 -16.593266488014695 a61.92800561803696,61.92800561803696 0 0,0 0.44056669306739354,-0.9707303088458263 l 37.122266426023415 17.234818805702595" fill="#3cff2e" stroke="none" /><line stroke="#e1ed5e" stroke-width="0.3" x1="26.266209847984243" x2="21.928928074336255" y1="57.711370442889674" y2="55.22380399835377" /><path d="M 25.398753493254645 57.213857153982495 a86.0,86.0 0 0,1 29.58750427330803,-30.492523968695096" fill="none" id="id119" stroke="none" /><text fill="#e1ed5e" style="font-size:6.75px; font-family:Arial;" text-anchor="middle"><textPath startOffset="21.46611528233685" xlink:href="#id119">November</textPath></text><path d="M 81.78341655067845 89.55222093294921 l -38.869206651099425 -22.29270295014362 a65.80825627615087,65.80825627615087 0 0,0 0.5720314534851838,-0.9777871807262039 l 38.479715523143916 22.958469543223718" fill="#33ff55" stroke="none" /><path d="M 82.95767976084542 87.72973835380427 l -16.839825031726946 -12.124467579286389 a41.75048002288969,41.75048002288969 0 0,0 0.4249351679235325,-0.5796110914959566 l 16.628627251289778 12.412541114453846" fill="#ffbe11" stroke="none" /><path d="M 83.6137871275137 86.86637796730984 l -32.406245706885166 -25.973749146598234 a62.53071641021168,62.53071641021168 0 0,0 0.6803982376798493,-0.834087788202284 l 31.954348977128927 26.527721104408602" fill="#35ff2f" stroke="none" /><path d="M 84.31358615837235 86.03803664274999 l -38.181283514269815 -33.98391032782387 a72.11473928297616,72.11473928297616 0 0,0 0.8332904805871467,-0.920140161316958 l 37.59064939306663 34.63610327641038" fill="#3cffa6" stroke="none" /><path d="M 85.05521093208273 85.24692304244772 l -44.83436720375183 -44.259230872656865 a84.0,84.0 0 0,0 1.0246567993307472,-1.0202565973995625 l 44.06587460425377 45.02442332070654" fill="#4dd2ff" stroke="none" /><line stroke="#e1ed5e" stroke-width="0.3" x1="56.762969772571076" x2="54.21961505331055" y1="26.818313649435495" y2="22.513508569990535" /><path d="M 56.25429882871897 25.957352633546506 a86.0,86.0 0 0,1 42.265352541879196,-11.944610805530505" fill="none" id="id120" stroke="none" /><text fill="#e1ed5e" style="font-size:6.75px; font-family:Arial;" text-anchor="middle"><textPath startOffset="22.20632615414155" xlink:href="#id120">December</textPath></text></svg>