<?xml version="1.0" encoding="utf-8" ?>
<svg baseProfile="full" height="200mm" version="1.1" viewBox="0,0,200,200" width="200mm" xmlns="http://www.w3.org/2000/svg" xmlns:ev="http://www.w3.org/2001/xml-events" xmlns:xlink="http://www.w3.org/1999/xlink"><defs /><rect fill="#1a1a1a" height="200" width="200" x="0" y="0" /><rect fill="#1a1a1a" height="200" width="180" x="10" y="0" /><text alignment-baseline="middle" fill="#e1ed5e" style="dominant-baseline: central; font-size:9.0px; font-family:Arial;" text-anchor="middle" x="100.0" y="100.0">2025</text><line stroke="#e1ed5e" stroke-width="0.3" x1="100.0" x2="100.0" y1="15.0" y2="10.0" /><path d="M 100.0 14.0 a86.0,86.0 0 0,1 42.46469731375804,11.215312516191453" fill="none" id="id109" stroke="none" /><text fill="#e1ed5e" style="font-size:6.75px; font-family:Arial;" text-anchor="middle"><textPath startOffset="22.20632615414155" xlink:href="#id109">January</textPath></text><line stroke="#e1ed5e" stroke-width="0.3" x1="143.23703022742887" x2="145.7803849466894" y1="26.81831364943548" y2="22.513508569990506" /><path d="M 143.74570117128098 25.957352633546492 a86.0,86.0 0 0,1 28.547481713284135,27.462654790039103" fill="none" id="id110" stroke="none" /><text fill="#e1ed5e" style="font-size:6.75px; font-family:Arial;" text-anchor="middle"><textPath startOffset="19.985693538727396" xlink:href="#id110">February</textPath></text><line stroke="#e1ed5e" stroke-width="0.3" x1="172.23445277983987" x2="176.4835382374775" y1="55.19839476539836" y2="52.563006222186495" /><path d="M 173.08426987136738 54.67131705675599 a86.0,86.0 0 0,1 12.851231095245387,41.99856678651699" fill="none" id="id111" stroke="none" /><text fill="#e1ed5e" style="font-size:6.75px; font-family:Arial;" text-anchor="middle"><textPath startOffset="22.20632615414155" xlink:href="#id111">March</textPath></text><line stroke="#e1ed5e" stroke-width="0.3" x1="184.98032266829074" x2="189.97916517819016" y1="98.17113171792111" y2="98.06355123074" /><path d="M 185.9800911702706 98.14961562048488 a86.0,86.0 0 0,1 -9.607161424134198,41.387399972396054" fill="none" id="id112" stroke="none" /><text fill="#e1ed5e" style="font-size:6.75px; font-family:Arial;" text-anchor="middle"><textPath startOffset="21.466115282336823" xlink:href="#id112">April</textPath></text><line stroke="#e1ed5e" stroke-width="0.3" x1="174.80103733775053" x2="179.2010983576182" y1="140.37084112569926" y2="142.7455964860345" /><path d="M 175.68104954172406 140.8457921977663 a86.0,86.0 0 0,1 -30.038265399797805,32.042727171017184" fill="none" id="id113" stroke="none" /><text fill="#e1ed5e" style="font-size:6.75px; font-family:Arial;" text-anchor="middle"><textPath startOffset="22.206326154141568" xlink:href="#id113">May</textPath></text><line stroke="#e1ed5e" stroke-width="0.3" x1="143.8653032363475" x2="146.44561519142675" y1="172.8068346515853" y2="177.08958963109032" /><path d="M 144.38136562736335 173.6633856474863 a86.0,86.0 0 0,1 -40.68145358897372,12.25698825130547" fill="none" id="id114" stroke="none" /><text fill="#e1ed5e" style="font-size:6.75px; font-family:Arial;" text-anchor="middle"><textPath startOffset="21.466115282336833" xlink:href="#id114">June</textPath></text><line stroke="#e1ed5e" stroke-width="0.3" x1="102.19456741930631" x2="102.32365962044197" y1="184.97166512339345" y2="189.96999836594603" /><path d="M 102.22038585953345 185.97133177190398 a86.0,86.0 0 0,1 -42.740103519485714,-10.115201625700543" fill="none" id="id115" stroke="none" /><text fill="#e1ed5e" style="font-size:6.75px; font-family:Arial;" text-anchor="middle"><textPath startOffset="22.20632615414155" xlink:href="#id115">July</textPath></text><line stroke="#e1ed5e" stroke-width="0.3" x1="58.666819895761336" x2="56.23545636021788" y1="174.27360380694188" y2="178.64263932499728" /><path d="M 58.180547188652646 175.14741091055294 a86.0,86.0 0 0,1 -31.652253787137756,-30.449443065178592" fill="none" id="id116" stroke="none" /><text fill="#e1ed5e" style="font-size:6.75px; font-family:Arial;" text-anchor="middle"><textPath startOffset="22.20632615414155" xlink:href="#id116">August</textPath></text><path d="M 88.24862548938628 117.40417183066458 l -11.05264413430695 16.369329181273713 a40.75135135135135,40.75135135135135 0 0,0 -0.5779766401101751,-0.39753760334015514 l 11.332777659040016 -16.176650788568455" fill="red" stroke="none" /><path d="M 86.51685102203217 116.09983520530335 l -17.97267317819929 21.460645197988136 a48.99243243243244,48.99243243243244 0 0,0 -0.6418814070775265,-0.5470252604312116 l 18.339420061853875 -21.148095547333973" fill="red" stroke="none" /><path d="M 84.9287848128048 114.62390073753433 l -28.301298140711403 27.461314141726618 a60.43459459459459,60.43459459459459 0 0,0 -0.7180016867342867,-0.7528218980079834 l 28.769806378824647 -26.970085127136134" fill="red" stroke="none" /><path d="M 84.19399662182784 113.82643327865904 l -21.01771260016407 18.385419386757416 a48.924324324324324,48.924324324324324 0 0,0 -0.5490182614864559,-0.6386322716831375 l 21.331073371221304 -18.02091001591275" fill="red" stroke="none" /><path d="M 83.50135304334701 112.99209946851258 l -32.132229721524716 25.30299155948694 a61.898918918918916,61.898918918918916 0 0,0 -0.6519818517350664,-0.8427744314056395 l 32.56301839047785 -24.746139133968047" fill="red" stroke="none" /><path d="M 83.06392112726016 112.41649034213515 l -22.49019727927565 16.488428012715357 a48.88686486486486,48.88686486486486 0 0,0 -0.49170922604106554,-0.6829411088668017 l 22.770686297692325 -16.098853298397415" fill="red" stroke="none" /><path d="M 82.85270091963577 112.12312394758628 l -22.8290798026687 16.140137450218926 a48.95837837837838,48.95837837837838 0 0,0 -0.4805826526539009,-0.6923151546958999 l 23.103523362484736 -15.744781033336015" fill="red" stroke="none" /><path d="M 82.6465618267979 111.8261652097733 l -42.2110658267078 28.766347807556667 a72.08108108108108,72.08108108108108 0 0,0 -0.6899082598064119,-1.0313192404286688 l 42.699977191924944 -28.035491652922175" fill="red" stroke="none" /><path d="M 82.05923443525364 110.91462005526583 l -53.82229669423909 32.743860165797486 a84.0,84.0 0 0,0 -0.7408764972070725,-1.2417516244555555 l 54.3779540671444 -31.812546447455823" fill="red" stroke="none" /><line stroke="#e1ed5e" stroke-width="0.3" x1="26.63291911575756" x2="22.317208475507996" y1="142.92168965132927" y2="145.44649492493687" /><path d="M 25.769776987707644 143.4266507060508 a86.0,86.0 0 0,1 -11.730757126820373,-40.83630448921669" fill="none" id="id117" stroke="none" /><text fill="#e1ed5e" style="font-size:6.75px; font-family:Arial;" text-anchor="middle"><textPath startOffset="21.46611528233685" xlink:href="#id117">September</textPath></text><path d="M 80.73074385275274 108.34839909993369 l -23.65431389751272 10.24822397618887 a46.77891891891892,46.77891891891892 0 0,0 -0.31375070621973217,-0.7416139890431133 l 23.827215584924758 -9.839535461479597" fill="red" stroke="none" /><path d="M 80.45479744820244 107.68017299344265 l -36.82950059219801 14.47193678656275 a60.57081081081081,60.57081081081081 0 0,0 -0.3729596346427219,-0.9736799175017674 l 37.07315450643424 -13.835833302227826" fill="red" stroke="none" /><path d="M 80.32549172779594 107.34259656027581 l -47.85885819455788 17.861096333195505 a72.08315837837839,72.08315837837839 0 0,0 -0.42383434523084385,-1.1662100884671915 l 48.15921680079395 -17.034638447722195" fill="red" stroke="none" /><path d="M 79.97269907076064 106.31721596034903 l -29.868824861548273 9.42153003037784 a52.31951351351351,52.31951351351351 0 0,0 -0.26352399072540245,-0.8612116490866791 l 30.026575624779806 -8.905991408739112" fill="red" stroke="none" /><path d="M 79.86692584326677 105.97154293290107 l -30.009010877920907 8.900781641012788 a52.30119243243244,52.30119243243244 0 0,0 -0.2485735287806443,-0.8653170634687737 l 30.157777043587657 -8.382907102039418" fill="red" stroke="none" /><line stroke="#e1ed5e" stroke-width="0.3" x1="15.007084014347285" x2="10.007500721073583" y1="101.09737516637583" y2="101.16192664675087" /><path d="M 14.007167355692545 101.11028546245083 a86.0,86.0 0 0,1 10.666146001902534,-42.60595125391555" fill="none" id="id118" stroke="none" /><text fill="#e1ed5e" style="font-size:6.75px; font-family:Arial;" text-anchor="middle"><textPath startOffset="22.20632615414155" xlink:href="#id118">October</textPath></text><line stroke="#e1ed5e" stroke-width="0.3" x1="26.266209847984243" x2="21.928928074336255" y1="57.711370442889674" y2="55.22380399835377" /><path d="M 25.398753493254645 57.213857153982495 a86.0,86.0 0 0,1 29.58750427330803,-30.492523968695096" fill="none" id="id119" stroke="none" /><text fill="#e1ed5e" style="font-size:6.75px; font-family:Arial;" text-anchor="middle"><textPath startOffset="21.46611528233685" xlink:href="#id119">November</textPath></text><line stroke="#e1ed5e" stroke-width="0.3" x1="56.762969772571076" x2="54.21961505331055" y1="26.818313649435495" y2="22.513508569990535" /><path d="M 56.25429882871897 25.957352633546506 a86.0,86.0 0 0,1 42.265352541879196,-11.944610805530505" fill="none" id="id120" stroke="none" /><text fill="#e1ed5e" style="font-size:6.75px; font-family:Arial;" text-anchor="middle"><textPath startOffset="22.20632615414155" xlink:href="#id120">December</textPath></text></svg>