<?xml version="1.0" encoding="utf-8" ?>
<svg baseProfile="full" height="200mm" version="1.1" viewBox="0,0,200,200" width="200mm" xmlns="http://www.w3.org/2000/svg" xmlns:ev="http://www.w3.org/2001/xml-events" xmlns:xlink="http://www.w3.org/1999/xlink"><defs /><rect fill="#1a1a1a" height="200" width="200" x="0" y="0" /><rect fill="#1a1a1a" height="200" width="180" x="10" y="0" /><text alignment-baseline="middle" fill="#e1ed5e" style="dominant-baseline: central; font-size:9.0px; font-family:Arial;" text-anchor="middle" x="100.0" y="100.0">2026</text><line stroke="#e1ed5e" stroke-width="0.3" x1="100.0" x2="100.0" y1="15.0" y2="10.0" /><path d="M 100.0 14.0 a86.0,86.0 0 0,1 42.46469731375804,11.215312516191453" fill="none" id="id121" stroke="none" /><text fill="#e1ed5e" style="font-size:6.75px; font-family:Arial;" text-anchor="middle"><textPath startOffset="22.20632615414155" xlink:href="#id121">January</textPath></text><line stroke="#e1ed5e" stroke-width="0.3" x1="143.23703022742887" x2="145.7803849466894" y1="26.81831364943548" y2="22.513508569990506" /><path d="M 143.74570117128098 25.957352633546492 a86.0,86.0 0 0,1 28.547481713284135,27.462654790039103" fill="none" id="id122" stroke="none" /><text fill="#e1ed5e" style="font-size:6.75px; font-family:Arial;" text-anchor="middle"><textPath startOffset="19.985693538727396" xlink:href="#id122">February</textPath></text><path d="M 110.99172775467656 82.1063720568725 l 3.7333223573987726 -6.077541469914166 a28.132615659264136,28.132615659264136 0 0,0 0.41044260150812795,0.2570191194103131 l -3.837384111279164 6.0123780091809085" fill="#ff0000" stroke="none" /><path d="M 113.06298171725822 83.55741782278167 l 7.098731856256969 -8.935286324892857 a32.4118944822871,32.4118944822871 0 0,0 0.4338511135741536,0.3508107615210599 l -7.251486368395614 8.811769466107668" fill="#ff4406" stroke="none" /><path d="M 114.16331599549186 84.49514656593476 l 9.614955611784017 -10.525676161091479 a35.256129561165835,35.256129561165835 0 0,0 0.4445497693192457,0.4131605617981528 l -9.794713264898109 10.358611013218685" fill="#ff700a" stroke="none" /><path d="M 115.19652480421416 85.50635884689758 l 16.4960859923128 -15.733093841099729 a43.7958569674103,43.7958569674103 0 0,0 0.5156079526024481,0.5500146141114488 l -16.76446126688571 15.446809810110226" fill="#ffea16" stroke="none" /><path d="M 115.9244219780498 86.31012108654704 l 22.849541858793444 -19.643253720978404 a51.13235768909372,51.13235768909372 0 0,0 0.5680303026783791,0.672368712390789 l -23.18428277495894 19.247026058958507" fill="#b3ff20" stroke="none" /><path d="M 117.04232023915458 87.72973835380427 l 28.907557225187745 -20.813086817281015 a56.62066040363627,56.62066040363627 0 0,0 0.5626674897432798,0.7958532611841135 l -29.261537334734907 20.31240705576511" fill="#71ff27" stroke="none" /><line stroke="#e1ed5e" stroke-width="0.3" x1="172.23445277983987" x2="176.4835382374775" y1="55.19839476539836" y2="52.563006222186495" /><path d="M 173.08426987136738 54.67131705675599 a86.0,86.0 0 0,1 12.851231095245387,41.99856678651699" fill="none" id="id123" stroke="none" /><text fill="#e1ed5e" style="font-size:6.75px; font-family:Arial;" text-anchor="middle"><textPath startOffset="22.20632615414155" xlink:href="#id123">March</textPath></text><path d="M 118.03404312379186 89.2402003453031 l 34.25283807736667 -20.43655284549115 a60.886208249981,60.886208249981 0 0,0 0.529247060677094,0.9046547846524847 l -34.59954481251409 19.84391864848477" fill="#41ff2d" stroke="none" /><path d="M 119.34039704204932 91.81776055985345 l 27.76991318916764 -11.748470233151778 a51.15285444784888,51.15285444784888 0 0,0 0.33609450322238393,0.8138794983298653 l -27.96802937927622 11.26871616436861" fill="#b3ff20" stroke="none" /><path d="M 119.61058180528143 92.48833698450437 l 37.25492765954989 -14.270176429433592 a60.894455382238995,60.894455382238995 0 0,0 0.36651332123845326,0.9820734819601874 l -37.49504556928997 13.62677981044407" fill="#41ff2d" stroke="none" /><path d="M 120.08093135843002 93.85539295169968 l 38.1492712263309 -11.673376930618634 a60.895295763591704,60.895295763591704 0 0,0 0.2980798713398079,1.0049771427161627 l -38.34455699478241 11.01497040115594" fill="#41ff2d" stroke="none" /><path d="M 120.28053869075195 94.5502522615342 l 41.28059533029351 -11.092842970013214 a63.74504317439417,63.74504317439417 0 0,0 0.27563255930099595,1.0621246885839701 l -41.4654242214648 10.380621855880394" fill="#31ff40" stroke="none" /><path d="M 120.53481517161879 95.60439243477599 l 48.76993068172933 -10.439513307933074 a70.87473886455142,70.87473886455142 0 0,0 0.2450939732468789,1.195165256904705 l -48.942403950891205 9.598472394864958" fill="#3bff9b" stroke="none" /><path d="M 120.94382443527127 98.46500227214037 l 62.831473305813795 -4.6049931835789 a84.0,84.0 0 0,0 0.09327763598233796,1.442963742987859 l -62.90143153280055 3.5227703763380056" fill="#4dd2ff" stroke="none" /><line stroke="#e1ed5e" stroke-width="0.3" x1="184.98032266829074" x2="189.97916517819016" y1="98.17113171792111" y2="98.06355123074" /><path d="M 185.9800911702706 98.14961562048488 a86.0,86.0 0 0,1 -9.607161424134198,41.387399972396054" fill="none" id="id124" stroke="none" /><text fill="#e1ed5e" style="font-size:6.75px; font-family:Arial;" text-anchor="middle"><textPath startOffset="21.466115282336823" xlink:href="#id124">April</textPath></text><line stroke="#e1ed5e" stroke-width="0.3" x1="174.80103733775053" x2="179.2010983576182" y1="140.37084112569926" y2="142.7455964860345" /><path d="M 175.68104954172406 140.8457921977663 a86.0,86.0 0 0,1 -30.038265399797805,32.042727171017184" fill="none" id="id125" stroke="none" /><text fill="#e1ed5e" style="font-size:6.75px; font-family:Arial;" text-anchor="middle"><textPath startOffset="22.206326154141568" xlink:href="#id125">May</textPath></text><line stroke="#e1ed5e" stroke-width="0.3" x1="143.8653032363475" x2="146.44561519142675" y1="172.8068346515853" y2="177.08958963109032" /><path d="M 144.38136562736335 173.6633856474863 a86.0,86.0 0 0,1 -40.68145358897372,12.25698825130547" fill="none" id="id126" stroke="none" /><text fill="#e1ed5e" style="font-size:6.75px; font-family:Arial;" text-anchor="middle"><textPath startOffset="21.466115282336833" xlink:href="#id126">June</textPath></text><line stroke="#e1ed5e" stroke-width="0.3" x1="102.19456741930631" x2="102.32365962044197" y1="184.97166512339345" y2="189.96999836594603" /><path d="M 102.22038585953345 185.97133177190398 a86.0,86.0 0 0,1 -42.740103519485714,-10.115201625700543" fill="none" id="id127" stroke="none" /><text fill="#e1ed5e" style="font-size:6.75px; font-family:Arial;" text-anchor="middle"><textPath startOffset="22.20632615414155" xlink:href="#id127">July</textPath></text><line stroke="#e1ed5e" stroke-width="0.3" x1="58.666819895761336" x2="56.23545636021788" y1="174.27360380694188" y2="178.64263932499728" /><path d="M 58.180547188652646 175.14741091055294 a86.0,86.0 0 0,1 -31.652253787137756,-30.449443065178592" fill="none" id="id128" stroke="none" /><text fill="#e1ed5e" style="font-size:6.75px; font-family:Arial;" text-anchor="middle"><textPath startOffset="22.20632615414155" xlink:href="#id128">August</textPath></text><line stroke="#e1ed5e" stroke-width="0.3" x1="26.63291911575756" x2="22.317208475507996" y1="142.92168965132927" y2="145.44649492493687" /><path d="M 25.769776987707644 143.4266507060508 a86.0,86.0 0 0,1 -11.730757126820373,-40.83630448921669" fill="none" id="id129" stroke="none" /><text fill="#e1ed5e" style="font-size:6.75px; font-family:Arial;" text-anchor="middle"><textPath startOffset="21.46611528233685" xlink:href="#id129">September</textPath></text><line stroke="#e1ed5e" stroke-width="0.3" x1="15.007084014347285" x2="10.007500721073583" y1="101.09737516637583" y2="101.16192664675087" /><path d="M 14.007167355692545 101.11028546245083 a86.0,86.0 0 0,1 10.666146001902534,-42.60595125391555" fill="none" id="id130" stroke="none" /><text fill="#e1ed5e" style="font-size:6.75px; font-family:Arial;" text-anchor="middle"><textPath startOffset="22.20632615414155" xlink:href="#id130">October</textPath></text><line stroke="#e1ed5e" stroke-width="0.3" x1="26.266209847984243" x2="21.928928074336255" y1="57.711370442889674" y2="55.22380399835377" /><path d="M 25.398753493254645 57.213857153982495 a86.0,86.0 0 0,1 29.58750427330803,-30.492523968695096" fill="none" id="id131" stroke="none" /><text fill="#e1ed5e" style="font-size:6.75px; font-family:Arial;" text-anchor="middle"><textPath startOffset="21.46611528233685" xlink:href="#id131">November</textPath></text><line stroke="#e1ed5e" stroke-width="0.3" x1="56.762969772571076" x2="54.21961505331055" y1="26.818313649435495" y2="22.513508569990535" /><path d="M 56.25429882871897 25.957352633546506 a86.0,86.0 0 0,1 42.265352541879196,-11.944610805530505" fill="none" id="id132" stroke="none" /><text fill="#e1ed5e" style="font-size:6.75px; font-family:Arial;" text-anchor="middle"><textPath startOffset="22.20632615414155" xlink:href="#id132">December</textPath></text></svg>