<?xml version="1.0" encoding="utf-8" ?>
<svg baseProfile="full" height="200mm" version="1.1" viewBox="0,0,200,200" width="200mm" xmlns="http://www.w3.org/2000/svg" xmlns:ev="http://www.w3.org/2001/xml-events" xmlns:xlink="http://www.w3.org/1999/xlink"><defs /><rect fill="#1a1a1a" height="200" width="200" x="0" y="0" /><rect fill="#1a1a1a" height="200" width="180" x="10" y="0" /><text alignment-baseline="middle" fill="#e1ed5e" style="dominant-baseline: central; font-size:9.0px; font-family:Arial;" text-anchor="middle" x="100.0" y="100.0">2025</text><line stroke="#e1ed5e" stroke-width="0.3" x1="100.0" x2="100.0" y1="15.0" y2="10.0" /><path d="M 100.0 14.0 a86.0,86.0 0 0,1 42.46469731375804,11.215312516191453" fill="none" id="id109" stroke="none" /><text fill="#e1ed5e" style="font-size:6.75px; font-family:Arial;" text-anchor="middle"><textPath startOffset="22.20632615414155" xlink:href="#id109">January</textPath></text><line stroke="#e1ed5e" stroke-width="0.3" x1="143.23703022742887" x2="145.7803849466894" y1="26.81831364943548" y2="22.513508569990506" /><path d="M 143.74570117128098 25.957352633546492 a86.0,86.0 0 0,1 28.547481713284135,27.462654790039103" fill="none" id="id110" stroke="none" /><text fill="#e1ed5e" style="font-size:6.75px; font-family:Arial;" text-anchor="middle"><textPath startOffset="19.985693538727396" xlink:href="#id110">February</textPath></text><line stroke="#e1ed5e" stroke-width="0.3" x1="172.23445277983987" x2="176.4835382374775" y1="55.19839476539836" y2="52.563006222186495" /><path d="M 173.08426987136738 54.67131705675599 a86.0,86.0 0 0,1 12.851231095245387,41.99856678651699" fill="none" id="id111" stroke="none" /><text fill="#e1ed5e" style="font-size:6.75px; font-family:Arial;" text-anchor="middle"><textPath startOffset="22.20632615414155" xlink:href="#id111">March</textPath></text><line stroke="#e1ed5e" stroke-width="0.3" x1="184.98032266829074" x2="189.97916517819016" y1="98.17113171792111" y2="98.06355123074" /><path d="M 185.9800911702706 98.14961562048488 a86.0,86.0 0 0,1 -9.607161424134198,41.387399972396054" fill="none" id="id112" stroke="none" /><text fill="#e1ed5e" style="font-size:6.75px; font-family:Arial;" text-anchor="middle"><textPath startOffset="21.466115282336823" xlink:href="#id112">April</textPath></text><line stroke="#e1ed5e" stroke-width="0.3" x1="174.80103733775053" x2="179.2010983576182" y1="140.37084112569926" y2="142.7455964860345" /><path d="M 175.68104954172406 140.8457921977663 a86.0,86.0 0 0,1 -30.038265399797805,32.042727171017184" fill="none" id="id113" stroke="none" /><text fill="#e1ed5e" style="font-size:6.75px; font-family:Arial;" text-anchor="middle"><textPath startOffset="22.206326154141568" xlink:href="#id113">May</textPath></text><line stroke="#e1ed5e" stroke-width="0.3" x1="143.8653032363475" x2="146.44561519142675" y1="172.8068346515853" y2="177.08958963109032" /><path d="M 144.38136562736335 173.6633856474863 a86.0,86.0 0 0,1 -40.68145358897372,12.25698825130547" fill="none" id="id114" stroke="none" /><text fill="#e1ed5e" style="font-size:6.75px; font-family:Arial;" text-anchor="middle"><textPath startOffset="21.466115282336833" xlink:href="#id114">June</textPath></text><line stroke="#e1ed5e" stroke-width="0.3" x1="102.19456741930631" x2="102.32365962044197" y1="184.97166512339345" y2="189.96999836594603" /><path d="M 102.22038585953345 185.97133177190398 a86.0,86.0 0 0,1 -42.740103519485714,-10.115201625700543" fill="none" id="id115" stroke="none" /><text fill="#e1ed5e" style="font-size:6.75px; font-family:Arial;" text-anchor="middle"><textPath startOffset="22.20632615414155" xlink:href="#id115">July</textPath></text><line stroke="#e1ed5e" stroke-width="0.3" x1="58.666819895761336" x2="56.23545636021788" y1="174.27360380694188" y2="178.64263932499728" /><path d="M 58.180547188652646 175.14741091055294 a86.0,86.0 0 0,1 -31.652253787137756,-30.449443065178592" fill="none" id="id116" stroke="none" /><text fill="#e1ed5e" style="font-size:6.75px; font-family:Arial;" text-anchor="middle"><textPath startOffset="22.20632615414155" xlink:href="#id116">August</textPath></text><path d="M 88.24862548938628 117.40417183066458 l -5.925045609391991 8.77518725977507 a31.5882046125627,31.5882046125627 0 0,0 -0.44801567957025057,-0.3081492696334889 l 6.0752181735851325 -8.67189720077648" fill="#ff0000" stroke="none" /><path d="M 86.51685102203217 116.09983520530335 l -9.634699806627244 11.504514219396077 a36.00604170952852,36.00604170952852 0 0,0 -0.4717383393379882,-0.4020256469285496 l 9.83130362254229 -11.336964182244575" fill="#ff4b06" stroke="none" /><path d="M 84.9287848128048 114.62390073753433 l -15.171616877469525 14.721322500425746 a42.139898174737255,42.139898174737255 0 0,0 -0.5006489771502273,-0.5249284509737789 l 15.42277240599871 -14.457986932869467" fill="#ffac10" stroke="none" /><path d="M 84.19399662182784 113.82643327865904 l -11.267069150858308 9.855962708164052 a35.96953065914037,35.96953065914037 0 0,0 -0.4036423489071405,-0.46952724219437286 l 11.435054009336229 -9.660558366808148" fill="#ff4a06" stroke="none" /><path d="M 83.50135304334701 112.99209946851258 l -17.22528331845481 13.564299838322938 a42.92488575808242,42.92488575808242 0 0,0 -0.4521281953038598,-0.5844366399243046 l 17.45621833097674 -13.26578520428538" fill="#ffb811" stroke="none" /><path d="M 83.06392112726016 112.41649034213515 l -12.056431295956827 8.839033159429679 a35.94944958142689,35.94944958142689 0 0,0 -0.36158334307483897,-0.5022076385580617 l 12.206794431407273 -8.630191915420479" fill="#ff4a06" stroke="none" /><path d="M 82.85270091963577 112.12312394758628 l -12.23809772644446 8.65232331488608 a35.98778618433444,35.98778618433444 0 0,0 -0.3532614093943711,-0.5088994077135058 l 12.385220043000965 -8.440382644985561" fill="#ff4a06" stroke="none" /><path d="M 82.6465618267979 111.8261652097733 l -22.62829484104927 15.420918352592384 a48.38328779111043,48.38328779111043 0 0,0 -0.46309002838248187,-0.6922567595516607 l 22.890387974842483 -15.029124678834902" fill="#f5ff19" stroke="none" /><path d="M 82.05923443525364 110.91462005526583 l -28.85278480338867 17.553163075947435 a54.772721609036196,54.772721609036196 0 0,0 -0.4830931205738198,-0.8096918575461025 l 29.150658799660718 -17.053909124515222" fill="#9eff22" stroke="none" /><line stroke="#e1ed5e" stroke-width="0.3" x1="26.63291911575756" x2="22.317208475507996" y1="142.92168965132927" y2="145.44649492493687" /><path d="M 25.769776987707644 143.4266507060508 a86.0,86.0 0 0,1 -11.730757126820373,-40.83630448921669" fill="none" id="id117" stroke="none" /><text fill="#e1ed5e" style="font-size:6.75px; font-family:Arial;" text-anchor="middle"><textPath startOffset="21.46611528233685" xlink:href="#id117">September</textPath></text><path d="M 80.73074385275274 108.34839909993369 l -12.680485049419888 5.493816116426613 a34.81943257191373,34.81943257191373 0 0,0 -0.23353728158069947,-0.5520131478590276 l 12.773173312192894 -5.274728442901427" fill="#ff3705" stroke="none" /><path d="M 80.45479744820244 107.68017299344265 l -19.743372547621224 7.758042733907201 a42.21292027551355,42.21292027551355 0 0,0 -0.2599224793660498,-0.6785755742935302 l 19.873989306580782 -7.417043592780513" fill="#ffad10" stroke="none" /><path d="M 80.32549172779594 107.34259656027581 l -25.65593483065308 9.574886255447446 a48.384401378147274,48.384401378147274 0 0,0 -0.2844904626660273,-0.782795569465038 l 25.816949554324335 -9.13184288897629" fill="#f5ff19" stroke="none" /><path d="M 79.97269907076064 106.31721596034903 l -16.0119286799703 5.050646203922621 a37.78960652098951,37.78960652098951 0 0,0 -0.1903394594023068,-0.622040366294158 l 16.09649491187874 -4.774278865076416" fill="#ff6809" stroke="none" /><path d="M 79.86692584326677 105.97154293290107 l -16.087078891151776 4.771486039122942 a37.7797850484351,37.7797850484351 0 0,0 -0.17955717736638566,-0.6250620901010482 l 16.166828705404267 -4.493866473517297" fill="#ff6809" stroke="none" /><path d="M 79.76711848015287 105.62410040840567 l -16.204257375742134 4.504270458729527 a37.818632806048086,37.818632806048086 0 0,0 -0.1689446996980681,-0.6287060765474475 l 16.27939015178198 -4.224673449006541" fill="#ff6809" stroke="none" /><path d="M 79.58551787078972 104.9243191809786 l -26.998645229926726 6.512530943703527 a48.77300674295351,48.77300674295351 0 0,0 -0.18984180804924938,-0.8178335404544411 l 27.106747603906534 -6.046828745900511" fill="#f0ff19" stroke="none" /><path d="M 79.35854240842038 103.8639653848113 l -37.77867454744287 7.071956526699903 a59.43489065519949,59.43489065519949 0 0,0 -0.1795883457739864,-1.0072268160193922 l 37.89480933555605 -6.420610959947297" fill="#63ff29" stroke="none" /><path d="M 79.23777060512086 103.15116336523772 l -33.38975545349256 5.067691535343654 a54.77213743222999,54.77213743222999 0 0,0 -0.13345087569377653,-0.9333551137826331 l 33.472040380202934 -4.49219094958062" fill="#9eff22" stroke="none" /><path d="M 79.0235259727143 100.99374915477108 l -33.77739251242635 1.600185770779801 a54.81527523826358,54.81527523826358 0 0,0 -0.03653794954809869,-0.9428821251071935 l 33.799932594825655 -1.0185263986586108" fill="#9dff22" stroke="none" /><line stroke="#e1ed5e" stroke-width="0.3" x1="15.007084014347285" x2="10.007500721073583" y1="101.09737516637583" y2="101.16192664675087" /><path d="M 14.007167355692545 101.11028546245083 a86.0,86.0 0 0,1 10.666146001902534,-42.60595125391555" fill="none" id="id118" stroke="none" /><text fill="#e1ed5e" style="font-size:6.75px; font-family:Arial;" text-anchor="middle"><textPath startOffset="22.20632615414155" xlink:href="#id118">October</textPath></text><path d="M 79.08570108090925 98.10471618934814 l -43.81281422964359 -3.970380160950225 a64.99234716793055,64.99234716793055 0 0,0 0.11055778330937828,-1.1133017901551066 l 43.73797932065198 4.723957481809762" fill="#31ff40" stroke="none" /><path d="M 79.32604984820605 96.31383870115002 l -50.329246880610796 -8.973694948929511 a72.12299181978608,72.12299181978608 0 0,0 0.22843850430228776,-1.2203276244075016 l 50.167322652398646 9.838700650799584" fill="#3cffa0" stroke="none" /><path d="M 79.46518482838121 95.60439243477599 l -16.442555522184982 -3.519633405068263 a37.81503646758485,37.81503646758485 0 0,0 0.14172645836769374,-0.6353319230965871 l 16.37953467681525 3.80214349771481" fill="#ff6809" stroke="none" /><path d="M 80.02781315780177 93.51064311812611 l -15.969496719220935 -5.188804023001657 a37.791322540357754,37.791322540357754 0 0,0 0.20634549116291606,-0.6169467544272644 l 15.877813934286246 5.462923880351243" fill="#ff6809" stroke="none" /><path d="M 80.38941819471856 92.48833698450439 l -25.581728104967866 -9.79885873792892 a48.39420459517649,48.39420459517649 0 0,0 0.30466790456321124,-0.7753465853964356 l 25.409266650522962 10.237754328221119" fill="#f5ff19" stroke="none" /><path d="M 80.803312248108 91.48605970444005 l -46.11285248707958 -20.451552789061953 a71.4446347590995,71.4446347590995 0 0,0 0.5082696618290027,-1.119904826143444 l 45.75398050828723 21.242279624047466" fill="#3bff98" stroke="none" /><line stroke="#e1ed5e" stroke-width="0.3" x1="26.266209847984243" x2="21.928928074336255" y1="57.711370442889674" y2="55.22380399835377" /><path d="M 25.398753493254645 57.213857153982495 a86.0,86.0 0 0,1 29.58750427330803,-30.492523968695096" fill="none" id="id119" stroke="none" /><text fill="#e1ed5e" style="font-size:6.75px; font-family:Arial;" text-anchor="middle"><textPath startOffset="21.46611528233685" xlink:href="#id119">November</textPath></text><path d="M 81.78341655067845 89.55222093294921 l -47.90712137770459 -27.476229079129805 a76.22712597181695,76.22712597181695 0 0,0 0.6625963994803339,-1.1325920304904875 l 47.42706530375393 28.296800521974184" fill="#42ffd4" stroke="none" /><path d="M 82.95767976084542 87.72973835380427 l -20.75544142219923 -14.943663377922011 a46.57540662009093,46.57540662009093 0 0,0 0.47404313009968857,-0.6465942967155962 l 20.495135679585907 15.298720118309108" fill="#ffef16" stroke="none" /><path d="M 83.6137871275137 86.86637796730984 l -39.94138497374125 -32.013196568933225 a72.18748859029677,72.18748859029677 0 0,0 0.7854738093381438,-0.9628980147799081 l 39.38441267232672 32.69597875332122" fill="#3cffa1" stroke="none" /><path d="M 84.31358615837235 86.03803664274999 l -47.05924152488297 -41.885890071750055 a84.0,84.0 0 0,0 0.9706254375358201,-1.071788850921776 l 46.331272446731106 42.68973170994139" fill="#4dd2ff" stroke="none" /><line stroke="#e1ed5e" stroke-width="0.3" x1="56.762969772571076" x2="54.21961505331055" y1="26.818313649435495" y2="22.513508569990535" /><path d="M 56.25429882871897 25.957352633546506 a86.0,86.0 0 0,1 42.265352541879196,-11.944610805530505" fill="none" id="id120" stroke="none" /><text fill="#e1ed5e" style="font-size:6.75px; font-family:Arial;" text-anchor="middle"><textPath startOffset="22.20632615414155" xlink:href="#id120">December</textPath></text></svg>