<?xml version="1.0" encoding="utf-8" ?>
<svg baseProfile="full" height="200mm" version="1.1" viewBox="0,0,200,200" width="200mm" xmlns="http://www.w3.org/2000/svg" xmlns:ev="http://www.w3.org/2001/xml-events" xmlns:xlink="http://www.w3.org/1999/xlink"><defs /><rect fill="#1a1a1a" height="200" width="200" x="0" y="0" /><rect fill="#1a1a1a" height="200" width="180" x="10" y="0" /><text alignment-baseline="middle" fill="#e1ed5e" style="dominant-baseline: central; font-size:9.0px; font-family:Arial;" text-anchor="middle" x="100.0" y="100.0">2019</text><line stroke="#e1ed5e" stroke-width="0.3" x1="100.0" x2="100.0" y1="15.0" y2="10.0" /><path d="M 100.0 14.0 a86.0,86.0 0 0,1 42.46469731375804,11.215312516191453" fill="none" id="id37" stroke="none" /><text fill="#e1ed5e" style="font-size:6.75px; font-family:Arial;" text-anchor="middle"><textPath startOffset="22.20632615414155" xlink:href="#id37">January</textPath></text><path d="M 108.09893153111575 80.62456947434976 l 2.852039981216237 -6.823060832176118 a28.395153221808982,28.395153221808982 0 0,0 0.44934145788760876,0.19238456209370774 l -2.969065196894161 6.772956742119619" fill="#ff5808" stroke="none" /><path d="M 108.76106565485865 80.91482961587045 l 3.0769104264942206 -6.702764487763033 a28.375257931156447,28.375257931156447 0 0,0 0.44214298357468007,0.2075920592784579 l -3.191831621368499 6.6488074458445725" fill="#ff5708" stroke="none" /><line stroke="#e1ed5e" stroke-width="0.3" x1="143.23703022742887" x2="145.7803849466894" y1="26.81831364943548" y2="22.513508569990506" /><path d="M 143.74570117128098 25.957352633546492 a86.0,86.0 0 0,1 28.547481713284135,27.462654790039103" fill="none" id="id38" stroke="none" /><text fill="#e1ed5e" style="font-size:6.75px; font-family:Arial;" text-anchor="middle"><textPath startOffset="19.985693538727396" xlink:href="#id38">February</textPath></text><path d="M 113.34407831869373 83.78471172551755 l 8.477705532795017 -10.301830957321828 a34.3416345390667,34.3416345390667 0 0,0 0.45321548480984725,0.3795549347486581 l -8.653778554563981 10.15437486517935" fill="#ffa80f" stroke="none" /><path d="M 113.89432698308785 84.25364557470407 l 4.883138702431992 -5.534030745783244 a28.38041596947377,28.38041596947377 0 0,0 0.3635247649163687,0.32637612324607507 l -4.977674454944351 5.449155613767871" fill="#ff5708" stroke="none" /><path d="M 114.42810811169701 84.74124197986012 l 5.0879481740856045 -5.380869716691732 a28.40546929844363,28.40546929844363 0 0,0 0.35238574882369395,0.33899481117353064 l -5.179817166521717 5.2924918187559" fill="#ff5808" stroke="none" /><path d="M 114.94478906791727 85.2469230424477 l 7.875336490839679 -7.774311486630401 a32.06620277851009,32.06620277851009 0 0,0 0.3843909126996975,0.39614862445218685 l -8.007991667242486 7.637598666628099" fill="#ff8a0c" stroke="none" /><path d="M 115.19652480421416 85.50635884689758 l 10.672523186833025 -10.178887822117554 a35.74830527446261,35.74830527446261 0 0,0 0.4208642499058484,0.4489486378883492 l -10.846154758709337 9.99366976735115" fill="#ffba11" stroke="none" /><path d="M 115.68641384162765 86.03803664274999 l 11.078769367063607 -9.86084987353081 a35.83157075015656,35.83157075015656 0 0,0 0.4061050180630117,0.4642482379967177 l -11.246866248704467 9.668686079331144" fill="#ffbb11" stroke="none" /><path d="M 116.38621287248628 86.86637796730983 l 5.838253936444981 -4.679386330985681 a28.482103010586727,28.482103010586727 0 0,0 0.303328862591433,0.3851968519628426 l -5.917936879630378 4.5781970850697995" fill="#ff5908" stroke="none" /><path d="M 116.60985879189232 87.15038557335679 l 14.85836939228845 -11.494638220087603 a39.785575551693725,39.785575551693725 0 0,0 0.4143839335803194,0.5452806830529905 l -15.054029266092883 11.237172761153579" fill="#ffed16" stroke="none" /><path d="M 117.04232023915458 87.72973835380427 l 3.602308594812367 -2.5936180266778126 a25.438860403365616,25.438860403365616 0 0,0 0.25279853013110043,0.35756559299201907 l -3.6464197447473508 2.5312259333540004" fill="#ff2e04" stroke="none" /><path d="M 117.2510076193507 88.02491185347247 l 6.073734349069537 -4.2161887475554485 a28.39367949657546,28.39367949657546 0 0,0 0.2752504035783847,0.40389600313540724 l -6.145409218316654 4.111014721149634" fill="#ff5808" stroke="none" /><path d="M 117.65298651832404 88.62581576622439 l 9.321655764719248 -6.006135557951994 a32.08904551962967,32.08904551962967 0 0,0 0.2951770503428481,0.46689920672041707 l -9.42366041130805 5.844788703517371" fill="#ff8a0c" stroke="none" /><line stroke="#e1ed5e" stroke-width="0.3" x1="172.23445277983987" x2="176.4835382374775" y1="55.19839476539836" y2="52.563006222186495" /><path d="M 173.08426987136738 54.67131705675599 a86.0,86.0 0 0,1 12.851231095245387,41.99856678651699" fill="none" id="id39" stroke="none" /><text fill="#e1ed5e" style="font-size:6.75px; font-family:Arial;" text-anchor="middle"><textPath startOffset="22.20632615414155" xlink:href="#id39">March</textPath></text><path d="M 118.3937258080291 89.86733742301442 l 12.974069086121963 -7.147103619582543 a35.81241232212078,35.81241232212078 0 0,0 0.29279529253128517,0.5425052091621715 l -13.095172477871712 6.922717427087913" fill="#ffbb11" stroke="none" /><path d="M 118.56541770881063 90.18545643968196 l 6.54172331224693 -3.4582592977224573 a28.399574397509546,28.399574397509546 0 0,0 0.22474958891112184,0.43414466941891894 l -6.600282334318168 3.3451419060431937" fill="#ff5808" stroke="none" /><path d="M 118.73160827565052 90.50648371742162 l 13.980741439283182 -7.085691444278506 a36.673804721113875,36.673804721113875 0 0,0 0.2805371197785225,0.565545714866413 l -14.100638572015113 6.8439861409131435" fill="#ffc612" stroke="none" /><path d="M 119.196687751892 91.48605970444005 l 14.263199249744495 -6.325884361172224 a36.60306590990486,36.60306590990486 0 0,0 0.25048574378542854,0.5781556320508763 l -14.369975703372605 6.079429584534745" fill="#ffc512" stroke="none" /><path d="M 119.34039704204932 91.81776055985345 l 6.793758052725532 -2.874199271347217 a28.376731656389968,28.376731656389968 0 0,0 0.18644636026817757,0.45149465018203094 l -6.842226099879906 2.756830050711883" fill="#ff5708" stroke="none" /><path d="M 119.47837535516314 92.15188598940014 l 2.1659189402177033 -0.872679495625408 a23.335117632514216,23.335117632514216 0 0,0 0.1469072888232211,0.3738630261111112 l -2.1806197789226247 0.8352674646185123" fill="#ff1001" stroke="none" /><path d="M 119.61058180528143 92.48833698450437 l 6.894859635470085 -2.6410160919777512 a28.383363419940814,28.383363419940814 0 0,0 0.1708346142462541,0.4577518325534252 l -6.939298838217964 2.521941122394993" fill="#ff5708" stroke="none" /><path d="M 119.85752413597 93.16781622104841 l 8.33621165464296 -2.868158671482671 a29.815824346923343,29.815824346923343 0 0,0 0.16279824324017986,0.4867460259366216 l -8.38434719165491 2.724239542623735" fill="#ff6b09" stroke="none" /><path d="M 119.97218684219823 93.5106431181261 l 7.040917438528661 -2.2877327553277054 a28.40325871059335,28.40325871059335 0 0,0 0.14708088704237893,0.46628660540116273 l -7.079253809339246 2.1661959835001237" fill="#ff5808" stroke="none" /><path d="M 120.08093135843002 93.85539295169968 l 3.813369325783219 -1.166861019478717 a24.987900481908152,24.987900481908152 0 0,0 0.12231470538570527,0.41238438066340904 l -3.8328899282806264 1.1010472520687782" fill="#ff2803" stroke="none" /><path d="M 120.18372546131832 94.20196356495316 l 21.307525199972453 -6.120862458562685 a43.169248687858214,43.169248687858214 0 0,0 0.1990168751283498,0.7159695884703456 l -21.409728845667164 5.753181566673388" fill="#e8ff1a" stroke="none" /><path d="M 120.28053869075195 94.5502522615342 l 1.4267934034289274 -0.38340520644752224 a22.477409546604925,22.477409546604925 0 0,0 0.09719196366120017,0.37452028308378366 l -1.4331816989604302 0.3587884978148882" fill="#ff0300" stroke="none" /><path d="M 120.45610955862082 95.25157060432595 l 7.213671014379326 -1.6744927669281642 a28.40546929844363,28.40546929844363 0 0,0 0.10646047017280034,0.47724141298424694 l -7.241425871554164 1.5500731843939535" fill="#ff5808" stroke="none" /><path d="M 120.6074358757038 95.95851677861258 l 7.259080969371678 -1.423634367582691 a28.397363809659264,28.397363809659264 0 0,0 0.0899442903175165,0.48048599542110343 l -7.282510983599053 1.298470294699025" fill="#ff5808" stroke="none" /><path d="M 120.67395015179393 96.31383870115 l 7.270904232355143 -1.2964008132053313 a28.385574007791092,28.385574007791092 0 0,0 0.08162628447668792,0.4817629515804431 l -7.292142378352054 1.1710520733090504" fill="#ff5708" stroke="none" /><path d="M 120.73433829027371 96.67025291283417 l 15.420229243656772 -2.47634926606658 a36.61780316224007,36.61780316224007 0 0,0 0.09458571508339486,0.623201683449363 l -15.460570852179467 2.2105484702251346" fill="#ffc512" stroke="none" /><path d="M 120.78858239683441 97.02765380044208 l 14.637028295344807 -2.0927985658663624 a35.7858852679174,35.7858852679174 0 0,0 0.08193945433041458,0.6105441097368166 l -14.67088374873306 1.8405361140648815" fill="#ffbb11" stroke="none" /><path d="M 120.87857604477298 97.74499172005257 l 7.380232633670146 -0.7971082731492551 a28.423154001245884,28.423154001245884 0 0,0 0.04835032181434123,0.48688114232401386 l -7.392860081166716 0.6699516001208063" fill="#ff5808" stroke="none" /><path d="M 120.91429891909075 98.10471618934814 l 11.807734634303399 -1.0700338739273152 a32.85611950367741,32.85611950367741 0 0,0 0.046194947049259125,0.5636953615111125 l -11.824404065172153 0.8666245952084338" fill="#ff940d" stroke="none" /><path d="M 120.94382443527127 98.46500227214037 l 7.392273492328569 -0.5417884899441663 a28.412101061994473,28.412101061994473 0 0,0 0.03155016214707283,0.4880670439829151 l -7.400504245480057 0.41446238170821587" fill="#ff5808" stroke="none" /><path d="M 120.98425023603335 99.18683210126433 l 25.237024498695163 -0.9779686169918541 a46.2559661894682,46.2559661894682 0 0,0 0.023983290148584812,0.7958886401883224 l -25.250119483299393 0.5434098293785325" fill="#c4ff1e" stroke="none" /><line stroke="#e1ed5e" stroke-width="0.3" x1="184.98032266829074" x2="189.97916517819016" y1="98.17113171792111" y2="98.06355123074" /><path d="M 185.9800911702706 98.14961562048488 a86.0,86.0 0 0,1 -9.607161424134198,41.387399972396054" fill="none" id="id40" stroke="none" /><text fill="#e1ed5e" style="font-size:6.75px; font-family:Arial;" text-anchor="middle"><textPath startOffset="21.466115282336823" xlink:href="#id40">April</textPath></text><path d="M 120.99824983174949 100.27111621757518 l 7.409272923903831 0.095663879904589 a28.40989047414419,28.40989047414419 0 0,0 -0.01052239748731892,0.4889344642687197 l -7.4065284637315045 -0.22318815996342353" fill="#ff5808" stroke="none" /><path d="M 120.9904718944345 100.63252640178507 l 4.457469198737378 0.13432127526836113 a25.45949255663491,25.45949255663491 0 0,0 -0.01697040926112174,0.4379308567111467 l -4.454496656625053 -0.21102937899351398" fill="#ff2e04" stroke="none" /><path d="M 120.9764740272857 100.99374915477107 l 10.356778330365355 0.4906467930961229 a31.368393880437843,31.368393880437843 0 0,0 -0.030193795577187797,0.5391305030752781 l -10.346798183900638 -0.6688490125068244" fill="#ff800b" stroke="none" /><path d="M 120.95626037817324 101.35467743843564 l 18.473641587245808 1.194193286988057 a39.512199520875555,39.512199520875555 0 0,0 -0.049716585051563816,0.6783433030178609 l -18.450348443529904 -1.5120097265026882" fill="#ffea16" stroke="none" /><path d="M 120.92983693683757 101.71520430193887 l 11.050527127723377 0.9055928971335407 a32.08757179439615,32.08757179439615 0 0,0 -0.04985095163240497,0.5501010972507883 l -11.033301579813898 -1.0956753829328996" fill="#ff8a0c" stroke="none" /><path d="M 120.89721153311464 102.0752229133903 l 7.360422759232533 0.7309357010620354 a28.396626947042503,28.396626947042503 0 0,0 -0.052490081105590544,0.48599296051583435 l -7.34675037662589 -0.8575249834626612" fill="#ff5808" stroke="none" /><path d="M 120.76222939487914 103.15116336523771 l 18.395847315402232 2.792008460666529 a39.606517935820904,39.606517935820904 0 0,0 -0.1081036249494961,0.6731613757534806 l -18.345061936091447 -3.1082490661132143" fill="#ffeb16" stroke="none" /><path d="M 120.70491114924044 103.5080841355445 l 7.293417162742944 1.235741648834128 a28.397363809659264,28.397363809659264 0 0,0 -0.08580541723386904,0.4812423480221349 l -7.271065303169887 -1.3611027475894812" fill="#ff5808" stroke="none" /><path d="M 120.64145759157962 103.86396538481128 l 7.309452240222181 1.3682885674542327 a28.436417528347572,28.436417528347572 0 0,0 -0.09420587968472097,0.4803537509307514 l -7.284816427561796 -1.493906045452929" fill="#ff5808" stroke="none" /><path d="M 120.5718875245553 104.21870165774334 l 23.160980964600462 4.749650156005022 a44.64297392137934,44.64297392137934 0 0,0 -0.16085493028384695,0.7514606829224739 l -23.07579199559217 -5.147624658343665" fill="#d6ff1c" stroke="none" /><path d="M 120.41448212921028 104.9243191809786 l 7.253431594015719 1.7496506695714806 a28.461470857317433,28.461470857317433 0 0,0 -0.11898071999015833,0.47526883235540734 l -7.2222395597305 -1.874247341324284" fill="#ff5908" stroke="none" /><path d="M 120.32669344350535 105.2749913415812 l 7.1537687916350885 1.8564784548175552 a28.39073204610842,28.39073204610842 0 0,0 -0.12682805653859913,0.4719743795752366 l -7.120752658754712 -1.97934376756834" fill="#ff5808" stroke="none" /><path d="M 120.23288151984713 105.62410040840565 l 7.132111785628099 1.9825012451636632 a28.402521847976587,28.402521847976587 0 0,0 -0.13498956244911878,0.46991637585225005 l -7.09692958629288 -2.104975096520495" fill="#ff5808" stroke="none" /><path d="M 120.02730092923936 106.31721596034902 l 7.087050956671505 2.235470050281629 a28.43125949003025,28.43125949003025 0 0,0 -0.15123771420972595,0.46546182322329277 l -7.047520991445532 -2.3571307734827167" fill="#ff5808" stroke="none" /><path d="M 119.9155931802556 106.66101706037122 l 14.816216168629468 4.955467194782406 a36.6229612005574,36.6229612005574 0 0,0 -0.2051045731045645,0.5961298967643793 l -14.728720764581674 -5.2097697946360855" fill="#ffc512" stroke="none" /><path d="M 119.67450827220406 107.3425965602758 l 6.938046046275353 2.589303495141914 a28.40546929844363,28.40546929844363 0 0,0 -0.17490427005332285,0.45661985753329715 l -6.892447496628524 -2.7083469195083545" fill="#ff5808" stroke="none" /><path d="M 119.41010516605496 108.01547362559984 l 14.410190778528955 5.9507407681210776 a36.59053924541993,36.59053924541993 0 0,0 -0.24541626430293859,0.580091554019633 l -14.305623533033707 -6.197906847806873" fill="#ffc512" stroke="none" /><path d="M 118.81262510543309 109.33194174019688 l 9.939283557103904 4.9303494102693515 a32.09494042056375,32.09494042056375 0 0,0 -0.24976180269804618,0.4928037316316066 l -9.85294308461959 -5.100707353603652" fill="#ff8a0c" stroke="none" /><line stroke="#e1ed5e" stroke-width="0.3" x1="174.80103733775053" x2="179.2010983576182" y1="140.37084112569926" y2="142.7455964860345" /><path d="M 175.68104954172406 140.8457921977663 a86.0,86.0 0 0,1 -30.038265399797805,32.042727171017184" fill="none" id="id41" stroke="none" /><text fill="#e1ed5e" style="font-size:6.75px; font-family:Arial;" text-anchor="middle"><textPath startOffset="22.206326154141568" xlink:href="#id41">May</textPath></text><path d="M 117.94076556474637 110.91462005526583 l 26.894270967674693 16.36166239485029 a52.48024471324465,52.48024471324465 0 0,0 -0.4761591588929312,0.7677201765122365 l -26.608647169113798 -16.822178902727796" fill="#7eff26" stroke="none" /><path d="M 117.55443506779139 111.5257021239791 l 3.738890773620142 2.454840680683969 a25.4727560837366,25.4727560837366 0 0,0 -0.24380689854577234,0.3644582331715383 l -3.6960807696636486 -2.518835828061314" fill="#ff2f04" stroke="none" /><path d="M 117.14729908036423 112.12312394758627 l 3.6726325336264325 2.596547666802887 a25.49780941270646,25.49780941270646 0 0,0 -0.25645964752948414,0.35620001982380495 l -3.6273930937213454 -2.659381292077823" fill="#ff2f04" stroke="none" /><path d="M 116.93607887273984 112.41649034213515 l 3.6571063399018953 2.681165214850414 a25.53465254354449,25.53465254354449 0 0,0 -0.2629324248284289,0.3522409508604547 l -3.6104126483783743 -2.7437190452201836" fill="#ff2f04" stroke="none" /><path d="M 116.498646956653 112.99209946851258 l 5.802475148894191 4.569243435299187 a28.385574007791092,28.385574007791092 0 0,0 -0.3055938018668037,0.38127525502393056 l -5.722963434972534 -4.668446523901368" fill="#ff5708" stroke="none" /><path d="M 116.0416608686014 113.55231037782055 l 2.848177668400233 2.406196471145231 a24.728524840808433,24.728524840808433 0 0,0 -0.27749819552388444,0.3227930934675534 l -2.80633696330557 -2.4548666637743124" fill="#ff2403" stroke="none" /><path d="M 115.80600337817218 113.82643327865902 l 2.8224207127000107 2.468936057697131 a24.74989385669449,24.74989385669449 0 0,0 -0.2832579981237847,0.31824336368949324 l -2.7795038649278876 -2.517153591127491" fill="#ff2403" stroke="none" /><path d="M 115.56566222782051 114.09645910891815 l 5.490735381041473 4.972478886147507 a28.407679886293913,28.407679886293913 0 0,0 -0.331360153745494,0.3596260024655522 l -5.4043288193002565 -5.066256143414394" fill="#ff5808" stroke="none" /><path d="M 114.55890576462653 115.13401014063108 l 3.155539098331559 3.280188874450944 a25.55160038372998,25.55160038372998 0 0,0 -0.31959475213199784,0.3021967862394357 l -3.0986085118087536 -3.334020297436301" fill="#ff3004" stroke="none" /><path d="M 114.0293411484842 115.62618273729858 l 2.9792258298170076 3.3183259812190435 a25.45949255663491,25.45949255663491 0 0,0 -0.328618578504462,0.2899676877032255 l -2.921664898405958 -3.3691168106945577" fill="#ff2e04" stroke="none" /><path d="M 113.75828350139079 115.86535959552629 l 2.9250442200002795 3.3730136741570256 a25.464650594952232,25.464650594952232 0 0,0 -0.33362878597972345,0.2843256893338583 l -2.866549957443509 -3.422863753713831" fill="#ff2e04" stroke="none" /><path d="M 113.48314897796784 116.09983520530334 l 3.811342871293104 4.551013434546729 a26.936165240623072,26.936165240623072 0 0,0 -0.3580327781482894,0.294636601668606 l -3.7324399646001236 -4.615945155072513" fill="#ff4306" stroke="none" /><path d="M 113.20401910651253 116.32954008644616 l 2.812302704210867 3.478002369822511 a25.4727560837366,25.4727560837366 0 0,0 -0.3433272737781026,0.27275995047866497 l -2.752017937715413 -3.525896234306302" fill="#ff2f04" stroke="none" /><path d="M 112.63410532772338 116.77436683061366 l 2.7166299172405792 3.60688355785812 a25.515494115508712,25.515494115508712 0 0,0 -0.35310409891254824,0.26121797084873044 l -2.6541408479094666 -3.6531114774466196" fill="#ff2f04" stroke="none" /><path d="M 112.04921762599082 117.19931262002967 l 2.149893937217082 3.0688048862477415 a24.746946406227448,24.746946406227448 0 0,0 -0.35098607684292027,0.24141142411447977 l -2.096750975751279 -3.1053570997273154" fill="#ff2403" stroke="none" /><line stroke="#e1ed5e" stroke-width="0.3" x1="143.8653032363475" x2="146.44561519142675" y1="172.8068346515853" y2="177.08958963109032" /><path d="M 144.38136562736335 173.6633856474863 a86.0,86.0 0 0,1 -40.68145358897372,12.25698825130547" fill="none" id="id42" stroke="none" /><text fill="#e1ed5e" style="font-size:6.75px; font-family:Arial;" text-anchor="middle"><textPath startOffset="21.466115282336833" xlink:href="#id42">June</textPath></text><path d="M 110.5260780823613 118.17145234162733 l 3.714146938694614 6.411831981313785 a28.40989047414419,28.40989047414419 0 0,0 -0.42527067153242415,0.24147978617886096 l -3.603227500240991 -6.474814933287274" fill="#ff5808" stroke="none" /><path d="M 109.89434966115114 118.52300852407294 l 2.0959246200433204 3.923737378648489 a25.4484396173835,25.4484396173835 0 0,0 -0.3881603202834801,0.2030671339826306 l -2.028073397233345 -3.9592339315758363" fill="#ff2e04" stroke="none" /><path d="M 109.57404056367764 118.69057910512821 l 7.1394096137159275 13.937657696513119 a36.65980433139542,36.65980433139542 0 0,0 -0.5641177388002401,0.28286034512659614 l -6.898437967232927 -14.058485882549016" fill="#ffc612" stroke="none" /><path d="M 107.93186726928326 119.44442032107085 l 1.1324795211391936 2.7761946924290024 a23.998293987598718,23.998293987598718 0 0,0 -0.3838343410183623,0.15273560572921108 l -1.084524104078965 -2.795277142564282" fill="#ff1902" stroke="none" /><path d="M 107.59598834532513 119.57807347666477 l 2.9593195201741844 7.627417575298905 a29.1813856338925,29.1813856338925 0 0,0 -0.46986168963320757,0.17766148655268468 l -2.827587609780702 -7.67722731195822" fill="#ff6209" stroke="none" /><path d="M 106.57524785965236 119.94407469862006 l 1.8805732359810634 5.704164146386255 a27.006167189215326,27.006167189215326 0 0,0 -0.4427450911501063,0.14175299675710662 l -1.7821067997400168 -5.735689989803069" fill="#ff4406" stroke="none" /><path d="M 105.53697534728816 120.25689768951611 l 1.3689338357135212 5.008213133429814 a26.191933997694907,26.191933997694907 0 0,0 -0.43592053587832535,0.11513057554556202 l -1.2825228570236986 -5.0310350582789605" fill="#ff3905" stroke="none" /><path d="M 105.18746579009965 120.34920634021253 l 0.3107105473941884 1.218844286755915 a22.257824486810275,22.257824486810275 0 0,0 -0.37207315118366047,0.0914465280661506 l -0.2896841114673168 -1.2240120731360957" fill="#ff0000" stroke="none" /><path d="M 104.83641907484287 120.43548508189849 l 1.3598352578720632 5.7457579039481805 a26.90448014810237,26.90448014810237 0 0,0 -0.4515851020602777,0.10277929899405319 l -1.2607300064189235 -5.7683139365199185" fill="#ff4306" stroke="none" /><path d="M 103.06178313531738 120.77559828337769 l 1.0144883086273675 6.883766952697884 a27.958120003808293,27.958120003808293 0 0,0 -0.47671444845387106,0.06606827872375935 l -0.8958452689866659 -6.900209796914246" fill="#ff5207" stroke="none" /><path d="M 102.70371172650421 120.8252237178851 l 1.2990254466331095 10.00568783874674 a31.089660858395824,31.089660858395824 0 0,0 -0.531296509938626,0.06433260831951157 l -1.1266015136431033 -10.026565975791604" fill="#ff7d0b" stroke="none" /><path d="M 101.98527174616119 120.90594882070398 l 1.249254133979763 13.155298784428116 a34.2144815259185,34.2144815259185 0 0,0 -0.5867876160517427,0.05063050458646546 l -1.0226222001864784 -13.174853541293244" fill="#ffa60f" stroke="none" /><line stroke="#e1ed5e" stroke-width="0.3" x1="102.19456741930631" x2="102.32365962044197" y1="184.97166512339345" y2="189.96999836594603" /><path d="M 102.22038585953345 185.97133177190398 a86.0,86.0 0 0,1 -42.740103519485714,-10.115201625700543" fill="none" id="id43" stroke="none" /><text fill="#e1ed5e" style="font-size:6.75px; font-family:Arial;" text-anchor="middle"><textPath startOffset="22.20632615414155" xlink:href="#id43">July</textPath></text><path d="M 100.18074693466247 120.99922214144158 l 0.078791240732091 9.153985211548902 a30.15432429581081,30.15432429581081 0 0,0 -0.5190763507890865,0.0 l 0.07879124073208468 -9.153985211548902" fill="#ff700a" stroke="none" /><path d="M 96.93821686468263 120.77559828337769 l -1.2910287390907018 8.760220195302594 a29.854841222480815,29.854841222480815 0 0,0 -0.507765646777724,-0.07930255129873247 l 1.4416302494769428 -8.736699336656756" fill="#ff6c09" stroke="none" /><path d="M 94.81253420990036 120.34920634021253 l -3.6441177801285516 14.29501564663789 a35.75218854045294,35.75218854045294 0 0,0 -0.5950348373949454,-0.1571541087434839 l 3.8896430603349863 -14.230170188590822" fill="#ffba11" stroke="none" /><path d="M 92.06813273071674 119.44442032107085 l -2.7937704799178293 6.848733803513441 a28.39664168429484,28.39664168429484 0 0,0 -0.4510043074350658,-0.18851983708539052 l 2.9112462468503573 -6.799628923408077" fill="#ff5808" stroke="none" /><path d="M 90.10565033884886 118.52300852407294 l -3.1311870919663916 5.861830962239598 a27.64570499155415,27.64570499155415 0 0,0 -0.4178150530537402,-0.2278260803561976 l 3.2316249568887723 -5.807064230123634" fill="#ff4d07" stroke="none" /><line stroke="#e1ed5e" stroke-width="0.3" x1="58.666819895761336" x2="56.23545636021788" y1="174.27360380694188" y2="178.64263932499728" /><path d="M 58.180547188652646 175.14741091055294 a86.0,86.0 0 0,1 -31.652253787137756,-30.449443065178592" fill="none" id="id44" stroke="none" /><text fill="#e1ed5e" style="font-size:6.75px; font-family:Arial;" text-anchor="middle"><textPath startOffset="22.20632615414155" xlink:href="#id44">August</textPath></text><path d="M 86.79598089348748 116.32954008644616 l -4.641800592221676 5.740560372757099 a28.382434973043694,28.382434973043694 0 0,0 -0.3772564488387817,-0.31045637390603803 l 4.739927169605147 -5.659808879993881" fill="#ff5708" stroke="none" /><path d="M 85.97065885151581 115.62618273729859 l -7.885477149450345 8.783014512510931 a32.80347803833604,32.80347803833604 0 0,0 -0.41691728892790614,-0.3808440584221297 l 8.035493987845106 -8.645977687502226" fill="#ff940d" stroke="none" /><path d="M 84.67929136418377 114.36230785411682 l -8.044891514098733 7.5416360512427625 a32.02708274218627,32.02708274218627 0 0,0 -0.3735785218626917,-0.40544570282779746 l 8.173516443957155 -7.402039093613621" fill="#ff890c" stroke="none" /><path d="M 83.06392112726016 112.41649034213515 l -9.546818456616302 6.9991395325568275 a32.83763898924906,32.83763898924906 0 0,0 -0.3302844250097159,-0.4587361788463394 l 9.665882674001626 -6.83376974825935" fill="#ff940d" stroke="none" /><path d="M 82.85270091963577 112.12312394758628 l -14.452338495021444 10.21778940732723 a38.699528478102664,38.699528478102664 0 0,0 -0.37988027112996425,-0.547245863372149 l 14.626079673313543 -9.967502281768068" fill="#ffe015" stroke="none" /><line stroke="#e1ed5e" stroke-width="0.3" x1="26.63291911575756" x2="22.317208475507996" y1="142.92168965132927" y2="145.44649492493687" /><path d="M 25.769776987707644 143.4266507060508 a86.0,86.0 0 0,1 -11.730757126820373,-40.83630448921669" fill="none" id="id45" stroke="none" /><text fill="#e1ed5e" style="font-size:6.75px; font-family:Arial;" text-anchor="middle"><textPath startOffset="21.46611528233685" xlink:href="#id45">September</textPath></text><line stroke="#e1ed5e" stroke-width="0.3" x1="15.007084014347285" x2="10.007500721073583" y1="101.09737516637583" y2="101.16192664675087" /><path d="M 14.007167355692545 101.11028546245083 a86.0,86.0 0 0,1 10.666146001902534,-42.60595125391555" fill="none" id="id46" stroke="none" /><text fill="#e1ed5e" style="font-size:6.75px; font-family:Arial;" text-anchor="middle"><textPath startOffset="22.20632615414155" xlink:href="#id46">October</textPath></text><path d="M 79.3925641242962 95.95851677861259 l -14.476765147678858 -2.839150091122724 a35.75254223450899,35.75254223450899 0 0,0 0.12363689475709218,-0.602897407585035 l 14.425748957006771 3.0879231548711616" fill="#ffba11" stroke="none" /><path d="M 79.54389044137918 95.25157060432595 l -5.754004423520457 -1.3356637374856313 a26.906992849625524,26.906992849625524 0 0,0 0.10861097320309693,-0.4502626028092105 l 5.730160650056545 1.4345115719542385" fill="#ff4306" stroke="none" /><path d="M 80.14247586403 93.16781622104843 l -5.720519699483343 -1.968203167241113 a27.049642083604198,27.049642083604198 0 0,0 0.15527385801789573,-0.43898010601918763 l 5.685792760655637 2.0663808996869117" fill="#ff4506" stroke="none" /><path d="M 80.38941819471856 92.48833698450439 l -13.286084868166034 -5.08911940073399 a35.22740972204841,35.22740972204841 0 0,0 0.2217757517245344,-0.5643950979013259 l 13.196515566559807 5.317063503531079" fill="#ffb310" stroke="none" /><path d="M 80.52162464483688 92.15188598940014 l -11.114889079133846 -4.478346634032359 a32.983169356059264,32.983169356059264 0 0,0 0.21671247947123082,-0.5247864585192611 l 11.036154912776416 4.6690076630049315" fill="#ff960d" stroke="none" /><path d="M 81.26839172434947 90.50648371742162 l -13.150960674634048 -6.665143614949445 a35.74353777333217,35.74353777333217 0 0,0 0.2828685144482357,-0.546411934674176 l 13.034282727025698 6.890528271883956" fill="#ffba11" stroke="none" /><line stroke="#e1ed5e" stroke-width="0.3" x1="26.266209847984243" x2="21.928928074336255" y1="57.711370442889674" y2="55.22380399835377" /><path d="M 25.398753493254645 57.213857153982495 a86.0,86.0 0 0,1 29.58750427330803,-30.492523968695096" fill="none" id="id47" stroke="none" /><text fill="#e1ed5e" style="font-size:6.75px; font-family:Arial;" text-anchor="middle"><textPath startOffset="21.46611528233685" xlink:href="#id47">November</textPath></text><path d="M 81.78341655067845 89.55222093294921 l -15.347668673495708 -8.802366916994615 a38.69272723614996,38.69272723614996 0 0,0 0.33633252501513033,-0.5749013090406708 l 15.193876474010253 9.065247638389176" fill="#ffe014" stroke="none" /><path d="M 81.96595687620814 89.24020034530311 l -26.802599276970334 -15.991455519192924 a52.21067089352897,52.21067089352897 0 0,0 0.4671219153224638,-0.767825607352435 l 26.523361563361654 16.450448899752434" fill="#81ff25" stroke="none" /><path d="M 82.54541684631803 88.32363383020206 l -15.939987418779102 -10.663166699823229 a40.177755942212194,40.177755942212194 0 0,0 0.38948610162699,-0.5715227940769726 l 15.754076851483372 10.935967517170617" fill="#fff216" stroke="none" /><path d="M 82.7489923806493 88.02491185347247 l -14.640683985995574 -10.163086419432569 a38.82240031944749,38.82240031944749 0 0,0 0.3857973816947894,-0.5456830365624618 l 14.463573984496907 10.413595956326816" fill="#ffe115" stroke="none" /><path d="M 83.84228863543731 86.58626213691792 l -23.97890390661208 -19.90670114040836 a52.16511804656083,52.16511804656083 0 0,0 0.5795032564978058,-0.6859490709570699 l 23.63269003662715 20.316509160994546" fill="#82ff25" stroke="none" /><path d="M 86.10567301691215 84.25364557470407 l -9.759724950375096 -11.060635635613679 a35.750928505378276,35.750928505378276 0 0,0 0.46494287042641164,-0.40319387561065684 l 9.567888281301911 11.226994504644015" fill="#ffba11" stroke="none" /><path d="M 86.37877921826538 84.01681056812374 l -9.689488543085421 -11.369680688958551 a35.9384010923345,35.9384010923345 0 0,0 0.47428842840385627,-0.39720291898322796 l 9.492342577722454 11.53478476533559" fill="#ffbd11" stroke="none" /><path d="M 87.22198572758235 83.33499621200491 l -18.945193389509274 -24.70819901038784 a52.135437220357716,52.135437220357716 0 0,0 0.7168718106126802,-0.5399329854422293 l 18.517075425138206 25.030648585335925" fill="#82ff25" stroke="none" /><path d="M 88.70189139769569 82.29822771554957 l -16.754919243182112 -26.251452834032296 a52.142673211254305,52.142673211254305 0 0,0 0.7607388769543463,-0.47637461495849504 l 16.300561213855524 26.53597179031372" fill="#82ff25" stroke="none" /><line stroke="#e1ed5e" stroke-width="0.3" x1="56.762969772571076" x2="54.21961505331055" y1="26.818313649435495" y2="22.513508569990535" /><path d="M 56.25429882871897 25.957352633546506 a86.0,86.0 0 0,1 42.265352541879196,-11.944610805530505" fill="none" id="id48" stroke="none" /><text fill="#e1ed5e" style="font-size:6.75px; font-family:Arial;" text-anchor="middle"><textPath startOffset="22.20632615414155" xlink:href="#id48">December</textPath></text><path d="M 91.56875222667455 80.76684994638697 l -25.293743319976343 -57.69945016083907 a84.0,84.0 0 0,0 1.329264968838767,-0.5691218881488553 l 24.29679459334727 58.12629157695071" fill="#4dd2ff" stroke="none" /><path d="M 95.33964822691252 79.52364482259891 l -3.271046429427976 -14.372114327833929 a35.73965450734185,35.73965450734185 0 0,0 0.6010342393098659,-0.13136280527066446 l 3.023169465964589 14.426290631200462" fill="#ffba11" stroke="none" /></svg>