<?xml version="1.0" encoding="utf-8" ?>
<svg baseProfile="full" height="200mm" version="1.1" viewBox="0,0,200,200" width="200mm" xmlns="http://www.w3.org/2000/svg" xmlns:ev="http://www.w3.org/2001/xml-events" xmlns:xlink="http://www.w3.org/1999/xlink"><defs /><rect fill="#1a1a1a" height="200" width="200" x="0" y="0" /><rect fill="#1a1a1a" height="200" width="180" x="10" y="0" /><text alignment-baseline="middle" fill="#e1ed5e" style="dominant-baseline: central; font-size:9.0px; font-family:Arial;" text-anchor="middle" x="100.0" y="100.0">2025</text><line stroke="#e1ed5e" stroke-width="0.3" x1="100.0" x2="100.0" y1="15.0" y2="10.0" /><path d="M 100.0 14.0 a86.0,86.0 0 0,1 42.46469731375804,11.215312516191453" fill="none" id="id109" stroke="none" /><text fill="#e1ed5e" style="font-size:6.75px; font-family:Arial;" text-anchor="middle"><textPath startOffset="22.20632615414155" xlink:href="#id109">January</textPath></text><line stroke="#e1ed5e" stroke-width="0.3" x1="143.23703022742887" x2="145.7803849466894" y1="26.81831364943548" y2="22.513508569990506" /><path d="M 143.74570117128098 25.957352633546492 a86.0,86.0 0 0,1 28.547481713284135,27.462654790039103" fill="none" id="id110" stroke="none" /><text fill="#e1ed5e" style="font-size:6.75px; font-family:Arial;" text-anchor="middle"><textPath startOffset="19.985693538727396" xlink:href="#id110">February</textPath></text><line stroke="#e1ed5e" stroke-width="0.3" x1="172.23445277983987" x2="176.4835382374775" y1="55.19839476539836" y2="52.563006222186495" /><path d="M 173.08426987136738 54.67131705675599 a86.0,86.0 0 0,1 12.851231095245387,41.99856678651699" fill="none" id="id111" stroke="none" /><text fill="#e1ed5e" style="font-size:6.75px; font-family:Arial;" text-anchor="middle"><textPath startOffset="22.20632615414155" xlink:href="#id111">March</textPath></text><line stroke="#e1ed5e" stroke-width="0.3" x1="184.98032266829074" x2="189.97916517819016" y1="98.17113171792111" y2="98.06355123074" /><path d="M 185.9800911702706 98.14961562048488 a86.0,86.0 0 0,1 -9.607161424134198,41.387399972396054" fill="none" id="id112" stroke="none" /><text fill="#e1ed5e" style="font-size:6.75px; font-family:Arial;" text-anchor="middle"><textPath startOffset="21.466115282336823" xlink:href="#id112">April</textPath></text><line stroke="#e1ed5e" stroke-width="0.3" x1="174.80103733775053" x2="179.2010983576182" y1="140.37084112569926" y2="142.7455964860345" /><path d="M 175.68104954172406 140.8457921977663 a86.0,86.0 0 0,1 -30.038265399797805,32.042727171017184" fill="none" id="id113" stroke="none" /><text fill="#e1ed5e" style="font-size:6.75px; font-family:Arial;" text-anchor="middle"><textPath startOffset="22.206326154141568" xlink:href="#id113">May</textPath></text><line stroke="#e1ed5e" stroke-width="0.3" x1="143.8653032363475" x2="146.44561519142675" y1="172.8068346515853" y2="177.08958963109032" /><path d="M 144.38136562736335 173.6633856474863 a86.0,86.0 0 0,1 -40.68145358897372,12.25698825130547" fill="none" id="id114" stroke="none" /><text fill="#e1ed5e" style="font-size:6.75px; font-family:Arial;" text-anchor="middle"><textPath startOffset="21.466115282336833" xlink:href="#id114">June</textPath></text><line stroke="#e1ed5e" stroke-width="0.3" x1="102.19456741930631" x2="102.32365962044197" y1="184.97166512339345" y2="189.96999836594603" /><path d="M 102.22038585953345 185.97133177190398 a86.0,86.0 0 0,1 -42.740103519485714,-10.115201625700543" fill="none" id="id115" stroke="none" /><text fill="#e1ed5e" style="font-size:6.75px; font-family:Arial;" text-anchor="middle"><textPath startOffset="22.20632615414155" xlink:href="#id115">July</textPath></text><line stroke="#e1ed5e" stroke-width="0.3" x1="58.666819895761336" x2="56.23545636021788" y1="174.27360380694188" y2="178.64263932499728" /><path d="M 58.180547188652646 175.14741091055294 a86.0,86.0 0 0,1 -31.652253787137756,-30.449443065178592" fill="none" id="id116" stroke="none" /><text fill="#e1ed5e" style="font-size:6.75px; font-family:Arial;" text-anchor="middle"><textPath startOffset="22.20632615414155" xlink:href="#id116">August</textPath></text><path d="M 88.24862548938628 117.40417183066458 l -7.301565501243337 10.813858455597376 a34.04808006821853,34.04808006821853 0 0,0 -0.48290410667273725,-0.332145847924242 l 7.486626492538964 -10.686571818308034" fill="#ff0000" stroke="none" /><path d="M 86.51685102203217 116.09983520530335 l -11.87305488609129 14.177268779121803 a39.49227899323385,39.49227899323385 0 0,0 -0.5174137790328246,-0.44095124754399195 l 12.115334141701172 -13.970793141354859" fill="#ff6008" stroke="none" /><path d="M 84.9287848128048 114.62390073753433 l -18.696320955743694 18.141413178558818 a47.05116675689149,47.05116675689149 0 0,0 -0.5589979931343148,-0.5861071609568029 l 19.005825500256964 -17.816898901019513" fill="#ffdb14" stroke="none" /><path d="M 84.19399662182784 113.82643327865904 l -13.884659939431604 12.145722081429884 a39.44728561368827,39.44728561368827 0 0,0 -0.44266896818888096,-0.5149240172679934 l 14.091671417191263 -11.90492096500036" fill="#ff5f08" stroke="none" /><path d="M 83.50135304334701 112.99209946851258 l -21.227099792752185 16.715588415222776 a48.01852441712148,48.01852441712148 0 0,0 -0.5057795356340474,-0.65378822957453 l 21.5116861456043 -16.347722191534995" fill="#ffea16" stroke="none" /><path d="M 83.06392112726016 112.41649034213515 l -14.857408469418056 10.89253717793075 a39.4225392549382,39.4225392549382 0 0,0 -0.3965160441194672,-0.5507261050086759 l 15.04270430591313 -10.635177467470937" fill="#ff5f08" stroke="none" /><path d="M 82.85270091963577 112.12312394758628 l -15.08128005269835 10.662450483323529 a39.46978230346106,39.46978230346106 0 0,0 -0.38744119612112027,-0.558137939742342 l 15.262582155981605 -10.401271281394175" fill="#ff5f08" stroke="none" /><path d="M 82.6465618267979 111.8261652097733 l -27.885351076702083 19.003540709002756 a54.74503465918586,54.74503465918586 0 0,0 -0.523980093365633,-0.7832791450289653 l 28.208334275478446 -18.52072464976797" fill="#b1ff20" stroke="none" /><path d="M 82.05923443525364 110.91462005526583 l -35.55592851492649 21.631153311271824 a62.61887607966256,62.61887607966256 0 0,0 -0.5522958758207636,-0.9256796558750252 l 35.923005266445486 -21.015911561510688" fill="#49ff2c" stroke="none" /><line stroke="#e1ed5e" stroke-width="0.3" x1="26.63291911575756" x2="22.317208475507996" y1="142.92168965132927" y2="145.44649492493687" /><path d="M 25.769776987707644 143.4266507060508 a86.0,86.0 0 0,1 -11.730757126820373,-40.83630448921669" fill="none" id="id117" stroke="none" /><text fill="#e1ed5e" style="font-size:6.75px; font-family:Arial;" text-anchor="middle"><textPath startOffset="21.46611528233685" xlink:href="#id117">September</textPath></text><path d="M 80.73074385275274 108.34839909993369 l -15.626443791270189 6.770151804787798 a38.02999415800247,38.02999415800247 0 0,0 -0.25507082678175996,-0.6029120878079134 l 15.740665599244256 -6.500165191313727" fill="#ff4706" stroke="none" /><path d="M 80.45479744820244 107.68017299344265 l -24.330197162262667 9.560408630994687 a47.14115351598265,47.14115351598265 0 0,0 -0.29026765791319614,-0.7577972599664745 l 24.491159099769373 -9.140187804195055" fill="#ffdc14" stroke="none" /><path d="M 80.32549172779594 107.34259656027581 l -31.616379182753136 11.799345316479032 a54.746406957262,54.746406957262 0 0,0 -0.3218977645884119,-0.8857243985585429 l 31.814801208346772 -11.253373120914372" fill="#b1ff20" stroke="none" /><path d="M 79.97269907076064 106.31721596034903 l -19.73185588187178 6.224023663731982 a41.690205584035496,41.690205584035496 0 0,0 -0.20998607616697051,-0.6862466466267177 l 19.83606873054488 -5.883450044553217" fill="#ff850c" stroke="none" /><path d="M 79.86692584326677 105.97154293290107 l -19.82446515875295 5.880008383007092 a41.67810236493773,41.67810236493773 0 0,0 -0.19808483317311737,-0.689559290564373 l 19.922742628812173 -5.537891616938123" fill="#ff850c" stroke="none" /><path d="M 79.76711848015287 105.62410040840567 l -19.968866811833347 5.550712679341533 a41.725975320774225,41.725975320774225 0 0,0 -0.18639971482654555,-0.693662681265523 l 20.061454603001668 -5.206159064900471" fill="#ff850c" stroke="none" /><path d="M 79.58551787078972 104.9243191809786 l -33.27103107504519 8.02553674674666 a55.2252939924554,55.2252939924554 0 0,0 -0.2149563941553341,-0.9260265200896685 l 33.404248035131076 -7.451641569308418" fill="#abff21" stroke="none" /><path d="M 79.35854240842038 103.8639653848113 l -46.555500994129005 8.714929336542848 a68.3641707005969,68.3641707005969 0 0,0 -0.20656904035637483,-1.1585488797150598 l 46.69861647682457 -7.912261706094574" fill="#35ff64" stroke="none" /><path d="M 79.23777060512086 103.15116336523772 l -41.14693836748213 6.245029004798687 a62.61815618558984,62.61815618558984 0 0,0 -0.1525674945155488,-1.0670567012977052 l 41.24833991301428 -5.535826831520581" fill="#49ff2c" stroke="none" /><path d="M 79.0235259727143 100.99374915477108 l -41.62463213780989 1.9719445198845034 a62.67131586352294,62.67131586352294 0 0,0 -0.04177451207133438,-1.0780145356893873 l 41.65240878273243 -1.2551527371811193" fill="#49ff2c" stroke="none" /><line stroke="#e1ed5e" stroke-width="0.3" x1="15.007084014347285" x2="10.007500721073583" y1="101.09737516637583" y2="101.16192664675087" /><path d="M 14.007167355692545 101.11028546245083 a86.0,86.0 0 0,1 10.666146001902534,-42.60595125391555" fill="none" id="id118" stroke="none" /><text fill="#e1ed5e" style="font-size:6.75px; font-family:Arial;" text-anchor="middle"><textPath startOffset="22.20632615414155" xlink:href="#id118">October</textPath></text><path d="M 79.08570108090925 98.10471618934814 l -53.99150554798448 -4.8927877895255545 a75.21274798136845,75.21274798136845 0 0,0 0.1279435972967921,-1.2883745643742475 l 53.89928482500546 5.821437884604232" fill="#3fffc2" stroke="none" /><path d="M 79.32604984820605 96.31383870115002 l -62.021850455381816 -11.05848389654995 a84.0,84.0 0 0,0 0.2660571043605535,-1.4212876901497093 l 61.8223076271114 12.124449664162231" fill="#4dd2ff" stroke="none" /><path d="M 79.46518482838121 95.60439243477599 l -20.262526918401868 -4.337322535835667 a41.72154347288899,41.72154347288899 0 0,0 0.15636760258356502,-0.7009653017764592 l 20.184864928816264 4.685466007162085" fill="#ff850c" stroke="none" /><path d="M 80.02781315780177 93.51064311812611 l -19.679566032783264 -6.394278617367355 a41.69232027287414,41.69232027287414 0 0,0 0.2276454414962736,-0.6806308948151526 l 19.56658329751522 6.73208261510483" fill="#ff850c" stroke="none" /><path d="M 80.38941819471856 92.48833698450439 l -31.5249325840359 -12.075351588687692 a54.75848767966999,54.75848767966999 0 0,0 0.34473453666553916,-0.8773117938203833 l 31.312404497488668 12.616212387403838" fill="#b1ff20" stroke="none" /><line stroke="#e1ed5e" stroke-width="0.3" x1="26.266209847984243" x2="21.928928074336255" y1="57.711370442889674" y2="55.22380399835377" /><path d="M 25.398753493254645 57.213857153982495 a86.0,86.0 0 0,1 29.58750427330803,-30.492523968695096" fill="none" id="id119" stroke="none" /><text fill="#e1ed5e" style="font-size:6.75px; font-family:Arial;" text-anchor="middle"><textPath startOffset="21.46611528233685" xlink:href="#id119">November</textPath></text><line stroke="#e1ed5e" stroke-width="0.3" x1="56.762969772571076" x2="54.21961505331055" y1="26.818313649435495" y2="22.513508569990535" /><path d="M 56.25429882871897 25.957352633546506 a86.0,86.0 0 0,1 42.265352541879196,-11.944610805530505" fill="none" id="id120" stroke="none" /><text fill="#e1ed5e" style="font-size:6.75px; font-family:Arial;" text-anchor="middle"><textPath startOffset="22.20632615414155" xlink:href="#id120">December</textPath></text></svg>